<?xml version="1.0" encoding="utf-8" standalone="no"?>
<!DOCTYPE svg PUBLIC "-//W3C//DTD SVG 1.1//EN"
  "http://www.w3.org/Graphics/SVG/1.1/DTD/svg11.dtd">
<svg xmlns:xlink="http://www.w3.org/1999/xlink" width="492.955625pt" height="496.468437pt" viewBox="0 0 492.955625 496.468437" xmlns="http://www.w3.org/2000/svg" version="1.1">
 <metadata>
  <rdf:RDF xmlns:dc="http://purl.org/dc/elements/1.1/" xmlns:cc="http://creativecommons.org/ns#" xmlns:rdf="http://www.w3.org/1999/02/22-rdf-syntax-ns#">
   <cc:Work>
    <dc:type rdf:resource="http://purl.org/dc/dcmitype/StillImage"/>
    <dc:date>2026-04-27T16:28:44.435718</dc:date>
    <dc:format>image/svg+xml</dc:format>
    <dc:creator>
     <cc:Agent>
      <dc:title>Matplotlib v3.8.4, https://matplotlib.org/</dc:title>
     </cc:Agent>
    </dc:creator>
   </cc:Work>
  </rdf:RDF>
 </metadata>
 <defs>
  <style type="text/css">*{stroke-linejoin: round; stroke-linecap: butt}</style>
 </defs>
 <g id="figure_1">
  <g id="patch_1">
   <path d="M 0 496.468437 
L 492.955625 496.468437 
L 492.955625 0 
L 0 0 
z
" style="fill: #ffffff"/>
  </g>
  <g id="axes_1">
   <g id="patch_2">
    <path d="M 57.555625 459.88 
L 485.755625 459.88 
L 485.755625 31.68 
L 57.555625 31.68 
z
" style="fill: #ffffff"/>
   </g>
   <g id="matplotlib.axis_1">
    <g id="xtick_1">
     <g id="line2d_1">
      <path d="M 115.946534 459.88 
L 115.946534 31.68 
" clip-path="url(#p41441388a9)" style="fill: none; stroke: #b0b0b0; stroke-opacity: 0.3; stroke-width: 0.8; stroke-linecap: square"/>
     </g>
     <g id="line2d_2">
      <defs>
       <path id="m0a92dc0728" d="M 0 0 
L 0 3.5 
" style="stroke: #000000; stroke-width: 0.8"/>
      </defs>
      <g>
       <use xlink:href="#m0a92dc0728" x="115.946534" y="459.88" style="stroke: #000000; stroke-width: 0.8"/>
      </g>
     </g>
     <g id="text_1">
      <!-- −0.04 -->
      <g transform="translate(100.623878 474.478437) scale(0.1 -0.1)">
       <defs>
        <path id="DejaVuSans-2212" d="M 678 2272 
L 4684 2272 
L 4684 1741 
L 678 1741 
L 678 2272 
z
" transform="scale(0.015625)"/>
        <path id="DejaVuSans-30" d="M 2034 4250 
Q 1547 4250 1301 3770 
Q 1056 3291 1056 2328 
Q 1056 1369 1301 889 
Q 1547 409 2034 409 
Q 2525 409 2770 889 
Q 3016 1369 3016 2328 
Q 3016 3291 2770 3770 
Q 2525 4250 2034 4250 
z
M 2034 4750 
Q 2819 4750 3233 4129 
Q 3647 3509 3647 2328 
Q 3647 1150 3233 529 
Q 2819 -91 2034 -91 
Q 1250 -91 836 529 
Q 422 1150 422 2328 
Q 422 3509 836 4129 
Q 1250 4750 2034 4750 
z
" transform="scale(0.015625)"/>
        <path id="DejaVuSans-2e" d="M 684 794 
L 1344 794 
L 1344 0 
L 684 0 
L 684 794 
z
" transform="scale(0.015625)"/>
        <path id="DejaVuSans-34" d="M 2419 4116 
L 825 1625 
L 2419 1625 
L 2419 4116 
z
M 2253 4666 
L 3047 4666 
L 3047 1625 
L 3713 1625 
L 3713 1100 
L 3047 1100 
L 3047 0 
L 2419 0 
L 2419 1100 
L 313 1100 
L 313 1709 
L 2253 4666 
z
" transform="scale(0.015625)"/>
       </defs>
       <use xlink:href="#DejaVuSans-2212"/>
       <use xlink:href="#DejaVuSans-30" x="83.789062"/>
       <use xlink:href="#DejaVuSans-2e" x="147.412109"/>
       <use xlink:href="#DejaVuSans-30" x="179.199219"/>
       <use xlink:href="#DejaVuSans-34" x="242.822266"/>
      </g>
     </g>
    </g>
    <g id="xtick_2">
     <g id="line2d_3">
      <path d="M 193.80108 459.88 
L 193.80108 31.68 
" clip-path="url(#p41441388a9)" style="fill: none; stroke: #b0b0b0; stroke-opacity: 0.3; stroke-width: 0.8; stroke-linecap: square"/>
     </g>
     <g id="line2d_4">
      <g>
       <use xlink:href="#m0a92dc0728" x="193.80108" y="459.88" style="stroke: #000000; stroke-width: 0.8"/>
      </g>
     </g>
     <g id="text_2">
      <!-- −0.02 -->
      <g transform="translate(178.478423 474.478437) scale(0.1 -0.1)">
       <defs>
        <path id="DejaVuSans-32" d="M 1228 531 
L 3431 531 
L 3431 0 
L 469 0 
L 469 531 
Q 828 903 1448 1529 
Q 2069 2156 2228 2338 
Q 2531 2678 2651 2914 
Q 2772 3150 2772 3378 
Q 2772 3750 2511 3984 
Q 2250 4219 1831 4219 
Q 1534 4219 1204 4116 
Q 875 4013 500 3803 
L 500 4441 
Q 881 4594 1212 4672 
Q 1544 4750 1819 4750 
Q 2544 4750 2975 4387 
Q 3406 4025 3406 3419 
Q 3406 3131 3298 2873 
Q 3191 2616 2906 2266 
Q 2828 2175 2409 1742 
Q 1991 1309 1228 531 
z
" transform="scale(0.015625)"/>
       </defs>
       <use xlink:href="#DejaVuSans-2212"/>
       <use xlink:href="#DejaVuSans-30" x="83.789062"/>
       <use xlink:href="#DejaVuSans-2e" x="147.412109"/>
       <use xlink:href="#DejaVuSans-30" x="179.199219"/>
       <use xlink:href="#DejaVuSans-32" x="242.822266"/>
      </g>
     </g>
    </g>
    <g id="xtick_3">
     <g id="line2d_5">
      <path d="M 271.655625 459.88 
L 271.655625 31.68 
" clip-path="url(#p41441388a9)" style="fill: none; stroke: #b0b0b0; stroke-opacity: 0.3; stroke-width: 0.8; stroke-linecap: square"/>
     </g>
     <g id="line2d_6">
      <g>
       <use xlink:href="#m0a92dc0728" x="271.655625" y="459.88" style="stroke: #000000; stroke-width: 0.8"/>
      </g>
     </g>
     <g id="text_3">
      <!-- 0.00 -->
      <g transform="translate(260.522813 474.478437) scale(0.1 -0.1)">
       <use xlink:href="#DejaVuSans-30"/>
       <use xlink:href="#DejaVuSans-2e" x="63.623047"/>
       <use xlink:href="#DejaVuSans-30" x="95.410156"/>
       <use xlink:href="#DejaVuSans-30" x="159.033203"/>
      </g>
     </g>
    </g>
    <g id="xtick_4">
     <g id="line2d_7">
      <path d="M 349.51017 459.88 
L 349.51017 31.68 
" clip-path="url(#p41441388a9)" style="fill: none; stroke: #b0b0b0; stroke-opacity: 0.3; stroke-width: 0.8; stroke-linecap: square"/>
     </g>
     <g id="line2d_8">
      <g>
       <use xlink:href="#m0a92dc0728" x="349.51017" y="459.88" style="stroke: #000000; stroke-width: 0.8"/>
      </g>
     </g>
     <g id="text_4">
      <!-- 0.02 -->
      <g transform="translate(338.377358 474.478437) scale(0.1 -0.1)">
       <use xlink:href="#DejaVuSans-30"/>
       <use xlink:href="#DejaVuSans-2e" x="63.623047"/>
       <use xlink:href="#DejaVuSans-30" x="95.410156"/>
       <use xlink:href="#DejaVuSans-32" x="159.033203"/>
      </g>
     </g>
    </g>
    <g id="xtick_5">
     <g id="line2d_9">
      <path d="M 427.364716 459.88 
L 427.364716 31.68 
" clip-path="url(#p41441388a9)" style="fill: none; stroke: #b0b0b0; stroke-opacity: 0.3; stroke-width: 0.8; stroke-linecap: square"/>
     </g>
     <g id="line2d_10">
      <g>
       <use xlink:href="#m0a92dc0728" x="427.364716" y="459.88" style="stroke: #000000; stroke-width: 0.8"/>
      </g>
     </g>
     <g id="text_5">
      <!-- 0.04 -->
      <g transform="translate(416.231903 474.478437) scale(0.1 -0.1)">
       <use xlink:href="#DejaVuSans-30"/>
       <use xlink:href="#DejaVuSans-2e" x="63.623047"/>
       <use xlink:href="#DejaVuSans-30" x="95.410156"/>
       <use xlink:href="#DejaVuSans-34" x="159.033203"/>
      </g>
     </g>
    </g>
    <g id="text_6">
     <!-- X (m) -->
     <g transform="translate(259.248281 487.396719) scale(0.09 -0.09)">
      <defs>
       <path id="DejaVuSans-58" d="M 403 4666 
L 1081 4666 
L 2241 2931 
L 3406 4666 
L 4084 4666 
L 2584 2425 
L 4184 0 
L 3506 0 
L 2194 1984 
L 872 0 
L 191 0 
L 1856 2491 
L 403 4666 
z
" transform="scale(0.015625)"/>
       <path id="DejaVuSans-20" transform="scale(0.015625)"/>
       <path id="DejaVuSans-28" d="M 1984 4856 
Q 1566 4138 1362 3434 
Q 1159 2731 1159 2009 
Q 1159 1288 1364 580 
Q 1569 -128 1984 -844 
L 1484 -844 
Q 1016 -109 783 600 
Q 550 1309 550 2009 
Q 550 2706 781 3412 
Q 1013 4119 1484 4856 
L 1984 4856 
z
" transform="scale(0.015625)"/>
       <path id="DejaVuSans-6d" d="M 3328 2828 
Q 3544 3216 3844 3400 
Q 4144 3584 4550 3584 
Q 5097 3584 5394 3201 
Q 5691 2819 5691 2113 
L 5691 0 
L 5113 0 
L 5113 2094 
Q 5113 2597 4934 2840 
Q 4756 3084 4391 3084 
Q 3944 3084 3684 2787 
Q 3425 2491 3425 1978 
L 3425 0 
L 2847 0 
L 2847 2094 
Q 2847 2600 2669 2842 
Q 2491 3084 2119 3084 
Q 1678 3084 1418 2786 
Q 1159 2488 1159 1978 
L 1159 0 
L 581 0 
L 581 3500 
L 1159 3500 
L 1159 2956 
Q 1356 3278 1631 3431 
Q 1906 3584 2284 3584 
Q 2666 3584 2933 3390 
Q 3200 3197 3328 2828 
z
" transform="scale(0.015625)"/>
       <path id="DejaVuSans-29" d="M 513 4856 
L 1013 4856 
Q 1481 4119 1714 3412 
Q 1947 2706 1947 2009 
Q 1947 1309 1714 600 
Q 1481 -109 1013 -844 
L 513 -844 
Q 928 -128 1133 580 
Q 1338 1288 1338 2009 
Q 1338 2731 1133 3434 
Q 928 4138 513 4856 
z
" transform="scale(0.015625)"/>
      </defs>
      <use xlink:href="#DejaVuSans-58"/>
      <use xlink:href="#DejaVuSans-20" x="68.505859"/>
      <use xlink:href="#DejaVuSans-28" x="100.292969"/>
      <use xlink:href="#DejaVuSans-6d" x="139.306641"/>
      <use xlink:href="#DejaVuSans-29" x="236.71875"/>
     </g>
    </g>
   </g>
   <g id="matplotlib.axis_2">
    <g id="ytick_1">
     <g id="line2d_11">
      <path d="M 57.555625 401.489091 
L 485.755625 401.489091 
" clip-path="url(#p41441388a9)" style="fill: none; stroke: #b0b0b0; stroke-opacity: 0.3; stroke-width: 0.8; stroke-linecap: square"/>
     </g>
     <g id="line2d_12">
      <defs>
       <path id="ma663300dc9" d="M 0 0 
L -3.5 0 
" style="stroke: #000000; stroke-width: 0.8"/>
      </defs>
      <g>
       <use xlink:href="#ma663300dc9" x="57.555625" y="401.489091" style="stroke: #000000; stroke-width: 0.8"/>
      </g>
     </g>
     <g id="text_7">
      <!-- −0.04 -->
      <g transform="translate(19.910313 405.28831) scale(0.1 -0.1)">
       <use xlink:href="#DejaVuSans-2212"/>
       <use xlink:href="#DejaVuSans-30" x="83.789062"/>
       <use xlink:href="#DejaVuSans-2e" x="147.412109"/>
       <use xlink:href="#DejaVuSans-30" x="179.199219"/>
       <use xlink:href="#DejaVuSans-34" x="242.822266"/>
      </g>
     </g>
    </g>
    <g id="ytick_2">
     <g id="line2d_13">
      <path d="M 57.555625 323.634545 
L 485.755625 323.634545 
" clip-path="url(#p41441388a9)" style="fill: none; stroke: #b0b0b0; stroke-opacity: 0.3; stroke-width: 0.8; stroke-linecap: square"/>
     </g>
     <g id="line2d_14">
      <g>
       <use xlink:href="#ma663300dc9" x="57.555625" y="323.634545" style="stroke: #000000; stroke-width: 0.8"/>
      </g>
     </g>
     <g id="text_8">
      <!-- −0.02 -->
      <g transform="translate(19.910313 327.433764) scale(0.1 -0.1)">
       <use xlink:href="#DejaVuSans-2212"/>
       <use xlink:href="#DejaVuSans-30" x="83.789062"/>
       <use xlink:href="#DejaVuSans-2e" x="147.412109"/>
       <use xlink:href="#DejaVuSans-30" x="179.199219"/>
       <use xlink:href="#DejaVuSans-32" x="242.822266"/>
      </g>
     </g>
    </g>
    <g id="ytick_3">
     <g id="line2d_15">
      <path d="M 57.555625 245.78 
L 485.755625 245.78 
" clip-path="url(#p41441388a9)" style="fill: none; stroke: #b0b0b0; stroke-opacity: 0.3; stroke-width: 0.8; stroke-linecap: square"/>
     </g>
     <g id="line2d_16">
      <g>
       <use xlink:href="#ma663300dc9" x="57.555625" y="245.78" style="stroke: #000000; stroke-width: 0.8"/>
      </g>
     </g>
     <g id="text_9">
      <!-- 0.00 -->
      <g transform="translate(28.29 249.579219) scale(0.1 -0.1)">
       <use xlink:href="#DejaVuSans-30"/>
       <use xlink:href="#DejaVuSans-2e" x="63.623047"/>
       <use xlink:href="#DejaVuSans-30" x="95.410156"/>
       <use xlink:href="#DejaVuSans-30" x="159.033203"/>
      </g>
     </g>
    </g>
    <g id="ytick_4">
     <g id="line2d_17">
      <path d="M 57.555625 167.925455 
L 485.755625 167.925455 
" clip-path="url(#p41441388a9)" style="fill: none; stroke: #b0b0b0; stroke-opacity: 0.3; stroke-width: 0.8; stroke-linecap: square"/>
     </g>
     <g id="line2d_18">
      <g>
       <use xlink:href="#ma663300dc9" x="57.555625" y="167.925455" style="stroke: #000000; stroke-width: 0.8"/>
      </g>
     </g>
     <g id="text_10">
      <!-- 0.02 -->
      <g transform="translate(28.29 171.724673) scale(0.1 -0.1)">
       <use xlink:href="#DejaVuSans-30"/>
       <use xlink:href="#DejaVuSans-2e" x="63.623047"/>
       <use xlink:href="#DejaVuSans-30" x="95.410156"/>
       <use xlink:href="#DejaVuSans-32" x="159.033203"/>
      </g>
     </g>
    </g>
    <g id="ytick_5">
     <g id="line2d_19">
      <path d="M 57.555625 90.070909 
L 485.755625 90.070909 
" clip-path="url(#p41441388a9)" style="fill: none; stroke: #b0b0b0; stroke-opacity: 0.3; stroke-width: 0.8; stroke-linecap: square"/>
     </g>
     <g id="line2d_20">
      <g>
       <use xlink:href="#ma663300dc9" x="57.555625" y="90.070909" style="stroke: #000000; stroke-width: 0.8"/>
      </g>
     </g>
     <g id="text_11">
      <!-- 0.04 -->
      <g transform="translate(28.29 93.870128) scale(0.1 -0.1)">
       <use xlink:href="#DejaVuSans-30"/>
       <use xlink:href="#DejaVuSans-2e" x="63.623047"/>
       <use xlink:href="#DejaVuSans-30" x="95.410156"/>
       <use xlink:href="#DejaVuSans-34" x="159.033203"/>
      </g>
     </g>
    </g>
    <g id="text_12">
     <!-- Y (m) -->
     <g transform="translate(14.038594 257.853359) rotate(-90) scale(0.09 -0.09)">
      <defs>
       <path id="DejaVuSans-59" d="M -13 4666 
L 666 4666 
L 1959 2747 
L 3244 4666 
L 3922 4666 
L 2272 2222 
L 2272 0 
L 1638 0 
L 1638 2222 
L -13 4666 
z
" transform="scale(0.015625)"/>
      </defs>
      <use xlink:href="#DejaVuSans-59"/>
      <use xlink:href="#DejaVuSans-20" x="61.083984"/>
      <use xlink:href="#DejaVuSans-28" x="92.871094"/>
      <use xlink:href="#DejaVuSans-6d" x="131.884766"/>
      <use xlink:href="#DejaVuSans-29" x="229.296875"/>
     </g>
    </g>
   </g>
   <g id="line2d_21">
    <path d="M 271.655625 245.78 
L 271.655625 245.78 
L 271.655625 245.78 
L 271.655625 245.78 
L 271.655625 245.78 
L 271.655625 245.78 
L 271.655625 245.78 
L 271.655625 245.78 
L 271.655625 245.78 
L 271.655625 245.78 
L 271.655625 245.78 
L 271.655625 245.78 
L 271.655625 245.78 
L 271.655625 245.78 
L 271.655625 245.78 
L 271.655625 245.78 
L 271.655625 245.78 
L 271.655625 245.78 
L 271.655625 245.78 
L 271.655625 245.78 
L 271.655625 245.78 
L 271.655625 245.78 
L 271.655625 245.78 
L 271.655625 245.78 
L 271.655625 245.78 
L 271.655625 245.78 
L 271.655625 245.78 
L 271.655625 245.78 
L 271.655625 245.78 
L 271.655625 245.78 
L 271.655625 245.78 
L 271.655625 245.78 
L 271.655625 245.78 
L 271.655625 245.78 
L 271.655625 245.78 
L 271.655625 245.78 
L 271.655625 245.78 
L 271.655625 245.78 
L 271.655625 245.78 
L 271.655625 245.78 
L 271.655625 245.78 
L 271.655625 245.78 
L 271.655625 245.78 
L 271.655625 245.78 
L 271.655625 245.78 
L 271.655625 245.78 
L 271.655625 245.78 
L 271.655625 245.78 
L 271.655625 245.78 
L 271.655625 245.78 
L 271.655625 245.78 
L 271.655625 245.78 
L 271.655625 245.78 
L 271.655625 245.78 
L 271.655625 245.78 
L 271.655625 245.78 
L 271.655625 245.78 
L 271.655625 245.78 
L 271.655625 245.78 
L 271.655625 245.78 
L 271.655625 245.78 
L 271.655625 245.78 
L 271.655625 245.78 
L 271.655625 245.78 
L 271.655625 245.78 
L 271.655625 245.78 
L 271.655625 245.78 
L 271.655625 245.78 
L 271.655625 245.78 
L 271.655625 245.78 
L 271.655625 245.78 
L 271.655625 245.78 
L 271.655625 245.78 
L 271.655625 245.78 
L 271.655625 245.78 
L 271.655625 245.78 
L 271.655625 245.78 
L 271.655625 245.78 
L 271.655625 245.78 
L 271.655625 245.78 
L 271.655625 245.78 
L 271.655625 245.78 
L 271.655625 245.78 
L 271.655625 245.78 
L 271.655625 245.78 
L 271.655625 245.78 
L 271.655625 245.78 
L 271.655625 245.78 
L 271.655625 245.78 
L 271.655625 245.78 
L 271.655625 245.78 
L 271.655625 245.78 
L 271.655625 245.78 
L 271.655625 245.78 
L 271.655625 245.78 
L 271.655625 245.78 
L 271.655625 245.78 
L 271.655625 245.78 
L 271.655625 245.78 
L 271.655625 245.78 
" clip-path="url(#p41441388a9)" style="fill: none; stroke: #0000ff; stroke-width: 1.5; stroke-linecap: square"/>
   </g>
   <g id="patch_3">
    <path d="M 57.555625 459.88 
L 57.555625 31.68 
" style="fill: none; stroke: #000000; stroke-width: 0.8; stroke-linejoin: miter; stroke-linecap: square"/>
   </g>
   <g id="patch_4">
    <path d="M 57.555625 459.88 
L 485.755625 459.88 
" style="fill: none; stroke: #000000; stroke-width: 0.8; stroke-linejoin: miter; stroke-linecap: square"/>
   </g>
   <g id="PathCollection_1">
    <defs>
     <path id="mf604e3a1df" d="M 0 3.872983 
C 1.027127 3.872983 2.012324 3.464901 2.738613 2.738613 
C 3.464901 2.012324 3.872983 1.027127 3.872983 0 
C 3.872983 -1.027127 3.464901 -2.012324 2.738613 -2.738613 
C 2.012324 -3.464901 1.027127 -3.872983 0 -3.872983 
C -1.027127 -3.872983 -2.012324 -3.464901 -2.738613 -2.738613 
C -3.464901 -2.012324 -3.872983 -1.027127 -3.872983 0 
C -3.872983 1.027127 -3.464901 2.012324 -2.738613 2.738613 
C -2.012324 3.464901 -1.027127 3.872983 0 3.872983 
z
" style="stroke: #000000"/>
    </defs>
    <g clip-path="url(#p41441388a9)">
     <use xlink:href="#mf604e3a1df" x="271.655625" y="245.78" style="stroke: #000000"/>
    </g>
   </g>
   <g id="legend_1">
    <g id="patch_5">
     <path d="M 415.059375 61.565 
L 480.155625 61.565 
Q 481.755625 61.565 481.755625 59.965 
L 481.755625 37.28 
Q 481.755625 35.68 480.155625 35.68 
L 415.059375 35.68 
Q 413.459375 35.68 413.459375 37.28 
L 413.459375 59.965 
Q 413.459375 61.565 415.059375 61.565 
z
" style="fill: #ffffff; opacity: 0.8; stroke: #cccccc; stroke-linejoin: miter"/>
    </g>
    <g id="line2d_22">
     <path d="M 416.659375 42.15875 
L 424.659375 42.15875 
L 432.659375 42.15875 
" style="fill: none; stroke: #0000ff; stroke-width: 1.5; stroke-linecap: square"/>
    </g>
    <g id="text_13">
     <!-- Trajectory -->
     <g transform="translate(439.059375 44.95875) scale(0.08 -0.08)">
      <defs>
       <path id="DejaVuSans-54" d="M -19 4666 
L 3928 4666 
L 3928 4134 
L 2272 4134 
L 2272 0 
L 1638 0 
L 1638 4134 
L -19 4134 
L -19 4666 
z
" transform="scale(0.015625)"/>
       <path id="DejaVuSans-72" d="M 2631 2963 
Q 2534 3019 2420 3045 
Q 2306 3072 2169 3072 
Q 1681 3072 1420 2755 
Q 1159 2438 1159 1844 
L 1159 0 
L 581 0 
L 581 3500 
L 1159 3500 
L 1159 2956 
Q 1341 3275 1631 3429 
Q 1922 3584 2338 3584 
Q 2397 3584 2469 3576 
Q 2541 3569 2628 3553 
L 2631 2963 
z
" transform="scale(0.015625)"/>
       <path id="DejaVuSans-61" d="M 2194 1759 
Q 1497 1759 1228 1600 
Q 959 1441 959 1056 
Q 959 750 1161 570 
Q 1363 391 1709 391 
Q 2188 391 2477 730 
Q 2766 1069 2766 1631 
L 2766 1759 
L 2194 1759 
z
M 3341 1997 
L 3341 0 
L 2766 0 
L 2766 531 
Q 2569 213 2275 61 
Q 1981 -91 1556 -91 
Q 1019 -91 701 211 
Q 384 513 384 1019 
Q 384 1609 779 1909 
Q 1175 2209 1959 2209 
L 2766 2209 
L 2766 2266 
Q 2766 2663 2505 2880 
Q 2244 3097 1772 3097 
Q 1472 3097 1187 3025 
Q 903 2953 641 2809 
L 641 3341 
Q 956 3463 1253 3523 
Q 1550 3584 1831 3584 
Q 2591 3584 2966 3190 
Q 3341 2797 3341 1997 
z
" transform="scale(0.015625)"/>
       <path id="DejaVuSans-6a" d="M 603 3500 
L 1178 3500 
L 1178 -63 
Q 1178 -731 923 -1031 
Q 669 -1331 103 -1331 
L -116 -1331 
L -116 -844 
L 38 -844 
Q 366 -844 484 -692 
Q 603 -541 603 -63 
L 603 3500 
z
M 603 4863 
L 1178 4863 
L 1178 4134 
L 603 4134 
L 603 4863 
z
" transform="scale(0.015625)"/>
       <path id="DejaVuSans-65" d="M 3597 1894 
L 3597 1613 
L 953 1613 
Q 991 1019 1311 708 
Q 1631 397 2203 397 
Q 2534 397 2845 478 
Q 3156 559 3463 722 
L 3463 178 
Q 3153 47 2828 -22 
Q 2503 -91 2169 -91 
Q 1331 -91 842 396 
Q 353 884 353 1716 
Q 353 2575 817 3079 
Q 1281 3584 2069 3584 
Q 2775 3584 3186 3129 
Q 3597 2675 3597 1894 
z
M 3022 2063 
Q 3016 2534 2758 2815 
Q 2500 3097 2075 3097 
Q 1594 3097 1305 2825 
Q 1016 2553 972 2059 
L 3022 2063 
z
" transform="scale(0.015625)"/>
       <path id="DejaVuSans-63" d="M 3122 3366 
L 3122 2828 
Q 2878 2963 2633 3030 
Q 2388 3097 2138 3097 
Q 1578 3097 1268 2742 
Q 959 2388 959 1747 
Q 959 1106 1268 751 
Q 1578 397 2138 397 
Q 2388 397 2633 464 
Q 2878 531 3122 666 
L 3122 134 
Q 2881 22 2623 -34 
Q 2366 -91 2075 -91 
Q 1284 -91 818 406 
Q 353 903 353 1747 
Q 353 2603 823 3093 
Q 1294 3584 2113 3584 
Q 2378 3584 2631 3529 
Q 2884 3475 3122 3366 
z
" transform="scale(0.015625)"/>
       <path id="DejaVuSans-74" d="M 1172 4494 
L 1172 3500 
L 2356 3500 
L 2356 3053 
L 1172 3053 
L 1172 1153 
Q 1172 725 1289 603 
Q 1406 481 1766 481 
L 2356 481 
L 2356 0 
L 1766 0 
Q 1100 0 847 248 
Q 594 497 594 1153 
L 594 3053 
L 172 3053 
L 172 3500 
L 594 3500 
L 594 4494 
L 1172 4494 
z
" transform="scale(0.015625)"/>
       <path id="DejaVuSans-6f" d="M 1959 3097 
Q 1497 3097 1228 2736 
Q 959 2375 959 1747 
Q 959 1119 1226 758 
Q 1494 397 1959 397 
Q 2419 397 2687 759 
Q 2956 1122 2956 1747 
Q 2956 2369 2687 2733 
Q 2419 3097 1959 3097 
z
M 1959 3584 
Q 2709 3584 3137 3096 
Q 3566 2609 3566 1747 
Q 3566 888 3137 398 
Q 2709 -91 1959 -91 
Q 1206 -91 779 398 
Q 353 888 353 1747 
Q 353 2609 779 3096 
Q 1206 3584 1959 3584 
z
" transform="scale(0.015625)"/>
       <path id="DejaVuSans-79" d="M 2059 -325 
Q 1816 -950 1584 -1140 
Q 1353 -1331 966 -1331 
L 506 -1331 
L 506 -850 
L 844 -850 
Q 1081 -850 1212 -737 
Q 1344 -625 1503 -206 
L 1606 56 
L 191 3500 
L 800 3500 
L 1894 763 
L 2988 3500 
L 3597 3500 
L 2059 -325 
z
" transform="scale(0.015625)"/>
      </defs>
      <use xlink:href="#DejaVuSans-54"/>
      <use xlink:href="#DejaVuSans-72" x="46.333984"/>
      <use xlink:href="#DejaVuSans-61" x="87.447266"/>
      <use xlink:href="#DejaVuSans-6a" x="148.726562"/>
      <use xlink:href="#DejaVuSans-65" x="176.509766"/>
      <use xlink:href="#DejaVuSans-63" x="238.033203"/>
      <use xlink:href="#DejaVuSans-74" x="293.013672"/>
      <use xlink:href="#DejaVuSans-6f" x="332.222656"/>
      <use xlink:href="#DejaVuSans-72" x="393.404297"/>
      <use xlink:href="#DejaVuSans-79" x="434.517578"/>
     </g>
    </g>
    <g id="PathCollection_2">
     <g>
      <use xlink:href="#mf604e3a1df" x="424.659375" y="54.60125" style="stroke: #000000"/>
     </g>
    </g>
    <g id="text_14">
     <!-- Start -->
     <g transform="translate(439.059375 56.70125) scale(0.08 -0.08)">
      <defs>
       <path id="DejaVuSans-53" d="M 3425 4513 
L 3425 3897 
Q 3066 4069 2747 4153 
Q 2428 4238 2131 4238 
Q 1616 4238 1336 4038 
Q 1056 3838 1056 3469 
Q 1056 3159 1242 3001 
Q 1428 2844 1947 2747 
L 2328 2669 
Q 3034 2534 3370 2195 
Q 3706 1856 3706 1288 
Q 3706 609 3251 259 
Q 2797 -91 1919 -91 
Q 1588 -91 1214 -16 
Q 841 59 441 206 
L 441 856 
Q 825 641 1194 531 
Q 1563 422 1919 422 
Q 2459 422 2753 634 
Q 3047 847 3047 1241 
Q 3047 1584 2836 1778 
Q 2625 1972 2144 2069 
L 1759 2144 
Q 1053 2284 737 2584 
Q 422 2884 422 3419 
Q 422 4038 858 4394 
Q 1294 4750 2059 4750 
Q 2388 4750 2728 4690 
Q 3069 4631 3425 4513 
z
" transform="scale(0.015625)"/>
      </defs>
      <use xlink:href="#DejaVuSans-53"/>
      <use xlink:href="#DejaVuSans-74" x="63.476562"/>
      <use xlink:href="#DejaVuSans-61" x="102.685547"/>
      <use xlink:href="#DejaVuSans-72" x="163.964844"/>
      <use xlink:href="#DejaVuSans-74" x="205.078125"/>
     </g>
    </g>
   </g>
  </g>
  <g id="text_15">
   <!-- Test 1 – Hover (open-loop) — Top-Down View (XY) -->
   <g transform="translate(80.0075 16.318125) scale(0.12 -0.12)">
    <defs>
     <path id="DejaVuSans-Bold-54" d="M 31 4666 
L 4331 4666 
L 4331 3756 
L 2784 3756 
L 2784 0 
L 1581 0 
L 1581 3756 
L 31 3756 
L 31 4666 
z
" transform="scale(0.015625)"/>
     <path id="DejaVuSans-Bold-65" d="M 4031 1759 
L 4031 1441 
L 1416 1441 
Q 1456 1047 1700 850 
Q 1944 653 2381 653 
Q 2734 653 3104 758 
Q 3475 863 3866 1075 
L 3866 213 
Q 3469 63 3072 -14 
Q 2675 -91 2278 -91 
Q 1328 -91 801 392 
Q 275 875 275 1747 
Q 275 2603 792 3093 
Q 1309 3584 2216 3584 
Q 3041 3584 3536 3087 
Q 4031 2591 4031 1759 
z
M 2881 2131 
Q 2881 2450 2695 2645 
Q 2509 2841 2209 2841 
Q 1884 2841 1681 2658 
Q 1478 2475 1428 2131 
L 2881 2131 
z
" transform="scale(0.015625)"/>
     <path id="DejaVuSans-Bold-73" d="M 3272 3391 
L 3272 2541 
Q 2913 2691 2578 2766 
Q 2244 2841 1947 2841 
Q 1628 2841 1473 2761 
Q 1319 2681 1319 2516 
Q 1319 2381 1436 2309 
Q 1553 2238 1856 2203 
L 2053 2175 
Q 2913 2066 3209 1816 
Q 3506 1566 3506 1031 
Q 3506 472 3093 190 
Q 2681 -91 1863 -91 
Q 1516 -91 1145 -36 
Q 775 19 384 128 
L 384 978 
Q 719 816 1070 734 
Q 1422 653 1784 653 
Q 2113 653 2278 743 
Q 2444 834 2444 1013 
Q 2444 1163 2330 1236 
Q 2216 1309 1875 1350 
L 1678 1375 
Q 931 1469 631 1722 
Q 331 1975 331 2491 
Q 331 3047 712 3315 
Q 1094 3584 1881 3584 
Q 2191 3584 2531 3537 
Q 2872 3491 3272 3391 
z
" transform="scale(0.015625)"/>
     <path id="DejaVuSans-Bold-74" d="M 1759 4494 
L 1759 3500 
L 2913 3500 
L 2913 2700 
L 1759 2700 
L 1759 1216 
Q 1759 972 1856 886 
Q 1953 800 2241 800 
L 2816 800 
L 2816 0 
L 1856 0 
Q 1194 0 917 276 
Q 641 553 641 1216 
L 641 2700 
L 84 2700 
L 84 3500 
L 641 3500 
L 641 4494 
L 1759 4494 
z
" transform="scale(0.015625)"/>
     <path id="DejaVuSans-Bold-20" transform="scale(0.015625)"/>
     <path id="DejaVuSans-Bold-31" d="M 750 831 
L 1813 831 
L 1813 3847 
L 722 3622 
L 722 4441 
L 1806 4666 
L 2950 4666 
L 2950 831 
L 4013 831 
L 4013 0 
L 750 0 
L 750 831 
z
" transform="scale(0.015625)"/>
     <path id="DejaVuSans-Bold-2013" d="M 344 2156 
L 2856 2156 
L 2856 1350 
L 344 1350 
L 344 2156 
z
" transform="scale(0.015625)"/>
     <path id="DejaVuSans-Bold-48" d="M 588 4666 
L 1791 4666 
L 1791 2888 
L 3566 2888 
L 3566 4666 
L 4769 4666 
L 4769 0 
L 3566 0 
L 3566 1978 
L 1791 1978 
L 1791 0 
L 588 0 
L 588 4666 
z
" transform="scale(0.015625)"/>
     <path id="DejaVuSans-Bold-6f" d="M 2203 2784 
Q 1831 2784 1636 2517 
Q 1441 2250 1441 1747 
Q 1441 1244 1636 976 
Q 1831 709 2203 709 
Q 2569 709 2762 976 
Q 2956 1244 2956 1747 
Q 2956 2250 2762 2517 
Q 2569 2784 2203 2784 
z
M 2203 3584 
Q 3106 3584 3614 3096 
Q 4122 2609 4122 1747 
Q 4122 884 3614 396 
Q 3106 -91 2203 -91 
Q 1297 -91 786 396 
Q 275 884 275 1747 
Q 275 2609 786 3096 
Q 1297 3584 2203 3584 
z
" transform="scale(0.015625)"/>
     <path id="DejaVuSans-Bold-76" d="M 97 3500 
L 1216 3500 
L 2088 1081 
L 2956 3500 
L 4078 3500 
L 2700 0 
L 1472 0 
L 97 3500 
z
" transform="scale(0.015625)"/>
     <path id="DejaVuSans-Bold-72" d="M 3138 2547 
Q 2991 2616 2845 2648 
Q 2700 2681 2553 2681 
Q 2122 2681 1889 2404 
Q 1656 2128 1656 1613 
L 1656 0 
L 538 0 
L 538 3500 
L 1656 3500 
L 1656 2925 
Q 1872 3269 2151 3426 
Q 2431 3584 2822 3584 
Q 2878 3584 2943 3579 
Q 3009 3575 3134 3559 
L 3138 2547 
z
" transform="scale(0.015625)"/>
     <path id="DejaVuSans-Bold-28" d="M 2413 -844 
L 1484 -844 
Q 1006 -72 778 623 
Q 550 1319 550 2003 
Q 550 2688 779 3389 
Q 1009 4091 1484 4856 
L 2413 4856 
Q 2013 4116 1813 3408 
Q 1613 2700 1613 2009 
Q 1613 1319 1811 609 
Q 2009 -100 2413 -844 
z
" transform="scale(0.015625)"/>
     <path id="DejaVuSans-Bold-70" d="M 1656 506 
L 1656 -1331 
L 538 -1331 
L 538 3500 
L 1656 3500 
L 1656 2988 
Q 1888 3294 2169 3439 
Q 2450 3584 2816 3584 
Q 3463 3584 3878 3070 
Q 4294 2556 4294 1747 
Q 4294 938 3878 423 
Q 3463 -91 2816 -91 
Q 2450 -91 2169 54 
Q 1888 200 1656 506 
z
M 2400 2772 
Q 2041 2772 1848 2508 
Q 1656 2244 1656 1747 
Q 1656 1250 1848 986 
Q 2041 722 2400 722 
Q 2759 722 2948 984 
Q 3138 1247 3138 1747 
Q 3138 2247 2948 2509 
Q 2759 2772 2400 2772 
z
" transform="scale(0.015625)"/>
     <path id="DejaVuSans-Bold-6e" d="M 4056 2131 
L 4056 0 
L 2931 0 
L 2931 347 
L 2931 1631 
Q 2931 2084 2911 2256 
Q 2891 2428 2841 2509 
Q 2775 2619 2662 2680 
Q 2550 2741 2406 2741 
Q 2056 2741 1856 2470 
Q 1656 2200 1656 1722 
L 1656 0 
L 538 0 
L 538 3500 
L 1656 3500 
L 1656 2988 
Q 1909 3294 2193 3439 
Q 2478 3584 2822 3584 
Q 3428 3584 3742 3212 
Q 4056 2841 4056 2131 
z
" transform="scale(0.015625)"/>
     <path id="DejaVuSans-Bold-2d" d="M 347 2297 
L 2309 2297 
L 2309 1388 
L 347 1388 
L 347 2297 
z
" transform="scale(0.015625)"/>
     <path id="DejaVuSans-Bold-6c" d="M 538 4863 
L 1656 4863 
L 1656 0 
L 538 0 
L 538 4863 
z
" transform="scale(0.015625)"/>
     <path id="DejaVuSans-Bold-29" d="M 513 -844 
Q 913 -100 1113 609 
Q 1313 1319 1313 2009 
Q 1313 2700 1113 3408 
Q 913 4116 513 4856 
L 1441 4856 
Q 1916 4091 2145 3389 
Q 2375 2688 2375 2003 
Q 2375 1319 2147 623 
Q 1919 -72 1441 -844 
L 513 -844 
z
" transform="scale(0.015625)"/>
     <path id="DejaVuSans-Bold-2014" d="M 344 2156 
L 6056 2156 
L 6056 1350 
L 344 1350 
L 344 2156 
z
" transform="scale(0.015625)"/>
     <path id="DejaVuSans-Bold-44" d="M 1791 3756 
L 1791 909 
L 2222 909 
Q 2959 909 3348 1275 
Q 3738 1641 3738 2338 
Q 3738 3031 3350 3393 
Q 2963 3756 2222 3756 
L 1791 3756 
z
M 588 4666 
L 1856 4666 
Q 2919 4666 3439 4514 
Q 3959 4363 4331 4000 
Q 4659 3684 4818 3271 
Q 4978 2859 4978 2338 
Q 4978 1809 4818 1395 
Q 4659 981 4331 666 
Q 3956 303 3431 151 
Q 2906 0 1856 0 
L 588 0 
L 588 4666 
z
" transform="scale(0.015625)"/>
     <path id="DejaVuSans-Bold-77" d="M 225 3500 
L 1313 3500 
L 1900 1088 
L 2491 3500 
L 3425 3500 
L 4013 1113 
L 4603 3500 
L 5691 3500 
L 4769 0 
L 3547 0 
L 2956 2406 
L 2369 0 
L 1147 0 
L 225 3500 
z
" transform="scale(0.015625)"/>
     <path id="DejaVuSans-Bold-56" d="M 31 4666 
L 1241 4666 
L 2478 1222 
L 3713 4666 
L 4922 4666 
L 3194 0 
L 1759 0 
L 31 4666 
z
" transform="scale(0.015625)"/>
     <path id="DejaVuSans-Bold-69" d="M 538 3500 
L 1656 3500 
L 1656 0 
L 538 0 
L 538 3500 
z
M 538 4863 
L 1656 4863 
L 1656 3950 
L 538 3950 
L 538 4863 
z
" transform="scale(0.015625)"/>
     <path id="DejaVuSans-Bold-58" d="M 3188 2381 
L 4806 0 
L 3553 0 
L 2463 1594 
L 1381 0 
L 122 0 
L 1741 2381 
L 184 4666 
L 1441 4666 
L 2463 3163 
L 3481 4666 
L 4744 4666 
L 3188 2381 
z
" transform="scale(0.015625)"/>
     <path id="DejaVuSans-Bold-59" d="M -63 4666 
L 1253 4666 
L 2316 3003 
L 3378 4666 
L 4697 4666 
L 2919 1966 
L 2919 0 
L 1716 0 
L 1716 1966 
L -63 4666 
z
" transform="scale(0.015625)"/>
    </defs>
    <use xlink:href="#DejaVuSans-Bold-54"/>
    <use xlink:href="#DejaVuSans-Bold-65" x="54.962891"/>
    <use xlink:href="#DejaVuSans-Bold-73" x="122.785156"/>
    <use xlink:href="#DejaVuSans-Bold-74" x="182.306641"/>
    <use xlink:href="#DejaVuSans-Bold-20" x="230.109375"/>
    <use xlink:href="#DejaVuSans-Bold-31" x="264.923828"/>
    <use xlink:href="#DejaVuSans-Bold-20" x="334.503906"/>
    <use xlink:href="#DejaVuSans-Bold-2013" x="369.318359"/>
    <use xlink:href="#DejaVuSans-Bold-20" x="419.318359"/>
    <use xlink:href="#DejaVuSans-Bold-48" x="454.132812"/>
    <use xlink:href="#DejaVuSans-Bold-6f" x="537.824219"/>
    <use xlink:href="#DejaVuSans-Bold-76" x="606.525391"/>
    <use xlink:href="#DejaVuSans-Bold-65" x="671.710938"/>
    <use xlink:href="#DejaVuSans-Bold-72" x="739.533203"/>
    <use xlink:href="#DejaVuSans-Bold-20" x="788.849609"/>
    <use xlink:href="#DejaVuSans-Bold-28" x="823.664062"/>
    <use xlink:href="#DejaVuSans-Bold-6f" x="869.367188"/>
    <use xlink:href="#DejaVuSans-Bold-70" x="938.068359"/>
    <use xlink:href="#DejaVuSans-Bold-65" x="1009.650391"/>
    <use xlink:href="#DejaVuSans-Bold-6e" x="1077.472656"/>
    <use xlink:href="#DejaVuSans-Bold-2d" x="1148.664062"/>
    <use xlink:href="#DejaVuSans-Bold-6c" x="1190.167969"/>
    <use xlink:href="#DejaVuSans-Bold-6f" x="1224.445312"/>
    <use xlink:href="#DejaVuSans-Bold-6f" x="1293.146484"/>
    <use xlink:href="#DejaVuSans-Bold-70" x="1361.847656"/>
    <use xlink:href="#DejaVuSans-Bold-29" x="1433.429688"/>
    <use xlink:href="#DejaVuSans-Bold-20" x="1479.132812"/>
    <use xlink:href="#DejaVuSans-Bold-2014" x="1513.947266"/>
    <use xlink:href="#DejaVuSans-Bold-20" x="1613.947266"/>
    <use xlink:href="#DejaVuSans-Bold-54" x="1648.761719"/>
    <use xlink:href="#DejaVuSans-Bold-6f" x="1703.724609"/>
    <use xlink:href="#DejaVuSans-Bold-70" x="1772.425781"/>
    <use xlink:href="#DejaVuSans-Bold-2d" x="1844.007812"/>
    <use xlink:href="#DejaVuSans-Bold-44" x="1885.511719"/>
    <use xlink:href="#DejaVuSans-Bold-6f" x="1968.519531"/>
    <use xlink:href="#DejaVuSans-Bold-77" x="2037.220703"/>
    <use xlink:href="#DejaVuSans-Bold-6e" x="2129.603516"/>
    <use xlink:href="#DejaVuSans-Bold-20" x="2200.794922"/>
    <use xlink:href="#DejaVuSans-Bold-56" x="2235.609375"/>
    <use xlink:href="#DejaVuSans-Bold-69" x="2311.251953"/>
    <use xlink:href="#DejaVuSans-Bold-65" x="2345.529297"/>
    <use xlink:href="#DejaVuSans-Bold-77" x="2413.351562"/>
    <use xlink:href="#DejaVuSans-Bold-20" x="2505.734375"/>
    <use xlink:href="#DejaVuSans-Bold-28" x="2540.548828"/>
    <use xlink:href="#DejaVuSans-Bold-58" x="2586.251953"/>
    <use xlink:href="#DejaVuSans-Bold-59" x="2663.351562"/>
    <use xlink:href="#DejaVuSans-Bold-29" x="2735.763672"/>
   </g>
  </g>
 </g>
 <defs>
  <clipPath id="p41441388a9">
   <rect x="57.555625" y="31.68" width="428.2" height="428.2"/>
  </clipPath>
 </defs>
</svg>
