<?xml version="1.0" encoding="utf-8" standalone="no"?>
<!DOCTYPE svg PUBLIC "-//W3C//DTD SVG 1.1//EN"
  "http://www.w3.org/Graphics/SVG/1.1/DTD/svg11.dtd">
<svg xmlns:xlink="http://www.w3.org/1999/xlink" width="711.498437pt" height="566.331875pt" viewBox="0 0 711.498437 566.331875" xmlns="http://www.w3.org/2000/svg" version="1.1">
 <metadata>
  <rdf:RDF xmlns:dc="http://purl.org/dc/elements/1.1/" xmlns:cc="http://creativecommons.org/ns#" xmlns:rdf="http://www.w3.org/1999/02/22-rdf-syntax-ns#">
   <cc:Work>
    <dc:type rdf:resource="http://purl.org/dc/dcmitype/StillImage"/>
    <dc:date>2026-04-28T15:38:02.495888</dc:date>
    <dc:format>image/svg+xml</dc:format>
    <dc:creator>
     <cc:Agent>
      <dc:title>Matplotlib v3.8.4, https://matplotlib.org/</dc:title>
     </cc:Agent>
    </dc:creator>
   </cc:Work>
  </rdf:RDF>
 </metadata>
 <defs>
  <style type="text/css">*{stroke-linejoin: round; stroke-linecap: butt}</style>
 </defs>
 <g id="figure_1">
  <g id="patch_1">
   <path d="M 0 566.331875 
L 711.498437 566.331875 
L 711.498437 0 
L 0 0 
z
" style="fill: #ffffff"/>
  </g>
  <g id="axes_1">
   <g id="patch_2">
    <path d="M 50.918438 186.24 
L 704.298438 186.24 
L 704.298438 30.24 
L 50.918438 30.24 
z
" style="fill: #ffffff"/>
   </g>
   <g id="matplotlib.axis_1">
    <g id="xtick_1">
     <g id="line2d_1">
      <path d="M 80.617528 186.24 
L 80.617528 30.24 
" clip-path="url(#p8e20ff810e)" style="fill: none; stroke: #b0b0b0; stroke-opacity: 0.3; stroke-width: 0.8; stroke-linecap: square"/>
     </g>
     <g id="line2d_2">
      <defs>
       <path id="m949f2d3644" d="M 0 0 
L 0 3.5 
" style="stroke: #000000; stroke-width: 0.8"/>
      </defs>
      <g>
       <use xlink:href="#m949f2d3644" x="80.617528" y="186.24" style="stroke: #000000; stroke-width: 0.8"/>
      </g>
     </g>
    </g>
    <g id="xtick_2">
     <g id="line2d_3">
      <path d="M 179.627683 186.24 
L 179.627683 30.24 
" clip-path="url(#p8e20ff810e)" style="fill: none; stroke: #b0b0b0; stroke-opacity: 0.3; stroke-width: 0.8; stroke-linecap: square"/>
     </g>
     <g id="line2d_4">
      <g>
       <use xlink:href="#m949f2d3644" x="179.627683" y="186.24" style="stroke: #000000; stroke-width: 0.8"/>
      </g>
     </g>
    </g>
    <g id="xtick_3">
     <g id="line2d_5">
      <path d="M 278.637838 186.24 
L 278.637838 30.24 
" clip-path="url(#p8e20ff810e)" style="fill: none; stroke: #b0b0b0; stroke-opacity: 0.3; stroke-width: 0.8; stroke-linecap: square"/>
     </g>
     <g id="line2d_6">
      <g>
       <use xlink:href="#m949f2d3644" x="278.637838" y="186.24" style="stroke: #000000; stroke-width: 0.8"/>
      </g>
     </g>
    </g>
    <g id="xtick_4">
     <g id="line2d_7">
      <path d="M 377.647992 186.24 
L 377.647992 30.24 
" clip-path="url(#p8e20ff810e)" style="fill: none; stroke: #b0b0b0; stroke-opacity: 0.3; stroke-width: 0.8; stroke-linecap: square"/>
     </g>
     <g id="line2d_8">
      <g>
       <use xlink:href="#m949f2d3644" x="377.647992" y="186.24" style="stroke: #000000; stroke-width: 0.8"/>
      </g>
     </g>
    </g>
    <g id="xtick_5">
     <g id="line2d_9">
      <path d="M 476.658147 186.24 
L 476.658147 30.24 
" clip-path="url(#p8e20ff810e)" style="fill: none; stroke: #b0b0b0; stroke-opacity: 0.3; stroke-width: 0.8; stroke-linecap: square"/>
     </g>
     <g id="line2d_10">
      <g>
       <use xlink:href="#m949f2d3644" x="476.658147" y="186.24" style="stroke: #000000; stroke-width: 0.8"/>
      </g>
     </g>
    </g>
    <g id="xtick_6">
     <g id="line2d_11">
      <path d="M 575.668301 186.24 
L 575.668301 30.24 
" clip-path="url(#p8e20ff810e)" style="fill: none; stroke: #b0b0b0; stroke-opacity: 0.3; stroke-width: 0.8; stroke-linecap: square"/>
     </g>
     <g id="line2d_12">
      <g>
       <use xlink:href="#m949f2d3644" x="575.668301" y="186.24" style="stroke: #000000; stroke-width: 0.8"/>
      </g>
     </g>
    </g>
    <g id="xtick_7">
     <g id="line2d_13">
      <path d="M 674.678456 186.24 
L 674.678456 30.24 
" clip-path="url(#p8e20ff810e)" style="fill: none; stroke: #b0b0b0; stroke-opacity: 0.3; stroke-width: 0.8; stroke-linecap: square"/>
     </g>
     <g id="line2d_14">
      <g>
       <use xlink:href="#m949f2d3644" x="674.678456" y="186.24" style="stroke: #000000; stroke-width: 0.8"/>
      </g>
     </g>
    </g>
   </g>
   <g id="matplotlib.axis_2">
    <g id="ytick_1">
     <g id="line2d_15">
      <path d="M 50.918438 178.502153 
L 704.298438 178.502153 
" clip-path="url(#p8e20ff810e)" style="fill: none; stroke: #b0b0b0; stroke-opacity: 0.3; stroke-width: 0.8; stroke-linecap: square"/>
     </g>
     <g id="line2d_16">
      <defs>
       <path id="m8c7eee634f" d="M 0 0 
L -3.5 0 
" style="stroke: #000000; stroke-width: 0.8"/>
      </defs>
      <g>
       <use xlink:href="#m8c7eee634f" x="50.918438" y="178.502153" style="stroke: #000000; stroke-width: 0.8"/>
      </g>
     </g>
     <g id="text_1">
      <!-- −20 -->
      <g transform="translate(22.81375 182.301371) scale(0.1 -0.1)">
       <defs>
        <path id="DejaVuSans-2212" d="M 678 2272 
L 4684 2272 
L 4684 1741 
L 678 1741 
L 678 2272 
z
" transform="scale(0.015625)"/>
        <path id="DejaVuSans-32" d="M 1228 531 
L 3431 531 
L 3431 0 
L 469 0 
L 469 531 
Q 828 903 1448 1529 
Q 2069 2156 2228 2338 
Q 2531 2678 2651 2914 
Q 2772 3150 2772 3378 
Q 2772 3750 2511 3984 
Q 2250 4219 1831 4219 
Q 1534 4219 1204 4116 
Q 875 4013 500 3803 
L 500 4441 
Q 881 4594 1212 4672 
Q 1544 4750 1819 4750 
Q 2544 4750 2975 4387 
Q 3406 4025 3406 3419 
Q 3406 3131 3298 2873 
Q 3191 2616 2906 2266 
Q 2828 2175 2409 1742 
Q 1991 1309 1228 531 
z
" transform="scale(0.015625)"/>
        <path id="DejaVuSans-30" d="M 2034 4250 
Q 1547 4250 1301 3770 
Q 1056 3291 1056 2328 
Q 1056 1369 1301 889 
Q 1547 409 2034 409 
Q 2525 409 2770 889 
Q 3016 1369 3016 2328 
Q 3016 3291 2770 3770 
Q 2525 4250 2034 4250 
z
M 2034 4750 
Q 2819 4750 3233 4129 
Q 3647 3509 3647 2328 
Q 3647 1150 3233 529 
Q 2819 -91 2034 -91 
Q 1250 -91 836 529 
Q 422 1150 422 2328 
Q 422 3509 836 4129 
Q 1250 4750 2034 4750 
z
" transform="scale(0.015625)"/>
       </defs>
       <use xlink:href="#DejaVuSans-2212"/>
       <use xlink:href="#DejaVuSans-32" x="83.789062"/>
       <use xlink:href="#DejaVuSans-30" x="147.412109"/>
      </g>
     </g>
    </g>
    <g id="ytick_2">
     <g id="line2d_17">
      <path d="M 50.918438 155.009644 
L 704.298438 155.009644 
" clip-path="url(#p8e20ff810e)" style="fill: none; stroke: #b0b0b0; stroke-opacity: 0.3; stroke-width: 0.8; stroke-linecap: square"/>
     </g>
     <g id="line2d_18">
      <g>
       <use xlink:href="#m8c7eee634f" x="50.918438" y="155.009644" style="stroke: #000000; stroke-width: 0.8"/>
      </g>
     </g>
     <g id="text_2">
      <!-- −15 -->
      <g transform="translate(22.81375 158.808863) scale(0.1 -0.1)">
       <defs>
        <path id="DejaVuSans-31" d="M 794 531 
L 1825 531 
L 1825 4091 
L 703 3866 
L 703 4441 
L 1819 4666 
L 2450 4666 
L 2450 531 
L 3481 531 
L 3481 0 
L 794 0 
L 794 531 
z
" transform="scale(0.015625)"/>
        <path id="DejaVuSans-35" d="M 691 4666 
L 3169 4666 
L 3169 4134 
L 1269 4134 
L 1269 2991 
Q 1406 3038 1543 3061 
Q 1681 3084 1819 3084 
Q 2600 3084 3056 2656 
Q 3513 2228 3513 1497 
Q 3513 744 3044 326 
Q 2575 -91 1722 -91 
Q 1428 -91 1123 -41 
Q 819 9 494 109 
L 494 744 
Q 775 591 1075 516 
Q 1375 441 1709 441 
Q 2250 441 2565 725 
Q 2881 1009 2881 1497 
Q 2881 1984 2565 2268 
Q 2250 2553 1709 2553 
Q 1456 2553 1204 2497 
Q 953 2441 691 2322 
L 691 4666 
z
" transform="scale(0.015625)"/>
       </defs>
       <use xlink:href="#DejaVuSans-2212"/>
       <use xlink:href="#DejaVuSans-31" x="83.789062"/>
       <use xlink:href="#DejaVuSans-35" x="147.412109"/>
      </g>
     </g>
    </g>
    <g id="ytick_3">
     <g id="line2d_19">
      <path d="M 50.918438 131.517135 
L 704.298438 131.517135 
" clip-path="url(#p8e20ff810e)" style="fill: none; stroke: #b0b0b0; stroke-opacity: 0.3; stroke-width: 0.8; stroke-linecap: square"/>
     </g>
     <g id="line2d_20">
      <g>
       <use xlink:href="#m8c7eee634f" x="50.918438" y="131.517135" style="stroke: #000000; stroke-width: 0.8"/>
      </g>
     </g>
     <g id="text_3">
      <!-- −10 -->
      <g transform="translate(22.81375 135.316354) scale(0.1 -0.1)">
       <use xlink:href="#DejaVuSans-2212"/>
       <use xlink:href="#DejaVuSans-31" x="83.789062"/>
       <use xlink:href="#DejaVuSans-30" x="147.412109"/>
      </g>
     </g>
    </g>
    <g id="ytick_4">
     <g id="line2d_21">
      <path d="M 50.918438 108.024626 
L 704.298438 108.024626 
" clip-path="url(#p8e20ff810e)" style="fill: none; stroke: #b0b0b0; stroke-opacity: 0.3; stroke-width: 0.8; stroke-linecap: square"/>
     </g>
     <g id="line2d_22">
      <g>
       <use xlink:href="#m8c7eee634f" x="50.918438" y="108.024626" style="stroke: #000000; stroke-width: 0.8"/>
      </g>
     </g>
     <g id="text_4">
      <!-- −5 -->
      <g transform="translate(29.17625 111.823845) scale(0.1 -0.1)">
       <use xlink:href="#DejaVuSans-2212"/>
       <use xlink:href="#DejaVuSans-35" x="83.789062"/>
      </g>
     </g>
    </g>
    <g id="ytick_5">
     <g id="line2d_23">
      <path d="M 50.918438 84.532118 
L 704.298438 84.532118 
" clip-path="url(#p8e20ff810e)" style="fill: none; stroke: #b0b0b0; stroke-opacity: 0.3; stroke-width: 0.8; stroke-linecap: square"/>
     </g>
     <g id="line2d_24">
      <g>
       <use xlink:href="#m8c7eee634f" x="50.918438" y="84.532118" style="stroke: #000000; stroke-width: 0.8"/>
      </g>
     </g>
     <g id="text_5">
      <!-- 0 -->
      <g transform="translate(37.555937 88.331336) scale(0.1 -0.1)">
       <use xlink:href="#DejaVuSans-30"/>
      </g>
     </g>
    </g>
    <g id="ytick_6">
     <g id="line2d_25">
      <path d="M 50.918438 61.039609 
L 704.298438 61.039609 
" clip-path="url(#p8e20ff810e)" style="fill: none; stroke: #b0b0b0; stroke-opacity: 0.3; stroke-width: 0.8; stroke-linecap: square"/>
     </g>
     <g id="line2d_26">
      <g>
       <use xlink:href="#m8c7eee634f" x="50.918438" y="61.039609" style="stroke: #000000; stroke-width: 0.8"/>
      </g>
     </g>
     <g id="text_6">
      <!-- 5 -->
      <g transform="translate(37.555937 64.838828) scale(0.1 -0.1)">
       <use xlink:href="#DejaVuSans-35"/>
      </g>
     </g>
    </g>
    <g id="ytick_7">
     <g id="line2d_27">
      <path d="M 50.918438 37.5471 
L 704.298438 37.5471 
" clip-path="url(#p8e20ff810e)" style="fill: none; stroke: #b0b0b0; stroke-opacity: 0.3; stroke-width: 0.8; stroke-linecap: square"/>
     </g>
     <g id="line2d_28">
      <g>
       <use xlink:href="#m8c7eee634f" x="50.918438" y="37.5471" style="stroke: #000000; stroke-width: 0.8"/>
      </g>
     </g>
     <g id="text_7">
      <!-- 10 -->
      <g transform="translate(31.193438 41.346319) scale(0.1 -0.1)">
       <use xlink:href="#DejaVuSans-31"/>
       <use xlink:href="#DejaVuSans-30" x="63.623047"/>
      </g>
     </g>
    </g>
    <g id="text_8">
     <!-- Roll (deg) -->
     <g transform="translate(16.318125 137.042812) rotate(-90) scale(0.12 -0.12)">
      <defs>
       <path id="DejaVuSans-52" d="M 2841 2188 
Q 3044 2119 3236 1894 
Q 3428 1669 3622 1275 
L 4263 0 
L 3584 0 
L 2988 1197 
Q 2756 1666 2539 1819 
Q 2322 1972 1947 1972 
L 1259 1972 
L 1259 0 
L 628 0 
L 628 4666 
L 2053 4666 
Q 2853 4666 3247 4331 
Q 3641 3997 3641 3322 
Q 3641 2881 3436 2590 
Q 3231 2300 2841 2188 
z
M 1259 4147 
L 1259 2491 
L 2053 2491 
Q 2509 2491 2742 2702 
Q 2975 2913 2975 3322 
Q 2975 3731 2742 3939 
Q 2509 4147 2053 4147 
L 1259 4147 
z
" transform="scale(0.015625)"/>
       <path id="DejaVuSans-6f" d="M 1959 3097 
Q 1497 3097 1228 2736 
Q 959 2375 959 1747 
Q 959 1119 1226 758 
Q 1494 397 1959 397 
Q 2419 397 2687 759 
Q 2956 1122 2956 1747 
Q 2956 2369 2687 2733 
Q 2419 3097 1959 3097 
z
M 1959 3584 
Q 2709 3584 3137 3096 
Q 3566 2609 3566 1747 
Q 3566 888 3137 398 
Q 2709 -91 1959 -91 
Q 1206 -91 779 398 
Q 353 888 353 1747 
Q 353 2609 779 3096 
Q 1206 3584 1959 3584 
z
" transform="scale(0.015625)"/>
       <path id="DejaVuSans-6c" d="M 603 4863 
L 1178 4863 
L 1178 0 
L 603 0 
L 603 4863 
z
" transform="scale(0.015625)"/>
       <path id="DejaVuSans-20" transform="scale(0.015625)"/>
       <path id="DejaVuSans-28" d="M 1984 4856 
Q 1566 4138 1362 3434 
Q 1159 2731 1159 2009 
Q 1159 1288 1364 580 
Q 1569 -128 1984 -844 
L 1484 -844 
Q 1016 -109 783 600 
Q 550 1309 550 2009 
Q 550 2706 781 3412 
Q 1013 4119 1484 4856 
L 1984 4856 
z
" transform="scale(0.015625)"/>
       <path id="DejaVuSans-64" d="M 2906 2969 
L 2906 4863 
L 3481 4863 
L 3481 0 
L 2906 0 
L 2906 525 
Q 2725 213 2448 61 
Q 2172 -91 1784 -91 
Q 1150 -91 751 415 
Q 353 922 353 1747 
Q 353 2572 751 3078 
Q 1150 3584 1784 3584 
Q 2172 3584 2448 3432 
Q 2725 3281 2906 2969 
z
M 947 1747 
Q 947 1113 1208 752 
Q 1469 391 1925 391 
Q 2381 391 2643 752 
Q 2906 1113 2906 1747 
Q 2906 2381 2643 2742 
Q 2381 3103 1925 3103 
Q 1469 3103 1208 2742 
Q 947 2381 947 1747 
z
" transform="scale(0.015625)"/>
       <path id="DejaVuSans-65" d="M 3597 1894 
L 3597 1613 
L 953 1613 
Q 991 1019 1311 708 
Q 1631 397 2203 397 
Q 2534 397 2845 478 
Q 3156 559 3463 722 
L 3463 178 
Q 3153 47 2828 -22 
Q 2503 -91 2169 -91 
Q 1331 -91 842 396 
Q 353 884 353 1716 
Q 353 2575 817 3079 
Q 1281 3584 2069 3584 
Q 2775 3584 3186 3129 
Q 3597 2675 3597 1894 
z
M 3022 2063 
Q 3016 2534 2758 2815 
Q 2500 3097 2075 3097 
Q 1594 3097 1305 2825 
Q 1016 2553 972 2059 
L 3022 2063 
z
" transform="scale(0.015625)"/>
       <path id="DejaVuSans-67" d="M 2906 1791 
Q 2906 2416 2648 2759 
Q 2391 3103 1925 3103 
Q 1463 3103 1205 2759 
Q 947 2416 947 1791 
Q 947 1169 1205 825 
Q 1463 481 1925 481 
Q 2391 481 2648 825 
Q 2906 1169 2906 1791 
z
M 3481 434 
Q 3481 -459 3084 -895 
Q 2688 -1331 1869 -1331 
Q 1566 -1331 1297 -1286 
Q 1028 -1241 775 -1147 
L 775 -588 
Q 1028 -725 1275 -790 
Q 1522 -856 1778 -856 
Q 2344 -856 2625 -561 
Q 2906 -266 2906 331 
L 2906 616 
Q 2728 306 2450 153 
Q 2172 0 1784 0 
Q 1141 0 747 490 
Q 353 981 353 1791 
Q 353 2603 747 3093 
Q 1141 3584 1784 3584 
Q 2172 3584 2450 3431 
Q 2728 3278 2906 2969 
L 2906 3500 
L 3481 3500 
L 3481 434 
z
" transform="scale(0.015625)"/>
       <path id="DejaVuSans-29" d="M 513 4856 
L 1013 4856 
Q 1481 4119 1714 3412 
Q 1947 2706 1947 2009 
Q 1947 1309 1714 600 
Q 1481 -109 1013 -844 
L 513 -844 
Q 928 -128 1133 580 
Q 1338 1288 1338 2009 
Q 1338 2731 1133 3434 
Q 928 4138 513 4856 
z
" transform="scale(0.015625)"/>
      </defs>
      <use xlink:href="#DejaVuSans-52"/>
      <use xlink:href="#DejaVuSans-6f" x="64.982422"/>
      <use xlink:href="#DejaVuSans-6c" x="126.164062"/>
      <use xlink:href="#DejaVuSans-6c" x="153.947266"/>
      <use xlink:href="#DejaVuSans-20" x="181.730469"/>
      <use xlink:href="#DejaVuSans-28" x="213.517578"/>
      <use xlink:href="#DejaVuSans-64" x="252.53125"/>
      <use xlink:href="#DejaVuSans-65" x="316.007812"/>
      <use xlink:href="#DejaVuSans-67" x="377.53125"/>
      <use xlink:href="#DejaVuSans-29" x="441.007812"/>
     </g>
    </g>
   </g>
   <g id="line2d_29">
    <path d="M 80.617528 84.532118 
L 179.786357 84.455395 
L 181.607985 83.606593 
L 183.429772 83.009767 
L 184.934726 82.678108 
L 185.647599 75.276335 
L 186.835721 64.368445 
L 187.944635 56.051378 
L 189.053549 49.367842 
L 189.84563 45.671667 
L 190.796226 42.433408 
L 191.667417 40.220817 
L 192.459597 38.785958 
L 193.172411 37.929619 
L 193.806036 37.48974 
L 194.439701 37.331717 
L 194.994198 37.409786 
L 195.627823 37.72987 
L 196.340696 38.3625 
L 197.132777 39.374977 
L 198.083255 40.975936 
L 199.192189 43.307783 
L 200.538707 46.700296 
L 202.202077 51.551627 
L 204.419925 58.782725 
L 213.132818 87.980625 
L 215.271438 93.993304 
L 217.172433 98.695765 
L 218.915011 102.431782 
L 220.499194 105.335151 
L 222.004326 107.6565 
L 223.429874 109.467706 
L 224.776412 110.841187 
L 226.12305 111.899698 
L 227.390281 112.621166 
L 228.65771 113.091196 
L 229.925059 113.325135 
L 231.19227 113.34021 
L 232.538828 113.135615 
L 233.964555 112.695735 
L 235.548717 111.967807 
L 237.053751 111.075125 
L 237.687337 122.677831 
L 238.796508 140.476544 
L 239.825936 153.606985 
L 240.776453 163.049327 
L 241.647743 169.604183 
L 242.439804 173.954255 
L 243.152895 176.668912 
L 243.786382 178.208222 
L 244.261611 178.868849 
L 244.657651 179.120555 
L 245.053672 179.118671 
L 245.449733 178.880425 
L 245.92508 178.305674 
L 246.479419 177.273006 
L 247.192311 175.435687 
L 248.063601 172.523165 
L 249.172515 167.956383 
L 250.598261 161.023564 
L 252.499295 150.569553 
L 256.222176 128.534102 
L 259.548779 109.450477 
L 261.845933 97.50292 
L 263.826017 88.300709 
L 265.647804 80.835673 
L 267.311313 74.891373 
L 268.895337 70.006391 
L 270.400311 66.050703 
L 271.826038 62.895359 
L 273.172833 60.417602 
L 274.519114 58.401262 
L 275.786444 56.896948 
L 276.974566 55.809094 
L 278.162688 55.011172 
L 279.35081 54.48057 
L 280.538931 54.195752 
L 281.727212 54.135181 
L 282.994403 54.293743 
L 284.34106 54.687858 
L 285.845915 55.370021 
L 287.509246 56.376576 
L 289.410241 57.793937 
L 291.707277 59.797894 
L 294.717205 62.745681 
L 306.915276 75.053164 
L 309.925442 77.602529 
L 312.776638 79.724936 
L 315.390506 81.406386 
L 318.083582 82.871666 
L 320.69747 84.041358 
L 323.311318 84.976036 
L 326.083603 85.730346 
L 329.093511 86.302675 
L 332.261836 86.666908 
L 335.826241 86.837314 
L 339.865816 86.797741 
L 344.935136 86.515884 
L 353.014365 85.828606 
L 363.232312 85.001341 
L 371.073797 84.57869 
L 380.578811 84.333445 
L 391.19274 84.300602 
L 416.222507 84.496583 
L 441.093798 84.554731 
L 674.599347 84.532118 
L 674.599347 84.532118 
" clip-path="url(#p8e20ff810e)" style="fill: none; stroke: #e67e22; stroke-width: 1.8; stroke-linecap: square"/>
   </g>
   <g id="line2d_30">
    <path d="M 135.904898 186.24 
L 135.904898 30.24 
" clip-path="url(#p8e20ff810e)" style="fill: none; stroke-dasharray: 1,1.65; stroke-dashoffset: 0; stroke: #e67e22; stroke-opacity: 0.8"/>
   </g>
   <g id="line2d_31">
    <path d="M 184.855518 186.24 
L 184.855518 30.24 
" clip-path="url(#p8e20ff810e)" style="fill: none; stroke-dasharray: 1,1.65; stroke-dashoffset: 0; stroke: #2ecc71; stroke-opacity: 0.8"/>
   </g>
   <g id="line2d_32">
    <path d="M 236.974602 186.24 
L 236.974602 30.24 
" clip-path="url(#p8e20ff810e)" style="fill: none; stroke-dasharray: 1,1.65; stroke-dashoffset: 0; stroke: #9b59b6; stroke-opacity: 0.8"/>
   </g>
   <g id="patch_3">
    <path d="M 50.918438 186.24 
L 50.918438 30.24 
" style="fill: none; stroke: #000000; stroke-width: 0.8; stroke-linejoin: miter; stroke-linecap: square"/>
   </g>
   <g id="patch_4">
    <path d="M 50.918438 186.24 
L 704.298438 186.24 
" style="fill: none; stroke: #000000; stroke-width: 0.8; stroke-linejoin: miter; stroke-linecap: square"/>
   </g>
   <g id="legend_1">
    <g id="patch_5">
     <path d="M 635.690313 57.45375 
L 695.898438 57.45375 
Q 698.298437 57.45375 698.298437 55.05375 
L 698.298437 38.64 
Q 698.298437 36.24 695.898438 36.24 
L 635.690313 36.24 
Q 633.290313 36.24 633.290313 38.64 
L 633.290313 55.05375 
Q 633.290313 57.45375 635.690313 57.45375 
z
" style="fill: #ffffff; opacity: 0.8; stroke: #cccccc; stroke-linejoin: miter"/>
    </g>
    <g id="line2d_33">
     <path d="M 638.090312 45.958125 
L 650.090312 45.958125 
L 662.090312 45.958125 
" style="fill: none; stroke: #e67e22; stroke-width: 1.8; stroke-linecap: square"/>
    </g>
    <g id="text_9">
     <!-- Roll -->
     <g transform="translate(671.690313 50.158125) scale(0.12 -0.12)">
      <use xlink:href="#DejaVuSans-52"/>
      <use xlink:href="#DejaVuSans-6f" x="64.982422"/>
      <use xlink:href="#DejaVuSans-6c" x="126.164062"/>
      <use xlink:href="#DejaVuSans-6c" x="153.947266"/>
     </g>
    </g>
   </g>
  </g>
  <g id="axes_2">
   <g id="patch_6">
    <path d="M 50.918438 356.54 
L 704.298438 356.54 
L 704.298438 200.54 
L 50.918438 200.54 
z
" style="fill: #ffffff"/>
   </g>
   <g id="matplotlib.axis_3">
    <g id="xtick_8">
     <g id="line2d_34">
      <path d="M 80.617528 356.54 
L 80.617528 200.54 
" clip-path="url(#pe201e9609c)" style="fill: none; stroke: #b0b0b0; stroke-opacity: 0.3; stroke-width: 0.8; stroke-linecap: square"/>
     </g>
     <g id="line2d_35">
      <g>
       <use xlink:href="#m949f2d3644" x="80.617528" y="356.54" style="stroke: #000000; stroke-width: 0.8"/>
      </g>
     </g>
    </g>
    <g id="xtick_9">
     <g id="line2d_36">
      <path d="M 179.627683 356.54 
L 179.627683 200.54 
" clip-path="url(#pe201e9609c)" style="fill: none; stroke: #b0b0b0; stroke-opacity: 0.3; stroke-width: 0.8; stroke-linecap: square"/>
     </g>
     <g id="line2d_37">
      <g>
       <use xlink:href="#m949f2d3644" x="179.627683" y="356.54" style="stroke: #000000; stroke-width: 0.8"/>
      </g>
     </g>
    </g>
    <g id="xtick_10">
     <g id="line2d_38">
      <path d="M 278.637838 356.54 
L 278.637838 200.54 
" clip-path="url(#pe201e9609c)" style="fill: none; stroke: #b0b0b0; stroke-opacity: 0.3; stroke-width: 0.8; stroke-linecap: square"/>
     </g>
     <g id="line2d_39">
      <g>
       <use xlink:href="#m949f2d3644" x="278.637838" y="356.54" style="stroke: #000000; stroke-width: 0.8"/>
      </g>
     </g>
    </g>
    <g id="xtick_11">
     <g id="line2d_40">
      <path d="M 377.647992 356.54 
L 377.647992 200.54 
" clip-path="url(#pe201e9609c)" style="fill: none; stroke: #b0b0b0; stroke-opacity: 0.3; stroke-width: 0.8; stroke-linecap: square"/>
     </g>
     <g id="line2d_41">
      <g>
       <use xlink:href="#m949f2d3644" x="377.647992" y="356.54" style="stroke: #000000; stroke-width: 0.8"/>
      </g>
     </g>
    </g>
    <g id="xtick_12">
     <g id="line2d_42">
      <path d="M 476.658147 356.54 
L 476.658147 200.54 
" clip-path="url(#pe201e9609c)" style="fill: none; stroke: #b0b0b0; stroke-opacity: 0.3; stroke-width: 0.8; stroke-linecap: square"/>
     </g>
     <g id="line2d_43">
      <g>
       <use xlink:href="#m949f2d3644" x="476.658147" y="356.54" style="stroke: #000000; stroke-width: 0.8"/>
      </g>
     </g>
    </g>
    <g id="xtick_13">
     <g id="line2d_44">
      <path d="M 575.668301 356.54 
L 575.668301 200.54 
" clip-path="url(#pe201e9609c)" style="fill: none; stroke: #b0b0b0; stroke-opacity: 0.3; stroke-width: 0.8; stroke-linecap: square"/>
     </g>
     <g id="line2d_45">
      <g>
       <use xlink:href="#m949f2d3644" x="575.668301" y="356.54" style="stroke: #000000; stroke-width: 0.8"/>
      </g>
     </g>
    </g>
    <g id="xtick_14">
     <g id="line2d_46">
      <path d="M 674.678456 356.54 
L 674.678456 200.54 
" clip-path="url(#pe201e9609c)" style="fill: none; stroke: #b0b0b0; stroke-opacity: 0.3; stroke-width: 0.8; stroke-linecap: square"/>
     </g>
     <g id="line2d_47">
      <g>
       <use xlink:href="#m949f2d3644" x="674.678456" y="356.54" style="stroke: #000000; stroke-width: 0.8"/>
      </g>
     </g>
    </g>
   </g>
   <g id="matplotlib.axis_4">
    <g id="ytick_8">
     <g id="line2d_48">
      <path d="M 50.918438 340.311116 
L 704.298438 340.311116 
" clip-path="url(#pe201e9609c)" style="fill: none; stroke: #b0b0b0; stroke-opacity: 0.3; stroke-width: 0.8; stroke-linecap: square"/>
     </g>
     <g id="line2d_49">
      <g>
       <use xlink:href="#m8c7eee634f" x="50.918438" y="340.311116" style="stroke: #000000; stroke-width: 0.8"/>
      </g>
     </g>
     <g id="text_10">
      <!-- −10 -->
      <g transform="translate(22.81375 344.110335) scale(0.1 -0.1)">
       <use xlink:href="#DejaVuSans-2212"/>
       <use xlink:href="#DejaVuSans-31" x="83.789062"/>
       <use xlink:href="#DejaVuSans-30" x="147.412109"/>
      </g>
     </g>
    </g>
    <g id="ytick_9">
     <g id="line2d_50">
      <path d="M 50.918438 314.593156 
L 704.298438 314.593156 
" clip-path="url(#pe201e9609c)" style="fill: none; stroke: #b0b0b0; stroke-opacity: 0.3; stroke-width: 0.8; stroke-linecap: square"/>
     </g>
     <g id="line2d_51">
      <g>
       <use xlink:href="#m8c7eee634f" x="50.918438" y="314.593156" style="stroke: #000000; stroke-width: 0.8"/>
      </g>
     </g>
     <g id="text_11">
      <!-- −5 -->
      <g transform="translate(29.17625 318.392375) scale(0.1 -0.1)">
       <use xlink:href="#DejaVuSans-2212"/>
       <use xlink:href="#DejaVuSans-35" x="83.789062"/>
      </g>
     </g>
    </g>
    <g id="ytick_10">
     <g id="line2d_52">
      <path d="M 50.918438 288.875196 
L 704.298438 288.875196 
" clip-path="url(#pe201e9609c)" style="fill: none; stroke: #b0b0b0; stroke-opacity: 0.3; stroke-width: 0.8; stroke-linecap: square"/>
     </g>
     <g id="line2d_53">
      <g>
       <use xlink:href="#m8c7eee634f" x="50.918438" y="288.875196" style="stroke: #000000; stroke-width: 0.8"/>
      </g>
     </g>
     <g id="text_12">
      <!-- 0 -->
      <g transform="translate(37.555937 292.674415) scale(0.1 -0.1)">
       <use xlink:href="#DejaVuSans-30"/>
      </g>
     </g>
    </g>
    <g id="ytick_11">
     <g id="line2d_54">
      <path d="M 50.918438 263.157236 
L 704.298438 263.157236 
" clip-path="url(#pe201e9609c)" style="fill: none; stroke: #b0b0b0; stroke-opacity: 0.3; stroke-width: 0.8; stroke-linecap: square"/>
     </g>
     <g id="line2d_55">
      <g>
       <use xlink:href="#m8c7eee634f" x="50.918438" y="263.157236" style="stroke: #000000; stroke-width: 0.8"/>
      </g>
     </g>
     <g id="text_13">
      <!-- 5 -->
      <g transform="translate(37.555937 266.956455) scale(0.1 -0.1)">
       <use xlink:href="#DejaVuSans-35"/>
      </g>
     </g>
    </g>
    <g id="ytick_12">
     <g id="line2d_56">
      <path d="M 50.918438 237.439276 
L 704.298438 237.439276 
" clip-path="url(#pe201e9609c)" style="fill: none; stroke: #b0b0b0; stroke-opacity: 0.3; stroke-width: 0.8; stroke-linecap: square"/>
     </g>
     <g id="line2d_57">
      <g>
       <use xlink:href="#m8c7eee634f" x="50.918438" y="237.439276" style="stroke: #000000; stroke-width: 0.8"/>
      </g>
     </g>
     <g id="text_14">
      <!-- 10 -->
      <g transform="translate(31.193438 241.238495) scale(0.1 -0.1)">
       <use xlink:href="#DejaVuSans-31"/>
       <use xlink:href="#DejaVuSans-30" x="63.623047"/>
      </g>
     </g>
    </g>
    <g id="ytick_13">
     <g id="line2d_58">
      <path d="M 50.918438 211.721316 
L 704.298438 211.721316 
" clip-path="url(#pe201e9609c)" style="fill: none; stroke: #b0b0b0; stroke-opacity: 0.3; stroke-width: 0.8; stroke-linecap: square"/>
     </g>
     <g id="line2d_59">
      <g>
       <use xlink:href="#m8c7eee634f" x="50.918438" y="211.721316" style="stroke: #000000; stroke-width: 0.8"/>
      </g>
     </g>
     <g id="text_15">
      <!-- 15 -->
      <g transform="translate(31.193438 215.520534) scale(0.1 -0.1)">
       <use xlink:href="#DejaVuSans-31"/>
       <use xlink:href="#DejaVuSans-35" x="63.623047"/>
      </g>
     </g>
    </g>
    <g id="text_16">
     <!-- Pitch (deg) -->
     <g transform="translate(16.318125 311.042187) rotate(-90) scale(0.12 -0.12)">
      <defs>
       <path id="DejaVuSans-50" d="M 1259 4147 
L 1259 2394 
L 2053 2394 
Q 2494 2394 2734 2622 
Q 2975 2850 2975 3272 
Q 2975 3691 2734 3919 
Q 2494 4147 2053 4147 
L 1259 4147 
z
M 628 4666 
L 2053 4666 
Q 2838 4666 3239 4311 
Q 3641 3956 3641 3272 
Q 3641 2581 3239 2228 
Q 2838 1875 2053 1875 
L 1259 1875 
L 1259 0 
L 628 0 
L 628 4666 
z
" transform="scale(0.015625)"/>
       <path id="DejaVuSans-69" d="M 603 3500 
L 1178 3500 
L 1178 0 
L 603 0 
L 603 3500 
z
M 603 4863 
L 1178 4863 
L 1178 4134 
L 603 4134 
L 603 4863 
z
" transform="scale(0.015625)"/>
       <path id="DejaVuSans-74" d="M 1172 4494 
L 1172 3500 
L 2356 3500 
L 2356 3053 
L 1172 3053 
L 1172 1153 
Q 1172 725 1289 603 
Q 1406 481 1766 481 
L 2356 481 
L 2356 0 
L 1766 0 
Q 1100 0 847 248 
Q 594 497 594 1153 
L 594 3053 
L 172 3053 
L 172 3500 
L 594 3500 
L 594 4494 
L 1172 4494 
z
" transform="scale(0.015625)"/>
       <path id="DejaVuSans-63" d="M 3122 3366 
L 3122 2828 
Q 2878 2963 2633 3030 
Q 2388 3097 2138 3097 
Q 1578 3097 1268 2742 
Q 959 2388 959 1747 
Q 959 1106 1268 751 
Q 1578 397 2138 397 
Q 2388 397 2633 464 
Q 2878 531 3122 666 
L 3122 134 
Q 2881 22 2623 -34 
Q 2366 -91 2075 -91 
Q 1284 -91 818 406 
Q 353 903 353 1747 
Q 353 2603 823 3093 
Q 1294 3584 2113 3584 
Q 2378 3584 2631 3529 
Q 2884 3475 3122 3366 
z
" transform="scale(0.015625)"/>
       <path id="DejaVuSans-68" d="M 3513 2113 
L 3513 0 
L 2938 0 
L 2938 2094 
Q 2938 2591 2744 2837 
Q 2550 3084 2163 3084 
Q 1697 3084 1428 2787 
Q 1159 2491 1159 1978 
L 1159 0 
L 581 0 
L 581 4863 
L 1159 4863 
L 1159 2956 
Q 1366 3272 1645 3428 
Q 1925 3584 2291 3584 
Q 2894 3584 3203 3211 
Q 3513 2838 3513 2113 
z
" transform="scale(0.015625)"/>
      </defs>
      <use xlink:href="#DejaVuSans-50"/>
      <use xlink:href="#DejaVuSans-69" x="58.052734"/>
      <use xlink:href="#DejaVuSans-74" x="85.835938"/>
      <use xlink:href="#DejaVuSans-63" x="125.044922"/>
      <use xlink:href="#DejaVuSans-68" x="180.025391"/>
      <use xlink:href="#DejaVuSans-20" x="243.404297"/>
      <use xlink:href="#DejaVuSans-28" x="275.191406"/>
      <use xlink:href="#DejaVuSans-64" x="314.205078"/>
      <use xlink:href="#DejaVuSans-65" x="377.681641"/>
      <use xlink:href="#DejaVuSans-67" x="439.205078"/>
      <use xlink:href="#DejaVuSans-29" x="502.681641"/>
     </g>
    </g>
   </g>
   <g id="line2d_60">
    <path d="M 80.617528 288.875196 
L 135.984106 288.875196 
L 136.697177 298.828895 
L 137.885081 313.360854 
L 138.994351 324.296808 
L 140.02372 332.392385 
L 140.974218 338.277372 
L 141.845487 342.451884 
L 142.716796 345.562212 
L 143.429669 347.382612 
L 144.063334 348.496895 
L 144.697039 349.172657 
L 145.251456 349.429051 
L 145.726705 349.417557 
L 146.281162 349.152027 
L 146.914827 348.539923 
L 147.627957 347.492242 
L 148.498989 345.750529 
L 149.528695 343.122929 
L 150.716876 339.453544 
L 152.221771 334.042739 
L 154.281182 325.702556 
L 158.796045 306.1046 
L 161.726964 293.994241 
L 163.944573 285.715062 
L 165.924777 279.145474 
L 167.746563 273.860509 
L 169.409934 269.698374 
L 170.994235 266.327526 
L 172.419843 263.782444 
L 173.845589 261.687083 
L 175.192246 260.105101 
L 176.459457 258.952211 
L 177.726807 258.106994 
L 178.914889 257.577407 
L 180.10311 257.285058 
L 181.291153 257.212855 
L 182.558463 257.359029 
L 183.90506 257.743032 
L 185.013934 258.267314 
L 189.766422 263.909757 
L 193.964452 268.494205 
L 198.083255 272.67078 
L 201.726829 276.056954 
L 205.053609 278.859019 
L 208.380331 281.361664 
L 211.548656 283.454961 
L 214.558564 285.17634 
L 217.568473 286.636314 
L 220.420302 287.782426 
L 223.509082 288.772344 
L 226.518991 289.501741 
L 229.5289 290.020424 
L 232.85574 290.379966 
L 236.578423 290.562978 
L 237.053751 290.572409 
L 237.845753 273.226007 
L 238.875498 254.064215 
L 239.905164 238.920447 
L 240.855681 228.057874 
L 241.726951 220.420565 
L 242.519111 215.197489 
L 243.232123 211.764162 
L 243.86557 209.633142 
L 244.420027 208.421016 
L 244.895276 207.832488 
L 245.291316 207.638571 
L 245.687436 207.698102 
L 246.083418 207.99605 
L 246.558646 208.647056 
L 247.192311 209.972054 
L 247.90562 212.021441 
L 248.776454 215.211929 
L 249.885586 220.163876 
L 251.390342 228.035476 
L 253.687378 241.44372 
L 258.043844 266.962028 
L 260.261632 278.535432 
L 262.241855 287.683699 
L 264.063642 295.040153 
L 265.727012 300.862957 
L 267.311313 305.630712 
L 268.816129 309.481637 
L 270.241994 312.548054 
L 271.588414 314.949614 
L 272.855743 316.795948 
L 274.123073 318.263879 
L 275.311195 319.318338 
L 276.499317 320.081921 
L 277.687498 320.575554 
L 278.875561 320.819571 
L 280.063703 320.835485 
L 281.331013 320.624181 
L 282.677551 320.16827 
L 284.182565 319.41117 
L 285.845915 318.316042 
L 287.74691 316.79359 
L 290.044203 314.661392 
L 293.133023 311.46884 
L 304.142952 299.827359 
L 307.311297 296.95928 
L 310.083562 294.736901 
L 312.776638 292.853729 
L 315.469734 291.24758 
L 318.004374 289.98388 
L 320.618242 288.922054 
L 323.311318 288.066817 
L 326.083603 287.416106 
L 329.014303 286.951355 
L 332.261836 286.663427 
L 336.143034 286.570005 
L 340.420293 286.696728 
L 346.519397 287.125231 
L 365.212475 288.610845 
L 373.291644 288.95182 
L 382.083746 289.102415 
L 394.123381 289.081785 
L 439.905755 288.852798 
L 674.599347 288.875196 
L 674.599347 288.875196 
" clip-path="url(#pe201e9609c)" style="fill: none; stroke: #9b59b6; stroke-width: 1.8; stroke-linecap: square"/>
   </g>
   <g id="line2d_61">
    <path d="M 135.904898 356.54 
L 135.904898 200.54 
" clip-path="url(#pe201e9609c)" style="fill: none; stroke-dasharray: 1,1.65; stroke-dashoffset: 0; stroke: #e67e22; stroke-opacity: 0.8"/>
   </g>
   <g id="line2d_62">
    <path d="M 184.855518 356.54 
L 184.855518 200.54 
" clip-path="url(#pe201e9609c)" style="fill: none; stroke-dasharray: 1,1.65; stroke-dashoffset: 0; stroke: #2ecc71; stroke-opacity: 0.8"/>
   </g>
   <g id="line2d_63">
    <path d="M 236.974602 356.54 
L 236.974602 200.54 
" clip-path="url(#pe201e9609c)" style="fill: none; stroke-dasharray: 1,1.65; stroke-dashoffset: 0; stroke: #9b59b6; stroke-opacity: 0.8"/>
   </g>
   <g id="patch_7">
    <path d="M 50.918438 356.54 
L 50.918438 200.54 
" style="fill: none; stroke: #000000; stroke-width: 0.8; stroke-linejoin: miter; stroke-linecap: square"/>
   </g>
   <g id="patch_8">
    <path d="M 50.918438 356.54 
L 704.298438 356.54 
" style="fill: none; stroke: #000000; stroke-width: 0.8; stroke-linejoin: miter; stroke-linecap: square"/>
   </g>
   <g id="legend_2">
    <g id="patch_9">
     <path d="M 628.291563 227.75375 
L 695.898438 227.75375 
Q 698.298438 227.75375 698.298438 225.35375 
L 698.298438 208.94 
Q 698.298438 206.54 695.898438 206.54 
L 628.291563 206.54 
Q 625.891563 206.54 625.891563 208.94 
L 625.891563 225.35375 
Q 625.891563 227.75375 628.291563 227.75375 
z
" style="fill: #ffffff; opacity: 0.8; stroke: #cccccc; stroke-linejoin: miter"/>
    </g>
    <g id="line2d_64">
     <path d="M 630.691563 216.258125 
L 642.691563 216.258125 
L 654.691563 216.258125 
" style="fill: none; stroke: #9b59b6; stroke-width: 1.8; stroke-linecap: square"/>
    </g>
    <g id="text_17">
     <!-- Pitch -->
     <g transform="translate(664.291563 220.458125) scale(0.12 -0.12)">
      <use xlink:href="#DejaVuSans-50"/>
      <use xlink:href="#DejaVuSans-69" x="58.052734"/>
      <use xlink:href="#DejaVuSans-74" x="85.835938"/>
      <use xlink:href="#DejaVuSans-63" x="125.044922"/>
      <use xlink:href="#DejaVuSans-68" x="180.025391"/>
     </g>
    </g>
   </g>
  </g>
  <g id="axes_3">
   <g id="patch_10">
    <path d="M 50.918438 526.84 
L 704.298438 526.84 
L 704.298438 370.84 
L 50.918438 370.84 
z
" style="fill: #ffffff"/>
   </g>
   <g id="matplotlib.axis_5">
    <g id="xtick_15">
     <g id="line2d_65">
      <path d="M 80.617528 526.84 
L 80.617528 370.84 
" clip-path="url(#p069fc59349)" style="fill: none; stroke: #b0b0b0; stroke-opacity: 0.3; stroke-width: 0.8; stroke-linecap: square"/>
     </g>
     <g id="line2d_66">
      <g>
       <use xlink:href="#m949f2d3644" x="80.617528" y="526.84" style="stroke: #000000; stroke-width: 0.8"/>
      </g>
     </g>
     <g id="text_18">
      <!-- 0 -->
      <g transform="translate(77.436278 541.438437) scale(0.1 -0.1)">
       <use xlink:href="#DejaVuSans-30"/>
      </g>
     </g>
    </g>
    <g id="xtick_16">
     <g id="line2d_67">
      <path d="M 179.627683 526.84 
L 179.627683 370.84 
" clip-path="url(#p069fc59349)" style="fill: none; stroke: #b0b0b0; stroke-opacity: 0.3; stroke-width: 0.8; stroke-linecap: square"/>
     </g>
     <g id="line2d_68">
      <g>
       <use xlink:href="#m949f2d3644" x="179.627683" y="526.84" style="stroke: #000000; stroke-width: 0.8"/>
      </g>
     </g>
     <g id="text_19">
      <!-- 5 -->
      <g transform="translate(176.446433 541.438437) scale(0.1 -0.1)">
       <use xlink:href="#DejaVuSans-35"/>
      </g>
     </g>
    </g>
    <g id="xtick_17">
     <g id="line2d_69">
      <path d="M 278.637838 526.84 
L 278.637838 370.84 
" clip-path="url(#p069fc59349)" style="fill: none; stroke: #b0b0b0; stroke-opacity: 0.3; stroke-width: 0.8; stroke-linecap: square"/>
     </g>
     <g id="line2d_70">
      <g>
       <use xlink:href="#m949f2d3644" x="278.637838" y="526.84" style="stroke: #000000; stroke-width: 0.8"/>
      </g>
     </g>
     <g id="text_20">
      <!-- 10 -->
      <g transform="translate(272.275338 541.438437) scale(0.1 -0.1)">
       <use xlink:href="#DejaVuSans-31"/>
       <use xlink:href="#DejaVuSans-30" x="63.623047"/>
      </g>
     </g>
    </g>
    <g id="xtick_18">
     <g id="line2d_71">
      <path d="M 377.647992 526.84 
L 377.647992 370.84 
" clip-path="url(#p069fc59349)" style="fill: none; stroke: #b0b0b0; stroke-opacity: 0.3; stroke-width: 0.8; stroke-linecap: square"/>
     </g>
     <g id="line2d_72">
      <g>
       <use xlink:href="#m949f2d3644" x="377.647992" y="526.84" style="stroke: #000000; stroke-width: 0.8"/>
      </g>
     </g>
     <g id="text_21">
      <!-- 15 -->
      <g transform="translate(371.285492 541.438437) scale(0.1 -0.1)">
       <use xlink:href="#DejaVuSans-31"/>
       <use xlink:href="#DejaVuSans-35" x="63.623047"/>
      </g>
     </g>
    </g>
    <g id="xtick_19">
     <g id="line2d_73">
      <path d="M 476.658147 526.84 
L 476.658147 370.84 
" clip-path="url(#p069fc59349)" style="fill: none; stroke: #b0b0b0; stroke-opacity: 0.3; stroke-width: 0.8; stroke-linecap: square"/>
     </g>
     <g id="line2d_74">
      <g>
       <use xlink:href="#m949f2d3644" x="476.658147" y="526.84" style="stroke: #000000; stroke-width: 0.8"/>
      </g>
     </g>
     <g id="text_22">
      <!-- 20 -->
      <g transform="translate(470.295647 541.438437) scale(0.1 -0.1)">
       <use xlink:href="#DejaVuSans-32"/>
       <use xlink:href="#DejaVuSans-30" x="63.623047"/>
      </g>
     </g>
    </g>
    <g id="xtick_20">
     <g id="line2d_75">
      <path d="M 575.668301 526.84 
L 575.668301 370.84 
" clip-path="url(#p069fc59349)" style="fill: none; stroke: #b0b0b0; stroke-opacity: 0.3; stroke-width: 0.8; stroke-linecap: square"/>
     </g>
     <g id="line2d_76">
      <g>
       <use xlink:href="#m949f2d3644" x="575.668301" y="526.84" style="stroke: #000000; stroke-width: 0.8"/>
      </g>
     </g>
     <g id="text_23">
      <!-- 25 -->
      <g transform="translate(569.305801 541.438437) scale(0.1 -0.1)">
       <use xlink:href="#DejaVuSans-32"/>
       <use xlink:href="#DejaVuSans-35" x="63.623047"/>
      </g>
     </g>
    </g>
    <g id="xtick_21">
     <g id="line2d_77">
      <path d="M 674.678456 526.84 
L 674.678456 370.84 
" clip-path="url(#p069fc59349)" style="fill: none; stroke: #b0b0b0; stroke-opacity: 0.3; stroke-width: 0.8; stroke-linecap: square"/>
     </g>
     <g id="line2d_78">
      <g>
       <use xlink:href="#m949f2d3644" x="674.678456" y="526.84" style="stroke: #000000; stroke-width: 0.8"/>
      </g>
     </g>
     <g id="text_24">
      <!-- 30 -->
      <g transform="translate(668.315956 541.438437) scale(0.1 -0.1)">
       <defs>
        <path id="DejaVuSans-33" d="M 2597 2516 
Q 3050 2419 3304 2112 
Q 3559 1806 3559 1356 
Q 3559 666 3084 287 
Q 2609 -91 1734 -91 
Q 1441 -91 1130 -33 
Q 819 25 488 141 
L 488 750 
Q 750 597 1062 519 
Q 1375 441 1716 441 
Q 2309 441 2620 675 
Q 2931 909 2931 1356 
Q 2931 1769 2642 2001 
Q 2353 2234 1838 2234 
L 1294 2234 
L 1294 2753 
L 1863 2753 
Q 2328 2753 2575 2939 
Q 2822 3125 2822 3475 
Q 2822 3834 2567 4026 
Q 2313 4219 1838 4219 
Q 1578 4219 1281 4162 
Q 984 4106 628 3988 
L 628 4550 
Q 988 4650 1302 4700 
Q 1616 4750 1894 4750 
Q 2613 4750 3031 4423 
Q 3450 4097 3450 3541 
Q 3450 3153 3228 2886 
Q 3006 2619 2597 2516 
z
" transform="scale(0.015625)"/>
       </defs>
       <use xlink:href="#DejaVuSans-33"/>
       <use xlink:href="#DejaVuSans-30" x="63.623047"/>
      </g>
     </g>
    </g>
    <g id="text_25">
     <!-- Time (s) -->
     <g transform="translate(353.21375 556.63625) scale(0.12 -0.12)">
      <defs>
       <path id="DejaVuSans-54" d="M -19 4666 
L 3928 4666 
L 3928 4134 
L 2272 4134 
L 2272 0 
L 1638 0 
L 1638 4134 
L -19 4134 
L -19 4666 
z
" transform="scale(0.015625)"/>
       <path id="DejaVuSans-6d" d="M 3328 2828 
Q 3544 3216 3844 3400 
Q 4144 3584 4550 3584 
Q 5097 3584 5394 3201 
Q 5691 2819 5691 2113 
L 5691 0 
L 5113 0 
L 5113 2094 
Q 5113 2597 4934 2840 
Q 4756 3084 4391 3084 
Q 3944 3084 3684 2787 
Q 3425 2491 3425 1978 
L 3425 0 
L 2847 0 
L 2847 2094 
Q 2847 2600 2669 2842 
Q 2491 3084 2119 3084 
Q 1678 3084 1418 2786 
Q 1159 2488 1159 1978 
L 1159 0 
L 581 0 
L 581 3500 
L 1159 3500 
L 1159 2956 
Q 1356 3278 1631 3431 
Q 1906 3584 2284 3584 
Q 2666 3584 2933 3390 
Q 3200 3197 3328 2828 
z
" transform="scale(0.015625)"/>
       <path id="DejaVuSans-73" d="M 2834 3397 
L 2834 2853 
Q 2591 2978 2328 3040 
Q 2066 3103 1784 3103 
Q 1356 3103 1142 2972 
Q 928 2841 928 2578 
Q 928 2378 1081 2264 
Q 1234 2150 1697 2047 
L 1894 2003 
Q 2506 1872 2764 1633 
Q 3022 1394 3022 966 
Q 3022 478 2636 193 
Q 2250 -91 1575 -91 
Q 1294 -91 989 -36 
Q 684 19 347 128 
L 347 722 
Q 666 556 975 473 
Q 1284 391 1588 391 
Q 1994 391 2212 530 
Q 2431 669 2431 922 
Q 2431 1156 2273 1281 
Q 2116 1406 1581 1522 
L 1381 1569 
Q 847 1681 609 1914 
Q 372 2147 372 2553 
Q 372 3047 722 3315 
Q 1072 3584 1716 3584 
Q 2034 3584 2315 3537 
Q 2597 3491 2834 3397 
z
" transform="scale(0.015625)"/>
      </defs>
      <use xlink:href="#DejaVuSans-54"/>
      <use xlink:href="#DejaVuSans-69" x="57.958984"/>
      <use xlink:href="#DejaVuSans-6d" x="85.742188"/>
      <use xlink:href="#DejaVuSans-65" x="183.154297"/>
      <use xlink:href="#DejaVuSans-20" x="244.677734"/>
      <use xlink:href="#DejaVuSans-28" x="276.464844"/>
      <use xlink:href="#DejaVuSans-73" x="315.478516"/>
      <use xlink:href="#DejaVuSans-29" x="367.578125"/>
     </g>
    </g>
   </g>
   <g id="matplotlib.axis_6">
    <g id="ytick_14">
     <g id="line2d_79">
      <path d="M 50.918438 510.389869 
L 704.298438 510.389869 
" clip-path="url(#p069fc59349)" style="fill: none; stroke: #b0b0b0; stroke-opacity: 0.3; stroke-width: 0.8; stroke-linecap: square"/>
     </g>
     <g id="line2d_80">
      <g>
       <use xlink:href="#m8c7eee634f" x="50.918438" y="510.389869" style="stroke: #000000; stroke-width: 0.8"/>
      </g>
     </g>
     <g id="text_26">
      <!-- −2 -->
      <g transform="translate(29.17625 514.189088) scale(0.1 -0.1)">
       <use xlink:href="#DejaVuSans-2212"/>
       <use xlink:href="#DejaVuSans-32" x="83.789062"/>
      </g>
     </g>
    </g>
    <g id="ytick_15">
     <g id="line2d_81">
      <path d="M 50.918438 467.271775 
L 704.298438 467.271775 
" clip-path="url(#p069fc59349)" style="fill: none; stroke: #b0b0b0; stroke-opacity: 0.3; stroke-width: 0.8; stroke-linecap: square"/>
     </g>
     <g id="line2d_82">
      <g>
       <use xlink:href="#m8c7eee634f" x="50.918438" y="467.271775" style="stroke: #000000; stroke-width: 0.8"/>
      </g>
     </g>
     <g id="text_27">
      <!-- −1 -->
      <g transform="translate(29.17625 471.070994) scale(0.1 -0.1)">
       <use xlink:href="#DejaVuSans-2212"/>
       <use xlink:href="#DejaVuSans-31" x="83.789062"/>
      </g>
     </g>
    </g>
    <g id="ytick_16">
     <g id="line2d_83">
      <path d="M 50.918438 424.15368 
L 704.298438 424.15368 
" clip-path="url(#p069fc59349)" style="fill: none; stroke: #b0b0b0; stroke-opacity: 0.3; stroke-width: 0.8; stroke-linecap: square"/>
     </g>
     <g id="line2d_84">
      <g>
       <use xlink:href="#m8c7eee634f" x="50.918438" y="424.15368" style="stroke: #000000; stroke-width: 0.8"/>
      </g>
     </g>
     <g id="text_28">
      <!-- 0 -->
      <g transform="translate(37.555937 427.952899) scale(0.1 -0.1)">
       <use xlink:href="#DejaVuSans-30"/>
      </g>
     </g>
    </g>
    <g id="ytick_17">
     <g id="line2d_85">
      <path d="M 50.918438 381.035586 
L 704.298438 381.035586 
" clip-path="url(#p069fc59349)" style="fill: none; stroke: #b0b0b0; stroke-opacity: 0.3; stroke-width: 0.8; stroke-linecap: square"/>
     </g>
     <g id="line2d_86">
      <g>
       <use xlink:href="#m8c7eee634f" x="50.918438" y="381.035586" style="stroke: #000000; stroke-width: 0.8"/>
      </g>
     </g>
     <g id="text_29">
      <!-- 1 -->
      <g transform="translate(37.555937 384.834805) scale(0.1 -0.1)">
       <use xlink:href="#DejaVuSans-31"/>
      </g>
     </g>
    </g>
    <g id="text_30">
     <!-- Yaw (deg) -->
     <g transform="translate(22.680625 478.162187) rotate(-90) scale(0.12 -0.12)">
      <defs>
       <path id="DejaVuSans-59" d="M -13 4666 
L 666 4666 
L 1959 2747 
L 3244 4666 
L 3922 4666 
L 2272 2222 
L 2272 0 
L 1638 0 
L 1638 2222 
L -13 4666 
z
" transform="scale(0.015625)"/>
       <path id="DejaVuSans-61" d="M 2194 1759 
Q 1497 1759 1228 1600 
Q 959 1441 959 1056 
Q 959 750 1161 570 
Q 1363 391 1709 391 
Q 2188 391 2477 730 
Q 2766 1069 2766 1631 
L 2766 1759 
L 2194 1759 
z
M 3341 1997 
L 3341 0 
L 2766 0 
L 2766 531 
Q 2569 213 2275 61 
Q 1981 -91 1556 -91 
Q 1019 -91 701 211 
Q 384 513 384 1019 
Q 384 1609 779 1909 
Q 1175 2209 1959 2209 
L 2766 2209 
L 2766 2266 
Q 2766 2663 2505 2880 
Q 2244 3097 1772 3097 
Q 1472 3097 1187 3025 
Q 903 2953 641 2809 
L 641 3341 
Q 956 3463 1253 3523 
Q 1550 3584 1831 3584 
Q 2591 3584 2966 3190 
Q 3341 2797 3341 1997 
z
" transform="scale(0.015625)"/>
       <path id="DejaVuSans-77" d="M 269 3500 
L 844 3500 
L 1563 769 
L 2278 3500 
L 2956 3500 
L 3675 769 
L 4391 3500 
L 4966 3500 
L 4050 0 
L 3372 0 
L 2619 2869 
L 1863 0 
L 1184 0 
L 269 3500 
z
" transform="scale(0.015625)"/>
      </defs>
      <use xlink:href="#DejaVuSans-59"/>
      <use xlink:href="#DejaVuSans-61" x="47.333984"/>
      <use xlink:href="#DejaVuSans-77" x="108.613281"/>
      <use xlink:href="#DejaVuSans-20" x="190.400391"/>
      <use xlink:href="#DejaVuSans-28" x="222.1875"/>
      <use xlink:href="#DejaVuSans-64" x="261.201172"/>
      <use xlink:href="#DejaVuSans-65" x="324.677734"/>
      <use xlink:href="#DejaVuSans-67" x="386.201172"/>
      <use xlink:href="#DejaVuSans-29" x="449.677734"/>
     </g>
    </g>
   </g>
   <g id="line2d_87">
    <path d="M 80.617528 424.15368 
L 185.409975 424.262382 
L 186.202056 424.563781 
L 187.231881 425.22093 
L 188.736934 426.485818 
L 191.984249 429.383697 
L 193.806036 430.67329 
L 195.390199 431.493491 
L 196.657806 431.935708 
L 197.924839 432.187697 
L 199.667437 432.239577 
L 201.172411 432.041938 
L 203.073406 431.523137 
L 205.132996 430.705406 
L 207.667755 429.477575 
L 213.449908 426.525346 
L 216.301143 425.304926 
L 219.073428 424.380965 
L 221.608087 423.783108 
L 224.222154 423.400182 
L 227.390281 423.207485 
L 232.380392 423.316186 
L 237.053751 423.627467 
L 237.449712 431.718305 
L 238.875498 467.582333 
L 239.984372 492.603404 
L 240.776453 506.067546 
L 241.410099 513.604995 
L 241.964555 517.740587 
L 242.360596 519.304404 
L 242.677448 519.74662 
L 242.835865 519.707093 
L 243.073806 519.331579 
L 243.390341 518.271741 
L 243.786382 516.092773 
L 244.340819 511.606373 
L 245.053672 503.74529 
L 246.004209 490.508432 
L 247.588471 464.694336 
L 249.885586 427.743295 
L 251.152698 410.808121 
L 252.261631 398.855916 
L 253.212129 390.87872 
L 254.083418 385.369539 
L 254.875499 381.779924 
L 255.509164 379.806007 
L 256.063799 378.681936 
L 256.53887 378.133489 
L 256.934911 377.943262 
L 257.330951 377.977848 
L 257.726992 378.219956 
L 258.281469 378.879575 
L 258.915114 380.030821 
L 259.707195 381.970152 
L 260.816168 385.406596 
L 262.241855 390.614378 
L 267.152937 409.185013 
L 268.657713 413.804819 
L 270.004251 417.27338 
L 271.271581 419.934092 
L 272.380495 421.794367 
L 273.4102 423.150663 
L 274.519114 424.237677 
L 275.548899 424.934354 
L 276.578525 425.364218 
L 277.687498 425.569268 
L 278.875561 425.542093 
L 280.222139 425.265398 
L 281.727212 424.736715 
L 283.865673 423.753462 
L 290.360877 420.843231 
L 292.81621 420.186082 
L 295.192415 419.850096 
L 297.172677 419.775981 
L 300.340962 419.985972 
L 303.746912 420.519597 
L 309.291599 421.668373 
L 314.123176 422.609627 
L 317.529303 423.138311 
L 322.994486 423.711464 
L 330.123375 424.047449 
L 674.599347 424.15368 
L 674.599347 424.15368 
" clip-path="url(#p069fc59349)" style="fill: none; stroke: #1abc9c; stroke-width: 1.8; stroke-linecap: square"/>
   </g>
   <g id="line2d_88">
    <path d="M 135.904898 526.84 
L 135.904898 370.84 
" clip-path="url(#p069fc59349)" style="fill: none; stroke-dasharray: 1,1.65; stroke-dashoffset: 0; stroke: #e67e22; stroke-opacity: 0.8"/>
   </g>
   <g id="line2d_89">
    <path d="M 184.855518 526.84 
L 184.855518 370.84 
" clip-path="url(#p069fc59349)" style="fill: none; stroke-dasharray: 1,1.65; stroke-dashoffset: 0; stroke: #2ecc71; stroke-opacity: 0.8"/>
   </g>
   <g id="line2d_90">
    <path d="M 236.974602 526.84 
L 236.974602 370.84 
" clip-path="url(#p069fc59349)" style="fill: none; stroke-dasharray: 1,1.65; stroke-dashoffset: 0; stroke: #9b59b6; stroke-opacity: 0.8"/>
   </g>
   <g id="patch_11">
    <path d="M 50.918438 526.84 
L 50.918438 370.84 
" style="fill: none; stroke: #000000; stroke-width: 0.8; stroke-linejoin: miter; stroke-linecap: square"/>
   </g>
   <g id="patch_12">
    <path d="M 50.918438 526.84 
L 704.298438 526.84 
" style="fill: none; stroke: #000000; stroke-width: 0.8; stroke-linejoin: miter; stroke-linecap: square"/>
   </g>
   <g id="legend_3">
    <g id="patch_13">
     <path d="M 634.651563 398.05375 
L 695.898438 398.05375 
Q 698.298438 398.05375 698.298438 395.65375 
L 698.298438 379.24 
Q 698.298438 376.84 695.898438 376.84 
L 634.651563 376.84 
Q 632.251563 376.84 632.251563 379.24 
L 632.251563 395.65375 
Q 632.251563 398.05375 634.651563 398.05375 
z
" style="fill: #ffffff; opacity: 0.8; stroke: #cccccc; stroke-linejoin: miter"/>
    </g>
    <g id="line2d_91">
     <path d="M 637.051563 386.558125 
L 649.051563 386.558125 
L 661.051563 386.558125 
" style="fill: none; stroke: #1abc9c; stroke-width: 1.8; stroke-linecap: square"/>
    </g>
    <g id="text_31">
     <!-- Yaw -->
     <g transform="translate(670.651563 390.758125) scale(0.12 -0.12)">
      <use xlink:href="#DejaVuSans-59"/>
      <use xlink:href="#DejaVuSans-61" x="47.333984"/>
      <use xlink:href="#DejaVuSans-77" x="108.613281"/>
     </g>
    </g>
   </g>
  </g>
  <g id="text_32">
   <!-- Kernel: preempt_rt | Policy: rr_p99 | Load: idle — Attitude Response -->
   <g transform="translate(126.06625 16.370625) scale(0.12 -0.12)">
    <defs>
     <path id="DejaVuSans-Bold-4b" d="M 588 4666 
L 1791 4666 
L 1791 2963 
L 3525 4666 
L 4922 4666 
L 2675 2456 
L 5153 0 
L 3647 0 
L 1791 1838 
L 1791 0 
L 588 0 
L 588 4666 
z
" transform="scale(0.015625)"/>
     <path id="DejaVuSans-Bold-65" d="M 4031 1759 
L 4031 1441 
L 1416 1441 
Q 1456 1047 1700 850 
Q 1944 653 2381 653 
Q 2734 653 3104 758 
Q 3475 863 3866 1075 
L 3866 213 
Q 3469 63 3072 -14 
Q 2675 -91 2278 -91 
Q 1328 -91 801 392 
Q 275 875 275 1747 
Q 275 2603 792 3093 
Q 1309 3584 2216 3584 
Q 3041 3584 3536 3087 
Q 4031 2591 4031 1759 
z
M 2881 2131 
Q 2881 2450 2695 2645 
Q 2509 2841 2209 2841 
Q 1884 2841 1681 2658 
Q 1478 2475 1428 2131 
L 2881 2131 
z
" transform="scale(0.015625)"/>
     <path id="DejaVuSans-Bold-72" d="M 3138 2547 
Q 2991 2616 2845 2648 
Q 2700 2681 2553 2681 
Q 2122 2681 1889 2404 
Q 1656 2128 1656 1613 
L 1656 0 
L 538 0 
L 538 3500 
L 1656 3500 
L 1656 2925 
Q 1872 3269 2151 3426 
Q 2431 3584 2822 3584 
Q 2878 3584 2943 3579 
Q 3009 3575 3134 3559 
L 3138 2547 
z
" transform="scale(0.015625)"/>
     <path id="DejaVuSans-Bold-6e" d="M 4056 2131 
L 4056 0 
L 2931 0 
L 2931 347 
L 2931 1631 
Q 2931 2084 2911 2256 
Q 2891 2428 2841 2509 
Q 2775 2619 2662 2680 
Q 2550 2741 2406 2741 
Q 2056 2741 1856 2470 
Q 1656 2200 1656 1722 
L 1656 0 
L 538 0 
L 538 3500 
L 1656 3500 
L 1656 2988 
Q 1909 3294 2193 3439 
Q 2478 3584 2822 3584 
Q 3428 3584 3742 3212 
Q 4056 2841 4056 2131 
z
" transform="scale(0.015625)"/>
     <path id="DejaVuSans-Bold-6c" d="M 538 4863 
L 1656 4863 
L 1656 0 
L 538 0 
L 538 4863 
z
" transform="scale(0.015625)"/>
     <path id="DejaVuSans-Bold-3a" d="M 716 3500 
L 1844 3500 
L 1844 2291 
L 716 2291 
L 716 3500 
z
M 716 1209 
L 1844 1209 
L 1844 0 
L 716 0 
L 716 1209 
z
" transform="scale(0.015625)"/>
     <path id="DejaVuSans-Bold-20" transform="scale(0.015625)"/>
     <path id="DejaVuSans-Bold-70" d="M 1656 506 
L 1656 -1331 
L 538 -1331 
L 538 3500 
L 1656 3500 
L 1656 2988 
Q 1888 3294 2169 3439 
Q 2450 3584 2816 3584 
Q 3463 3584 3878 3070 
Q 4294 2556 4294 1747 
Q 4294 938 3878 423 
Q 3463 -91 2816 -91 
Q 2450 -91 2169 54 
Q 1888 200 1656 506 
z
M 2400 2772 
Q 2041 2772 1848 2508 
Q 1656 2244 1656 1747 
Q 1656 1250 1848 986 
Q 2041 722 2400 722 
Q 2759 722 2948 984 
Q 3138 1247 3138 1747 
Q 3138 2247 2948 2509 
Q 2759 2772 2400 2772 
z
" transform="scale(0.015625)"/>
     <path id="DejaVuSans-Bold-6d" d="M 3781 2919 
Q 3994 3244 4286 3414 
Q 4578 3584 4928 3584 
Q 5531 3584 5847 3212 
Q 6163 2841 6163 2131 
L 6163 0 
L 5038 0 
L 5038 1825 
Q 5041 1866 5042 1909 
Q 5044 1953 5044 2034 
Q 5044 2406 4934 2573 
Q 4825 2741 4581 2741 
Q 4263 2741 4089 2478 
Q 3916 2216 3909 1719 
L 3909 0 
L 2784 0 
L 2784 1825 
Q 2784 2406 2684 2573 
Q 2584 2741 2328 2741 
Q 2006 2741 1831 2477 
Q 1656 2213 1656 1722 
L 1656 0 
L 531 0 
L 531 3500 
L 1656 3500 
L 1656 2988 
Q 1863 3284 2130 3434 
Q 2397 3584 2719 3584 
Q 3081 3584 3359 3409 
Q 3638 3234 3781 2919 
z
" transform="scale(0.015625)"/>
     <path id="DejaVuSans-Bold-74" d="M 1759 4494 
L 1759 3500 
L 2913 3500 
L 2913 2700 
L 1759 2700 
L 1759 1216 
Q 1759 972 1856 886 
Q 1953 800 2241 800 
L 2816 800 
L 2816 0 
L 1856 0 
Q 1194 0 917 276 
Q 641 553 641 1216 
L 641 2700 
L 84 2700 
L 84 3500 
L 641 3500 
L 641 4494 
L 1759 4494 
z
" transform="scale(0.015625)"/>
     <path id="DejaVuSans-Bold-5f" d="M 3200 -916 
L 3200 -1509 
L 0 -1509 
L 0 -916 
L 3200 -916 
z
" transform="scale(0.015625)"/>
     <path id="DejaVuSans-Bold-7c" d="M 1522 4891 
L 1522 -1509 
L 813 -1509 
L 813 4891 
L 1522 4891 
z
" transform="scale(0.015625)"/>
     <path id="DejaVuSans-Bold-50" d="M 588 4666 
L 2584 4666 
Q 3475 4666 3951 4270 
Q 4428 3875 4428 3144 
Q 4428 2409 3951 2014 
Q 3475 1619 2584 1619 
L 1791 1619 
L 1791 0 
L 588 0 
L 588 4666 
z
M 1791 3794 
L 1791 2491 
L 2456 2491 
Q 2806 2491 2997 2661 
Q 3188 2831 3188 3144 
Q 3188 3456 2997 3625 
Q 2806 3794 2456 3794 
L 1791 3794 
z
" transform="scale(0.015625)"/>
     <path id="DejaVuSans-Bold-6f" d="M 2203 2784 
Q 1831 2784 1636 2517 
Q 1441 2250 1441 1747 
Q 1441 1244 1636 976 
Q 1831 709 2203 709 
Q 2569 709 2762 976 
Q 2956 1244 2956 1747 
Q 2956 2250 2762 2517 
Q 2569 2784 2203 2784 
z
M 2203 3584 
Q 3106 3584 3614 3096 
Q 4122 2609 4122 1747 
Q 4122 884 3614 396 
Q 3106 -91 2203 -91 
Q 1297 -91 786 396 
Q 275 884 275 1747 
Q 275 2609 786 3096 
Q 1297 3584 2203 3584 
z
" transform="scale(0.015625)"/>
     <path id="DejaVuSans-Bold-69" d="M 538 3500 
L 1656 3500 
L 1656 0 
L 538 0 
L 538 3500 
z
M 538 4863 
L 1656 4863 
L 1656 3950 
L 538 3950 
L 538 4863 
z
" transform="scale(0.015625)"/>
     <path id="DejaVuSans-Bold-63" d="M 3366 3391 
L 3366 2478 
Q 3138 2634 2908 2709 
Q 2678 2784 2431 2784 
Q 1963 2784 1702 2511 
Q 1441 2238 1441 1747 
Q 1441 1256 1702 982 
Q 1963 709 2431 709 
Q 2694 709 2930 787 
Q 3166 866 3366 1019 
L 3366 103 
Q 3103 6 2833 -42 
Q 2563 -91 2291 -91 
Q 1344 -91 809 395 
Q 275 881 275 1747 
Q 275 2613 809 3098 
Q 1344 3584 2291 3584 
Q 2566 3584 2833 3536 
Q 3100 3488 3366 3391 
z
" transform="scale(0.015625)"/>
     <path id="DejaVuSans-Bold-79" d="M 78 3500 
L 1197 3500 
L 2138 1125 
L 2938 3500 
L 4056 3500 
L 2584 -331 
Q 2363 -916 2067 -1148 
Q 1772 -1381 1288 -1381 
L 641 -1381 
L 641 -647 
L 991 -647 
Q 1275 -647 1404 -556 
Q 1534 -466 1606 -231 
L 1638 -134 
L 78 3500 
z
" transform="scale(0.015625)"/>
     <path id="DejaVuSans-Bold-39" d="M 641 103 
L 641 966 
Q 928 831 1190 764 
Q 1453 697 1709 697 
Q 2247 697 2547 995 
Q 2847 1294 2900 1881 
Q 2688 1725 2447 1647 
Q 2206 1569 1925 1569 
Q 1209 1569 770 1986 
Q 331 2403 331 3084 
Q 331 3838 820 4291 
Q 1309 4744 2131 4744 
Q 3044 4744 3544 4128 
Q 4044 3513 4044 2388 
Q 4044 1231 3459 570 
Q 2875 -91 1856 -91 
Q 1528 -91 1228 -42 
Q 928 6 641 103 
z
M 2125 2350 
Q 2441 2350 2600 2554 
Q 2759 2759 2759 3169 
Q 2759 3575 2600 3781 
Q 2441 3988 2125 3988 
Q 1809 3988 1650 3781 
Q 1491 3575 1491 3169 
Q 1491 2759 1650 2554 
Q 1809 2350 2125 2350 
z
" transform="scale(0.015625)"/>
     <path id="DejaVuSans-Bold-4c" d="M 588 4666 
L 1791 4666 
L 1791 909 
L 3903 909 
L 3903 0 
L 588 0 
L 588 4666 
z
" transform="scale(0.015625)"/>
     <path id="DejaVuSans-Bold-61" d="M 2106 1575 
Q 1756 1575 1579 1456 
Q 1403 1338 1403 1106 
Q 1403 894 1545 773 
Q 1688 653 1941 653 
Q 2256 653 2472 879 
Q 2688 1106 2688 1447 
L 2688 1575 
L 2106 1575 
z
M 3816 1997 
L 3816 0 
L 2688 0 
L 2688 519 
Q 2463 200 2181 54 
Q 1900 -91 1497 -91 
Q 953 -91 614 226 
Q 275 544 275 1050 
Q 275 1666 698 1953 
Q 1122 2241 2028 2241 
L 2688 2241 
L 2688 2328 
Q 2688 2594 2478 2717 
Q 2269 2841 1825 2841 
Q 1466 2841 1156 2769 
Q 847 2697 581 2553 
L 581 3406 
Q 941 3494 1303 3539 
Q 1666 3584 2028 3584 
Q 2975 3584 3395 3211 
Q 3816 2838 3816 1997 
z
" transform="scale(0.015625)"/>
     <path id="DejaVuSans-Bold-64" d="M 2919 2988 
L 2919 4863 
L 4044 4863 
L 4044 0 
L 2919 0 
L 2919 506 
Q 2688 197 2409 53 
Q 2131 -91 1766 -91 
Q 1119 -91 703 423 
Q 288 938 288 1747 
Q 288 2556 703 3070 
Q 1119 3584 1766 3584 
Q 2128 3584 2408 3439 
Q 2688 3294 2919 2988 
z
M 2181 722 
Q 2541 722 2730 984 
Q 2919 1247 2919 1747 
Q 2919 2247 2730 2509 
Q 2541 2772 2181 2772 
Q 1825 2772 1636 2509 
Q 1447 2247 1447 1747 
Q 1447 1247 1636 984 
Q 1825 722 2181 722 
z
" transform="scale(0.015625)"/>
     <path id="DejaVuSans-Bold-2014" d="M 344 2156 
L 6056 2156 
L 6056 1350 
L 344 1350 
L 344 2156 
z
" transform="scale(0.015625)"/>
     <path id="DejaVuSans-Bold-41" d="M 3419 850 
L 1538 850 
L 1241 0 
L 31 0 
L 1759 4666 
L 3194 4666 
L 4922 0 
L 3713 0 
L 3419 850 
z
M 1838 1716 
L 3116 1716 
L 2478 3572 
L 1838 1716 
z
" transform="scale(0.015625)"/>
     <path id="DejaVuSans-Bold-75" d="M 500 1363 
L 500 3500 
L 1625 3500 
L 1625 3150 
Q 1625 2866 1622 2436 
Q 1619 2006 1619 1863 
Q 1619 1441 1641 1255 
Q 1663 1069 1716 984 
Q 1784 875 1895 815 
Q 2006 756 2150 756 
Q 2500 756 2700 1025 
Q 2900 1294 2900 1772 
L 2900 3500 
L 4019 3500 
L 4019 0 
L 2900 0 
L 2900 506 
Q 2647 200 2364 54 
Q 2081 -91 1741 -91 
Q 1134 -91 817 281 
Q 500 653 500 1363 
z
" transform="scale(0.015625)"/>
     <path id="DejaVuSans-Bold-52" d="M 2297 2597 
Q 2675 2597 2839 2737 
Q 3003 2878 3003 3200 
Q 3003 3519 2839 3656 
Q 2675 3794 2297 3794 
L 1791 3794 
L 1791 2597 
L 2297 2597 
z
M 1791 1766 
L 1791 0 
L 588 0 
L 588 4666 
L 2425 4666 
Q 3347 4666 3776 4356 
Q 4206 4047 4206 3378 
Q 4206 2916 3982 2619 
Q 3759 2322 3309 2181 
Q 3556 2125 3751 1926 
Q 3947 1728 4147 1325 
L 4800 0 
L 3519 0 
L 2950 1159 
Q 2778 1509 2601 1637 
Q 2425 1766 2131 1766 
L 1791 1766 
z
" transform="scale(0.015625)"/>
     <path id="DejaVuSans-Bold-73" d="M 3272 3391 
L 3272 2541 
Q 2913 2691 2578 2766 
Q 2244 2841 1947 2841 
Q 1628 2841 1473 2761 
Q 1319 2681 1319 2516 
Q 1319 2381 1436 2309 
Q 1553 2238 1856 2203 
L 2053 2175 
Q 2913 2066 3209 1816 
Q 3506 1566 3506 1031 
Q 3506 472 3093 190 
Q 2681 -91 1863 -91 
Q 1516 -91 1145 -36 
Q 775 19 384 128 
L 384 978 
Q 719 816 1070 734 
Q 1422 653 1784 653 
Q 2113 653 2278 743 
Q 2444 834 2444 1013 
Q 2444 1163 2330 1236 
Q 2216 1309 1875 1350 
L 1678 1375 
Q 931 1469 631 1722 
Q 331 1975 331 2491 
Q 331 3047 712 3315 
Q 1094 3584 1881 3584 
Q 2191 3584 2531 3537 
Q 2872 3491 3272 3391 
z
" transform="scale(0.015625)"/>
    </defs>
    <use xlink:href="#DejaVuSans-Bold-4b"/>
    <use xlink:href="#DejaVuSans-Bold-65" x="75.740234"/>
    <use xlink:href="#DejaVuSans-Bold-72" x="143.5625"/>
    <use xlink:href="#DejaVuSans-Bold-6e" x="192.878906"/>
    <use xlink:href="#DejaVuSans-Bold-65" x="264.070312"/>
    <use xlink:href="#DejaVuSans-Bold-6c" x="331.892578"/>
    <use xlink:href="#DejaVuSans-Bold-3a" x="366.169922"/>
    <use xlink:href="#DejaVuSans-Bold-20" x="406.160156"/>
    <use xlink:href="#DejaVuSans-Bold-70" x="440.974609"/>
    <use xlink:href="#DejaVuSans-Bold-72" x="512.556641"/>
    <use xlink:href="#DejaVuSans-Bold-65" x="561.873047"/>
    <use xlink:href="#DejaVuSans-Bold-65" x="629.695312"/>
    <use xlink:href="#DejaVuSans-Bold-6d" x="697.517578"/>
    <use xlink:href="#DejaVuSans-Bold-70" x="801.716797"/>
    <use xlink:href="#DejaVuSans-Bold-74" x="873.298828"/>
    <use xlink:href="#DejaVuSans-Bold-5f" x="921.101562"/>
    <use xlink:href="#DejaVuSans-Bold-72" x="971.101562"/>
    <use xlink:href="#DejaVuSans-Bold-74" x="1020.417969"/>
    <use xlink:href="#DejaVuSans-Bold-20" x="1068.220703"/>
    <use xlink:href="#DejaVuSans-Bold-7c" x="1103.035156"/>
    <use xlink:href="#DejaVuSans-Bold-20" x="1139.558594"/>
    <use xlink:href="#DejaVuSans-Bold-50" x="1174.373047"/>
    <use xlink:href="#DejaVuSans-Bold-6f" x="1247.664062"/>
    <use xlink:href="#DejaVuSans-Bold-6c" x="1316.365234"/>
    <use xlink:href="#DejaVuSans-Bold-69" x="1350.642578"/>
    <use xlink:href="#DejaVuSans-Bold-63" x="1384.919922"/>
    <use xlink:href="#DejaVuSans-Bold-79" x="1444.197266"/>
    <use xlink:href="#DejaVuSans-Bold-3a" x="1509.382812"/>
    <use xlink:href="#DejaVuSans-Bold-20" x="1549.373047"/>
    <use xlink:href="#DejaVuSans-Bold-72" x="1584.1875"/>
    <use xlink:href="#DejaVuSans-Bold-72" x="1633.503906"/>
    <use xlink:href="#DejaVuSans-Bold-5f" x="1682.820312"/>
    <use xlink:href="#DejaVuSans-Bold-70" x="1732.820312"/>
    <use xlink:href="#DejaVuSans-Bold-39" x="1804.402344"/>
    <use xlink:href="#DejaVuSans-Bold-39" x="1873.982422"/>
    <use xlink:href="#DejaVuSans-Bold-20" x="1943.5625"/>
    <use xlink:href="#DejaVuSans-Bold-7c" x="1978.376953"/>
    <use xlink:href="#DejaVuSans-Bold-20" x="2014.900391"/>
    <use xlink:href="#DejaVuSans-Bold-4c" x="2049.714844"/>
    <use xlink:href="#DejaVuSans-Bold-6f" x="2113.435547"/>
    <use xlink:href="#DejaVuSans-Bold-61" x="2182.136719"/>
    <use xlink:href="#DejaVuSans-Bold-64" x="2249.617188"/>
    <use xlink:href="#DejaVuSans-Bold-3a" x="2321.199219"/>
    <use xlink:href="#DejaVuSans-Bold-20" x="2361.189453"/>
    <use xlink:href="#DejaVuSans-Bold-69" x="2396.003906"/>
    <use xlink:href="#DejaVuSans-Bold-64" x="2430.28125"/>
    <use xlink:href="#DejaVuSans-Bold-6c" x="2501.863281"/>
    <use xlink:href="#DejaVuSans-Bold-65" x="2536.140625"/>
    <use xlink:href="#DejaVuSans-Bold-20" x="2603.962891"/>
    <use xlink:href="#DejaVuSans-Bold-2014" x="2638.777344"/>
    <use xlink:href="#DejaVuSans-Bold-20" x="2738.777344"/>
    <use xlink:href="#DejaVuSans-Bold-41" x="2773.591797"/>
    <use xlink:href="#DejaVuSans-Bold-74" x="2850.984375"/>
    <use xlink:href="#DejaVuSans-Bold-74" x="2898.787109"/>
    <use xlink:href="#DejaVuSans-Bold-69" x="2946.589844"/>
    <use xlink:href="#DejaVuSans-Bold-74" x="2980.867188"/>
    <use xlink:href="#DejaVuSans-Bold-75" x="3028.669922"/>
    <use xlink:href="#DejaVuSans-Bold-64" x="3099.861328"/>
    <use xlink:href="#DejaVuSans-Bold-65" x="3171.443359"/>
    <use xlink:href="#DejaVuSans-Bold-20" x="3239.265625"/>
    <use xlink:href="#DejaVuSans-Bold-52" x="3274.080078"/>
    <use xlink:href="#DejaVuSans-Bold-65" x="3351.082031"/>
    <use xlink:href="#DejaVuSans-Bold-73" x="3418.904297"/>
    <use xlink:href="#DejaVuSans-Bold-70" x="3478.425781"/>
    <use xlink:href="#DejaVuSans-Bold-6f" x="3550.007812"/>
    <use xlink:href="#DejaVuSans-Bold-6e" x="3618.708984"/>
    <use xlink:href="#DejaVuSans-Bold-73" x="3689.900391"/>
    <use xlink:href="#DejaVuSans-Bold-65" x="3749.421875"/>
   </g>
  </g>
 </g>
 <defs>
  <clipPath id="p8e20ff810e">
   <rect x="50.918438" y="30.24" width="653.38" height="156"/>
  </clipPath>
  <clipPath id="pe201e9609c">
   <rect x="50.918438" y="200.54" width="653.38" height="156"/>
  </clipPath>
  <clipPath id="p069fc59349">
   <rect x="50.918438" y="370.84" width="653.38" height="156"/>
  </clipPath>
 </defs>
</svg>
