<?xml version="1.0" encoding="utf-8" standalone="no"?>
<!DOCTYPE svg PUBLIC "-//W3C//DTD SVG 1.1//EN"
  "http://www.w3.org/Graphics/SVG/1.1/DTD/svg11.dtd">
<svg xmlns:xlink="http://www.w3.org/1999/xlink" width="473.823436pt" height="497.52pt" viewBox="0 0 473.823436 497.52" xmlns="http://www.w3.org/2000/svg" version="1.1">
 <metadata>
  <rdf:RDF xmlns:dc="http://purl.org/dc/elements/1.1/" xmlns:cc="http://creativecommons.org/ns#" xmlns:rdf="http://www.w3.org/1999/02/22-rdf-syntax-ns#">
   <cc:Work>
    <dc:type rdf:resource="http://purl.org/dc/dcmitype/StillImage"/>
    <dc:date>2026-04-28T15:38:02.824009</dc:date>
    <dc:format>image/svg+xml</dc:format>
    <dc:creator>
     <cc:Agent>
      <dc:title>Matplotlib v3.8.4, https://matplotlib.org/</dc:title>
     </cc:Agent>
    </dc:creator>
   </cc:Work>
  </rdf:RDF>
 </metadata>
 <defs>
  <style type="text/css">*{stroke-linejoin: round; stroke-linecap: butt}</style>
 </defs>
 <g id="figure_1">
  <g id="patch_1">
   <path d="M 0 497.52 
L 473.823436 497.52 
L 473.823436 0 
L 0 0 
z
" style="fill: #ffffff"/>
  </g>
  <g id="patch_2">
   <path d="M 7.2 490.32 
L 465.84 490.32 
L 465.84 31.68 
L 7.2 31.68 
z
" style="fill: #ffffff"/>
  </g>
  <g id="pane3d_1">
   <g id="patch_3">
    <path d="M 41.830483 377.234074 
L 193.288389 250.279054 
L 191.182979 67.187219 
L 32.477031 183.003591 
" style="fill: #f2f2f2; opacity: 0.5; stroke: #f2f2f2; stroke-linejoin: miter"/>
   </g>
  </g>
  <g id="pane3d_2">
   <g id="patch_4">
    <path d="M 193.288389 250.279054 
L 436.324289 320.919995 
L 444.997383 131.521772 
L 191.182979 67.187219 
" style="fill: #e6e6e6; opacity: 0.5; stroke: #e6e6e6; stroke-linejoin: miter"/>
   </g>
  </g>
  <g id="pane3d_3">
   <g id="patch_5">
    <path d="M 41.830483 377.234074 
L 299.460407 461.376007 
L 436.324289 320.919995 
L 193.288389 250.279054 
" style="fill: #ececec; opacity: 0.5; stroke: #ececec; stroke-linejoin: miter"/>
   </g>
  </g>
  <g id="grid3d_1">
   <g id="Line3DCollection_1">
    <path d="M 65.888823 385.091528 
L 216.074899 256.902192 
L 214.93457 73.207555 
" style="fill: none; stroke: #b0b0b0; stroke-width: 0.8"/>
    <path d="M 99.639542 396.114513 
L 248.009697 266.184377 
L 248.237721 81.648933 
" style="fill: none; stroke: #b0b0b0; stroke-width: 0.8"/>
    <path d="M 133.870119 407.294219 
L 280.360779 275.58756 
L 281.993826 90.205122 
" style="fill: none; stroke: #b0b0b0; stroke-width: 0.8"/>
    <path d="M 168.590863 418.634014 
L 313.136337 285.114121 
L 316.212189 98.878479 
" style="fill: none; stroke: #b0b0b0; stroke-width: 0.8"/>
    <path d="M 203.812376 430.13736 
L 346.344782 294.766505 
L 350.902371 107.671429 
" style="fill: none; stroke: #b0b0b0; stroke-width: 0.8"/>
    <path d="M 239.545573 441.807822 
L 379.994747 304.547221 
L 386.074199 116.586462 
" style="fill: none; stroke: #b0b0b0; stroke-width: 0.8"/>
    <path d="M 275.801684 453.649068 
L 414.095095 314.458846 
L 421.737773 125.626139 
" style="fill: none; stroke: #b0b0b0; stroke-width: 0.8"/>
   </g>
  </g>
  <g id="grid3d_2">
   <g id="Line3DCollection_2">
    <path d="M 50.090014 170.150439 
L 58.582429 363.192261 
L 314.65773 445.779814 
" style="fill: none; stroke: #b0b0b0; stroke-width: 0.8"/>
    <path d="M 73.447487 153.105219 
L 80.819795 344.55246 
L 334.808459 425.100209 
" style="fill: none; stroke: #b0b0b0; stroke-width: 0.8"/>
    <path d="M 96.221068 136.486097 
L 102.52519 326.358567 
L 354.45193 404.941175 
" style="fill: none; stroke: #b0b0b0; stroke-width: 0.8"/>
    <path d="M 118.432381 120.277292 
L 123.717479 308.59477 
L 373.607059 385.283301 
" style="fill: none; stroke: #b0b0b0; stroke-width: 0.8"/>
    <path d="M 140.101996 104.463794 
L 144.414643 291.245997 
L 392.291833 366.108127 
" style="fill: none; stroke: #b0b0b0; stroke-width: 0.8"/>
    <path d="M 161.24949 89.031316 
L 164.633835 274.29787 
L 410.523365 347.39809 
" style="fill: none; stroke: #b0b0b0; stroke-width: 0.8"/>
    <path d="M 181.89351 73.966251 
L 184.391421 257.736669 
L 428.31795 329.136468 
" style="fill: none; stroke: #b0b0b0; stroke-width: 0.8"/>
   </g>
  </g>
  <g id="grid3d_3">
   <g id="Line3DCollection_3">
    <path d="M 436.853994 309.352596 
L 193.159548 239.074629 
L 41.260129 365.390314 
" style="fill: none; stroke: #b0b0b0; stroke-width: 0.8"/>
    <path d="M 438.321889 277.297512 
L 192.80268 208.040509 
L 39.678976 332.556648 
" style="fill: none; stroke: #b0b0b0; stroke-width: 0.8"/>
    <path d="M 439.812151 244.753987 
L 192.440635 176.556196 
L 38.072807 299.20351 
" style="fill: none; stroke: #b0b0b0; stroke-width: 0.8"/>
    <path d="M 441.325296 211.710772 
L 192.073301 144.611822 
L 36.441024 265.318476 
" style="fill: none; stroke: #b0b0b0; stroke-width: 0.8"/>
    <path d="M 442.861854 178.156268 
L 191.700559 112.197229 
L 34.783009 230.888717 
" style="fill: none; stroke: #b0b0b0; stroke-width: 0.8"/>
    <path d="M 444.422374 144.078517 
L 191.322289 79.301958 
L 33.098124 195.900994 
" style="fill: none; stroke: #b0b0b0; stroke-width: 0.8"/>
   </g>
  </g>
  <g id="axis3d_1">
   <g id="line2d_1">
    <path d="M 41.830483 377.234074 
L 299.460407 461.376007 
" style="fill: none; stroke: #000000; stroke-width: 0.8; stroke-linecap: square"/>
   </g>
   <g id="xtick_1">
    <g id="line2d_2">
     <path d="M 242.717838 254.802162 
" clip-path="url(#p4ce705214b)" style="fill: none; stroke: #b0b0b0; stroke-opacity: 0.3; stroke-width: 0.8; stroke-linecap: square"/>
    </g>
    <g id="line2d_3">
     <path d="M 67.196824 383.975102 
L 63.267201 387.32918 
" style="fill: none; stroke: #000000; stroke-width: 0.8; stroke-linecap: square"/>
    </g>
    <g id="text_1">
     <!-- 0.0 -->
     <g transform="translate(50.424836 408.410004) scale(0.1 -0.1)">
      <defs>
       <path id="DejaVuSans-30" d="M 2034 4250 
Q 1547 4250 1301 3770 
Q 1056 3291 1056 2328 
Q 1056 1369 1301 889 
Q 1547 409 2034 409 
Q 2525 409 2770 889 
Q 3016 1369 3016 2328 
Q 3016 3291 2770 3770 
Q 2525 4250 2034 4250 
z
M 2034 4750 
Q 2819 4750 3233 4129 
Q 3647 3509 3647 2328 
Q 3647 1150 3233 529 
Q 2819 -91 2034 -91 
Q 1250 -91 836 529 
Q 422 1150 422 2328 
Q 422 3509 836 4129 
Q 1250 4750 2034 4750 
z
" transform="scale(0.015625)"/>
       <path id="DejaVuSans-2e" d="M 684 794 
L 1344 794 
L 1344 0 
L 684 0 
L 684 794 
z
" transform="scale(0.015625)"/>
      </defs>
      <use xlink:href="#DejaVuSans-30"/>
      <use xlink:href="#DejaVuSans-2e" x="63.623047"/>
      <use xlink:href="#DejaVuSans-30" x="95.410156"/>
     </g>
    </g>
   </g>
   <g id="xtick_2">
    <g id="line2d_4">
     <path d="M 242.717838 254.802162 
" clip-path="url(#p4ce705214b)" style="fill: none; stroke: #b0b0b0; stroke-opacity: 0.3; stroke-width: 0.8; stroke-linecap: square"/>
    </g>
    <g id="line2d_5">
     <path d="M 100.932469 394.982276 
L 97.048091 398.383888 
" style="fill: none; stroke: #000000; stroke-width: 0.8; stroke-linecap: square"/>
    </g>
    <g id="text_2">
     <!-- 0.5 -->
     <g transform="translate(84.195737 419.56814) scale(0.1 -0.1)">
      <defs>
       <path id="DejaVuSans-35" d="M 691 4666 
L 3169 4666 
L 3169 4134 
L 1269 4134 
L 1269 2991 
Q 1406 3038 1543 3061 
Q 1681 3084 1819 3084 
Q 2600 3084 3056 2656 
Q 3513 2228 3513 1497 
Q 3513 744 3044 326 
Q 2575 -91 1722 -91 
Q 1428 -91 1123 -41 
Q 819 9 494 109 
L 494 744 
Q 775 591 1075 516 
Q 1375 441 1709 441 
Q 2250 441 2565 725 
Q 2881 1009 2881 1497 
Q 2881 1984 2565 2268 
Q 2250 2553 1709 2553 
Q 1456 2553 1204 2497 
Q 953 2441 691 2322 
L 691 4666 
z
" transform="scale(0.015625)"/>
      </defs>
      <use xlink:href="#DejaVuSans-30"/>
      <use xlink:href="#DejaVuSans-2e" x="63.623047"/>
      <use xlink:href="#DejaVuSans-35" x="95.410156"/>
     </g>
    </g>
   </g>
   <g id="xtick_3">
    <g id="line2d_6">
     <path d="M 242.717838 254.802162 
" clip-path="url(#p4ce705214b)" style="fill: none; stroke: #b0b0b0; stroke-opacity: 0.3; stroke-width: 0.8; stroke-linecap: square"/>
    </g>
    <g id="line2d_7">
     <path d="M 135.147411 406.145833 
L 131.309966 409.595999 
" style="fill: none; stroke: #000000; stroke-width: 0.8; stroke-linecap: square"/>
    </g>
    <g id="text_3">
     <!-- 1.0 -->
     <g transform="translate(118.447834 430.885267) scale(0.1 -0.1)">
      <defs>
       <path id="DejaVuSans-31" d="M 794 531 
L 1825 531 
L 1825 4091 
L 703 3866 
L 703 4441 
L 1819 4666 
L 2450 4666 
L 2450 531 
L 3481 531 
L 3481 0 
L 794 0 
L 794 531 
z
" transform="scale(0.015625)"/>
      </defs>
      <use xlink:href="#DejaVuSans-31"/>
      <use xlink:href="#DejaVuSans-2e" x="63.623047"/>
      <use xlink:href="#DejaVuSans-30" x="95.410156"/>
     </g>
    </g>
   </g>
   <g id="xtick_4">
    <g id="line2d_8">
     <path d="M 242.717838 254.802162 
" clip-path="url(#p4ce705214b)" style="fill: none; stroke: #b0b0b0; stroke-opacity: 0.3; stroke-width: 0.8; stroke-linecap: square"/>
    </g>
    <g id="line2d_9">
     <path d="M 169.851938 417.469131 
L 166.063174 420.968896 
" style="fill: none; stroke: #000000; stroke-width: 0.8; stroke-linecap: square"/>
    </g>
    <g id="text_4">
     <!-- 1.5 -->
     <g transform="translate(153.191486 442.364808) scale(0.1 -0.1)">
      <use xlink:href="#DejaVuSans-31"/>
      <use xlink:href="#DejaVuSans-2e" x="63.623047"/>
      <use xlink:href="#DejaVuSans-35" x="95.410156"/>
     </g>
    </g>
   </g>
   <g id="xtick_5">
    <g id="line2d_10">
     <path d="M 242.717838 254.802162 
" clip-path="url(#p4ce705214b)" style="fill: none; stroke: #b0b0b0; stroke-opacity: 0.3; stroke-width: 0.8; stroke-linecap: square"/>
    </g>
    <g id="line2d_11">
     <path d="M 205.056633 428.955622 
L 201.31836 432.506064 
" style="fill: none; stroke: #000000; stroke-width: 0.8; stroke-linecap: square"/>
    </g>
    <g id="text_5">
     <!-- 2.0 -->
     <g transform="translate(188.437351 454.010283) scale(0.1 -0.1)">
      <defs>
       <path id="DejaVuSans-32" d="M 1228 531 
L 3431 531 
L 3431 0 
L 469 0 
L 469 531 
Q 828 903 1448 1529 
Q 2069 2156 2228 2338 
Q 2531 2678 2651 2914 
Q 2772 3150 2772 3378 
Q 2772 3750 2511 3984 
Q 2250 4219 1831 4219 
Q 1534 4219 1204 4116 
Q 875 4013 500 3803 
L 500 4441 
Q 881 4594 1212 4672 
Q 1544 4750 1819 4750 
Q 2544 4750 2975 4387 
Q 3406 4025 3406 3419 
Q 3406 3131 3298 2873 
Q 3191 2616 2906 2266 
Q 2828 2175 2409 1742 
Q 1991 1309 1228 531 
z
" transform="scale(0.015625)"/>
      </defs>
      <use xlink:href="#DejaVuSans-32"/>
      <use xlink:href="#DejaVuSans-2e" x="63.623047"/>
      <use xlink:href="#DejaVuSans-30" x="95.410156"/>
     </g>
    </g>
   </g>
   <g id="xtick_6">
    <g id="line2d_12">
     <path d="M 242.717838 254.802162 
" clip-path="url(#p4ce705214b)" style="fill: none; stroke: #b0b0b0; stroke-opacity: 0.3; stroke-width: 0.8; stroke-linecap: square"/>
    </g>
    <g id="line2d_13">
     <path d="M 240.772387 440.60886 
L 237.086479 444.211088 
" style="fill: none; stroke: #000000; stroke-width: 0.8; stroke-linecap: square"/>
    </g>
    <g id="text_6">
     <!-- 2.5 -->
     <g transform="translate(224.196397 465.825316) scale(0.1 -0.1)">
      <use xlink:href="#DejaVuSans-32"/>
      <use xlink:href="#DejaVuSans-2e" x="63.623047"/>
      <use xlink:href="#DejaVuSans-35" x="95.410156"/>
     </g>
    </g>
   </g>
   <g id="xtick_7">
    <g id="line2d_14">
     <path d="M 242.717838 254.802162 
" clip-path="url(#p4ce705214b)" style="fill: none; stroke: #b0b0b0; stroke-opacity: 0.3; stroke-width: 0.8; stroke-linecap: square"/>
    </g>
    <g id="line2d_15">
     <path d="M 277.010411 452.432503 
L 273.378806 456.087659 
" style="fill: none; stroke: #000000; stroke-width: 0.8; stroke-linecap: square"/>
    </g>
    <g id="text_7">
     <!-- 3.0 -->
     <g transform="translate(260.479915 477.813639) scale(0.1 -0.1)">
      <defs>
       <path id="DejaVuSans-33" d="M 2597 2516 
Q 3050 2419 3304 2112 
Q 3559 1806 3559 1356 
Q 3559 666 3084 287 
Q 2609 -91 1734 -91 
Q 1441 -91 1130 -33 
Q 819 25 488 141 
L 488 750 
Q 750 597 1062 519 
Q 1375 441 1716 441 
Q 2309 441 2620 675 
Q 2931 909 2931 1356 
Q 2931 1769 2642 2001 
Q 2353 2234 1838 2234 
L 1294 2234 
L 1294 2753 
L 1863 2753 
Q 2328 2753 2575 2939 
Q 2822 3125 2822 3475 
Q 2822 3834 2567 4026 
Q 2313 4219 1838 4219 
Q 1578 4219 1281 4162 
Q 984 4106 628 3988 
L 628 4550 
Q 988 4650 1302 4700 
Q 1616 4750 1894 4750 
Q 2613 4750 3031 4423 
Q 3450 4097 3450 3541 
Q 3450 3153 3228 2886 
Q 3006 2619 2597 2516 
z
" transform="scale(0.015625)"/>
      </defs>
      <use xlink:href="#DejaVuSans-33"/>
      <use xlink:href="#DejaVuSans-2e" x="63.623047"/>
      <use xlink:href="#DejaVuSans-30" x="95.410156"/>
     </g>
    </g>
   </g>
   <g id="text_8">
    <!-- X (m) -->
    <g transform="translate(134.260958 451.357044) rotate(-341.912962) scale(0.12 -0.12)">
     <defs>
      <path id="DejaVuSans-58" d="M 403 4666 
L 1081 4666 
L 2241 2931 
L 3406 4666 
L 4084 4666 
L 2584 2425 
L 4184 0 
L 3506 0 
L 2194 1984 
L 872 0 
L 191 0 
L 1856 2491 
L 403 4666 
z
" transform="scale(0.015625)"/>
      <path id="DejaVuSans-20" transform="scale(0.015625)"/>
      <path id="DejaVuSans-28" d="M 1984 4856 
Q 1566 4138 1362 3434 
Q 1159 2731 1159 2009 
Q 1159 1288 1364 580 
Q 1569 -128 1984 -844 
L 1484 -844 
Q 1016 -109 783 600 
Q 550 1309 550 2009 
Q 550 2706 781 3412 
Q 1013 4119 1484 4856 
L 1984 4856 
z
" transform="scale(0.015625)"/>
      <path id="DejaVuSans-6d" d="M 3328 2828 
Q 3544 3216 3844 3400 
Q 4144 3584 4550 3584 
Q 5097 3584 5394 3201 
Q 5691 2819 5691 2113 
L 5691 0 
L 5113 0 
L 5113 2094 
Q 5113 2597 4934 2840 
Q 4756 3084 4391 3084 
Q 3944 3084 3684 2787 
Q 3425 2491 3425 1978 
L 3425 0 
L 2847 0 
L 2847 2094 
Q 2847 2600 2669 2842 
Q 2491 3084 2119 3084 
Q 1678 3084 1418 2786 
Q 1159 2488 1159 1978 
L 1159 0 
L 581 0 
L 581 3500 
L 1159 3500 
L 1159 2956 
Q 1356 3278 1631 3431 
Q 1906 3584 2284 3584 
Q 2666 3584 2933 3390 
Q 3200 3197 3328 2828 
z
" transform="scale(0.015625)"/>
      <path id="DejaVuSans-29" d="M 513 4856 
L 1013 4856 
Q 1481 4119 1714 3412 
Q 1947 2706 1947 2009 
Q 1947 1309 1714 600 
Q 1481 -109 1013 -844 
L 513 -844 
Q 928 -128 1133 580 
Q 1338 1288 1338 2009 
Q 1338 2731 1133 3434 
Q 928 4138 513 4856 
z
" transform="scale(0.015625)"/>
     </defs>
     <use xlink:href="#DejaVuSans-58"/>
     <use xlink:href="#DejaVuSans-20" x="68.505859"/>
     <use xlink:href="#DejaVuSans-28" x="100.292969"/>
     <use xlink:href="#DejaVuSans-6d" x="139.306641"/>
     <use xlink:href="#DejaVuSans-29" x="236.71875"/>
    </g>
   </g>
  </g>
  <g id="axis3d_2">
   <g id="line2d_16">
    <path d="M 436.324289 320.919995 
L 299.460407 461.376007 
" style="fill: none; stroke: #000000; stroke-width: 0.8; stroke-linecap: square"/>
   </g>
   <g id="xtick_8">
    <g id="line2d_17">
     <path d="M 242.717838 254.802162 
" clip-path="url(#p4ce705214b)" style="fill: none; stroke: #b0b0b0; stroke-opacity: 0.3; stroke-width: 0.8; stroke-linecap: square"/>
    </g>
    <g id="line2d_18">
     <path d="M 312.500171 445.083974 
L 318.978409 447.173288 
" style="fill: none; stroke: #000000; stroke-width: 0.8; stroke-linecap: square"/>
    </g>
    <g id="text_9">
     <!-- 0.0 -->
     <g transform="translate(319.539044 466.747674) scale(0.1 -0.1)">
      <use xlink:href="#DejaVuSans-30"/>
      <use xlink:href="#DejaVuSans-2e" x="63.623047"/>
      <use xlink:href="#DejaVuSans-30" x="95.410156"/>
     </g>
    </g>
   </g>
   <g id="xtick_9">
    <g id="line2d_19">
     <path d="M 242.717838 254.802162 
" clip-path="url(#p4ce705214b)" style="fill: none; stroke: #b0b0b0; stroke-opacity: 0.3; stroke-width: 0.8; stroke-linecap: square"/>
    </g>
    <g id="line2d_20">
     <path d="M 332.669858 424.421991 
L 339.091103 426.458369 
" style="fill: none; stroke: #000000; stroke-width: 0.8; stroke-linecap: square"/>
    </g>
    <g id="text_10">
     <!-- 0.5 -->
     <g transform="translate(339.533021 445.890525) scale(0.1 -0.1)">
      <use xlink:href="#DejaVuSans-30"/>
      <use xlink:href="#DejaVuSans-2e" x="63.623047"/>
      <use xlink:href="#DejaVuSans-35" x="95.410156"/>
     </g>
    </g>
   </g>
   <g id="xtick_10">
    <g id="line2d_21">
     <path d="M 242.717838 254.802162 
" clip-path="url(#p4ce705214b)" style="fill: none; stroke: #b0b0b0; stroke-opacity: 0.3; stroke-width: 0.8; stroke-linecap: square"/>
    </g>
    <g id="line2d_22">
     <path d="M 352.332022 404.27992 
L 358.697073 406.265348 
" style="fill: none; stroke: #000000; stroke-width: 0.8; stroke-linecap: square"/>
    </g>
    <g id="text_11">
     <!-- 1.0 -->
     <g transform="translate(359.023516 425.558594) scale(0.1 -0.1)">
      <use xlink:href="#DejaVuSans-31"/>
      <use xlink:href="#DejaVuSans-2e" x="63.623047"/>
      <use xlink:href="#DejaVuSans-30" x="95.410156"/>
     </g>
    </g>
   </g>
   <g id="xtick_11">
    <g id="line2d_23">
     <path d="M 242.717838 254.802162 
" clip-path="url(#p4ce705214b)" style="fill: none; stroke: #b0b0b0; stroke-opacity: 0.3; stroke-width: 0.8; stroke-linecap: square"/>
    </g>
    <g id="line2d_24">
     <path d="M 371.505581 384.638379 
L 377.81523 386.574745 
" style="fill: none; stroke: #000000; stroke-width: 0.8; stroke-linecap: square"/>
    </g>
    <g id="text_12">
     <!-- 1.5 -->
     <g transform="translate(378.02931 405.732288) scale(0.1 -0.1)">
      <use xlink:href="#DejaVuSans-31"/>
      <use xlink:href="#DejaVuSans-2e" x="63.623047"/>
      <use xlink:href="#DejaVuSans-35" x="95.410156"/>
     </g>
    </g>
   </g>
   <g id="xtick_12">
    <g id="line2d_25">
     <path d="M 242.717838 254.802162 
" clip-path="url(#p4ce705214b)" style="fill: none; stroke: #b0b0b0; stroke-opacity: 0.3; stroke-width: 0.8; stroke-linecap: square"/>
    </g>
    <g id="line2d_26">
     <path d="M 390.208524 365.478941 
L 396.463555 367.368041 
" style="fill: none; stroke: #000000; stroke-width: 0.8; stroke-linecap: square"/>
    </g>
    <g id="text_13">
     <!-- 2.0 -->
     <g transform="translate(396.568262 386.392979) scale(0.1 -0.1)">
      <use xlink:href="#DejaVuSans-32"/>
      <use xlink:href="#DejaVuSans-2e" x="63.623047"/>
      <use xlink:href="#DejaVuSans-30" x="95.410156"/>
     </g>
    </g>
   </g>
   <g id="xtick_13">
    <g id="line2d_27">
     <path d="M 242.717838 254.802162 
" clip-path="url(#p4ce705214b)" style="fill: none; stroke: #b0b0b0; stroke-opacity: 0.3; stroke-width: 0.8; stroke-linecap: square"/>
    </g>
    <g id="line2d_28">
     <path d="M 408.457968 346.78407 
L 414.659159 348.627615 
" style="fill: none; stroke: #000000; stroke-width: 0.8; stroke-linecap: square"/>
    </g>
    <g id="text_14">
     <!-- 2.5 -->
     <g transform="translate(414.657365 367.522941) scale(0.1 -0.1)">
      <use xlink:href="#DejaVuSans-32"/>
      <use xlink:href="#DejaVuSans-2e" x="63.623047"/>
      <use xlink:href="#DejaVuSans-35" x="95.410156"/>
     </g>
    </g>
   </g>
   <g id="xtick_14">
    <g id="line2d_29">
     <path d="M 242.717838 254.802162 
" clip-path="url(#p4ce705214b)" style="fill: none; stroke: #b0b0b0; stroke-opacity: 0.3; stroke-width: 0.8; stroke-linecap: square"/>
    </g>
    <g id="line2d_30">
     <path d="M 426.270209 328.537073 
L 432.418329 330.336691 
" style="fill: none; stroke: #000000; stroke-width: 0.8; stroke-linecap: square"/>
    </g>
    <g id="text_15">
     <!-- 3.0 -->
     <g transform="translate(432.312794 349.105298) scale(0.1 -0.1)">
      <use xlink:href="#DejaVuSans-33"/>
      <use xlink:href="#DejaVuSans-2e" x="63.623047"/>
      <use xlink:href="#DejaVuSans-30" x="95.410156"/>
     </g>
    </g>
   </g>
   <g id="text_16">
    <!-- Y (m) -->
    <g transform="translate(389.050053 429.839755) rotate(-45.742112) scale(0.12 -0.12)">
     <defs>
      <path id="DejaVuSans-59" d="M -13 4666 
L 666 4666 
L 1959 2747 
L 3244 4666 
L 3922 4666 
L 2272 2222 
L 2272 0 
L 1638 0 
L 1638 2222 
L -13 4666 
z
" transform="scale(0.015625)"/>
     </defs>
     <use xlink:href="#DejaVuSans-59"/>
     <use xlink:href="#DejaVuSans-20" x="61.083984"/>
     <use xlink:href="#DejaVuSans-28" x="92.871094"/>
     <use xlink:href="#DejaVuSans-6d" x="131.884766"/>
     <use xlink:href="#DejaVuSans-29" x="229.296875"/>
    </g>
   </g>
  </g>
  <g id="axis3d_3">
   <g id="line2d_31">
    <path d="M 436.324289 320.919995 
L 444.997383 131.521772 
" style="fill: none; stroke: #000000; stroke-width: 0.8; stroke-linecap: square"/>
   </g>
   <g id="xtick_15">
    <g id="line2d_32">
     <path d="M 242.717838 254.802162 
" style="fill: none; stroke: #b0b0b0; stroke-opacity: 0.3; stroke-width: 0.8; stroke-linecap: square"/>
    </g>
    <g id="line2d_33">
     <path d="M 434.808464 308.762695 
L 440.949931 310.533805 
" style="fill: none; stroke: #000000; stroke-width: 0.8; stroke-linecap: square"/>
    </g>
    <g id="text_17">
     <!-- 0 -->
     <g transform="translate(451.993358 314.355833) scale(0.1 -0.1)">
      <use xlink:href="#DejaVuSans-30"/>
     </g>
    </g>
   </g>
   <g id="xtick_16">
    <g id="line2d_34">
     <path d="M 242.717838 254.802162 
" style="fill: none; stroke: #b0b0b0; stroke-opacity: 0.3; stroke-width: 0.8; stroke-linecap: square"/>
    </g>
    <g id="line2d_35">
     <path d="M 436.260312 276.715974 
L 442.449997 278.461984 
" style="fill: none; stroke: #000000; stroke-width: 0.8; stroke-linecap: square"/>
    </g>
    <g id="text_18">
     <!-- 1 -->
     <g transform="translate(453.596952 282.33757) scale(0.1 -0.1)">
      <use xlink:href="#DejaVuSans-31"/>
     </g>
    </g>
   </g>
   <g id="xtick_17">
    <g id="line2d_36">
     <path d="M 242.717838 254.802162 
" style="fill: none; stroke: #b0b0b0; stroke-opacity: 0.3; stroke-width: 0.8; stroke-linecap: square"/>
    </g>
    <g id="line2d_37">
     <path d="M 437.734273 244.181137 
L 443.972938 245.901073 
" style="fill: none; stroke: #000000; stroke-width: 0.8; stroke-linecap: square"/>
    </g>
    <g id="text_19">
     <!-- 2 -->
     <g transform="translate(455.224937 249.832292) scale(0.1 -0.1)">
      <use xlink:href="#DejaVuSans-32"/>
     </g>
    </g>
   </g>
   <g id="xtick_18">
    <g id="line2d_38">
     <path d="M 242.717838 254.802162 
" style="fill: none; stroke: #b0b0b0; stroke-opacity: 0.3; stroke-width: 0.8; stroke-linecap: square"/>
    </g>
    <g id="line2d_39">
     <path d="M 439.230858 211.146946 
L 445.519283 212.839798 
" style="fill: none; stroke: #000000; stroke-width: 0.8; stroke-linecap: square"/>
    </g>
    <g id="text_20">
     <!-- 3 -->
     <g transform="translate(456.877874 216.828803) scale(0.1 -0.1)">
      <use xlink:href="#DejaVuSans-33"/>
     </g>
    </g>
   </g>
   <g id="xtick_19">
    <g id="line2d_40">
     <path d="M 242.717838 254.802162 
" style="fill: none; stroke: #b0b0b0; stroke-opacity: 0.3; stroke-width: 0.8; stroke-linecap: square"/>
    </g>
    <g id="line2d_41">
     <path d="M 440.75059 177.601816 
L 447.089575 179.266537 
" style="fill: none; stroke: #000000; stroke-width: 0.8; stroke-linecap: square"/>
    </g>
    <g id="text_21">
     <!-- 4 -->
     <g transform="translate(458.556342 183.31556) scale(0.1 -0.1)">
      <defs>
       <path id="DejaVuSans-34" d="M 2419 4116 
L 825 1625 
L 2419 1625 
L 2419 4116 
z
M 2253 4666 
L 3047 4666 
L 3047 1625 
L 3713 1625 
L 3713 1100 
L 3047 1100 
L 3047 0 
L 2419 0 
L 2419 1100 
L 313 1100 
L 313 1709 
L 2253 4666 
z
" transform="scale(0.015625)"/>
      </defs>
      <use xlink:href="#DejaVuSans-34"/>
     </g>
    </g>
   </g>
   <g id="xtick_20">
    <g id="line2d_42">
     <path d="M 242.717838 254.802162 
" style="fill: none; stroke: #b0b0b0; stroke-opacity: 0.3; stroke-width: 0.8; stroke-linecap: square"/>
    </g>
    <g id="line2d_43">
     <path d="M 442.29401 143.5338 
L 448.684374 145.169302 
" style="fill: none; stroke: #000000; stroke-width: 0.8; stroke-linecap: square"/>
    </g>
    <g id="text_22">
     <!-- 5 -->
     <g transform="translate(460.260936 149.280661) scale(0.1 -0.1)">
      <use xlink:href="#DejaVuSans-35"/>
     </g>
    </g>
   </g>
   <g id="text_23">
    <!-- Z (m) -->
    <g transform="translate(483.605446 239.548394) rotate(-87.378092) scale(0.12 -0.12)">
     <defs>
      <path id="DejaVuSans-5a" d="M 359 4666 
L 4025 4666 
L 4025 4184 
L 1075 531 
L 4097 531 
L 4097 0 
L 288 0 
L 288 481 
L 3238 4134 
L 359 4134 
L 359 4666 
z
" transform="scale(0.015625)"/>
     </defs>
     <use xlink:href="#DejaVuSans-5a"/>
     <use xlink:href="#DejaVuSans-20" x="68.505859"/>
     <use xlink:href="#DejaVuSans-28" x="100.292969"/>
     <use xlink:href="#DejaVuSans-6d" x="139.306641"/>
     <use xlink:href="#DejaVuSans-29" x="236.71875"/>
    </g>
   </g>
  </g>
  <g id="axes_1">
   <g id="line2d_44">
    <path d="M 82.053193 359.094693 
L 78.642966 267.551291 
L 78.874504 266.636293 
L 79.271941 265.928425 
L 79.83176 265.356678 
L 80.602794 264.869641 
L 81.705235 264.445489 
L 83.226718 264.121882 
L 85.261733 263.940489 
L 87.907411 263.945086 
L 91.261006 264.179482 
L 95.678023 264.723368 
L 101.351765 265.663071 
L 108.457937 267.077526 
L 117.51564 269.119489 
L 129.124127 271.98009 
L 143.876401 275.857196 
L 163.139357 281.163636 
L 187.838571 288.209101 
L 217.120337 296.796696 
L 244.543359 305.061272 
L 267.377215 312.169015 
L 274.873154 314.421245 
L 277.268318 314.876601 
L 279.569289 315.086651 
L 281.607588 315.057754 
L 283.614852 314.815684 
L 285.60916 314.359243 
L 287.804865 313.610918 
L 290.015964 312.609405 
L 292.268503 311.352582 
L 294.741668 309.724639 
L 297.494742 307.644494 
L 300.538303 305.063961 
L 303.893724 301.933346 
L 307.816265 297.964261 
L 312.343753 293.052521 
L 317.504228 287.116382 
L 323.565978 279.78912 
L 330.526792 271.011648 
L 338.334147 260.806747 
L 347.379866 248.602376 
L 357.169419 235.007704 
L 367.352829 220.483844 
L 377.698595 205.338873 
L 387.464569 190.653411 
L 396.033426 177.387434 
L 403.22627 165.859228 
L 409.002027 156.189312 
L 409.234964 155.388815 
L 409.132589 154.989676 
L 408.870678 154.801438 
L 408.362716 154.719489 
L 407.398267 154.819091 
L 405.735306 155.237115 
L 402.857756 156.215249 
L 397.912603 158.168306 
L 389.610429 161.721685 
L 374.142736 168.62417 
L 284.486364 208.936573 
L 208.961566 242.695235 
L 183.518573 254.337459 
L 163.337723 263.805824 
L 146.718596 271.838249 
L 132.757356 278.818955 
L 120.727484 285.069711 
L 110.468199 290.636541 
L 101.465829 295.767945 
L 93.966487 300.287787 
L 87.534377 304.416882 
L 82.313042 308.017745 
L 77.954252 311.280484 
L 74.390567 314.219731 
L 71.663099 316.742227 
L 69.539843 318.996661 
L 67.959487 320.99861 
L 66.902749 322.68758 
L 66.258715 324.108259 
L 65.92517 325.358107 
L 65.861959 326.44904 
L 66.030585 327.392853 
L 66.395264 328.201723 
L 66.982926 328.949038 
L 67.800338 329.610852 
L 68.882193 330.18594 
L 70.261871 330.655114 
L 71.952039 330.985999 
L 73.921022 331.140884 
L 76.071982 331.087899 
L 78.196668 330.819899 
L 80.062131 330.365774 
L 81.387786 329.824493 
L 82.148885 329.292763 
L 82.485654 328.806113 
L 82.530731 328.371802 
L 82.351659 327.935101 
L 81.877369 327.416667 
L 80.664555 326.282675 
L 80.709402 326.254623 
L 80.808441 326.283171 
L 80.798709 326.341439 
L 80.7963 326.350299 
L 80.797396 326.346926 
" clip-path="url(#p4ce705214b)" style="fill: none; stroke: #0000ff; stroke-width: 1.5; stroke-linecap: square"/>
   </g>
   <g id="Path3DCollection_1">
    <defs>
     <path id="mba76c7eabb" d="M 0 3.872983 
C 1.027127 3.872983 2.012324 3.464901 2.738613 2.738613 
C 3.464901 2.012324 3.872983 1.027127 3.872983 0 
C 3.872983 -1.027127 3.464901 -2.012324 2.738613 -2.738613 
C 2.012324 -3.464901 1.027127 -3.872983 0 -3.872983 
C -1.027127 -3.872983 -2.012324 -3.464901 -2.738613 -2.738613 
C -3.464901 -2.012324 -3.872983 -1.027127 -3.872983 0 
C -3.872983 1.027127 -3.464901 2.012324 -2.738613 2.738613 
C -2.012324 3.464901 -1.027127 3.872983 0 3.872983 
z
" style="stroke: #000000"/>
    </defs>
    <g clip-path="url(#p4ce705214b)">
     <use xlink:href="#mba76c7eabb" x="82.053193" y="359.094693" style="stroke: #000000"/>
    </g>
   </g>
   <g id="text_24">
    <!-- WP1 -->
    <g style="fill: #e74c3c" transform="translate(78.029819 254.176072) scale(0.08 -0.08)">
     <defs>
      <path id="DejaVuSans-57" d="M 213 4666 
L 850 4666 
L 1831 722 
L 2809 4666 
L 3519 4666 
L 4500 722 
L 5478 4666 
L 6119 4666 
L 4947 0 
L 4153 0 
L 3169 4050 
L 2175 0 
L 1381 0 
L 213 4666 
z
" transform="scale(0.015625)"/>
      <path id="DejaVuSans-50" d="M 1259 4147 
L 1259 2394 
L 2053 2394 
Q 2494 2394 2734 2622 
Q 2975 2850 2975 3272 
Q 2975 3691 2734 3919 
Q 2494 4147 2053 4147 
L 1259 4147 
z
M 628 4666 
L 2053 4666 
Q 2838 4666 3239 4311 
Q 3641 3956 3641 3272 
Q 3641 2581 3239 2228 
Q 2838 1875 2053 1875 
L 1259 1875 
L 1259 0 
L 628 0 
L 628 4666 
z
" transform="scale(0.015625)"/>
     </defs>
     <use xlink:href="#DejaVuSans-57"/>
     <use xlink:href="#DejaVuSans-50" x="98.876953"/>
     <use xlink:href="#DejaVuSans-31" x="159.179688"/>
    </g>
   </g>
   <g id="text_25">
    <!-- WP2 -->
    <g style="fill: #e67e22" transform="translate(292.566064 318.207038) scale(0.08 -0.08)">
     <use xlink:href="#DejaVuSans-57"/>
     <use xlink:href="#DejaVuSans-50" x="98.876953"/>
     <use xlink:href="#DejaVuSans-32" x="159.179688"/>
    </g>
   </g>
   <g id="text_26">
    <!-- WP3 -->
    <g style="fill: #2ecc71" transform="translate(413.039264 140.464398) scale(0.08 -0.08)">
     <use xlink:href="#DejaVuSans-57"/>
     <use xlink:href="#DejaVuSans-50" x="98.876953"/>
     <use xlink:href="#DejaVuSans-33" x="159.179688"/>
    </g>
   </g>
   <g id="text_27">
    <!-- WP4 -->
    <g style="fill: #9b59b6" transform="translate(80.607331 321.390555) scale(0.08 -0.08)">
     <use xlink:href="#DejaVuSans-57"/>
     <use xlink:href="#DejaVuSans-50" x="98.876953"/>
     <use xlink:href="#DejaVuSans-34" x="159.179688"/>
    </g>
   </g>
   <g id="Path3DCollection_2">
    <defs>
     <path id="m599398bbd9" d="M 0 -7.071068 
L -1.587554 -2.18508 
L -6.724985 -2.18508 
L -2.568716 0.834626 
L -4.156269 5.720614 
L -0 2.700907 
L 4.156269 5.720614 
L 2.568716 0.834626 
L 6.724985 -2.18508 
L 1.587554 -2.18508 
z
" style="stroke: #2ecc71"/>
    </defs>
    <g clip-path="url(#p4ce705214b)">
     <use xlink:href="#m599398bbd9" x="412.839832" y="145.626186" style="fill: #2ecc71; stroke: #2ecc71"/>
    </g>
   </g>
   <g id="Path3DCollection_3">
    <defs>
     <path id="mee403e41f8" d="M 0 -7.071068 
L -1.587554 -2.18508 
L -6.724985 -2.18508 
L -2.568716 0.834626 
L -4.156269 5.720614 
L -0 2.700907 
L 4.156269 5.720614 
L 2.568716 0.834626 
L 6.724985 -2.18508 
L 1.587554 -2.18508 
z
" style="stroke: #9b59b6"/>
    </defs>
    <g clip-path="url(#p4ce705214b)">
     <use xlink:href="#mee403e41f8" x="80.797396" y="326.346926" style="fill: #9b59b6; stroke: #9b59b6"/>
    </g>
   </g>
   <g id="legend_1">
    <g id="patch_6">
     <path d="M 395.14375 108.535 
L 460.24 108.535 
Q 461.84 108.535 461.84 106.935 
L 461.84 37.28 
Q 461.84 35.68 460.24 35.68 
L 395.14375 35.68 
Q 393.54375 35.68 393.54375 37.28 
L 393.54375 106.935 
Q 393.54375 108.535 395.14375 108.535 
z
" style="fill: #ffffff; opacity: 0.8; stroke: #cccccc; stroke-linejoin: miter"/>
    </g>
    <g id="line2d_45">
     <path d="M 396.74375 42.15875 
L 404.74375 42.15875 
L 412.74375 42.15875 
" style="fill: none; stroke: #0000ff; stroke-width: 1.5; stroke-linecap: square"/>
    </g>
    <g id="text_28">
     <!-- Trajectory -->
     <g transform="translate(419.14375 44.95875) scale(0.08 -0.08)">
      <defs>
       <path id="DejaVuSans-54" d="M -19 4666 
L 3928 4666 
L 3928 4134 
L 2272 4134 
L 2272 0 
L 1638 0 
L 1638 4134 
L -19 4134 
L -19 4666 
z
" transform="scale(0.015625)"/>
       <path id="DejaVuSans-72" d="M 2631 2963 
Q 2534 3019 2420 3045 
Q 2306 3072 2169 3072 
Q 1681 3072 1420 2755 
Q 1159 2438 1159 1844 
L 1159 0 
L 581 0 
L 581 3500 
L 1159 3500 
L 1159 2956 
Q 1341 3275 1631 3429 
Q 1922 3584 2338 3584 
Q 2397 3584 2469 3576 
Q 2541 3569 2628 3553 
L 2631 2963 
z
" transform="scale(0.015625)"/>
       <path id="DejaVuSans-61" d="M 2194 1759 
Q 1497 1759 1228 1600 
Q 959 1441 959 1056 
Q 959 750 1161 570 
Q 1363 391 1709 391 
Q 2188 391 2477 730 
Q 2766 1069 2766 1631 
L 2766 1759 
L 2194 1759 
z
M 3341 1997 
L 3341 0 
L 2766 0 
L 2766 531 
Q 2569 213 2275 61 
Q 1981 -91 1556 -91 
Q 1019 -91 701 211 
Q 384 513 384 1019 
Q 384 1609 779 1909 
Q 1175 2209 1959 2209 
L 2766 2209 
L 2766 2266 
Q 2766 2663 2505 2880 
Q 2244 3097 1772 3097 
Q 1472 3097 1187 3025 
Q 903 2953 641 2809 
L 641 3341 
Q 956 3463 1253 3523 
Q 1550 3584 1831 3584 
Q 2591 3584 2966 3190 
Q 3341 2797 3341 1997 
z
" transform="scale(0.015625)"/>
       <path id="DejaVuSans-6a" d="M 603 3500 
L 1178 3500 
L 1178 -63 
Q 1178 -731 923 -1031 
Q 669 -1331 103 -1331 
L -116 -1331 
L -116 -844 
L 38 -844 
Q 366 -844 484 -692 
Q 603 -541 603 -63 
L 603 3500 
z
M 603 4863 
L 1178 4863 
L 1178 4134 
L 603 4134 
L 603 4863 
z
" transform="scale(0.015625)"/>
       <path id="DejaVuSans-65" d="M 3597 1894 
L 3597 1613 
L 953 1613 
Q 991 1019 1311 708 
Q 1631 397 2203 397 
Q 2534 397 2845 478 
Q 3156 559 3463 722 
L 3463 178 
Q 3153 47 2828 -22 
Q 2503 -91 2169 -91 
Q 1331 -91 842 396 
Q 353 884 353 1716 
Q 353 2575 817 3079 
Q 1281 3584 2069 3584 
Q 2775 3584 3186 3129 
Q 3597 2675 3597 1894 
z
M 3022 2063 
Q 3016 2534 2758 2815 
Q 2500 3097 2075 3097 
Q 1594 3097 1305 2825 
Q 1016 2553 972 2059 
L 3022 2063 
z
" transform="scale(0.015625)"/>
       <path id="DejaVuSans-63" d="M 3122 3366 
L 3122 2828 
Q 2878 2963 2633 3030 
Q 2388 3097 2138 3097 
Q 1578 3097 1268 2742 
Q 959 2388 959 1747 
Q 959 1106 1268 751 
Q 1578 397 2138 397 
Q 2388 397 2633 464 
Q 2878 531 3122 666 
L 3122 134 
Q 2881 22 2623 -34 
Q 2366 -91 2075 -91 
Q 1284 -91 818 406 
Q 353 903 353 1747 
Q 353 2603 823 3093 
Q 1294 3584 2113 3584 
Q 2378 3584 2631 3529 
Q 2884 3475 3122 3366 
z
" transform="scale(0.015625)"/>
       <path id="DejaVuSans-74" d="M 1172 4494 
L 1172 3500 
L 2356 3500 
L 2356 3053 
L 1172 3053 
L 1172 1153 
Q 1172 725 1289 603 
Q 1406 481 1766 481 
L 2356 481 
L 2356 0 
L 1766 0 
Q 1100 0 847 248 
Q 594 497 594 1153 
L 594 3053 
L 172 3053 
L 172 3500 
L 594 3500 
L 594 4494 
L 1172 4494 
z
" transform="scale(0.015625)"/>
       <path id="DejaVuSans-6f" d="M 1959 3097 
Q 1497 3097 1228 2736 
Q 959 2375 959 1747 
Q 959 1119 1226 758 
Q 1494 397 1959 397 
Q 2419 397 2687 759 
Q 2956 1122 2956 1747 
Q 2956 2369 2687 2733 
Q 2419 3097 1959 3097 
z
M 1959 3584 
Q 2709 3584 3137 3096 
Q 3566 2609 3566 1747 
Q 3566 888 3137 398 
Q 2709 -91 1959 -91 
Q 1206 -91 779 398 
Q 353 888 353 1747 
Q 353 2609 779 3096 
Q 1206 3584 1959 3584 
z
" transform="scale(0.015625)"/>
       <path id="DejaVuSans-79" d="M 2059 -325 
Q 1816 -950 1584 -1140 
Q 1353 -1331 966 -1331 
L 506 -1331 
L 506 -850 
L 844 -850 
Q 1081 -850 1212 -737 
Q 1344 -625 1503 -206 
L 1606 56 
L 191 3500 
L 800 3500 
L 1894 763 
L 2988 3500 
L 3597 3500 
L 2059 -325 
z
" transform="scale(0.015625)"/>
      </defs>
      <use xlink:href="#DejaVuSans-54"/>
      <use xlink:href="#DejaVuSans-72" x="46.333984"/>
      <use xlink:href="#DejaVuSans-61" x="87.447266"/>
      <use xlink:href="#DejaVuSans-6a" x="148.726562"/>
      <use xlink:href="#DejaVuSans-65" x="176.509766"/>
      <use xlink:href="#DejaVuSans-63" x="238.033203"/>
      <use xlink:href="#DejaVuSans-74" x="293.013672"/>
      <use xlink:href="#DejaVuSans-6f" x="332.222656"/>
      <use xlink:href="#DejaVuSans-72" x="393.404297"/>
      <use xlink:href="#DejaVuSans-79" x="434.517578"/>
     </g>
    </g>
    <g id="Path3DCollection_4">
     <g>
      <use xlink:href="#mba76c7eabb" x="404.74375" y="54.60125" style="stroke: #000000"/>
     </g>
    </g>
    <g id="text_29">
     <!-- Start -->
     <g transform="translate(419.14375 56.70125) scale(0.08 -0.08)">
      <defs>
       <path id="DejaVuSans-53" d="M 3425 4513 
L 3425 3897 
Q 3066 4069 2747 4153 
Q 2428 4238 2131 4238 
Q 1616 4238 1336 4038 
Q 1056 3838 1056 3469 
Q 1056 3159 1242 3001 
Q 1428 2844 1947 2747 
L 2328 2669 
Q 3034 2534 3370 2195 
Q 3706 1856 3706 1288 
Q 3706 609 3251 259 
Q 2797 -91 1919 -91 
Q 1588 -91 1214 -16 
Q 841 59 441 206 
L 441 856 
Q 825 641 1194 531 
Q 1563 422 1919 422 
Q 2459 422 2753 634 
Q 3047 847 3047 1241 
Q 3047 1584 2836 1778 
Q 2625 1972 2144 2069 
L 1759 2144 
Q 1053 2284 737 2584 
Q 422 2884 422 3419 
Q 422 4038 858 4394 
Q 1294 4750 2059 4750 
Q 2388 4750 2728 4690 
Q 3069 4631 3425 4513 
z
" transform="scale(0.015625)"/>
      </defs>
      <use xlink:href="#DejaVuSans-53"/>
      <use xlink:href="#DejaVuSans-74" x="63.476562"/>
      <use xlink:href="#DejaVuSans-61" x="102.685547"/>
      <use xlink:href="#DejaVuSans-72" x="163.964844"/>
      <use xlink:href="#DejaVuSans-74" x="205.078125"/>
     </g>
    </g>
    <g id="Path3DCollection_5">
     <defs>
      <path id="m8d6a060cba" d="M 0 -7.071068 
L -1.587554 -2.18508 
L -6.724985 -2.18508 
L -2.568716 0.834626 
L -4.156269 5.720614 
L -0 2.700907 
L 4.156269 5.720614 
L 2.568716 0.834626 
L 6.724985 -2.18508 
L 1.587554 -2.18508 
z
" style="stroke: #e74c3c"/>
     </defs>
     <g>
      <use xlink:href="#m8d6a060cba" x="404.74375" y="66.34375" style="fill: #e74c3c; stroke: #e74c3c"/>
     </g>
    </g>
    <g id="text_30">
     <!-- WP1 -->
     <g transform="translate(419.14375 68.44375) scale(0.08 -0.08)">
      <use xlink:href="#DejaVuSans-57"/>
      <use xlink:href="#DejaVuSans-50" x="98.876953"/>
      <use xlink:href="#DejaVuSans-31" x="159.179688"/>
     </g>
    </g>
    <g id="Path3DCollection_6">
     <defs>
      <path id="mc677b1c8d9" d="M 0 -7.071068 
L -1.587554 -2.18508 
L -6.724985 -2.18508 
L -2.568716 0.834626 
L -4.156269 5.720614 
L -0 2.700907 
L 4.156269 5.720614 
L 2.568716 0.834626 
L 6.724985 -2.18508 
L 1.587554 -2.18508 
z
" style="stroke: #e67e22"/>
     </defs>
     <g>
      <use xlink:href="#mc677b1c8d9" x="404.74375" y="78.08625" style="fill: #e67e22; stroke: #e67e22"/>
     </g>
    </g>
    <g id="text_31">
     <!-- WP2 -->
     <g transform="translate(419.14375 80.18625) scale(0.08 -0.08)">
      <use xlink:href="#DejaVuSans-57"/>
      <use xlink:href="#DejaVuSans-50" x="98.876953"/>
      <use xlink:href="#DejaVuSans-32" x="159.179688"/>
     </g>
    </g>
    <g id="Path3DCollection_7">
     <g>
      <use xlink:href="#m599398bbd9" x="404.74375" y="89.82875" style="fill: #2ecc71; stroke: #2ecc71"/>
     </g>
    </g>
    <g id="text_32">
     <!-- WP3 -->
     <g transform="translate(419.14375 91.92875) scale(0.08 -0.08)">
      <use xlink:href="#DejaVuSans-57"/>
      <use xlink:href="#DejaVuSans-50" x="98.876953"/>
      <use xlink:href="#DejaVuSans-33" x="159.179688"/>
     </g>
    </g>
    <g id="Path3DCollection_8">
     <g>
      <use xlink:href="#mee403e41f8" x="404.74375" y="101.57125" style="fill: #9b59b6; stroke: #9b59b6"/>
     </g>
    </g>
    <g id="text_33">
     <!-- WP4 -->
     <g transform="translate(419.14375 103.67125) scale(0.08 -0.08)">
      <use xlink:href="#DejaVuSans-57"/>
      <use xlink:href="#DejaVuSans-50" x="98.876953"/>
      <use xlink:href="#DejaVuSans-34" x="159.179688"/>
     </g>
    </g>
   </g>
   <g id="Path3DCollection_9">
    <g clip-path="url(#p4ce705214b)">
     <use xlink:href="#m8d6a060cba" x="78.225972" y="259.29121" style="fill: #e74c3c; stroke: #e74c3c"/>
    </g>
   </g>
   <g id="Path3DCollection_10">
    <g clip-path="url(#p4ce705214b)">
     <use xlink:href="#mc677b1c8d9" x="292.504038" y="323.471146" style="fill: #e67e22; stroke: #e67e22"/>
    </g>
   </g>
  </g>
  <g id="text_34">
   <!-- Kernel: preempt_rt | Policy: rr_p99 | Load: stress — 3D Trajectory -->
   <g transform="translate(16.745625 16.370625) scale(0.12 -0.12)">
    <defs>
     <path id="DejaVuSans-Bold-4b" d="M 588 4666 
L 1791 4666 
L 1791 2963 
L 3525 4666 
L 4922 4666 
L 2675 2456 
L 5153 0 
L 3647 0 
L 1791 1838 
L 1791 0 
L 588 0 
L 588 4666 
z
" transform="scale(0.015625)"/>
     <path id="DejaVuSans-Bold-65" d="M 4031 1759 
L 4031 1441 
L 1416 1441 
Q 1456 1047 1700 850 
Q 1944 653 2381 653 
Q 2734 653 3104 758 
Q 3475 863 3866 1075 
L 3866 213 
Q 3469 63 3072 -14 
Q 2675 -91 2278 -91 
Q 1328 -91 801 392 
Q 275 875 275 1747 
Q 275 2603 792 3093 
Q 1309 3584 2216 3584 
Q 3041 3584 3536 3087 
Q 4031 2591 4031 1759 
z
M 2881 2131 
Q 2881 2450 2695 2645 
Q 2509 2841 2209 2841 
Q 1884 2841 1681 2658 
Q 1478 2475 1428 2131 
L 2881 2131 
z
" transform="scale(0.015625)"/>
     <path id="DejaVuSans-Bold-72" d="M 3138 2547 
Q 2991 2616 2845 2648 
Q 2700 2681 2553 2681 
Q 2122 2681 1889 2404 
Q 1656 2128 1656 1613 
L 1656 0 
L 538 0 
L 538 3500 
L 1656 3500 
L 1656 2925 
Q 1872 3269 2151 3426 
Q 2431 3584 2822 3584 
Q 2878 3584 2943 3579 
Q 3009 3575 3134 3559 
L 3138 2547 
z
" transform="scale(0.015625)"/>
     <path id="DejaVuSans-Bold-6e" d="M 4056 2131 
L 4056 0 
L 2931 0 
L 2931 347 
L 2931 1631 
Q 2931 2084 2911 2256 
Q 2891 2428 2841 2509 
Q 2775 2619 2662 2680 
Q 2550 2741 2406 2741 
Q 2056 2741 1856 2470 
Q 1656 2200 1656 1722 
L 1656 0 
L 538 0 
L 538 3500 
L 1656 3500 
L 1656 2988 
Q 1909 3294 2193 3439 
Q 2478 3584 2822 3584 
Q 3428 3584 3742 3212 
Q 4056 2841 4056 2131 
z
" transform="scale(0.015625)"/>
     <path id="DejaVuSans-Bold-6c" d="M 538 4863 
L 1656 4863 
L 1656 0 
L 538 0 
L 538 4863 
z
" transform="scale(0.015625)"/>
     <path id="DejaVuSans-Bold-3a" d="M 716 3500 
L 1844 3500 
L 1844 2291 
L 716 2291 
L 716 3500 
z
M 716 1209 
L 1844 1209 
L 1844 0 
L 716 0 
L 716 1209 
z
" transform="scale(0.015625)"/>
     <path id="DejaVuSans-Bold-20" transform="scale(0.015625)"/>
     <path id="DejaVuSans-Bold-70" d="M 1656 506 
L 1656 -1331 
L 538 -1331 
L 538 3500 
L 1656 3500 
L 1656 2988 
Q 1888 3294 2169 3439 
Q 2450 3584 2816 3584 
Q 3463 3584 3878 3070 
Q 4294 2556 4294 1747 
Q 4294 938 3878 423 
Q 3463 -91 2816 -91 
Q 2450 -91 2169 54 
Q 1888 200 1656 506 
z
M 2400 2772 
Q 2041 2772 1848 2508 
Q 1656 2244 1656 1747 
Q 1656 1250 1848 986 
Q 2041 722 2400 722 
Q 2759 722 2948 984 
Q 3138 1247 3138 1747 
Q 3138 2247 2948 2509 
Q 2759 2772 2400 2772 
z
" transform="scale(0.015625)"/>
     <path id="DejaVuSans-Bold-6d" d="M 3781 2919 
Q 3994 3244 4286 3414 
Q 4578 3584 4928 3584 
Q 5531 3584 5847 3212 
Q 6163 2841 6163 2131 
L 6163 0 
L 5038 0 
L 5038 1825 
Q 5041 1866 5042 1909 
Q 5044 1953 5044 2034 
Q 5044 2406 4934 2573 
Q 4825 2741 4581 2741 
Q 4263 2741 4089 2478 
Q 3916 2216 3909 1719 
L 3909 0 
L 2784 0 
L 2784 1825 
Q 2784 2406 2684 2573 
Q 2584 2741 2328 2741 
Q 2006 2741 1831 2477 
Q 1656 2213 1656 1722 
L 1656 0 
L 531 0 
L 531 3500 
L 1656 3500 
L 1656 2988 
Q 1863 3284 2130 3434 
Q 2397 3584 2719 3584 
Q 3081 3584 3359 3409 
Q 3638 3234 3781 2919 
z
" transform="scale(0.015625)"/>
     <path id="DejaVuSans-Bold-74" d="M 1759 4494 
L 1759 3500 
L 2913 3500 
L 2913 2700 
L 1759 2700 
L 1759 1216 
Q 1759 972 1856 886 
Q 1953 800 2241 800 
L 2816 800 
L 2816 0 
L 1856 0 
Q 1194 0 917 276 
Q 641 553 641 1216 
L 641 2700 
L 84 2700 
L 84 3500 
L 641 3500 
L 641 4494 
L 1759 4494 
z
" transform="scale(0.015625)"/>
     <path id="DejaVuSans-Bold-5f" d="M 3200 -916 
L 3200 -1509 
L 0 -1509 
L 0 -916 
L 3200 -916 
z
" transform="scale(0.015625)"/>
     <path id="DejaVuSans-Bold-7c" d="M 1522 4891 
L 1522 -1509 
L 813 -1509 
L 813 4891 
L 1522 4891 
z
" transform="scale(0.015625)"/>
     <path id="DejaVuSans-Bold-50" d="M 588 4666 
L 2584 4666 
Q 3475 4666 3951 4270 
Q 4428 3875 4428 3144 
Q 4428 2409 3951 2014 
Q 3475 1619 2584 1619 
L 1791 1619 
L 1791 0 
L 588 0 
L 588 4666 
z
M 1791 3794 
L 1791 2491 
L 2456 2491 
Q 2806 2491 2997 2661 
Q 3188 2831 3188 3144 
Q 3188 3456 2997 3625 
Q 2806 3794 2456 3794 
L 1791 3794 
z
" transform="scale(0.015625)"/>
     <path id="DejaVuSans-Bold-6f" d="M 2203 2784 
Q 1831 2784 1636 2517 
Q 1441 2250 1441 1747 
Q 1441 1244 1636 976 
Q 1831 709 2203 709 
Q 2569 709 2762 976 
Q 2956 1244 2956 1747 
Q 2956 2250 2762 2517 
Q 2569 2784 2203 2784 
z
M 2203 3584 
Q 3106 3584 3614 3096 
Q 4122 2609 4122 1747 
Q 4122 884 3614 396 
Q 3106 -91 2203 -91 
Q 1297 -91 786 396 
Q 275 884 275 1747 
Q 275 2609 786 3096 
Q 1297 3584 2203 3584 
z
" transform="scale(0.015625)"/>
     <path id="DejaVuSans-Bold-69" d="M 538 3500 
L 1656 3500 
L 1656 0 
L 538 0 
L 538 3500 
z
M 538 4863 
L 1656 4863 
L 1656 3950 
L 538 3950 
L 538 4863 
z
" transform="scale(0.015625)"/>
     <path id="DejaVuSans-Bold-63" d="M 3366 3391 
L 3366 2478 
Q 3138 2634 2908 2709 
Q 2678 2784 2431 2784 
Q 1963 2784 1702 2511 
Q 1441 2238 1441 1747 
Q 1441 1256 1702 982 
Q 1963 709 2431 709 
Q 2694 709 2930 787 
Q 3166 866 3366 1019 
L 3366 103 
Q 3103 6 2833 -42 
Q 2563 -91 2291 -91 
Q 1344 -91 809 395 
Q 275 881 275 1747 
Q 275 2613 809 3098 
Q 1344 3584 2291 3584 
Q 2566 3584 2833 3536 
Q 3100 3488 3366 3391 
z
" transform="scale(0.015625)"/>
     <path id="DejaVuSans-Bold-79" d="M 78 3500 
L 1197 3500 
L 2138 1125 
L 2938 3500 
L 4056 3500 
L 2584 -331 
Q 2363 -916 2067 -1148 
Q 1772 -1381 1288 -1381 
L 641 -1381 
L 641 -647 
L 991 -647 
Q 1275 -647 1404 -556 
Q 1534 -466 1606 -231 
L 1638 -134 
L 78 3500 
z
" transform="scale(0.015625)"/>
     <path id="DejaVuSans-Bold-39" d="M 641 103 
L 641 966 
Q 928 831 1190 764 
Q 1453 697 1709 697 
Q 2247 697 2547 995 
Q 2847 1294 2900 1881 
Q 2688 1725 2447 1647 
Q 2206 1569 1925 1569 
Q 1209 1569 770 1986 
Q 331 2403 331 3084 
Q 331 3838 820 4291 
Q 1309 4744 2131 4744 
Q 3044 4744 3544 4128 
Q 4044 3513 4044 2388 
Q 4044 1231 3459 570 
Q 2875 -91 1856 -91 
Q 1528 -91 1228 -42 
Q 928 6 641 103 
z
M 2125 2350 
Q 2441 2350 2600 2554 
Q 2759 2759 2759 3169 
Q 2759 3575 2600 3781 
Q 2441 3988 2125 3988 
Q 1809 3988 1650 3781 
Q 1491 3575 1491 3169 
Q 1491 2759 1650 2554 
Q 1809 2350 2125 2350 
z
" transform="scale(0.015625)"/>
     <path id="DejaVuSans-Bold-4c" d="M 588 4666 
L 1791 4666 
L 1791 909 
L 3903 909 
L 3903 0 
L 588 0 
L 588 4666 
z
" transform="scale(0.015625)"/>
     <path id="DejaVuSans-Bold-61" d="M 2106 1575 
Q 1756 1575 1579 1456 
Q 1403 1338 1403 1106 
Q 1403 894 1545 773 
Q 1688 653 1941 653 
Q 2256 653 2472 879 
Q 2688 1106 2688 1447 
L 2688 1575 
L 2106 1575 
z
M 3816 1997 
L 3816 0 
L 2688 0 
L 2688 519 
Q 2463 200 2181 54 
Q 1900 -91 1497 -91 
Q 953 -91 614 226 
Q 275 544 275 1050 
Q 275 1666 698 1953 
Q 1122 2241 2028 2241 
L 2688 2241 
L 2688 2328 
Q 2688 2594 2478 2717 
Q 2269 2841 1825 2841 
Q 1466 2841 1156 2769 
Q 847 2697 581 2553 
L 581 3406 
Q 941 3494 1303 3539 
Q 1666 3584 2028 3584 
Q 2975 3584 3395 3211 
Q 3816 2838 3816 1997 
z
" transform="scale(0.015625)"/>
     <path id="DejaVuSans-Bold-64" d="M 2919 2988 
L 2919 4863 
L 4044 4863 
L 4044 0 
L 2919 0 
L 2919 506 
Q 2688 197 2409 53 
Q 2131 -91 1766 -91 
Q 1119 -91 703 423 
Q 288 938 288 1747 
Q 288 2556 703 3070 
Q 1119 3584 1766 3584 
Q 2128 3584 2408 3439 
Q 2688 3294 2919 2988 
z
M 2181 722 
Q 2541 722 2730 984 
Q 2919 1247 2919 1747 
Q 2919 2247 2730 2509 
Q 2541 2772 2181 2772 
Q 1825 2772 1636 2509 
Q 1447 2247 1447 1747 
Q 1447 1247 1636 984 
Q 1825 722 2181 722 
z
" transform="scale(0.015625)"/>
     <path id="DejaVuSans-Bold-73" d="M 3272 3391 
L 3272 2541 
Q 2913 2691 2578 2766 
Q 2244 2841 1947 2841 
Q 1628 2841 1473 2761 
Q 1319 2681 1319 2516 
Q 1319 2381 1436 2309 
Q 1553 2238 1856 2203 
L 2053 2175 
Q 2913 2066 3209 1816 
Q 3506 1566 3506 1031 
Q 3506 472 3093 190 
Q 2681 -91 1863 -91 
Q 1516 -91 1145 -36 
Q 775 19 384 128 
L 384 978 
Q 719 816 1070 734 
Q 1422 653 1784 653 
Q 2113 653 2278 743 
Q 2444 834 2444 1013 
Q 2444 1163 2330 1236 
Q 2216 1309 1875 1350 
L 1678 1375 
Q 931 1469 631 1722 
Q 331 1975 331 2491 
Q 331 3047 712 3315 
Q 1094 3584 1881 3584 
Q 2191 3584 2531 3537 
Q 2872 3491 3272 3391 
z
" transform="scale(0.015625)"/>
     <path id="DejaVuSans-Bold-2014" d="M 344 2156 
L 6056 2156 
L 6056 1350 
L 344 1350 
L 344 2156 
z
" transform="scale(0.015625)"/>
     <path id="DejaVuSans-Bold-33" d="M 2981 2516 
Q 3453 2394 3698 2092 
Q 3944 1791 3944 1325 
Q 3944 631 3412 270 
Q 2881 -91 1863 -91 
Q 1503 -91 1142 -33 
Q 781 25 428 141 
L 428 1069 
Q 766 900 1098 814 
Q 1431 728 1753 728 
Q 2231 728 2486 893 
Q 2741 1059 2741 1369 
Q 2741 1688 2480 1852 
Q 2219 2016 1709 2016 
L 1228 2016 
L 1228 2791 
L 1734 2791 
Q 2188 2791 2409 2933 
Q 2631 3075 2631 3366 
Q 2631 3634 2415 3781 
Q 2200 3928 1806 3928 
Q 1516 3928 1219 3862 
Q 922 3797 628 3669 
L 628 4550 
Q 984 4650 1334 4700 
Q 1684 4750 2022 4750 
Q 2931 4750 3382 4451 
Q 3834 4153 3834 3553 
Q 3834 3144 3618 2883 
Q 3403 2622 2981 2516 
z
" transform="scale(0.015625)"/>
     <path id="DejaVuSans-Bold-44" d="M 1791 3756 
L 1791 909 
L 2222 909 
Q 2959 909 3348 1275 
Q 3738 1641 3738 2338 
Q 3738 3031 3350 3393 
Q 2963 3756 2222 3756 
L 1791 3756 
z
M 588 4666 
L 1856 4666 
Q 2919 4666 3439 4514 
Q 3959 4363 4331 4000 
Q 4659 3684 4818 3271 
Q 4978 2859 4978 2338 
Q 4978 1809 4818 1395 
Q 4659 981 4331 666 
Q 3956 303 3431 151 
Q 2906 0 1856 0 
L 588 0 
L 588 4666 
z
" transform="scale(0.015625)"/>
     <path id="DejaVuSans-Bold-54" d="M 31 4666 
L 4331 4666 
L 4331 3756 
L 2784 3756 
L 2784 0 
L 1581 0 
L 1581 3756 
L 31 3756 
L 31 4666 
z
" transform="scale(0.015625)"/>
     <path id="DejaVuSans-Bold-6a" d="M 538 3500 
L 1656 3500 
L 1656 63 
Q 1656 -641 1318 -1011 
Q 981 -1381 341 -1381 
L -213 -1381 
L -213 -647 
L -19 -647 
Q 300 -647 419 -503 
Q 538 -359 538 63 
L 538 3500 
z
M 538 4863 
L 1656 4863 
L 1656 3950 
L 538 3950 
L 538 4863 
z
" transform="scale(0.015625)"/>
    </defs>
    <use xlink:href="#DejaVuSans-Bold-4b"/>
    <use xlink:href="#DejaVuSans-Bold-65" x="75.740234"/>
    <use xlink:href="#DejaVuSans-Bold-72" x="143.5625"/>
    <use xlink:href="#DejaVuSans-Bold-6e" x="192.878906"/>
    <use xlink:href="#DejaVuSans-Bold-65" x="264.070312"/>
    <use xlink:href="#DejaVuSans-Bold-6c" x="331.892578"/>
    <use xlink:href="#DejaVuSans-Bold-3a" x="366.169922"/>
    <use xlink:href="#DejaVuSans-Bold-20" x="406.160156"/>
    <use xlink:href="#DejaVuSans-Bold-70" x="440.974609"/>
    <use xlink:href="#DejaVuSans-Bold-72" x="512.556641"/>
    <use xlink:href="#DejaVuSans-Bold-65" x="561.873047"/>
    <use xlink:href="#DejaVuSans-Bold-65" x="629.695312"/>
    <use xlink:href="#DejaVuSans-Bold-6d" x="697.517578"/>
    <use xlink:href="#DejaVuSans-Bold-70" x="801.716797"/>
    <use xlink:href="#DejaVuSans-Bold-74" x="873.298828"/>
    <use xlink:href="#DejaVuSans-Bold-5f" x="921.101562"/>
    <use xlink:href="#DejaVuSans-Bold-72" x="971.101562"/>
    <use xlink:href="#DejaVuSans-Bold-74" x="1020.417969"/>
    <use xlink:href="#DejaVuSans-Bold-20" x="1068.220703"/>
    <use xlink:href="#DejaVuSans-Bold-7c" x="1103.035156"/>
    <use xlink:href="#DejaVuSans-Bold-20" x="1139.558594"/>
    <use xlink:href="#DejaVuSans-Bold-50" x="1174.373047"/>
    <use xlink:href="#DejaVuSans-Bold-6f" x="1247.664062"/>
    <use xlink:href="#DejaVuSans-Bold-6c" x="1316.365234"/>
    <use xlink:href="#DejaVuSans-Bold-69" x="1350.642578"/>
    <use xlink:href="#DejaVuSans-Bold-63" x="1384.919922"/>
    <use xlink:href="#DejaVuSans-Bold-79" x="1444.197266"/>
    <use xlink:href="#DejaVuSans-Bold-3a" x="1509.382812"/>
    <use xlink:href="#DejaVuSans-Bold-20" x="1549.373047"/>
    <use xlink:href="#DejaVuSans-Bold-72" x="1584.1875"/>
    <use xlink:href="#DejaVuSans-Bold-72" x="1633.503906"/>
    <use xlink:href="#DejaVuSans-Bold-5f" x="1682.820312"/>
    <use xlink:href="#DejaVuSans-Bold-70" x="1732.820312"/>
    <use xlink:href="#DejaVuSans-Bold-39" x="1804.402344"/>
    <use xlink:href="#DejaVuSans-Bold-39" x="1873.982422"/>
    <use xlink:href="#DejaVuSans-Bold-20" x="1943.5625"/>
    <use xlink:href="#DejaVuSans-Bold-7c" x="1978.376953"/>
    <use xlink:href="#DejaVuSans-Bold-20" x="2014.900391"/>
    <use xlink:href="#DejaVuSans-Bold-4c" x="2049.714844"/>
    <use xlink:href="#DejaVuSans-Bold-6f" x="2113.435547"/>
    <use xlink:href="#DejaVuSans-Bold-61" x="2182.136719"/>
    <use xlink:href="#DejaVuSans-Bold-64" x="2249.617188"/>
    <use xlink:href="#DejaVuSans-Bold-3a" x="2321.199219"/>
    <use xlink:href="#DejaVuSans-Bold-20" x="2361.189453"/>
    <use xlink:href="#DejaVuSans-Bold-73" x="2396.003906"/>
    <use xlink:href="#DejaVuSans-Bold-74" x="2455.525391"/>
    <use xlink:href="#DejaVuSans-Bold-72" x="2503.328125"/>
    <use xlink:href="#DejaVuSans-Bold-65" x="2552.644531"/>
    <use xlink:href="#DejaVuSans-Bold-73" x="2620.466797"/>
    <use xlink:href="#DejaVuSans-Bold-73" x="2679.988281"/>
    <use xlink:href="#DejaVuSans-Bold-20" x="2739.509766"/>
    <use xlink:href="#DejaVuSans-Bold-2014" x="2774.324219"/>
    <use xlink:href="#DejaVuSans-Bold-20" x="2874.324219"/>
    <use xlink:href="#DejaVuSans-Bold-33" x="2909.138672"/>
    <use xlink:href="#DejaVuSans-Bold-44" x="2978.71875"/>
    <use xlink:href="#DejaVuSans-Bold-20" x="3061.726562"/>
    <use xlink:href="#DejaVuSans-Bold-54" x="3096.541016"/>
    <use xlink:href="#DejaVuSans-Bold-72" x="3153.753906"/>
    <use xlink:href="#DejaVuSans-Bold-61" x="3203.070312"/>
    <use xlink:href="#DejaVuSans-Bold-6a" x="3270.550781"/>
    <use xlink:href="#DejaVuSans-Bold-65" x="3304.828125"/>
    <use xlink:href="#DejaVuSans-Bold-63" x="3372.650391"/>
    <use xlink:href="#DejaVuSans-Bold-74" x="3431.927734"/>
    <use xlink:href="#DejaVuSans-Bold-6f" x="3479.730469"/>
    <use xlink:href="#DejaVuSans-Bold-72" x="3548.431641"/>
    <use xlink:href="#DejaVuSans-Bold-79" x="3597.748047"/>
   </g>
  </g>
 </g>
 <defs>
  <clipPath id="p4ce705214b">
   <rect x="7.2" y="31.68" width="458.64" height="458.64"/>
  </clipPath>
 </defs>
</svg>
