<?xml version="1.0" encoding="utf-8" standalone="no"?>
<!DOCTYPE svg PUBLIC "-//W3C//DTD SVG 1.1//EN"
  "http://www.w3.org/Graphics/SVG/1.1/DTD/svg11.dtd">
<svg xmlns:xlink="http://www.w3.org/1999/xlink" width="720.966875pt" height="566.331875pt" viewBox="0 0 720.966875 566.331875" xmlns="http://www.w3.org/2000/svg" version="1.1">
 <metadata>
  <rdf:RDF xmlns:dc="http://purl.org/dc/elements/1.1/" xmlns:cc="http://creativecommons.org/ns#" xmlns:rdf="http://www.w3.org/1999/02/22-rdf-syntax-ns#">
   <cc:Work>
    <dc:type rdf:resource="http://purl.org/dc/dcmitype/StillImage"/>
    <dc:date>2026-04-28T15:37:59.186546</dc:date>
    <dc:format>image/svg+xml</dc:format>
    <dc:creator>
     <cc:Agent>
      <dc:title>Matplotlib v3.8.4, https://matplotlib.org/</dc:title>
     </cc:Agent>
    </dc:creator>
   </cc:Work>
  </rdf:RDF>
 </metadata>
 <defs>
  <style type="text/css">*{stroke-linejoin: round; stroke-linecap: butt}</style>
 </defs>
 <g id="figure_1">
  <g id="patch_1">
   <path d="M 0 566.331875 
L 720.966875 566.331875 
L 720.966875 0 
L 0 0 
z
" style="fill: #ffffff"/>
  </g>
  <g id="axes_1">
   <g id="patch_2">
    <path d="M 45.716875 186.24 
L 713.766875 186.24 
L 713.766875 30.24 
L 45.716875 30.24 
z
" style="fill: #ffffff"/>
   </g>
   <g id="matplotlib.axis_1">
    <g id="xtick_1">
     <g id="line2d_1">
      <path d="M 76.082764 186.24 
L 76.082764 30.24 
" clip-path="url(#p8aa16b42f6)" style="fill: none; stroke: #b0b0b0; stroke-opacity: 0.3; stroke-width: 0.8; stroke-linecap: square"/>
     </g>
     <g id="line2d_2">
      <defs>
       <path id="m858c2598d2" d="M 0 0 
L 0 3.5 
" style="stroke: #000000; stroke-width: 0.8"/>
      </defs>
      <g>
       <use xlink:href="#m858c2598d2" x="76.082764" y="186.24" style="stroke: #000000; stroke-width: 0.8"/>
      </g>
     </g>
    </g>
    <g id="xtick_2">
     <g id="line2d_3">
      <path d="M 177.315759 186.24 
L 177.315759 30.24 
" clip-path="url(#p8aa16b42f6)" style="fill: none; stroke: #b0b0b0; stroke-opacity: 0.3; stroke-width: 0.8; stroke-linecap: square"/>
     </g>
     <g id="line2d_4">
      <g>
       <use xlink:href="#m858c2598d2" x="177.315759" y="186.24" style="stroke: #000000; stroke-width: 0.8"/>
      </g>
     </g>
    </g>
    <g id="xtick_3">
     <g id="line2d_5">
      <path d="M 278.548755 186.24 
L 278.548755 30.24 
" clip-path="url(#p8aa16b42f6)" style="fill: none; stroke: #b0b0b0; stroke-opacity: 0.3; stroke-width: 0.8; stroke-linecap: square"/>
     </g>
     <g id="line2d_6">
      <g>
       <use xlink:href="#m858c2598d2" x="278.548755" y="186.24" style="stroke: #000000; stroke-width: 0.8"/>
      </g>
     </g>
    </g>
    <g id="xtick_4">
     <g id="line2d_7">
      <path d="M 379.781751 186.24 
L 379.781751 30.24 
" clip-path="url(#p8aa16b42f6)" style="fill: none; stroke: #b0b0b0; stroke-opacity: 0.3; stroke-width: 0.8; stroke-linecap: square"/>
     </g>
     <g id="line2d_8">
      <g>
       <use xlink:href="#m858c2598d2" x="379.781751" y="186.24" style="stroke: #000000; stroke-width: 0.8"/>
      </g>
     </g>
    </g>
    <g id="xtick_5">
     <g id="line2d_9">
      <path d="M 481.014746 186.24 
L 481.014746 30.24 
" clip-path="url(#p8aa16b42f6)" style="fill: none; stroke: #b0b0b0; stroke-opacity: 0.3; stroke-width: 0.8; stroke-linecap: square"/>
     </g>
     <g id="line2d_10">
      <g>
       <use xlink:href="#m858c2598d2" x="481.014746" y="186.24" style="stroke: #000000; stroke-width: 0.8"/>
      </g>
     </g>
    </g>
    <g id="xtick_6">
     <g id="line2d_11">
      <path d="M 582.247742 186.24 
L 582.247742 30.24 
" clip-path="url(#p8aa16b42f6)" style="fill: none; stroke: #b0b0b0; stroke-opacity: 0.3; stroke-width: 0.8; stroke-linecap: square"/>
     </g>
     <g id="line2d_12">
      <g>
       <use xlink:href="#m858c2598d2" x="582.247742" y="186.24" style="stroke: #000000; stroke-width: 0.8"/>
      </g>
     </g>
    </g>
    <g id="xtick_7">
     <g id="line2d_13">
      <path d="M 683.480738 186.24 
L 683.480738 30.24 
" clip-path="url(#p8aa16b42f6)" style="fill: none; stroke: #b0b0b0; stroke-opacity: 0.3; stroke-width: 0.8; stroke-linecap: square"/>
     </g>
     <g id="line2d_14">
      <g>
       <use xlink:href="#m858c2598d2" x="683.480738" y="186.24" style="stroke: #000000; stroke-width: 0.8"/>
      </g>
     </g>
    </g>
   </g>
   <g id="matplotlib.axis_2">
    <g id="ytick_1">
     <g id="line2d_15">
      <path d="M 45.716875 173.573448 
L 713.766875 173.573448 
" clip-path="url(#p8aa16b42f6)" style="fill: none; stroke: #b0b0b0; stroke-opacity: 0.3; stroke-width: 0.8; stroke-linecap: square"/>
     </g>
     <g id="line2d_16">
      <defs>
       <path id="m7f5db31164" d="M 0 0 
L -3.5 0 
" style="stroke: #000000; stroke-width: 0.8"/>
      </defs>
      <g>
       <use xlink:href="#m7f5db31164" x="45.716875" y="173.573448" style="stroke: #000000; stroke-width: 0.8"/>
      </g>
     </g>
     <g id="text_1">
      <!-- 0 -->
      <g transform="translate(32.354375 177.372667) scale(0.1 -0.1)">
       <defs>
        <path id="DejaVuSans-30" d="M 2034 4250 
Q 1547 4250 1301 3770 
Q 1056 3291 1056 2328 
Q 1056 1369 1301 889 
Q 1547 409 2034 409 
Q 2525 409 2770 889 
Q 3016 1369 3016 2328 
Q 3016 3291 2770 3770 
Q 2525 4250 2034 4250 
z
M 2034 4750 
Q 2819 4750 3233 4129 
Q 3647 3509 3647 2328 
Q 3647 1150 3233 529 
Q 2819 -91 2034 -91 
Q 1250 -91 836 529 
Q 422 1150 422 2328 
Q 422 3509 836 4129 
Q 1250 4750 2034 4750 
z
" transform="scale(0.015625)"/>
       </defs>
       <use xlink:href="#DejaVuSans-30"/>
      </g>
     </g>
    </g>
    <g id="ytick_2">
     <g id="line2d_17">
      <path d="M 45.716875 129.453627 
L 713.766875 129.453627 
" clip-path="url(#p8aa16b42f6)" style="fill: none; stroke: #b0b0b0; stroke-opacity: 0.3; stroke-width: 0.8; stroke-linecap: square"/>
     </g>
     <g id="line2d_18">
      <g>
       <use xlink:href="#m7f5db31164" x="45.716875" y="129.453627" style="stroke: #000000; stroke-width: 0.8"/>
      </g>
     </g>
     <g id="text_2">
      <!-- 1 -->
      <g transform="translate(32.354375 133.252845) scale(0.1 -0.1)">
       <defs>
        <path id="DejaVuSans-31" d="M 794 531 
L 1825 531 
L 1825 4091 
L 703 3866 
L 703 4441 
L 1819 4666 
L 2450 4666 
L 2450 531 
L 3481 531 
L 3481 0 
L 794 0 
L 794 531 
z
" transform="scale(0.015625)"/>
       </defs>
       <use xlink:href="#DejaVuSans-31"/>
      </g>
     </g>
    </g>
    <g id="ytick_3">
     <g id="line2d_19">
      <path d="M 45.716875 85.333805 
L 713.766875 85.333805 
" clip-path="url(#p8aa16b42f6)" style="fill: none; stroke: #b0b0b0; stroke-opacity: 0.3; stroke-width: 0.8; stroke-linecap: square"/>
     </g>
     <g id="line2d_20">
      <g>
       <use xlink:href="#m7f5db31164" x="45.716875" y="85.333805" style="stroke: #000000; stroke-width: 0.8"/>
      </g>
     </g>
     <g id="text_3">
      <!-- 2 -->
      <g transform="translate(32.354375 89.133023) scale(0.1 -0.1)">
       <defs>
        <path id="DejaVuSans-32" d="M 1228 531 
L 3431 531 
L 3431 0 
L 469 0 
L 469 531 
Q 828 903 1448 1529 
Q 2069 2156 2228 2338 
Q 2531 2678 2651 2914 
Q 2772 3150 2772 3378 
Q 2772 3750 2511 3984 
Q 2250 4219 1831 4219 
Q 1534 4219 1204 4116 
Q 875 4013 500 3803 
L 500 4441 
Q 881 4594 1212 4672 
Q 1544 4750 1819 4750 
Q 2544 4750 2975 4387 
Q 3406 4025 3406 3419 
Q 3406 3131 3298 2873 
Q 3191 2616 2906 2266 
Q 2828 2175 2409 1742 
Q 1991 1309 1228 531 
z
" transform="scale(0.015625)"/>
       </defs>
       <use xlink:href="#DejaVuSans-32"/>
      </g>
     </g>
    </g>
    <g id="ytick_4">
     <g id="line2d_21">
      <path d="M 45.716875 41.213983 
L 713.766875 41.213983 
" clip-path="url(#p8aa16b42f6)" style="fill: none; stroke: #b0b0b0; stroke-opacity: 0.3; stroke-width: 0.8; stroke-linecap: square"/>
     </g>
     <g id="line2d_22">
      <g>
       <use xlink:href="#m7f5db31164" x="45.716875" y="41.213983" style="stroke: #000000; stroke-width: 0.8"/>
      </g>
     </g>
     <g id="text_4">
      <!-- 3 -->
      <g transform="translate(32.354375 45.013202) scale(0.1 -0.1)">
       <defs>
        <path id="DejaVuSans-33" d="M 2597 2516 
Q 3050 2419 3304 2112 
Q 3559 1806 3559 1356 
Q 3559 666 3084 287 
Q 2609 -91 1734 -91 
Q 1441 -91 1130 -33 
Q 819 25 488 141 
L 488 750 
Q 750 597 1062 519 
Q 1375 441 1716 441 
Q 2309 441 2620 675 
Q 2931 909 2931 1356 
Q 2931 1769 2642 2001 
Q 2353 2234 1838 2234 
L 1294 2234 
L 1294 2753 
L 1863 2753 
Q 2328 2753 2575 2939 
Q 2822 3125 2822 3475 
Q 2822 3834 2567 4026 
Q 2313 4219 1838 4219 
Q 1578 4219 1281 4162 
Q 984 4106 628 3988 
L 628 4550 
Q 988 4650 1302 4700 
Q 1616 4750 1894 4750 
Q 2613 4750 3031 4423 
Q 3450 4097 3450 3541 
Q 3450 3153 3228 2886 
Q 3006 2619 2597 2516 
z
" transform="scale(0.015625)"/>
       </defs>
       <use xlink:href="#DejaVuSans-33"/>
      </g>
     </g>
    </g>
    <g id="text_5">
     <!-- X (m) -->
     <g transform="translate(25.85875 124.783125) rotate(-90) scale(0.12 -0.12)">
      <defs>
       <path id="DejaVuSans-58" d="M 403 4666 
L 1081 4666 
L 2241 2931 
L 3406 4666 
L 4084 4666 
L 2584 2425 
L 4184 0 
L 3506 0 
L 2194 1984 
L 872 0 
L 191 0 
L 1856 2491 
L 403 4666 
z
" transform="scale(0.015625)"/>
       <path id="DejaVuSans-20" transform="scale(0.015625)"/>
       <path id="DejaVuSans-28" d="M 1984 4856 
Q 1566 4138 1362 3434 
Q 1159 2731 1159 2009 
Q 1159 1288 1364 580 
Q 1569 -128 1984 -844 
L 1484 -844 
Q 1016 -109 783 600 
Q 550 1309 550 2009 
Q 550 2706 781 3412 
Q 1013 4119 1484 4856 
L 1984 4856 
z
" transform="scale(0.015625)"/>
       <path id="DejaVuSans-6d" d="M 3328 2828 
Q 3544 3216 3844 3400 
Q 4144 3584 4550 3584 
Q 5097 3584 5394 3201 
Q 5691 2819 5691 2113 
L 5691 0 
L 5113 0 
L 5113 2094 
Q 5113 2597 4934 2840 
Q 4756 3084 4391 3084 
Q 3944 3084 3684 2787 
Q 3425 2491 3425 1978 
L 3425 0 
L 2847 0 
L 2847 2094 
Q 2847 2600 2669 2842 
Q 2491 3084 2119 3084 
Q 1678 3084 1418 2786 
Q 1159 2488 1159 1978 
L 1159 0 
L 581 0 
L 581 3500 
L 1159 3500 
L 1159 2956 
Q 1356 3278 1631 3431 
Q 1906 3584 2284 3584 
Q 2666 3584 2933 3390 
Q 3200 3197 3328 2828 
z
" transform="scale(0.015625)"/>
       <path id="DejaVuSans-29" d="M 513 4856 
L 1013 4856 
Q 1481 4119 1714 3412 
Q 1947 2706 1947 2009 
Q 1947 1309 1714 600 
Q 1481 -109 1013 -844 
L 513 -844 
Q 928 -128 1133 580 
Q 1338 1288 1338 2009 
Q 1338 2731 1133 3434 
Q 928 4138 513 4856 
z
" transform="scale(0.015625)"/>
      </defs>
      <use xlink:href="#DejaVuSans-58"/>
      <use xlink:href="#DejaVuSans-20" x="68.505859"/>
      <use xlink:href="#DejaVuSans-28" x="100.292969"/>
      <use xlink:href="#DejaVuSans-6d" x="139.306641"/>
      <use xlink:href="#DejaVuSans-29" x="236.71875"/>
     </g>
    </g>
   </g>
   <g id="line2d_23">
    <path d="M 76.082784 173.573448 
L 135.123062 173.472105 
L 136.49979 173.187929 
L 137.714829 172.715891 
L 138.929382 171.994929 
L 140.144198 170.99663 
L 141.358974 169.703125 
L 142.654756 167.987526 
L 144.031545 165.782506 
L 145.48928 163.026384 
L 147.109069 159.477827 
L 148.890709 155.027152 
L 150.915389 149.351446 
L 153.263974 142.081514 
L 156.179505 132.297281 
L 160.957682 115.335151 
L 166.464777 96.006125 
L 169.704212 85.432633 
L 172.538757 76.921302 
L 175.049315 70.057096 
L 177.39794 64.254854 
L 179.66556 59.240107 
L 181.771287 55.102991 
L 183.795845 51.605304 
L 185.658533 48.84455 
L 187.521463 46.48586 
L 189.401137 44.470555 
L 191.247465 42.808164 
L 193.189518 41.362534 
L 195.130702 40.192962 
L 197.16917 39.225767 
L 199.305996 38.462847 
L 201.538932 37.902658 
L 203.943499 37.530375 
L 206.594103 37.347983 
L 209.630506 37.370396 
L 213.193907 37.627968 
L 217.891118 38.20607 
L 237.00411 40.799521 
L 238.704622 41.111448 
L 240.000425 41.579692 
L 241.134234 42.2174 
L 242.268084 43.103679 
L 243.48284 44.354829 
L 244.697697 45.934054 
L 245.99354 47.987346 
L 247.370207 50.58318 
L 248.909212 53.974141 
L 250.609623 58.283677 
L 252.553296 63.860952 
L 254.739929 70.839252 
L 257.4125 80.142005 
L 261.359939 94.788903 
L 267.940752 119.207239 
L 271.099181 130.026125 
L 273.771752 138.43254 
L 276.201324 145.384765 
L 278.549929 151.435048 
L 280.736562 156.459017 
L 282.842229 160.741816 
L 284.866909 164.356465 
L 286.810542 167.37832 
L 288.673411 169.881546 
L 290.535977 172.021357 
L 292.398623 173.821975 
L 294.261311 175.308593 
L 296.123977 176.507637 
L 297.986685 177.445978 
L 299.930358 178.176116 
L 301.955018 178.698142 
L 304.141631 179.02582 
L 306.490256 179.148209 
L 309.081882 179.06041 
L 312.159304 178.725982 
L 316.046671 178.064758 
L 322.60657 176.680455 
L 330.543216 175.072287 
L 335.969365 174.208377 
L 341.152434 173.608435 
L 346.578523 173.20721 
L 352.571516 172.99067 
L 359.860312 172.95705 
L 371.036414 173.153163 
L 393.874578 173.565198 
L 412.825395 173.63001 
L 566.699548 173.573404 
L 683.400966 173.573448 
L 683.400966 173.573448 
" clip-path="url(#p8aa16b42f6)" style="fill: none; stroke: #e74c3c; stroke-width: 1.8; stroke-linecap: square"/>
   </g>
   <g id="line2d_24">
    <path d="M 76.082784 173.573448 
L 132.531639 173.573448 
L 132.69345 41.213983 
L 235.870098 41.213983 
L 236.032091 173.573448 
L 683.400966 173.573448 
L 683.400966 173.573448 
" clip-path="url(#p8aa16b42f6)" style="fill: none; stroke-dasharray: 4.44,1.92; stroke-dashoffset: 0; stroke: #95a5a6; stroke-width: 1.2"/>
   </g>
   <g id="line2d_25">
    <path d="M 132.612544 186.24 
L 132.612544 30.24 
" clip-path="url(#p8aa16b42f6)" style="fill: none; stroke-dasharray: 1,1.65; stroke-dashoffset: 0; stroke: #e67e22; stroke-opacity: 0.8"/>
   </g>
   <g id="line2d_26">
    <path d="M 182.662036 186.24 
L 182.662036 30.24 
" clip-path="url(#p8aa16b42f6)" style="fill: none; stroke-dasharray: 1,1.65; stroke-dashoffset: 0; stroke: #2ecc71; stroke-opacity: 0.8"/>
   </g>
   <g id="line2d_27">
    <path d="M 235.951085 186.24 
L 235.951085 30.24 
" clip-path="url(#p8aa16b42f6)" style="fill: none; stroke-dasharray: 1,1.65; stroke-dashoffset: 0; stroke: #9b59b6; stroke-opacity: 0.8"/>
   </g>
   <g id="patch_3">
    <path d="M 45.716875 186.24 
L 45.716875 30.24 
" style="fill: none; stroke: #000000; stroke-width: 0.8; stroke-linejoin: miter; stroke-linecap: square"/>
   </g>
   <g id="patch_4">
    <path d="M 45.716875 186.24 
L 713.766875 186.24 
" style="fill: none; stroke: #000000; stroke-width: 0.8; stroke-linejoin: miter; stroke-linecap: square"/>
   </g>
   <g id="legend_1">
    <g id="patch_5">
     <path d="M 617.984375 127.90875 
L 705.366875 127.90875 
Q 707.766875 127.90875 707.766875 125.50875 
L 707.766875 38.64 
Q 707.766875 36.24 705.366875 36.24 
L 617.984375 36.24 
Q 615.584375 36.24 615.584375 38.64 
L 615.584375 125.50875 
Q 615.584375 127.90875 617.984375 127.90875 
z
" style="fill: #ffffff; opacity: 0.8; stroke: #cccccc; stroke-linejoin: miter"/>
    </g>
    <g id="line2d_28">
     <path d="M 620.384375 45.958125 
L 632.384375 45.958125 
L 644.384375 45.958125 
" style="fill: none; stroke: #e74c3c; stroke-width: 1.8; stroke-linecap: square"/>
    </g>
    <g id="text_6">
     <!-- X actual -->
     <g transform="translate(653.984375 50.158125) scale(0.12 -0.12)">
      <defs>
       <path id="DejaVuSans-61" d="M 2194 1759 
Q 1497 1759 1228 1600 
Q 959 1441 959 1056 
Q 959 750 1161 570 
Q 1363 391 1709 391 
Q 2188 391 2477 730 
Q 2766 1069 2766 1631 
L 2766 1759 
L 2194 1759 
z
M 3341 1997 
L 3341 0 
L 2766 0 
L 2766 531 
Q 2569 213 2275 61 
Q 1981 -91 1556 -91 
Q 1019 -91 701 211 
Q 384 513 384 1019 
Q 384 1609 779 1909 
Q 1175 2209 1959 2209 
L 2766 2209 
L 2766 2266 
Q 2766 2663 2505 2880 
Q 2244 3097 1772 3097 
Q 1472 3097 1187 3025 
Q 903 2953 641 2809 
L 641 3341 
Q 956 3463 1253 3523 
Q 1550 3584 1831 3584 
Q 2591 3584 2966 3190 
Q 3341 2797 3341 1997 
z
" transform="scale(0.015625)"/>
       <path id="DejaVuSans-63" d="M 3122 3366 
L 3122 2828 
Q 2878 2963 2633 3030 
Q 2388 3097 2138 3097 
Q 1578 3097 1268 2742 
Q 959 2388 959 1747 
Q 959 1106 1268 751 
Q 1578 397 2138 397 
Q 2388 397 2633 464 
Q 2878 531 3122 666 
L 3122 134 
Q 2881 22 2623 -34 
Q 2366 -91 2075 -91 
Q 1284 -91 818 406 
Q 353 903 353 1747 
Q 353 2603 823 3093 
Q 1294 3584 2113 3584 
Q 2378 3584 2631 3529 
Q 2884 3475 3122 3366 
z
" transform="scale(0.015625)"/>
       <path id="DejaVuSans-74" d="M 1172 4494 
L 1172 3500 
L 2356 3500 
L 2356 3053 
L 1172 3053 
L 1172 1153 
Q 1172 725 1289 603 
Q 1406 481 1766 481 
L 2356 481 
L 2356 0 
L 1766 0 
Q 1100 0 847 248 
Q 594 497 594 1153 
L 594 3053 
L 172 3053 
L 172 3500 
L 594 3500 
L 594 4494 
L 1172 4494 
z
" transform="scale(0.015625)"/>
       <path id="DejaVuSans-75" d="M 544 1381 
L 544 3500 
L 1119 3500 
L 1119 1403 
Q 1119 906 1312 657 
Q 1506 409 1894 409 
Q 2359 409 2629 706 
Q 2900 1003 2900 1516 
L 2900 3500 
L 3475 3500 
L 3475 0 
L 2900 0 
L 2900 538 
Q 2691 219 2414 64 
Q 2138 -91 1772 -91 
Q 1169 -91 856 284 
Q 544 659 544 1381 
z
M 1991 3584 
L 1991 3584 
z
" transform="scale(0.015625)"/>
       <path id="DejaVuSans-6c" d="M 603 4863 
L 1178 4863 
L 1178 0 
L 603 0 
L 603 4863 
z
" transform="scale(0.015625)"/>
      </defs>
      <use xlink:href="#DejaVuSans-58"/>
      <use xlink:href="#DejaVuSans-20" x="68.505859"/>
      <use xlink:href="#DejaVuSans-61" x="100.292969"/>
      <use xlink:href="#DejaVuSans-63" x="161.572266"/>
      <use xlink:href="#DejaVuSans-74" x="216.552734"/>
      <use xlink:href="#DejaVuSans-75" x="255.761719"/>
      <use xlink:href="#DejaVuSans-61" x="319.140625"/>
      <use xlink:href="#DejaVuSans-6c" x="380.419922"/>
     </g>
    </g>
    <g id="line2d_29">
     <path d="M 620.384375 63.571875 
L 632.384375 63.571875 
L 644.384375 63.571875 
" style="fill: none; stroke-dasharray: 4.44,1.92; stroke-dashoffset: 0; stroke: #95a5a6; stroke-width: 1.2"/>
    </g>
    <g id="text_7">
     <!-- X ref -->
     <g transform="translate(653.984375 67.771875) scale(0.12 -0.12)">
      <defs>
       <path id="DejaVuSans-72" d="M 2631 2963 
Q 2534 3019 2420 3045 
Q 2306 3072 2169 3072 
Q 1681 3072 1420 2755 
Q 1159 2438 1159 1844 
L 1159 0 
L 581 0 
L 581 3500 
L 1159 3500 
L 1159 2956 
Q 1341 3275 1631 3429 
Q 1922 3584 2338 3584 
Q 2397 3584 2469 3576 
Q 2541 3569 2628 3553 
L 2631 2963 
z
" transform="scale(0.015625)"/>
       <path id="DejaVuSans-65" d="M 3597 1894 
L 3597 1613 
L 953 1613 
Q 991 1019 1311 708 
Q 1631 397 2203 397 
Q 2534 397 2845 478 
Q 3156 559 3463 722 
L 3463 178 
Q 3153 47 2828 -22 
Q 2503 -91 2169 -91 
Q 1331 -91 842 396 
Q 353 884 353 1716 
Q 353 2575 817 3079 
Q 1281 3584 2069 3584 
Q 2775 3584 3186 3129 
Q 3597 2675 3597 1894 
z
M 3022 2063 
Q 3016 2534 2758 2815 
Q 2500 3097 2075 3097 
Q 1594 3097 1305 2825 
Q 1016 2553 972 2059 
L 3022 2063 
z
" transform="scale(0.015625)"/>
       <path id="DejaVuSans-66" d="M 2375 4863 
L 2375 4384 
L 1825 4384 
Q 1516 4384 1395 4259 
Q 1275 4134 1275 3809 
L 1275 3500 
L 2222 3500 
L 2222 3053 
L 1275 3053 
L 1275 0 
L 697 0 
L 697 3053 
L 147 3053 
L 147 3500 
L 697 3500 
L 697 3744 
Q 697 4328 969 4595 
Q 1241 4863 1831 4863 
L 2375 4863 
z
" transform="scale(0.015625)"/>
      </defs>
      <use xlink:href="#DejaVuSans-58"/>
      <use xlink:href="#DejaVuSans-20" x="68.505859"/>
      <use xlink:href="#DejaVuSans-72" x="100.292969"/>
      <use xlink:href="#DejaVuSans-65" x="139.15625"/>
      <use xlink:href="#DejaVuSans-66" x="200.679688"/>
     </g>
    </g>
    <g id="line2d_30">
     <path d="M 620.384375 81.185625 
L 632.384375 81.185625 
L 644.384375 81.185625 
" style="fill: none; stroke-dasharray: 1,1.65; stroke-dashoffset: 0; stroke: #e67e22; stroke-opacity: 0.8"/>
    </g>
    <g id="text_8">
     <!-- →WP2 -->
     <g transform="translate(653.984375 85.385625) scale(0.12 -0.12)">
      <defs>
       <path id="DejaVuSans-2192" d="M 5050 2147 
L 5050 1866 
L 3822 638 
L 3447 1013 
L 4175 1741 
L 366 1741 
L 366 2272 
L 4175 2272 
L 3447 3000 
L 3822 3375 
L 5050 2147 
z
" transform="scale(0.015625)"/>
       <path id="DejaVuSans-57" d="M 213 4666 
L 850 4666 
L 1831 722 
L 2809 4666 
L 3519 4666 
L 4500 722 
L 5478 4666 
L 6119 4666 
L 4947 0 
L 4153 0 
L 3169 4050 
L 2175 0 
L 1381 0 
L 213 4666 
z
" transform="scale(0.015625)"/>
       <path id="DejaVuSans-50" d="M 1259 4147 
L 1259 2394 
L 2053 2394 
Q 2494 2394 2734 2622 
Q 2975 2850 2975 3272 
Q 2975 3691 2734 3919 
Q 2494 4147 2053 4147 
L 1259 4147 
z
M 628 4666 
L 2053 4666 
Q 2838 4666 3239 4311 
Q 3641 3956 3641 3272 
Q 3641 2581 3239 2228 
Q 2838 1875 2053 1875 
L 1259 1875 
L 1259 0 
L 628 0 
L 628 4666 
z
" transform="scale(0.015625)"/>
      </defs>
      <use xlink:href="#DejaVuSans-2192"/>
      <use xlink:href="#DejaVuSans-57" x="83.789062"/>
      <use xlink:href="#DejaVuSans-50" x="182.666016"/>
      <use xlink:href="#DejaVuSans-32" x="242.96875"/>
     </g>
    </g>
    <g id="line2d_31">
     <path d="M 620.384375 98.799375 
L 632.384375 98.799375 
L 644.384375 98.799375 
" style="fill: none; stroke-dasharray: 1,1.65; stroke-dashoffset: 0; stroke: #2ecc71; stroke-opacity: 0.8"/>
    </g>
    <g id="text_9">
     <!-- →WP3 -->
     <g transform="translate(653.984375 102.999375) scale(0.12 -0.12)">
      <use xlink:href="#DejaVuSans-2192"/>
      <use xlink:href="#DejaVuSans-57" x="83.789062"/>
      <use xlink:href="#DejaVuSans-50" x="182.666016"/>
      <use xlink:href="#DejaVuSans-33" x="242.96875"/>
     </g>
    </g>
    <g id="line2d_32">
     <path d="M 620.384375 116.413125 
L 632.384375 116.413125 
L 644.384375 116.413125 
" style="fill: none; stroke-dasharray: 1,1.65; stroke-dashoffset: 0; stroke: #9b59b6; stroke-opacity: 0.8"/>
    </g>
    <g id="text_10">
     <!-- →WP4 -->
     <g transform="translate(653.984375 120.613125) scale(0.12 -0.12)">
      <defs>
       <path id="DejaVuSans-34" d="M 2419 4116 
L 825 1625 
L 2419 1625 
L 2419 4116 
z
M 2253 4666 
L 3047 4666 
L 3047 1625 
L 3713 1625 
L 3713 1100 
L 3047 1100 
L 3047 0 
L 2419 0 
L 2419 1100 
L 313 1100 
L 313 1709 
L 2253 4666 
z
" transform="scale(0.015625)"/>
      </defs>
      <use xlink:href="#DejaVuSans-2192"/>
      <use xlink:href="#DejaVuSans-57" x="83.789062"/>
      <use xlink:href="#DejaVuSans-50" x="182.666016"/>
      <use xlink:href="#DejaVuSans-34" x="242.96875"/>
     </g>
    </g>
   </g>
  </g>
  <g id="axes_2">
   <g id="patch_6">
    <path d="M 45.716875 356.54 
L 713.766875 356.54 
L 713.766875 200.54 
L 45.716875 200.54 
z
" style="fill: #ffffff"/>
   </g>
   <g id="matplotlib.axis_3">
    <g id="xtick_8">
     <g id="line2d_33">
      <path d="M 76.082764 356.54 
L 76.082764 200.54 
" clip-path="url(#pce72a96daf)" style="fill: none; stroke: #b0b0b0; stroke-opacity: 0.3; stroke-width: 0.8; stroke-linecap: square"/>
     </g>
     <g id="line2d_34">
      <g>
       <use xlink:href="#m858c2598d2" x="76.082764" y="356.54" style="stroke: #000000; stroke-width: 0.8"/>
      </g>
     </g>
    </g>
    <g id="xtick_9">
     <g id="line2d_35">
      <path d="M 177.315759 356.54 
L 177.315759 200.54 
" clip-path="url(#pce72a96daf)" style="fill: none; stroke: #b0b0b0; stroke-opacity: 0.3; stroke-width: 0.8; stroke-linecap: square"/>
     </g>
     <g id="line2d_36">
      <g>
       <use xlink:href="#m858c2598d2" x="177.315759" y="356.54" style="stroke: #000000; stroke-width: 0.8"/>
      </g>
     </g>
    </g>
    <g id="xtick_10">
     <g id="line2d_37">
      <path d="M 278.548755 356.54 
L 278.548755 200.54 
" clip-path="url(#pce72a96daf)" style="fill: none; stroke: #b0b0b0; stroke-opacity: 0.3; stroke-width: 0.8; stroke-linecap: square"/>
     </g>
     <g id="line2d_38">
      <g>
       <use xlink:href="#m858c2598d2" x="278.548755" y="356.54" style="stroke: #000000; stroke-width: 0.8"/>
      </g>
     </g>
    </g>
    <g id="xtick_11">
     <g id="line2d_39">
      <path d="M 379.781751 356.54 
L 379.781751 200.54 
" clip-path="url(#pce72a96daf)" style="fill: none; stroke: #b0b0b0; stroke-opacity: 0.3; stroke-width: 0.8; stroke-linecap: square"/>
     </g>
     <g id="line2d_40">
      <g>
       <use xlink:href="#m858c2598d2" x="379.781751" y="356.54" style="stroke: #000000; stroke-width: 0.8"/>
      </g>
     </g>
    </g>
    <g id="xtick_12">
     <g id="line2d_41">
      <path d="M 481.014746 356.54 
L 481.014746 200.54 
" clip-path="url(#pce72a96daf)" style="fill: none; stroke: #b0b0b0; stroke-opacity: 0.3; stroke-width: 0.8; stroke-linecap: square"/>
     </g>
     <g id="line2d_42">
      <g>
       <use xlink:href="#m858c2598d2" x="481.014746" y="356.54" style="stroke: #000000; stroke-width: 0.8"/>
      </g>
     </g>
    </g>
    <g id="xtick_13">
     <g id="line2d_43">
      <path d="M 582.247742 356.54 
L 582.247742 200.54 
" clip-path="url(#pce72a96daf)" style="fill: none; stroke: #b0b0b0; stroke-opacity: 0.3; stroke-width: 0.8; stroke-linecap: square"/>
     </g>
     <g id="line2d_44">
      <g>
       <use xlink:href="#m858c2598d2" x="582.247742" y="356.54" style="stroke: #000000; stroke-width: 0.8"/>
      </g>
     </g>
    </g>
    <g id="xtick_14">
     <g id="line2d_45">
      <path d="M 683.480738 356.54 
L 683.480738 200.54 
" clip-path="url(#pce72a96daf)" style="fill: none; stroke: #b0b0b0; stroke-opacity: 0.3; stroke-width: 0.8; stroke-linecap: square"/>
     </g>
     <g id="line2d_46">
      <g>
       <use xlink:href="#m858c2598d2" x="683.480738" y="356.54" style="stroke: #000000; stroke-width: 0.8"/>
      </g>
     </g>
    </g>
   </g>
   <g id="matplotlib.axis_4">
    <g id="ytick_5">
     <g id="line2d_47">
      <path d="M 45.716875 343.1341 
L 713.766875 343.1341 
" clip-path="url(#pce72a96daf)" style="fill: none; stroke: #b0b0b0; stroke-opacity: 0.3; stroke-width: 0.8; stroke-linecap: square"/>
     </g>
     <g id="line2d_48">
      <g>
       <use xlink:href="#m7f5db31164" x="45.716875" y="343.1341" style="stroke: #000000; stroke-width: 0.8"/>
      </g>
     </g>
     <g id="text_11">
      <!-- 0.0 -->
      <g transform="translate(22.81375 346.933319) scale(0.1 -0.1)">
       <defs>
        <path id="DejaVuSans-2e" d="M 684 794 
L 1344 794 
L 1344 0 
L 684 0 
L 684 794 
z
" transform="scale(0.015625)"/>
       </defs>
       <use xlink:href="#DejaVuSans-30"/>
       <use xlink:href="#DejaVuSans-2e" x="63.623047"/>
       <use xlink:href="#DejaVuSans-30" x="95.410156"/>
      </g>
     </g>
    </g>
    <g id="ytick_6">
     <g id="line2d_49">
      <path d="M 45.716875 320.550235 
L 713.766875 320.550235 
" clip-path="url(#pce72a96daf)" style="fill: none; stroke: #b0b0b0; stroke-opacity: 0.3; stroke-width: 0.8; stroke-linecap: square"/>
     </g>
     <g id="line2d_50">
      <g>
       <use xlink:href="#m7f5db31164" x="45.716875" y="320.550235" style="stroke: #000000; stroke-width: 0.8"/>
      </g>
     </g>
     <g id="text_12">
      <!-- 0.5 -->
      <g transform="translate(22.81375 324.349454) scale(0.1 -0.1)">
       <defs>
        <path id="DejaVuSans-35" d="M 691 4666 
L 3169 4666 
L 3169 4134 
L 1269 4134 
L 1269 2991 
Q 1406 3038 1543 3061 
Q 1681 3084 1819 3084 
Q 2600 3084 3056 2656 
Q 3513 2228 3513 1497 
Q 3513 744 3044 326 
Q 2575 -91 1722 -91 
Q 1428 -91 1123 -41 
Q 819 9 494 109 
L 494 744 
Q 775 591 1075 516 
Q 1375 441 1709 441 
Q 2250 441 2565 725 
Q 2881 1009 2881 1497 
Q 2881 1984 2565 2268 
Q 2250 2553 1709 2553 
Q 1456 2553 1204 2497 
Q 953 2441 691 2322 
L 691 4666 
z
" transform="scale(0.015625)"/>
       </defs>
       <use xlink:href="#DejaVuSans-30"/>
       <use xlink:href="#DejaVuSans-2e" x="63.623047"/>
       <use xlink:href="#DejaVuSans-35" x="95.410156"/>
      </g>
     </g>
    </g>
    <g id="ytick_7">
     <g id="line2d_51">
      <path d="M 45.716875 297.96637 
L 713.766875 297.96637 
" clip-path="url(#pce72a96daf)" style="fill: none; stroke: #b0b0b0; stroke-opacity: 0.3; stroke-width: 0.8; stroke-linecap: square"/>
     </g>
     <g id="line2d_52">
      <g>
       <use xlink:href="#m7f5db31164" x="45.716875" y="297.96637" style="stroke: #000000; stroke-width: 0.8"/>
      </g>
     </g>
     <g id="text_13">
      <!-- 1.0 -->
      <g transform="translate(22.81375 301.765589) scale(0.1 -0.1)">
       <use xlink:href="#DejaVuSans-31"/>
       <use xlink:href="#DejaVuSans-2e" x="63.623047"/>
       <use xlink:href="#DejaVuSans-30" x="95.410156"/>
      </g>
     </g>
    </g>
    <g id="ytick_8">
     <g id="line2d_53">
      <path d="M 45.716875 275.382505 
L 713.766875 275.382505 
" clip-path="url(#pce72a96daf)" style="fill: none; stroke: #b0b0b0; stroke-opacity: 0.3; stroke-width: 0.8; stroke-linecap: square"/>
     </g>
     <g id="line2d_54">
      <g>
       <use xlink:href="#m7f5db31164" x="45.716875" y="275.382505" style="stroke: #000000; stroke-width: 0.8"/>
      </g>
     </g>
     <g id="text_14">
      <!-- 1.5 -->
      <g transform="translate(22.81375 279.181723) scale(0.1 -0.1)">
       <use xlink:href="#DejaVuSans-31"/>
       <use xlink:href="#DejaVuSans-2e" x="63.623047"/>
       <use xlink:href="#DejaVuSans-35" x="95.410156"/>
      </g>
     </g>
    </g>
    <g id="ytick_9">
     <g id="line2d_55">
      <path d="M 45.716875 252.798639 
L 713.766875 252.798639 
" clip-path="url(#pce72a96daf)" style="fill: none; stroke: #b0b0b0; stroke-opacity: 0.3; stroke-width: 0.8; stroke-linecap: square"/>
     </g>
     <g id="line2d_56">
      <g>
       <use xlink:href="#m7f5db31164" x="45.716875" y="252.798639" style="stroke: #000000; stroke-width: 0.8"/>
      </g>
     </g>
     <g id="text_15">
      <!-- 2.0 -->
      <g transform="translate(22.81375 256.597858) scale(0.1 -0.1)">
       <use xlink:href="#DejaVuSans-32"/>
       <use xlink:href="#DejaVuSans-2e" x="63.623047"/>
       <use xlink:href="#DejaVuSans-30" x="95.410156"/>
      </g>
     </g>
    </g>
    <g id="ytick_10">
     <g id="line2d_57">
      <path d="M 45.716875 230.214774 
L 713.766875 230.214774 
" clip-path="url(#pce72a96daf)" style="fill: none; stroke: #b0b0b0; stroke-opacity: 0.3; stroke-width: 0.8; stroke-linecap: square"/>
     </g>
     <g id="line2d_58">
      <g>
       <use xlink:href="#m7f5db31164" x="45.716875" y="230.214774" style="stroke: #000000; stroke-width: 0.8"/>
      </g>
     </g>
     <g id="text_16">
      <!-- 2.5 -->
      <g transform="translate(22.81375 234.013993) scale(0.1 -0.1)">
       <use xlink:href="#DejaVuSans-32"/>
       <use xlink:href="#DejaVuSans-2e" x="63.623047"/>
       <use xlink:href="#DejaVuSans-35" x="95.410156"/>
      </g>
     </g>
    </g>
    <g id="ytick_11">
     <g id="line2d_59">
      <path d="M 45.716875 207.630909 
L 713.766875 207.630909 
" clip-path="url(#pce72a96daf)" style="fill: none; stroke: #b0b0b0; stroke-opacity: 0.3; stroke-width: 0.8; stroke-linecap: square"/>
     </g>
     <g id="line2d_60">
      <g>
       <use xlink:href="#m7f5db31164" x="45.716875" y="207.630909" style="stroke: #000000; stroke-width: 0.8"/>
      </g>
     </g>
     <g id="text_17">
      <!-- 3.0 -->
      <g transform="translate(22.81375 211.430128) scale(0.1 -0.1)">
       <use xlink:href="#DejaVuSans-33"/>
       <use xlink:href="#DejaVuSans-2e" x="63.623047"/>
       <use xlink:href="#DejaVuSans-30" x="95.410156"/>
      </g>
     </g>
    </g>
    <g id="text_18">
     <!-- Y (m) -->
     <g transform="translate(16.318125 294.637812) rotate(-90) scale(0.12 -0.12)">
      <defs>
       <path id="DejaVuSans-59" d="M -13 4666 
L 666 4666 
L 1959 2747 
L 3244 4666 
L 3922 4666 
L 2272 2222 
L 2272 0 
L 1638 0 
L 1638 2222 
L -13 4666 
z
" transform="scale(0.015625)"/>
      </defs>
      <use xlink:href="#DejaVuSans-59"/>
      <use xlink:href="#DejaVuSans-20" x="61.083984"/>
      <use xlink:href="#DejaVuSans-28" x="92.871094"/>
      <use xlink:href="#DejaVuSans-6d" x="131.884766"/>
      <use xlink:href="#DejaVuSans-29" x="229.296875"/>
     </g>
    </g>
   </g>
   <g id="line2d_61">
    <path d="M 76.082784 343.1341 
L 184.200798 343.024749 
L 185.739519 342.784366 
L 187.035382 342.348543 
L 188.250118 341.691127 
L 189.401137 340.81686 
L 190.567948 339.665535 
L 191.830445 338.106525 
L 193.189518 336.060382 
L 194.645856 333.449958 
L 196.198062 330.20949 
L 197.94508 326.033191 
L 199.888754 320.792921 
L 202.17917 313.931853 
L 204.887477 305.06755 
L 208.577683 292.167195 
L 217.324214 261.341799 
L 220.56369 250.907828 
L 223.317247 242.76246 
L 225.827785 236.000851 
L 228.176411 230.290069 
L 230.44403 225.35703 
L 232.549656 221.288998 
L 234.574336 217.8357 
L 236.59932 214.81434 
L 238.299711 212.638294 
L 239.595513 211.323732 
L 240.729343 210.481716 
L 241.701119 210.017075 
L 242.591969 209.814137 
L 243.48284 209.833694 
L 244.37367 210.08171 
L 245.26452 210.561753 
L 246.23656 211.351691 
L 247.289201 212.519232 
L 248.42301 214.134385 
L 249.637806 216.265172 
L 251.014555 219.158572 
L 252.553296 222.954784 
L 254.254031 227.775852 
L 256.197704 233.980543 
L 258.546289 242.269906 
L 261.640233 254.088856 
L 271.828058 293.708363 
L 274.662582 303.509083 
L 277.173161 311.428205 
L 279.521989 318.123779 
L 281.708399 323.709311 
L 283.814045 328.492348 
L 285.838725 332.545926 
L 287.782419 335.948185 
L 289.645248 338.777176 
L 291.508057 341.204986 
L 293.289474 343.173803 
L 295.071174 344.821341 
L 296.852875 346.17172 
L 298.634596 347.25019 
L 300.497263 348.114655 
L 302.35997 348.738874 
L 304.38459 349.177994 
L 306.490256 349.406995 
L 308.838842 349.433869 
L 311.511393 349.230569 
L 314.670024 348.753147 
L 318.800168 347.884661 
L 334.997448 344.239535 
L 339.937699 343.48415 
L 344.877788 342.95361 
L 350.22289 342.608528 
L 356.29687 342.447822 
L 363.990618 342.48102 
L 379.135074 342.836987 
L 395.494286 343.128003 
L 413.473266 343.197967 
L 683.400966 343.1341 
L 683.400966 343.1341 
" clip-path="url(#pce72a96daf)" style="fill: none; stroke: #2ecc71; stroke-width: 1.8; stroke-linecap: square"/>
   </g>
   <g id="line2d_62">
    <path d="M 76.082784 343.1341 
L 182.58105 343.1341 
L 182.743022 207.630909 
L 235.870098 207.630909 
L 236.032091 343.1341 
L 683.400966 343.1341 
L 683.400966 343.1341 
" clip-path="url(#pce72a96daf)" style="fill: none; stroke-dasharray: 4.44,1.92; stroke-dashoffset: 0; stroke: #95a5a6; stroke-width: 1.2"/>
   </g>
   <g id="line2d_63">
    <path d="M 132.612544 356.54 
L 132.612544 200.54 
" clip-path="url(#pce72a96daf)" style="fill: none; stroke-dasharray: 1,1.65; stroke-dashoffset: 0; stroke: #e67e22; stroke-opacity: 0.8"/>
   </g>
   <g id="line2d_64">
    <path d="M 182.662036 356.54 
L 182.662036 200.54 
" clip-path="url(#pce72a96daf)" style="fill: none; stroke-dasharray: 1,1.65; stroke-dashoffset: 0; stroke: #2ecc71; stroke-opacity: 0.8"/>
   </g>
   <g id="line2d_65">
    <path d="M 235.951085 356.54 
L 235.951085 200.54 
" clip-path="url(#pce72a96daf)" style="fill: none; stroke-dasharray: 1,1.65; stroke-dashoffset: 0; stroke: #9b59b6; stroke-opacity: 0.8"/>
   </g>
   <g id="patch_7">
    <path d="M 45.716875 356.54 
L 45.716875 200.54 
" style="fill: none; stroke: #000000; stroke-width: 0.8; stroke-linejoin: miter; stroke-linecap: square"/>
   </g>
   <g id="patch_8">
    <path d="M 45.716875 356.54 
L 713.766875 356.54 
" style="fill: none; stroke: #000000; stroke-width: 0.8; stroke-linejoin: miter; stroke-linecap: square"/>
   </g>
   <g id="legend_2">
    <g id="patch_9">
     <path d="M 618.875 245.3675 
L 705.366875 245.3675 
Q 707.766875 245.3675 707.766875 242.9675 
L 707.766875 208.94 
Q 707.766875 206.54 705.366875 206.54 
L 618.875 206.54 
Q 616.475 206.54 616.475 208.94 
L 616.475 242.9675 
Q 616.475 245.3675 618.875 245.3675 
z
" style="fill: #ffffff; opacity: 0.8; stroke: #cccccc; stroke-linejoin: miter"/>
    </g>
    <g id="line2d_66">
     <path d="M 621.275 216.258125 
L 633.275 216.258125 
L 645.275 216.258125 
" style="fill: none; stroke: #2ecc71; stroke-width: 1.8; stroke-linecap: square"/>
    </g>
    <g id="text_19">
     <!-- Y actual -->
     <g transform="translate(654.875 220.458125) scale(0.12 -0.12)">
      <use xlink:href="#DejaVuSans-59"/>
      <use xlink:href="#DejaVuSans-20" x="61.083984"/>
      <use xlink:href="#DejaVuSans-61" x="92.871094"/>
      <use xlink:href="#DejaVuSans-63" x="154.150391"/>
      <use xlink:href="#DejaVuSans-74" x="209.130859"/>
      <use xlink:href="#DejaVuSans-75" x="248.339844"/>
      <use xlink:href="#DejaVuSans-61" x="311.71875"/>
      <use xlink:href="#DejaVuSans-6c" x="372.998047"/>
     </g>
    </g>
    <g id="line2d_67">
     <path d="M 621.275 233.871875 
L 633.275 233.871875 
L 645.275 233.871875 
" style="fill: none; stroke-dasharray: 4.44,1.92; stroke-dashoffset: 0; stroke: #95a5a6; stroke-width: 1.2"/>
    </g>
    <g id="text_20">
     <!-- Y ref -->
     <g transform="translate(654.875 238.071875) scale(0.12 -0.12)">
      <use xlink:href="#DejaVuSans-59"/>
      <use xlink:href="#DejaVuSans-20" x="61.083984"/>
      <use xlink:href="#DejaVuSans-72" x="92.871094"/>
      <use xlink:href="#DejaVuSans-65" x="131.734375"/>
      <use xlink:href="#DejaVuSans-66" x="193.257812"/>
     </g>
    </g>
   </g>
  </g>
  <g id="axes_3">
   <g id="patch_10">
    <path d="M 45.716875 526.84 
L 713.766875 526.84 
L 713.766875 370.84 
L 45.716875 370.84 
z
" style="fill: #ffffff"/>
   </g>
   <g id="matplotlib.axis_5">
    <g id="xtick_15">
     <g id="line2d_68">
      <path d="M 76.082764 526.84 
L 76.082764 370.84 
" clip-path="url(#pe48c347fb3)" style="fill: none; stroke: #b0b0b0; stroke-opacity: 0.3; stroke-width: 0.8; stroke-linecap: square"/>
     </g>
     <g id="line2d_69">
      <g>
       <use xlink:href="#m858c2598d2" x="76.082764" y="526.84" style="stroke: #000000; stroke-width: 0.8"/>
      </g>
     </g>
     <g id="text_21">
      <!-- 0 -->
      <g transform="translate(72.901514 541.438437) scale(0.1 -0.1)">
       <use xlink:href="#DejaVuSans-30"/>
      </g>
     </g>
    </g>
    <g id="xtick_16">
     <g id="line2d_70">
      <path d="M 177.315759 526.84 
L 177.315759 370.84 
" clip-path="url(#pe48c347fb3)" style="fill: none; stroke: #b0b0b0; stroke-opacity: 0.3; stroke-width: 0.8; stroke-linecap: square"/>
     </g>
     <g id="line2d_71">
      <g>
       <use xlink:href="#m858c2598d2" x="177.315759" y="526.84" style="stroke: #000000; stroke-width: 0.8"/>
      </g>
     </g>
     <g id="text_22">
      <!-- 5 -->
      <g transform="translate(174.134509 541.438437) scale(0.1 -0.1)">
       <use xlink:href="#DejaVuSans-35"/>
      </g>
     </g>
    </g>
    <g id="xtick_17">
     <g id="line2d_72">
      <path d="M 278.548755 526.84 
L 278.548755 370.84 
" clip-path="url(#pe48c347fb3)" style="fill: none; stroke: #b0b0b0; stroke-opacity: 0.3; stroke-width: 0.8; stroke-linecap: square"/>
     </g>
     <g id="line2d_73">
      <g>
       <use xlink:href="#m858c2598d2" x="278.548755" y="526.84" style="stroke: #000000; stroke-width: 0.8"/>
      </g>
     </g>
     <g id="text_23">
      <!-- 10 -->
      <g transform="translate(272.186255 541.438437) scale(0.1 -0.1)">
       <use xlink:href="#DejaVuSans-31"/>
       <use xlink:href="#DejaVuSans-30" x="63.623047"/>
      </g>
     </g>
    </g>
    <g id="xtick_18">
     <g id="line2d_74">
      <path d="M 379.781751 526.84 
L 379.781751 370.84 
" clip-path="url(#pe48c347fb3)" style="fill: none; stroke: #b0b0b0; stroke-opacity: 0.3; stroke-width: 0.8; stroke-linecap: square"/>
     </g>
     <g id="line2d_75">
      <g>
       <use xlink:href="#m858c2598d2" x="379.781751" y="526.84" style="stroke: #000000; stroke-width: 0.8"/>
      </g>
     </g>
     <g id="text_24">
      <!-- 15 -->
      <g transform="translate(373.419251 541.438437) scale(0.1 -0.1)">
       <use xlink:href="#DejaVuSans-31"/>
       <use xlink:href="#DejaVuSans-35" x="63.623047"/>
      </g>
     </g>
    </g>
    <g id="xtick_19">
     <g id="line2d_76">
      <path d="M 481.014746 526.84 
L 481.014746 370.84 
" clip-path="url(#pe48c347fb3)" style="fill: none; stroke: #b0b0b0; stroke-opacity: 0.3; stroke-width: 0.8; stroke-linecap: square"/>
     </g>
     <g id="line2d_77">
      <g>
       <use xlink:href="#m858c2598d2" x="481.014746" y="526.84" style="stroke: #000000; stroke-width: 0.8"/>
      </g>
     </g>
     <g id="text_25">
      <!-- 20 -->
      <g transform="translate(474.652246 541.438437) scale(0.1 -0.1)">
       <use xlink:href="#DejaVuSans-32"/>
       <use xlink:href="#DejaVuSans-30" x="63.623047"/>
      </g>
     </g>
    </g>
    <g id="xtick_20">
     <g id="line2d_78">
      <path d="M 582.247742 526.84 
L 582.247742 370.84 
" clip-path="url(#pe48c347fb3)" style="fill: none; stroke: #b0b0b0; stroke-opacity: 0.3; stroke-width: 0.8; stroke-linecap: square"/>
     </g>
     <g id="line2d_79">
      <g>
       <use xlink:href="#m858c2598d2" x="582.247742" y="526.84" style="stroke: #000000; stroke-width: 0.8"/>
      </g>
     </g>
     <g id="text_26">
      <!-- 25 -->
      <g transform="translate(575.885242 541.438437) scale(0.1 -0.1)">
       <use xlink:href="#DejaVuSans-32"/>
       <use xlink:href="#DejaVuSans-35" x="63.623047"/>
      </g>
     </g>
    </g>
    <g id="xtick_21">
     <g id="line2d_80">
      <path d="M 683.480738 526.84 
L 683.480738 370.84 
" clip-path="url(#pe48c347fb3)" style="fill: none; stroke: #b0b0b0; stroke-opacity: 0.3; stroke-width: 0.8; stroke-linecap: square"/>
     </g>
     <g id="line2d_81">
      <g>
       <use xlink:href="#m858c2598d2" x="683.480738" y="526.84" style="stroke: #000000; stroke-width: 0.8"/>
      </g>
     </g>
     <g id="text_27">
      <!-- 30 -->
      <g transform="translate(677.118238 541.438437) scale(0.1 -0.1)">
       <use xlink:href="#DejaVuSans-33"/>
       <use xlink:href="#DejaVuSans-30" x="63.623047"/>
      </g>
     </g>
    </g>
    <g id="text_28">
     <!-- Time (s) -->
     <g transform="translate(355.347188 556.63625) scale(0.12 -0.12)">
      <defs>
       <path id="DejaVuSans-54" d="M -19 4666 
L 3928 4666 
L 3928 4134 
L 2272 4134 
L 2272 0 
L 1638 0 
L 1638 4134 
L -19 4134 
L -19 4666 
z
" transform="scale(0.015625)"/>
       <path id="DejaVuSans-69" d="M 603 3500 
L 1178 3500 
L 1178 0 
L 603 0 
L 603 3500 
z
M 603 4863 
L 1178 4863 
L 1178 4134 
L 603 4134 
L 603 4863 
z
" transform="scale(0.015625)"/>
       <path id="DejaVuSans-73" d="M 2834 3397 
L 2834 2853 
Q 2591 2978 2328 3040 
Q 2066 3103 1784 3103 
Q 1356 3103 1142 2972 
Q 928 2841 928 2578 
Q 928 2378 1081 2264 
Q 1234 2150 1697 2047 
L 1894 2003 
Q 2506 1872 2764 1633 
Q 3022 1394 3022 966 
Q 3022 478 2636 193 
Q 2250 -91 1575 -91 
Q 1294 -91 989 -36 
Q 684 19 347 128 
L 347 722 
Q 666 556 975 473 
Q 1284 391 1588 391 
Q 1994 391 2212 530 
Q 2431 669 2431 922 
Q 2431 1156 2273 1281 
Q 2116 1406 1581 1522 
L 1381 1569 
Q 847 1681 609 1914 
Q 372 2147 372 2553 
Q 372 3047 722 3315 
Q 1072 3584 1716 3584 
Q 2034 3584 2315 3537 
Q 2597 3491 2834 3397 
z
" transform="scale(0.015625)"/>
      </defs>
      <use xlink:href="#DejaVuSans-54"/>
      <use xlink:href="#DejaVuSans-69" x="57.958984"/>
      <use xlink:href="#DejaVuSans-6d" x="85.742188"/>
      <use xlink:href="#DejaVuSans-65" x="183.154297"/>
      <use xlink:href="#DejaVuSans-20" x="244.677734"/>
      <use xlink:href="#DejaVuSans-28" x="276.464844"/>
      <use xlink:href="#DejaVuSans-73" x="315.478516"/>
      <use xlink:href="#DejaVuSans-29" x="367.578125"/>
     </g>
    </g>
   </g>
   <g id="matplotlib.axis_6">
    <g id="ytick_12">
     <g id="line2d_82">
      <path d="M 45.716875 519.749091 
L 713.766875 519.749091 
" clip-path="url(#pe48c347fb3)" style="fill: none; stroke: #b0b0b0; stroke-opacity: 0.3; stroke-width: 0.8; stroke-linecap: square"/>
     </g>
     <g id="line2d_83">
      <g>
       <use xlink:href="#m7f5db31164" x="45.716875" y="519.749091" style="stroke: #000000; stroke-width: 0.8"/>
      </g>
     </g>
     <g id="text_29">
      <!-- 0 -->
      <g transform="translate(32.354375 523.54831) scale(0.1 -0.1)">
       <use xlink:href="#DejaVuSans-30"/>
      </g>
     </g>
    </g>
    <g id="ytick_13">
     <g id="line2d_84">
      <path d="M 45.716875 491.385455 
L 713.766875 491.385455 
" clip-path="url(#pe48c347fb3)" style="fill: none; stroke: #b0b0b0; stroke-opacity: 0.3; stroke-width: 0.8; stroke-linecap: square"/>
     </g>
     <g id="line2d_85">
      <g>
       <use xlink:href="#m7f5db31164" x="45.716875" y="491.385455" style="stroke: #000000; stroke-width: 0.8"/>
      </g>
     </g>
     <g id="text_30">
      <!-- 1 -->
      <g transform="translate(32.354375 495.184673) scale(0.1 -0.1)">
       <use xlink:href="#DejaVuSans-31"/>
      </g>
     </g>
    </g>
    <g id="ytick_14">
     <g id="line2d_86">
      <path d="M 45.716875 463.021818 
L 713.766875 463.021818 
" clip-path="url(#pe48c347fb3)" style="fill: none; stroke: #b0b0b0; stroke-opacity: 0.3; stroke-width: 0.8; stroke-linecap: square"/>
     </g>
     <g id="line2d_87">
      <g>
       <use xlink:href="#m7f5db31164" x="45.716875" y="463.021818" style="stroke: #000000; stroke-width: 0.8"/>
      </g>
     </g>
     <g id="text_31">
      <!-- 2 -->
      <g transform="translate(32.354375 466.821037) scale(0.1 -0.1)">
       <use xlink:href="#DejaVuSans-32"/>
      </g>
     </g>
    </g>
    <g id="ytick_15">
     <g id="line2d_88">
      <path d="M 45.716875 434.658182 
L 713.766875 434.658182 
" clip-path="url(#pe48c347fb3)" style="fill: none; stroke: #b0b0b0; stroke-opacity: 0.3; stroke-width: 0.8; stroke-linecap: square"/>
     </g>
     <g id="line2d_89">
      <g>
       <use xlink:href="#m7f5db31164" x="45.716875" y="434.658182" style="stroke: #000000; stroke-width: 0.8"/>
      </g>
     </g>
     <g id="text_32">
      <!-- 3 -->
      <g transform="translate(32.354375 438.457401) scale(0.1 -0.1)">
       <use xlink:href="#DejaVuSans-33"/>
      </g>
     </g>
    </g>
    <g id="ytick_16">
     <g id="line2d_90">
      <path d="M 45.716875 406.294545 
L 713.766875 406.294545 
" clip-path="url(#pe48c347fb3)" style="fill: none; stroke: #b0b0b0; stroke-opacity: 0.3; stroke-width: 0.8; stroke-linecap: square"/>
     </g>
     <g id="line2d_91">
      <g>
       <use xlink:href="#m7f5db31164" x="45.716875" y="406.294545" style="stroke: #000000; stroke-width: 0.8"/>
      </g>
     </g>
     <g id="text_33">
      <!-- 4 -->
      <g transform="translate(32.354375 410.093764) scale(0.1 -0.1)">
       <use xlink:href="#DejaVuSans-34"/>
      </g>
     </g>
    </g>
    <g id="ytick_17">
     <g id="line2d_92">
      <path d="M 45.716875 377.930909 
L 713.766875 377.930909 
" clip-path="url(#pe48c347fb3)" style="fill: none; stroke: #b0b0b0; stroke-opacity: 0.3; stroke-width: 0.8; stroke-linecap: square"/>
     </g>
     <g id="line2d_93">
      <g>
       <use xlink:href="#m7f5db31164" x="45.716875" y="377.930909" style="stroke: #000000; stroke-width: 0.8"/>
      </g>
     </g>
     <g id="text_34">
      <!-- 5 -->
      <g transform="translate(32.354375 381.730128) scale(0.1 -0.1)">
       <use xlink:href="#DejaVuSans-35"/>
      </g>
     </g>
    </g>
    <g id="text_35">
     <!-- Z (m) -->
     <g transform="translate(25.85875 465.383125) rotate(-90) scale(0.12 -0.12)">
      <defs>
       <path id="DejaVuSans-5a" d="M 359 4666 
L 4025 4666 
L 4025 4184 
L 1075 531 
L 4097 531 
L 4097 0 
L 288 0 
L 288 481 
L 3238 4134 
L 359 4134 
L 359 4666 
z
" transform="scale(0.015625)"/>
      </defs>
      <use xlink:href="#DejaVuSans-5a"/>
      <use xlink:href="#DejaVuSans-20" x="68.505859"/>
      <use xlink:href="#DejaVuSans-28" x="100.292969"/>
      <use xlink:href="#DejaVuSans-6d" x="139.306641"/>
      <use xlink:href="#DejaVuSans-29" x="236.71875"/>
     </g>
    </g>
   </g>
   <g id="line2d_94">
    <path d="M 76.082784 519.749091 
L 77.136822 519.644968 
L 78.270591 519.294167 
L 79.485387 518.666905 
L 80.781169 517.738336 
L 82.238904 516.407769 
L 83.858632 514.618364 
L 85.72134 512.215936 
L 87.87246 509.066636 
L 90.492633 504.814729 
L 93.882723 498.858252 
L 100.408668 486.819703 
L 105.873104 476.963084 
L 109.774299 470.369787 
L 113.256694 464.907007 
L 116.496292 460.231574 
L 119.573633 456.17478 
L 122.57015 452.59197 
L 125.48566 449.452399 
L 128.320164 446.720215 
L 131.154728 444.292118 
L 134.47513 441.763585 
L 138.848395 438.651527 
L 141.764047 436.842948 
L 144.436497 435.445727 
L 147.028042 434.34292 
L 149.700593 433.450685 
L 152.535137 432.739921 
L 155.693586 432.176789 
L 159.418981 431.741719 
L 163.954219 431.441859 
L 169.461274 431.307557 
L 175.616219 431.381388 
L 182.58105 431.69438 
L 183.876852 431.664939 
L 185.172614 431.392393 
L 186.549464 430.866389 
L 188.088145 430.031052 
L 189.790094 428.854471 
L 191.830445 427.166551 
L 194.354751 424.767044 
L 197.556912 421.395714 
L 202.473171 415.854254 
L 212.950948 403.98098 
L 217.40522 399.304951 
L 221.211561 395.615835 
L 224.774982 392.467159 
L 228.095425 389.823129 
L 231.33488 387.523207 
L 234.49335 385.546205 
L 236.842138 384.296163 
L 237.97621 383.958607 
L 239.109575 383.850201 
L 240.243384 383.977015 
L 241.377173 384.345431 
L 242.510983 384.959305 
L 243.725779 385.889377 
L 245.021561 387.186219 
L 246.39833 388.894277 
L 247.937092 391.177635 
L 249.637806 394.112335 
L 251.662466 398.080663 
L 254.092078 403.366454 
L 257.4125 411.174311 
L 268.021799 436.505137 
L 271.58512 444.256124 
L 274.905542 450.957856 
L 278.064011 456.839084 
L 281.06071 461.966379 
L 284.057004 466.652676 
L 286.891528 470.685247 
L 289.726376 474.335903 
L 292.47961 477.524628 
L 295.233188 480.373471 
L 297.905698 482.82582 
L 300.578229 484.98486 
L 303.25078 486.86673 
L 306.004358 488.534455 
L 308.757855 489.947418 
L 311.592379 491.158489 
L 314.588896 492.196428 
L 317.747548 493.051137 
L 321.068233 493.719158 
L 324.712216 494.221336 
L 328.680509 494.542157 
L 333.215767 494.682075 
L 338.64222 494.61698 
L 345.606666 494.296046 
L 357.511666 493.484279 
L 373.870938 492.420671 
L 386.099864 491.867693 
L 398.895715 491.520607 
L 414.364157 491.333322 
L 437.850252 491.29662 
L 580.710195 491.385767 
L 683.400966 491.385455 
L 683.400966 491.385455 
" clip-path="url(#pe48c347fb3)" style="fill: none; stroke: #3498db; stroke-width: 1.8; stroke-linecap: square"/>
   </g>
   <g id="line2d_95">
    <path d="M 76.082784 434.658182 
L 182.58105 434.658182 
L 182.743022 377.930909 
L 235.870098 377.930909 
L 236.032091 491.385455 
L 683.400966 491.385455 
L 683.400966 491.385455 
" clip-path="url(#pe48c347fb3)" style="fill: none; stroke-dasharray: 4.44,1.92; stroke-dashoffset: 0; stroke: #95a5a6; stroke-width: 1.2"/>
   </g>
   <g id="line2d_96">
    <path d="M 132.612544 526.84 
L 132.612544 370.84 
" clip-path="url(#pe48c347fb3)" style="fill: none; stroke-dasharray: 1,1.65; stroke-dashoffset: 0; stroke: #e67e22; stroke-opacity: 0.8"/>
   </g>
   <g id="line2d_97">
    <path d="M 182.662036 526.84 
L 182.662036 370.84 
" clip-path="url(#pe48c347fb3)" style="fill: none; stroke-dasharray: 1,1.65; stroke-dashoffset: 0; stroke: #2ecc71; stroke-opacity: 0.8"/>
   </g>
   <g id="line2d_98">
    <path d="M 235.951085 526.84 
L 235.951085 370.84 
" clip-path="url(#pe48c347fb3)" style="fill: none; stroke-dasharray: 1,1.65; stroke-dashoffset: 0; stroke: #9b59b6; stroke-opacity: 0.8"/>
   </g>
   <g id="patch_11">
    <path d="M 45.716875 526.84 
L 45.716875 370.84 
" style="fill: none; stroke: #000000; stroke-width: 0.8; stroke-linejoin: miter; stroke-linecap: square"/>
   </g>
   <g id="patch_12">
    <path d="M 45.716875 526.84 
L 713.766875 526.84 
" style="fill: none; stroke: #000000; stroke-width: 0.8; stroke-linejoin: miter; stroke-linecap: square"/>
   </g>
   <g id="legend_3">
    <g id="patch_13">
     <path d="M 617.984375 415.6675 
L 705.366875 415.6675 
Q 707.766875 415.6675 707.766875 413.2675 
L 707.766875 379.24 
Q 707.766875 376.84 705.366875 376.84 
L 617.984375 376.84 
Q 615.584375 376.84 615.584375 379.24 
L 615.584375 413.2675 
Q 615.584375 415.6675 617.984375 415.6675 
z
" style="fill: #ffffff; opacity: 0.8; stroke: #cccccc; stroke-linejoin: miter"/>
    </g>
    <g id="line2d_99">
     <path d="M 620.384375 386.558125 
L 632.384375 386.558125 
L 644.384375 386.558125 
" style="fill: none; stroke: #3498db; stroke-width: 1.8; stroke-linecap: square"/>
    </g>
    <g id="text_36">
     <!-- Z actual -->
     <g transform="translate(653.984375 390.758125) scale(0.12 -0.12)">
      <use xlink:href="#DejaVuSans-5a"/>
      <use xlink:href="#DejaVuSans-20" x="68.505859"/>
      <use xlink:href="#DejaVuSans-61" x="100.292969"/>
      <use xlink:href="#DejaVuSans-63" x="161.572266"/>
      <use xlink:href="#DejaVuSans-74" x="216.552734"/>
      <use xlink:href="#DejaVuSans-75" x="255.761719"/>
      <use xlink:href="#DejaVuSans-61" x="319.140625"/>
      <use xlink:href="#DejaVuSans-6c" x="380.419922"/>
     </g>
    </g>
    <g id="line2d_100">
     <path d="M 620.384375 404.171875 
L 632.384375 404.171875 
L 644.384375 404.171875 
" style="fill: none; stroke-dasharray: 4.44,1.92; stroke-dashoffset: 0; stroke: #95a5a6; stroke-width: 1.2"/>
    </g>
    <g id="text_37">
     <!-- Z ref -->
     <g transform="translate(653.984375 408.371875) scale(0.12 -0.12)">
      <use xlink:href="#DejaVuSans-5a"/>
      <use xlink:href="#DejaVuSans-20" x="68.505859"/>
      <use xlink:href="#DejaVuSans-72" x="100.292969"/>
      <use xlink:href="#DejaVuSans-65" x="139.15625"/>
      <use xlink:href="#DejaVuSans-66" x="200.679688"/>
     </g>
    </g>
   </g>
  </g>
  <g id="text_38">
   <!-- Kernel: preempt_rt | Policy: other_n19 | Load: idle — Position Response -->
   <g transform="translate(123.659375 16.370625) scale(0.12 -0.12)">
    <defs>
     <path id="DejaVuSans-Bold-4b" d="M 588 4666 
L 1791 4666 
L 1791 2963 
L 3525 4666 
L 4922 4666 
L 2675 2456 
L 5153 0 
L 3647 0 
L 1791 1838 
L 1791 0 
L 588 0 
L 588 4666 
z
" transform="scale(0.015625)"/>
     <path id="DejaVuSans-Bold-65" d="M 4031 1759 
L 4031 1441 
L 1416 1441 
Q 1456 1047 1700 850 
Q 1944 653 2381 653 
Q 2734 653 3104 758 
Q 3475 863 3866 1075 
L 3866 213 
Q 3469 63 3072 -14 
Q 2675 -91 2278 -91 
Q 1328 -91 801 392 
Q 275 875 275 1747 
Q 275 2603 792 3093 
Q 1309 3584 2216 3584 
Q 3041 3584 3536 3087 
Q 4031 2591 4031 1759 
z
M 2881 2131 
Q 2881 2450 2695 2645 
Q 2509 2841 2209 2841 
Q 1884 2841 1681 2658 
Q 1478 2475 1428 2131 
L 2881 2131 
z
" transform="scale(0.015625)"/>
     <path id="DejaVuSans-Bold-72" d="M 3138 2547 
Q 2991 2616 2845 2648 
Q 2700 2681 2553 2681 
Q 2122 2681 1889 2404 
Q 1656 2128 1656 1613 
L 1656 0 
L 538 0 
L 538 3500 
L 1656 3500 
L 1656 2925 
Q 1872 3269 2151 3426 
Q 2431 3584 2822 3584 
Q 2878 3584 2943 3579 
Q 3009 3575 3134 3559 
L 3138 2547 
z
" transform="scale(0.015625)"/>
     <path id="DejaVuSans-Bold-6e" d="M 4056 2131 
L 4056 0 
L 2931 0 
L 2931 347 
L 2931 1631 
Q 2931 2084 2911 2256 
Q 2891 2428 2841 2509 
Q 2775 2619 2662 2680 
Q 2550 2741 2406 2741 
Q 2056 2741 1856 2470 
Q 1656 2200 1656 1722 
L 1656 0 
L 538 0 
L 538 3500 
L 1656 3500 
L 1656 2988 
Q 1909 3294 2193 3439 
Q 2478 3584 2822 3584 
Q 3428 3584 3742 3212 
Q 4056 2841 4056 2131 
z
" transform="scale(0.015625)"/>
     <path id="DejaVuSans-Bold-6c" d="M 538 4863 
L 1656 4863 
L 1656 0 
L 538 0 
L 538 4863 
z
" transform="scale(0.015625)"/>
     <path id="DejaVuSans-Bold-3a" d="M 716 3500 
L 1844 3500 
L 1844 2291 
L 716 2291 
L 716 3500 
z
M 716 1209 
L 1844 1209 
L 1844 0 
L 716 0 
L 716 1209 
z
" transform="scale(0.015625)"/>
     <path id="DejaVuSans-Bold-20" transform="scale(0.015625)"/>
     <path id="DejaVuSans-Bold-70" d="M 1656 506 
L 1656 -1331 
L 538 -1331 
L 538 3500 
L 1656 3500 
L 1656 2988 
Q 1888 3294 2169 3439 
Q 2450 3584 2816 3584 
Q 3463 3584 3878 3070 
Q 4294 2556 4294 1747 
Q 4294 938 3878 423 
Q 3463 -91 2816 -91 
Q 2450 -91 2169 54 
Q 1888 200 1656 506 
z
M 2400 2772 
Q 2041 2772 1848 2508 
Q 1656 2244 1656 1747 
Q 1656 1250 1848 986 
Q 2041 722 2400 722 
Q 2759 722 2948 984 
Q 3138 1247 3138 1747 
Q 3138 2247 2948 2509 
Q 2759 2772 2400 2772 
z
" transform="scale(0.015625)"/>
     <path id="DejaVuSans-Bold-6d" d="M 3781 2919 
Q 3994 3244 4286 3414 
Q 4578 3584 4928 3584 
Q 5531 3584 5847 3212 
Q 6163 2841 6163 2131 
L 6163 0 
L 5038 0 
L 5038 1825 
Q 5041 1866 5042 1909 
Q 5044 1953 5044 2034 
Q 5044 2406 4934 2573 
Q 4825 2741 4581 2741 
Q 4263 2741 4089 2478 
Q 3916 2216 3909 1719 
L 3909 0 
L 2784 0 
L 2784 1825 
Q 2784 2406 2684 2573 
Q 2584 2741 2328 2741 
Q 2006 2741 1831 2477 
Q 1656 2213 1656 1722 
L 1656 0 
L 531 0 
L 531 3500 
L 1656 3500 
L 1656 2988 
Q 1863 3284 2130 3434 
Q 2397 3584 2719 3584 
Q 3081 3584 3359 3409 
Q 3638 3234 3781 2919 
z
" transform="scale(0.015625)"/>
     <path id="DejaVuSans-Bold-74" d="M 1759 4494 
L 1759 3500 
L 2913 3500 
L 2913 2700 
L 1759 2700 
L 1759 1216 
Q 1759 972 1856 886 
Q 1953 800 2241 800 
L 2816 800 
L 2816 0 
L 1856 0 
Q 1194 0 917 276 
Q 641 553 641 1216 
L 641 2700 
L 84 2700 
L 84 3500 
L 641 3500 
L 641 4494 
L 1759 4494 
z
" transform="scale(0.015625)"/>
     <path id="DejaVuSans-Bold-5f" d="M 3200 -916 
L 3200 -1509 
L 0 -1509 
L 0 -916 
L 3200 -916 
z
" transform="scale(0.015625)"/>
     <path id="DejaVuSans-Bold-7c" d="M 1522 4891 
L 1522 -1509 
L 813 -1509 
L 813 4891 
L 1522 4891 
z
" transform="scale(0.015625)"/>
     <path id="DejaVuSans-Bold-50" d="M 588 4666 
L 2584 4666 
Q 3475 4666 3951 4270 
Q 4428 3875 4428 3144 
Q 4428 2409 3951 2014 
Q 3475 1619 2584 1619 
L 1791 1619 
L 1791 0 
L 588 0 
L 588 4666 
z
M 1791 3794 
L 1791 2491 
L 2456 2491 
Q 2806 2491 2997 2661 
Q 3188 2831 3188 3144 
Q 3188 3456 2997 3625 
Q 2806 3794 2456 3794 
L 1791 3794 
z
" transform="scale(0.015625)"/>
     <path id="DejaVuSans-Bold-6f" d="M 2203 2784 
Q 1831 2784 1636 2517 
Q 1441 2250 1441 1747 
Q 1441 1244 1636 976 
Q 1831 709 2203 709 
Q 2569 709 2762 976 
Q 2956 1244 2956 1747 
Q 2956 2250 2762 2517 
Q 2569 2784 2203 2784 
z
M 2203 3584 
Q 3106 3584 3614 3096 
Q 4122 2609 4122 1747 
Q 4122 884 3614 396 
Q 3106 -91 2203 -91 
Q 1297 -91 786 396 
Q 275 884 275 1747 
Q 275 2609 786 3096 
Q 1297 3584 2203 3584 
z
" transform="scale(0.015625)"/>
     <path id="DejaVuSans-Bold-69" d="M 538 3500 
L 1656 3500 
L 1656 0 
L 538 0 
L 538 3500 
z
M 538 4863 
L 1656 4863 
L 1656 3950 
L 538 3950 
L 538 4863 
z
" transform="scale(0.015625)"/>
     <path id="DejaVuSans-Bold-63" d="M 3366 3391 
L 3366 2478 
Q 3138 2634 2908 2709 
Q 2678 2784 2431 2784 
Q 1963 2784 1702 2511 
Q 1441 2238 1441 1747 
Q 1441 1256 1702 982 
Q 1963 709 2431 709 
Q 2694 709 2930 787 
Q 3166 866 3366 1019 
L 3366 103 
Q 3103 6 2833 -42 
Q 2563 -91 2291 -91 
Q 1344 -91 809 395 
Q 275 881 275 1747 
Q 275 2613 809 3098 
Q 1344 3584 2291 3584 
Q 2566 3584 2833 3536 
Q 3100 3488 3366 3391 
z
" transform="scale(0.015625)"/>
     <path id="DejaVuSans-Bold-79" d="M 78 3500 
L 1197 3500 
L 2138 1125 
L 2938 3500 
L 4056 3500 
L 2584 -331 
Q 2363 -916 2067 -1148 
Q 1772 -1381 1288 -1381 
L 641 -1381 
L 641 -647 
L 991 -647 
Q 1275 -647 1404 -556 
Q 1534 -466 1606 -231 
L 1638 -134 
L 78 3500 
z
" transform="scale(0.015625)"/>
     <path id="DejaVuSans-Bold-68" d="M 4056 2131 
L 4056 0 
L 2931 0 
L 2931 347 
L 2931 1625 
Q 2931 2084 2911 2256 
Q 2891 2428 2841 2509 
Q 2775 2619 2662 2680 
Q 2550 2741 2406 2741 
Q 2056 2741 1856 2470 
Q 1656 2200 1656 1722 
L 1656 0 
L 538 0 
L 538 4863 
L 1656 4863 
L 1656 2988 
Q 1909 3294 2193 3439 
Q 2478 3584 2822 3584 
Q 3428 3584 3742 3212 
Q 4056 2841 4056 2131 
z
" transform="scale(0.015625)"/>
     <path id="DejaVuSans-Bold-31" d="M 750 831 
L 1813 831 
L 1813 3847 
L 722 3622 
L 722 4441 
L 1806 4666 
L 2950 4666 
L 2950 831 
L 4013 831 
L 4013 0 
L 750 0 
L 750 831 
z
" transform="scale(0.015625)"/>
     <path id="DejaVuSans-Bold-39" d="M 641 103 
L 641 966 
Q 928 831 1190 764 
Q 1453 697 1709 697 
Q 2247 697 2547 995 
Q 2847 1294 2900 1881 
Q 2688 1725 2447 1647 
Q 2206 1569 1925 1569 
Q 1209 1569 770 1986 
Q 331 2403 331 3084 
Q 331 3838 820 4291 
Q 1309 4744 2131 4744 
Q 3044 4744 3544 4128 
Q 4044 3513 4044 2388 
Q 4044 1231 3459 570 
Q 2875 -91 1856 -91 
Q 1528 -91 1228 -42 
Q 928 6 641 103 
z
M 2125 2350 
Q 2441 2350 2600 2554 
Q 2759 2759 2759 3169 
Q 2759 3575 2600 3781 
Q 2441 3988 2125 3988 
Q 1809 3988 1650 3781 
Q 1491 3575 1491 3169 
Q 1491 2759 1650 2554 
Q 1809 2350 2125 2350 
z
" transform="scale(0.015625)"/>
     <path id="DejaVuSans-Bold-4c" d="M 588 4666 
L 1791 4666 
L 1791 909 
L 3903 909 
L 3903 0 
L 588 0 
L 588 4666 
z
" transform="scale(0.015625)"/>
     <path id="DejaVuSans-Bold-61" d="M 2106 1575 
Q 1756 1575 1579 1456 
Q 1403 1338 1403 1106 
Q 1403 894 1545 773 
Q 1688 653 1941 653 
Q 2256 653 2472 879 
Q 2688 1106 2688 1447 
L 2688 1575 
L 2106 1575 
z
M 3816 1997 
L 3816 0 
L 2688 0 
L 2688 519 
Q 2463 200 2181 54 
Q 1900 -91 1497 -91 
Q 953 -91 614 226 
Q 275 544 275 1050 
Q 275 1666 698 1953 
Q 1122 2241 2028 2241 
L 2688 2241 
L 2688 2328 
Q 2688 2594 2478 2717 
Q 2269 2841 1825 2841 
Q 1466 2841 1156 2769 
Q 847 2697 581 2553 
L 581 3406 
Q 941 3494 1303 3539 
Q 1666 3584 2028 3584 
Q 2975 3584 3395 3211 
Q 3816 2838 3816 1997 
z
" transform="scale(0.015625)"/>
     <path id="DejaVuSans-Bold-64" d="M 2919 2988 
L 2919 4863 
L 4044 4863 
L 4044 0 
L 2919 0 
L 2919 506 
Q 2688 197 2409 53 
Q 2131 -91 1766 -91 
Q 1119 -91 703 423 
Q 288 938 288 1747 
Q 288 2556 703 3070 
Q 1119 3584 1766 3584 
Q 2128 3584 2408 3439 
Q 2688 3294 2919 2988 
z
M 2181 722 
Q 2541 722 2730 984 
Q 2919 1247 2919 1747 
Q 2919 2247 2730 2509 
Q 2541 2772 2181 2772 
Q 1825 2772 1636 2509 
Q 1447 2247 1447 1747 
Q 1447 1247 1636 984 
Q 1825 722 2181 722 
z
" transform="scale(0.015625)"/>
     <path id="DejaVuSans-Bold-2014" d="M 344 2156 
L 6056 2156 
L 6056 1350 
L 344 1350 
L 344 2156 
z
" transform="scale(0.015625)"/>
     <path id="DejaVuSans-Bold-73" d="M 3272 3391 
L 3272 2541 
Q 2913 2691 2578 2766 
Q 2244 2841 1947 2841 
Q 1628 2841 1473 2761 
Q 1319 2681 1319 2516 
Q 1319 2381 1436 2309 
Q 1553 2238 1856 2203 
L 2053 2175 
Q 2913 2066 3209 1816 
Q 3506 1566 3506 1031 
Q 3506 472 3093 190 
Q 2681 -91 1863 -91 
Q 1516 -91 1145 -36 
Q 775 19 384 128 
L 384 978 
Q 719 816 1070 734 
Q 1422 653 1784 653 
Q 2113 653 2278 743 
Q 2444 834 2444 1013 
Q 2444 1163 2330 1236 
Q 2216 1309 1875 1350 
L 1678 1375 
Q 931 1469 631 1722 
Q 331 1975 331 2491 
Q 331 3047 712 3315 
Q 1094 3584 1881 3584 
Q 2191 3584 2531 3537 
Q 2872 3491 3272 3391 
z
" transform="scale(0.015625)"/>
     <path id="DejaVuSans-Bold-52" d="M 2297 2597 
Q 2675 2597 2839 2737 
Q 3003 2878 3003 3200 
Q 3003 3519 2839 3656 
Q 2675 3794 2297 3794 
L 1791 3794 
L 1791 2597 
L 2297 2597 
z
M 1791 1766 
L 1791 0 
L 588 0 
L 588 4666 
L 2425 4666 
Q 3347 4666 3776 4356 
Q 4206 4047 4206 3378 
Q 4206 2916 3982 2619 
Q 3759 2322 3309 2181 
Q 3556 2125 3751 1926 
Q 3947 1728 4147 1325 
L 4800 0 
L 3519 0 
L 2950 1159 
Q 2778 1509 2601 1637 
Q 2425 1766 2131 1766 
L 1791 1766 
z
" transform="scale(0.015625)"/>
    </defs>
    <use xlink:href="#DejaVuSans-Bold-4b"/>
    <use xlink:href="#DejaVuSans-Bold-65" x="75.740234"/>
    <use xlink:href="#DejaVuSans-Bold-72" x="143.5625"/>
    <use xlink:href="#DejaVuSans-Bold-6e" x="192.878906"/>
    <use xlink:href="#DejaVuSans-Bold-65" x="264.070312"/>
    <use xlink:href="#DejaVuSans-Bold-6c" x="331.892578"/>
    <use xlink:href="#DejaVuSans-Bold-3a" x="366.169922"/>
    <use xlink:href="#DejaVuSans-Bold-20" x="406.160156"/>
    <use xlink:href="#DejaVuSans-Bold-70" x="440.974609"/>
    <use xlink:href="#DejaVuSans-Bold-72" x="512.556641"/>
    <use xlink:href="#DejaVuSans-Bold-65" x="561.873047"/>
    <use xlink:href="#DejaVuSans-Bold-65" x="629.695312"/>
    <use xlink:href="#DejaVuSans-Bold-6d" x="697.517578"/>
    <use xlink:href="#DejaVuSans-Bold-70" x="801.716797"/>
    <use xlink:href="#DejaVuSans-Bold-74" x="873.298828"/>
    <use xlink:href="#DejaVuSans-Bold-5f" x="921.101562"/>
    <use xlink:href="#DejaVuSans-Bold-72" x="971.101562"/>
    <use xlink:href="#DejaVuSans-Bold-74" x="1020.417969"/>
    <use xlink:href="#DejaVuSans-Bold-20" x="1068.220703"/>
    <use xlink:href="#DejaVuSans-Bold-7c" x="1103.035156"/>
    <use xlink:href="#DejaVuSans-Bold-20" x="1139.558594"/>
    <use xlink:href="#DejaVuSans-Bold-50" x="1174.373047"/>
    <use xlink:href="#DejaVuSans-Bold-6f" x="1247.664062"/>
    <use xlink:href="#DejaVuSans-Bold-6c" x="1316.365234"/>
    <use xlink:href="#DejaVuSans-Bold-69" x="1350.642578"/>
    <use xlink:href="#DejaVuSans-Bold-63" x="1384.919922"/>
    <use xlink:href="#DejaVuSans-Bold-79" x="1444.197266"/>
    <use xlink:href="#DejaVuSans-Bold-3a" x="1509.382812"/>
    <use xlink:href="#DejaVuSans-Bold-20" x="1549.373047"/>
    <use xlink:href="#DejaVuSans-Bold-6f" x="1584.1875"/>
    <use xlink:href="#DejaVuSans-Bold-74" x="1652.888672"/>
    <use xlink:href="#DejaVuSans-Bold-68" x="1700.691406"/>
    <use xlink:href="#DejaVuSans-Bold-65" x="1771.882812"/>
    <use xlink:href="#DejaVuSans-Bold-72" x="1839.705078"/>
    <use xlink:href="#DejaVuSans-Bold-5f" x="1889.021484"/>
    <use xlink:href="#DejaVuSans-Bold-6e" x="1939.021484"/>
    <use xlink:href="#DejaVuSans-Bold-31" x="2010.212891"/>
    <use xlink:href="#DejaVuSans-Bold-39" x="2079.792969"/>
    <use xlink:href="#DejaVuSans-Bold-20" x="2149.373047"/>
    <use xlink:href="#DejaVuSans-Bold-7c" x="2184.1875"/>
    <use xlink:href="#DejaVuSans-Bold-20" x="2220.710938"/>
    <use xlink:href="#DejaVuSans-Bold-4c" x="2255.525391"/>
    <use xlink:href="#DejaVuSans-Bold-6f" x="2319.246094"/>
    <use xlink:href="#DejaVuSans-Bold-61" x="2387.947266"/>
    <use xlink:href="#DejaVuSans-Bold-64" x="2455.427734"/>
    <use xlink:href="#DejaVuSans-Bold-3a" x="2527.009766"/>
    <use xlink:href="#DejaVuSans-Bold-20" x="2567"/>
    <use xlink:href="#DejaVuSans-Bold-69" x="2601.814453"/>
    <use xlink:href="#DejaVuSans-Bold-64" x="2636.091797"/>
    <use xlink:href="#DejaVuSans-Bold-6c" x="2707.673828"/>
    <use xlink:href="#DejaVuSans-Bold-65" x="2741.951172"/>
    <use xlink:href="#DejaVuSans-Bold-20" x="2809.773438"/>
    <use xlink:href="#DejaVuSans-Bold-2014" x="2844.587891"/>
    <use xlink:href="#DejaVuSans-Bold-20" x="2944.587891"/>
    <use xlink:href="#DejaVuSans-Bold-50" x="2979.402344"/>
    <use xlink:href="#DejaVuSans-Bold-6f" x="3052.693359"/>
    <use xlink:href="#DejaVuSans-Bold-73" x="3121.394531"/>
    <use xlink:href="#DejaVuSans-Bold-69" x="3180.916016"/>
    <use xlink:href="#DejaVuSans-Bold-74" x="3215.193359"/>
    <use xlink:href="#DejaVuSans-Bold-69" x="3262.996094"/>
    <use xlink:href="#DejaVuSans-Bold-6f" x="3297.273438"/>
    <use xlink:href="#DejaVuSans-Bold-6e" x="3365.974609"/>
    <use xlink:href="#DejaVuSans-Bold-20" x="3437.166016"/>
    <use xlink:href="#DejaVuSans-Bold-52" x="3471.980469"/>
    <use xlink:href="#DejaVuSans-Bold-65" x="3548.982422"/>
    <use xlink:href="#DejaVuSans-Bold-73" x="3616.804688"/>
    <use xlink:href="#DejaVuSans-Bold-70" x="3676.326172"/>
    <use xlink:href="#DejaVuSans-Bold-6f" x="3747.908203"/>
    <use xlink:href="#DejaVuSans-Bold-6e" x="3816.609375"/>
    <use xlink:href="#DejaVuSans-Bold-73" x="3887.800781"/>
    <use xlink:href="#DejaVuSans-Bold-65" x="3947.322266"/>
   </g>
  </g>
 </g>
 <defs>
  <clipPath id="p8aa16b42f6">
   <rect x="45.716875" y="30.24" width="668.05" height="156"/>
  </clipPath>
  <clipPath id="pce72a96daf">
   <rect x="45.716875" y="200.54" width="668.05" height="156"/>
  </clipPath>
  <clipPath id="pe48c347fb3">
   <rect x="45.716875" y="370.84" width="668.05" height="156"/>
  </clipPath>
 </defs>
</svg>
