<?xml version="1.0" encoding="utf-8" standalone="no"?>
<!DOCTYPE svg PUBLIC "-//W3C//DTD SVG 1.1//EN"
  "http://www.w3.org/Graphics/SVG/1.1/DTD/svg11.dtd">
<svg xmlns:xlink="http://www.w3.org/1999/xlink" width="721.663438pt" height="567.028437pt" viewBox="0 0 721.663438 567.028437" xmlns="http://www.w3.org/2000/svg" version="1.1">
 <metadata>
  <rdf:RDF xmlns:dc="http://purl.org/dc/elements/1.1/" xmlns:cc="http://creativecommons.org/ns#" xmlns:rdf="http://www.w3.org/1999/02/22-rdf-syntax-ns#">
   <cc:Work>
    <dc:type rdf:resource="http://purl.org/dc/dcmitype/StillImage"/>
    <dc:date>2026-04-27T20:53:38.043665</dc:date>
    <dc:format>image/svg+xml</dc:format>
    <dc:creator>
     <cc:Agent>
      <dc:title>Matplotlib v3.10.9, https://matplotlib.org/</dc:title>
     </cc:Agent>
    </dc:creator>
   </cc:Work>
  </rdf:RDF>
 </metadata>
 <defs>
  <style type="text/css">*{stroke-linejoin: round; stroke-linecap: butt}</style>
 </defs>
 <g id="figure_1">
  <g id="patch_1">
   <path d="M 0 567.028437 
L 721.663438 567.028437 
L 721.663438 0 
L 0 0 
z
" style="fill: #ffffff"/>
  </g>
  <g id="axes_1">
   <g id="patch_2">
    <path d="M 42.813437 187.44 
L 714.463438 187.44 
L 714.463438 30.24 
L 42.813437 30.24 
z
" style="fill: #ffffff"/>
   </g>
   <g id="matplotlib.axis_1">
    <g id="xtick_1">
     <g id="line2d_1">
      <path d="M 73.342963 187.44 
L 73.342963 30.24 
" clip-path="url(#p92ed8c5cf1)" style="fill: none; stroke: #b0b0b0; stroke-opacity: 0.3; stroke-width: 0.8; stroke-linecap: square"/>
     </g>
     <g id="line2d_2">
      <defs>
       <path id="mfa647dfc9a" d="M 0 0 
L 0 3.5 
" style="stroke: #000000; stroke-width: 0.8"/>
      </defs>
      <g>
       <use xlink:href="#mfa647dfc9a" x="73.342963" y="187.44" style="stroke: #000000; stroke-width: 0.8"/>
      </g>
     </g>
    </g>
    <g id="xtick_2">
     <g id="line2d_3">
      <path d="M 175.121484 187.44 
L 175.121484 30.24 
" clip-path="url(#p92ed8c5cf1)" style="fill: none; stroke: #b0b0b0; stroke-opacity: 0.3; stroke-width: 0.8; stroke-linecap: square"/>
     </g>
     <g id="line2d_4">
      <g>
       <use xlink:href="#mfa647dfc9a" x="175.121484" y="187.44" style="stroke: #000000; stroke-width: 0.8"/>
      </g>
     </g>
    </g>
    <g id="xtick_3">
     <g id="line2d_5">
      <path d="M 276.900006 187.44 
L 276.900006 30.24 
" clip-path="url(#p92ed8c5cf1)" style="fill: none; stroke: #b0b0b0; stroke-opacity: 0.3; stroke-width: 0.8; stroke-linecap: square"/>
     </g>
     <g id="line2d_6">
      <g>
       <use xlink:href="#mfa647dfc9a" x="276.900006" y="187.44" style="stroke: #000000; stroke-width: 0.8"/>
      </g>
     </g>
    </g>
    <g id="xtick_4">
     <g id="line2d_7">
      <path d="M 378.678528 187.44 
L 378.678528 30.24 
" clip-path="url(#p92ed8c5cf1)" style="fill: none; stroke: #b0b0b0; stroke-opacity: 0.3; stroke-width: 0.8; stroke-linecap: square"/>
     </g>
     <g id="line2d_8">
      <g>
       <use xlink:href="#mfa647dfc9a" x="378.678528" y="187.44" style="stroke: #000000; stroke-width: 0.8"/>
      </g>
     </g>
    </g>
    <g id="xtick_5">
     <g id="line2d_9">
      <path d="M 480.45705 187.44 
L 480.45705 30.24 
" clip-path="url(#p92ed8c5cf1)" style="fill: none; stroke: #b0b0b0; stroke-opacity: 0.3; stroke-width: 0.8; stroke-linecap: square"/>
     </g>
     <g id="line2d_10">
      <g>
       <use xlink:href="#mfa647dfc9a" x="480.45705" y="187.44" style="stroke: #000000; stroke-width: 0.8"/>
      </g>
     </g>
    </g>
    <g id="xtick_6">
     <g id="line2d_11">
      <path d="M 582.235572 187.44 
L 582.235572 30.24 
" clip-path="url(#p92ed8c5cf1)" style="fill: none; stroke: #b0b0b0; stroke-opacity: 0.3; stroke-width: 0.8; stroke-linecap: square"/>
     </g>
     <g id="line2d_12">
      <g>
       <use xlink:href="#mfa647dfc9a" x="582.235572" y="187.44" style="stroke: #000000; stroke-width: 0.8"/>
      </g>
     </g>
    </g>
    <g id="xtick_7">
     <g id="line2d_13">
      <path d="M 684.014094 187.44 
L 684.014094 30.24 
" clip-path="url(#p92ed8c5cf1)" style="fill: none; stroke: #b0b0b0; stroke-opacity: 0.3; stroke-width: 0.8; stroke-linecap: square"/>
     </g>
     <g id="line2d_14">
      <g>
       <use xlink:href="#mfa647dfc9a" x="684.014094" y="187.44" style="stroke: #000000; stroke-width: 0.8"/>
      </g>
     </g>
    </g>
   </g>
   <g id="matplotlib.axis_2">
    <g id="ytick_1">
     <g id="line2d_15">
      <path d="M 42.813437 174.676416 
L 714.463438 174.676416 
" clip-path="url(#p92ed8c5cf1)" style="fill: none; stroke: #b0b0b0; stroke-opacity: 0.3; stroke-width: 0.8; stroke-linecap: square"/>
     </g>
     <g id="line2d_16">
      <defs>
       <path id="m173d80d222" d="M 0 0 
L -3.5 0 
" style="stroke: #000000; stroke-width: 0.8"/>
      </defs>
      <g>
       <use xlink:href="#m173d80d222" x="42.813437" y="174.676416" style="stroke: #000000; stroke-width: 0.8"/>
      </g>
     </g>
     <g id="text_1">
      <!-- 0 -->
      <g transform="translate(29.450937 178.475635) scale(0.1 -0.1)">
       <defs>
        <path id="DejaVuSans-30" d="M 2034 4250 
Q 1547 4250 1301 3770 
Q 1056 3291 1056 2328 
Q 1056 1369 1301 889 
Q 1547 409 2034 409 
Q 2525 409 2770 889 
Q 3016 1369 3016 2328 
Q 3016 3291 2770 3770 
Q 2525 4250 2034 4250 
z
M 2034 4750 
Q 2819 4750 3233 4129 
Q 3647 3509 3647 2328 
Q 3647 1150 3233 529 
Q 2819 -91 2034 -91 
Q 1250 -91 836 529 
Q 422 1150 422 2328 
Q 422 3509 836 4129 
Q 1250 4750 2034 4750 
z
" transform="scale(0.015625)"/>
       </defs>
       <use xlink:href="#DejaVuSans-30"/>
      </g>
     </g>
    </g>
    <g id="ytick_2">
     <g id="line2d_17">
      <path d="M 42.813437 130.216879 
L 714.463438 130.216879 
" clip-path="url(#p92ed8c5cf1)" style="fill: none; stroke: #b0b0b0; stroke-opacity: 0.3; stroke-width: 0.8; stroke-linecap: square"/>
     </g>
     <g id="line2d_18">
      <g>
       <use xlink:href="#m173d80d222" x="42.813437" y="130.216879" style="stroke: #000000; stroke-width: 0.8"/>
      </g>
     </g>
     <g id="text_2">
      <!-- 1 -->
      <g transform="translate(29.450937 134.016098) scale(0.1 -0.1)">
       <defs>
        <path id="DejaVuSans-31" d="M 794 531 
L 1825 531 
L 1825 4091 
L 703 3866 
L 703 4441 
L 1819 4666 
L 2450 4666 
L 2450 531 
L 3481 531 
L 3481 0 
L 794 0 
L 794 531 
z
" transform="scale(0.015625)"/>
       </defs>
       <use xlink:href="#DejaVuSans-31"/>
      </g>
     </g>
    </g>
    <g id="ytick_3">
     <g id="line2d_19">
      <path d="M 42.813437 85.757342 
L 714.463438 85.757342 
" clip-path="url(#p92ed8c5cf1)" style="fill: none; stroke: #b0b0b0; stroke-opacity: 0.3; stroke-width: 0.8; stroke-linecap: square"/>
     </g>
     <g id="line2d_20">
      <g>
       <use xlink:href="#m173d80d222" x="42.813437" y="85.757342" style="stroke: #000000; stroke-width: 0.8"/>
      </g>
     </g>
     <g id="text_3">
      <!-- 2 -->
      <g transform="translate(29.450937 89.556561) scale(0.1 -0.1)">
       <defs>
        <path id="DejaVuSans-32" d="M 1228 531 
L 3431 531 
L 3431 0 
L 469 0 
L 469 531 
Q 828 903 1448 1529 
Q 2069 2156 2228 2338 
Q 2531 2678 2651 2914 
Q 2772 3150 2772 3378 
Q 2772 3750 2511 3984 
Q 2250 4219 1831 4219 
Q 1534 4219 1204 4116 
Q 875 4013 500 3803 
L 500 4441 
Q 881 4594 1212 4672 
Q 1544 4750 1819 4750 
Q 2544 4750 2975 4387 
Q 3406 4025 3406 3419 
Q 3406 3131 3298 2873 
Q 3191 2616 2906 2266 
Q 2828 2175 2409 1742 
Q 1991 1309 1228 531 
z
" transform="scale(0.015625)"/>
       </defs>
       <use xlink:href="#DejaVuSans-32"/>
      </g>
     </g>
    </g>
    <g id="ytick_4">
     <g id="line2d_21">
      <path d="M 42.813437 41.297805 
L 714.463438 41.297805 
" clip-path="url(#p92ed8c5cf1)" style="fill: none; stroke: #b0b0b0; stroke-opacity: 0.3; stroke-width: 0.8; stroke-linecap: square"/>
     </g>
     <g id="line2d_22">
      <g>
       <use xlink:href="#m173d80d222" x="42.813437" y="41.297805" style="stroke: #000000; stroke-width: 0.8"/>
      </g>
     </g>
     <g id="text_4">
      <!-- 3 -->
      <g transform="translate(29.450937 45.097024) scale(0.1 -0.1)">
       <defs>
        <path id="DejaVuSans-33" d="M 2597 2516 
Q 3050 2419 3304 2112 
Q 3559 1806 3559 1356 
Q 3559 666 3084 287 
Q 2609 -91 1734 -91 
Q 1441 -91 1130 -33 
Q 819 25 488 141 
L 488 750 
Q 750 597 1062 519 
Q 1375 441 1716 441 
Q 2309 441 2620 675 
Q 2931 909 2931 1356 
Q 2931 1769 2642 2001 
Q 2353 2234 1838 2234 
L 1294 2234 
L 1294 2753 
L 1863 2753 
Q 2328 2753 2575 2939 
Q 2822 3125 2822 3475 
Q 2822 3834 2567 4026 
Q 2313 4219 1838 4219 
Q 1578 4219 1281 4162 
Q 984 4106 628 3988 
L 628 4550 
Q 988 4650 1302 4700 
Q 1616 4750 1894 4750 
Q 2613 4750 3031 4423 
Q 3450 4097 3450 3541 
Q 3450 3153 3228 2886 
Q 3006 2619 2597 2516 
z
" transform="scale(0.015625)"/>
       </defs>
       <use xlink:href="#DejaVuSans-33"/>
      </g>
     </g>
    </g>
    <g id="text_5">
     <!-- X (m) -->
     <g transform="translate(23.579219 121.247344) rotate(-90) scale(0.09 -0.09)">
      <defs>
       <path id="DejaVuSans-58" d="M 403 4666 
L 1081 4666 
L 2241 2931 
L 3406 4666 
L 4084 4666 
L 2584 2425 
L 4184 0 
L 3506 0 
L 2194 1984 
L 872 0 
L 191 0 
L 1856 2491 
L 403 4666 
z
" transform="scale(0.015625)"/>
       <path id="DejaVuSans-20" transform="scale(0.015625)"/>
       <path id="DejaVuSans-28" d="M 1984 4856 
Q 1566 4138 1362 3434 
Q 1159 2731 1159 2009 
Q 1159 1288 1364 580 
Q 1569 -128 1984 -844 
L 1484 -844 
Q 1016 -109 783 600 
Q 550 1309 550 2009 
Q 550 2706 781 3412 
Q 1013 4119 1484 4856 
L 1984 4856 
z
" transform="scale(0.015625)"/>
       <path id="DejaVuSans-6d" d="M 3328 2828 
Q 3544 3216 3844 3400 
Q 4144 3584 4550 3584 
Q 5097 3584 5394 3201 
Q 5691 2819 5691 2113 
L 5691 0 
L 5113 0 
L 5113 2094 
Q 5113 2597 4934 2840 
Q 4756 3084 4391 3084 
Q 3944 3084 3684 2787 
Q 3425 2491 3425 1978 
L 3425 0 
L 2847 0 
L 2847 2094 
Q 2847 2600 2669 2842 
Q 2491 3084 2119 3084 
Q 1678 3084 1418 2786 
Q 1159 2488 1159 1978 
L 1159 0 
L 581 0 
L 581 3500 
L 1159 3500 
L 1159 2956 
Q 1356 3278 1631 3431 
Q 1906 3584 2284 3584 
Q 2666 3584 2933 3390 
Q 3200 3197 3328 2828 
z
" transform="scale(0.015625)"/>
       <path id="DejaVuSans-29" d="M 513 4856 
L 1013 4856 
Q 1481 4119 1714 3412 
Q 1947 2706 1947 2009 
Q 1947 1309 1714 600 
Q 1481 -109 1013 -844 
L 513 -844 
Q 928 -128 1133 580 
Q 1338 1288 1338 2009 
Q 1338 2731 1133 3434 
Q 928 4138 513 4856 
z
" transform="scale(0.015625)"/>
      </defs>
      <use xlink:href="#DejaVuSans-58"/>
      <use xlink:href="#DejaVuSans-20" transform="translate(68.505859 0)"/>
      <use xlink:href="#DejaVuSans-28" transform="translate(100.292969 0)"/>
      <use xlink:href="#DejaVuSans-6d" transform="translate(139.306641 0)"/>
      <use xlink:href="#DejaVuSans-29" transform="translate(236.71875 0)"/>
     </g>
    </g>
   </g>
   <g id="line2d_23">
    <path d="M 73.342983 174.676416 
L 132.701398 174.574292 
L 134.085585 174.287929 
L 135.306948 173.812389 
L 136.528331 173.085698 
L 137.750182 172.079223 
L 138.971036 170.776292 
L 140.27376 169.047527 
L 141.657928 166.825529 
L 143.123559 164.048141 
L 144.752015 160.47235 
L 146.543276 155.987405 
L 148.578847 150.267952 
L 150.942796 142.933463 
L 153.87135 133.08243 
L 158.593976 116.281793 
L 164.212028 96.511704 
L 167.469022 85.856531 
L 170.31876 77.279931 
L 172.842847 70.362738 
L 175.204129 64.51582 
L 177.483947 59.462505 
L 179.601286 55.293089 
L 181.555169 51.899626 
L 183.428261 49.098542 
L 185.301413 46.704796 
L 187.09302 44.756979 
L 188.964625 43.040885 
L 190.837411 41.615068 
L 192.791478 40.403146 
L 194.827007 39.405162 
L 196.944 38.617828 
L 199.142437 38.034386 
L 201.503678 37.634383 
L 204.109229 37.419555 
L 207.04043 37.404883 
L 210.541611 37.622379 
L 214.938443 38.131308 
L 223.406437 39.393736 
L 231.223129 40.456497 
L 237.005207 41.240185 
L 238.225572 41.704076 
L 239.365309 42.363278 
L 240.505228 43.275009 
L 241.72655 44.557178 
L 242.947913 46.170526 
L 244.250678 48.263236 
L 245.634866 50.903866 
L 247.181899 54.34659 
L 248.891778 58.716785 
L 250.845906 64.363724 
L 253.044362 71.420475 
L 255.736893 80.836205 
L 259.802436 95.9769 
L 266.153416 119.596118 
L 269.328926 130.520449 
L 272.097403 139.260216 
L 274.539966 146.265838 
L 276.819805 152.164063 
L 279.018221 157.249033 
L 281.135194 161.586017 
L 283.170785 165.24846 
L 285.124932 168.311944 
L 286.997698 170.851073 
L 288.870422 173.023277 
L 290.743107 174.852387 
L 292.615831 176.363967 
L 294.488556 177.584559 
L 296.361301 178.541239 
L 298.316141 179.287581 
L 300.351019 179.822874 
L 302.467972 180.153209 
L 304.829905 180.291878 
L 307.434764 180.216741 
L 310.447408 179.902501 
L 314.274301 179.265085 
L 320.380992 177.985095 
L 329.011831 176.216628 
L 334.4672 175.339041 
L 339.67822 174.727411 
L 345.133549 174.316472 
L 351.158817 174.092529 
L 358.324045 174.052916 
L 369.397589 174.241691 
L 392.765876 174.667302 
L 411.819162 174.733458 
L 683.933892 174.676416 
L 683.933892 174.676416 
" clip-path="url(#p92ed8c5cf1)" style="fill: none; stroke: #e74c3c; stroke-width: 1.8; stroke-linecap: square"/>
   </g>
   <g id="line2d_24">
    <path d="M 73.342983 174.676416 
L 130.095888 174.676416 
L 130.258855 41.297805 
L 233.992644 41.297805 
L 234.155103 174.676416 
L 683.933892 174.676416 
L 683.933892 174.676416 
" clip-path="url(#p92ed8c5cf1)" style="fill: none; stroke-dasharray: 4.44,1.92; stroke-dashoffset: 0; stroke: #95a5a6; stroke-width: 1.2"/>
   </g>
   <g id="line2d_25">
    <path d="M 130.177392 187.44 
L 130.177392 30.24 
" clip-path="url(#p92ed8c5cf1)" style="fill: none; stroke-dasharray: 1,1.65; stroke-dashoffset: 0; stroke: #e67e22; stroke-opacity: 0.8"/>
   </g>
   <g id="line2d_26">
    <path d="M 180.496652 187.44 
L 180.496652 30.24 
" clip-path="url(#p92ed8c5cf1)" style="fill: none; stroke-dasharray: 1,1.65; stroke-dashoffset: 0; stroke: #2ecc71; stroke-opacity: 0.8"/>
   </g>
   <g id="line2d_27">
    <path d="M 234.073864 187.44 
L 234.073864 30.24 
" clip-path="url(#p92ed8c5cf1)" style="fill: none; stroke-dasharray: 1,1.65; stroke-dashoffset: 0; stroke: #9b59b6; stroke-opacity: 0.8"/>
   </g>
   <g id="patch_3">
    <path d="M 42.813437 187.44 
L 42.813437 30.24 
" style="fill: none; stroke: #000000; stroke-width: 0.8; stroke-linejoin: miter; stroke-linecap: square"/>
   </g>
   <g id="patch_4">
    <path d="M 42.813437 187.44 
L 714.463438 187.44 
" style="fill: none; stroke: #000000; stroke-width: 0.8; stroke-linejoin: miter; stroke-linecap: square"/>
   </g>
   <g id="legend_1">
    <g id="patch_5">
     <path d="M 650.608438 95.3525 
L 708.863438 95.3525 
Q 710.463438 95.3525 710.463438 93.7525 
L 710.463438 35.84 
Q 710.463438 34.24 708.863438 34.24 
L 650.608438 34.24 
Q 649.008438 34.24 649.008438 35.84 
L 649.008438 93.7525 
Q 649.008438 95.3525 650.608438 95.3525 
z
" style="fill: #ffffff; opacity: 0.8; stroke: #cccccc; stroke-linejoin: miter"/>
    </g>
    <g id="line2d_28">
     <path d="M 652.208438 40.71875 
L 660.208438 40.71875 
L 668.208438 40.71875 
" style="fill: none; stroke: #e74c3c; stroke-width: 1.8; stroke-linecap: square"/>
    </g>
    <g id="text_6">
     <!-- X actual -->
     <g transform="translate(674.608438 43.51875) scale(0.08 -0.08)">
      <defs>
       <path id="DejaVuSans-61" d="M 2194 1759 
Q 1497 1759 1228 1600 
Q 959 1441 959 1056 
Q 959 750 1161 570 
Q 1363 391 1709 391 
Q 2188 391 2477 730 
Q 2766 1069 2766 1631 
L 2766 1759 
L 2194 1759 
z
M 3341 1997 
L 3341 0 
L 2766 0 
L 2766 531 
Q 2569 213 2275 61 
Q 1981 -91 1556 -91 
Q 1019 -91 701 211 
Q 384 513 384 1019 
Q 384 1609 779 1909 
Q 1175 2209 1959 2209 
L 2766 2209 
L 2766 2266 
Q 2766 2663 2505 2880 
Q 2244 3097 1772 3097 
Q 1472 3097 1187 3025 
Q 903 2953 641 2809 
L 641 3341 
Q 956 3463 1253 3523 
Q 1550 3584 1831 3584 
Q 2591 3584 2966 3190 
Q 3341 2797 3341 1997 
z
" transform="scale(0.015625)"/>
       <path id="DejaVuSans-63" d="M 3122 3366 
L 3122 2828 
Q 2878 2963 2633 3030 
Q 2388 3097 2138 3097 
Q 1578 3097 1268 2742 
Q 959 2388 959 1747 
Q 959 1106 1268 751 
Q 1578 397 2138 397 
Q 2388 397 2633 464 
Q 2878 531 3122 666 
L 3122 134 
Q 2881 22 2623 -34 
Q 2366 -91 2075 -91 
Q 1284 -91 818 406 
Q 353 903 353 1747 
Q 353 2603 823 3093 
Q 1294 3584 2113 3584 
Q 2378 3584 2631 3529 
Q 2884 3475 3122 3366 
z
" transform="scale(0.015625)"/>
       <path id="DejaVuSans-74" d="M 1172 4494 
L 1172 3500 
L 2356 3500 
L 2356 3053 
L 1172 3053 
L 1172 1153 
Q 1172 725 1289 603 
Q 1406 481 1766 481 
L 2356 481 
L 2356 0 
L 1766 0 
Q 1100 0 847 248 
Q 594 497 594 1153 
L 594 3053 
L 172 3053 
L 172 3500 
L 594 3500 
L 594 4494 
L 1172 4494 
z
" transform="scale(0.015625)"/>
       <path id="DejaVuSans-75" d="M 544 1381 
L 544 3500 
L 1119 3500 
L 1119 1403 
Q 1119 906 1312 657 
Q 1506 409 1894 409 
Q 2359 409 2629 706 
Q 2900 1003 2900 1516 
L 2900 3500 
L 3475 3500 
L 3475 0 
L 2900 0 
L 2900 538 
Q 2691 219 2414 64 
Q 2138 -91 1772 -91 
Q 1169 -91 856 284 
Q 544 659 544 1381 
z
M 1991 3584 
L 1991 3584 
z
" transform="scale(0.015625)"/>
       <path id="DejaVuSans-6c" d="M 603 4863 
L 1178 4863 
L 1178 0 
L 603 0 
L 603 4863 
z
" transform="scale(0.015625)"/>
      </defs>
      <use xlink:href="#DejaVuSans-58"/>
      <use xlink:href="#DejaVuSans-20" transform="translate(68.505859 0)"/>
      <use xlink:href="#DejaVuSans-61" transform="translate(100.292969 0)"/>
      <use xlink:href="#DejaVuSans-63" transform="translate(161.572266 0)"/>
      <use xlink:href="#DejaVuSans-74" transform="translate(216.552734 0)"/>
      <use xlink:href="#DejaVuSans-75" transform="translate(255.761719 0)"/>
      <use xlink:href="#DejaVuSans-61" transform="translate(319.140625 0)"/>
      <use xlink:href="#DejaVuSans-6c" transform="translate(380.419922 0)"/>
     </g>
    </g>
    <g id="line2d_29">
     <path d="M 652.208438 52.46125 
L 660.208438 52.46125 
L 668.208438 52.46125 
" style="fill: none; stroke-dasharray: 4.44,1.92; stroke-dashoffset: 0; stroke: #95a5a6; stroke-width: 1.2"/>
    </g>
    <g id="text_7">
     <!-- X ref -->
     <g transform="translate(674.608438 55.26125) scale(0.08 -0.08)">
      <defs>
       <path id="DejaVuSans-72" d="M 2631 2963 
Q 2534 3019 2420 3045 
Q 2306 3072 2169 3072 
Q 1681 3072 1420 2755 
Q 1159 2438 1159 1844 
L 1159 0 
L 581 0 
L 581 3500 
L 1159 3500 
L 1159 2956 
Q 1341 3275 1631 3429 
Q 1922 3584 2338 3584 
Q 2397 3584 2469 3576 
Q 2541 3569 2628 3553 
L 2631 2963 
z
" transform="scale(0.015625)"/>
       <path id="DejaVuSans-65" d="M 3597 1894 
L 3597 1613 
L 953 1613 
Q 991 1019 1311 708 
Q 1631 397 2203 397 
Q 2534 397 2845 478 
Q 3156 559 3463 722 
L 3463 178 
Q 3153 47 2828 -22 
Q 2503 -91 2169 -91 
Q 1331 -91 842 396 
Q 353 884 353 1716 
Q 353 2575 817 3079 
Q 1281 3584 2069 3584 
Q 2775 3584 3186 3129 
Q 3597 2675 3597 1894 
z
M 3022 2063 
Q 3016 2534 2758 2815 
Q 2500 3097 2075 3097 
Q 1594 3097 1305 2825 
Q 1016 2553 972 2059 
L 3022 2063 
z
" transform="scale(0.015625)"/>
       <path id="DejaVuSans-66" d="M 2375 4863 
L 2375 4384 
L 1825 4384 
Q 1516 4384 1395 4259 
Q 1275 4134 1275 3809 
L 1275 3500 
L 2222 3500 
L 2222 3053 
L 1275 3053 
L 1275 0 
L 697 0 
L 697 3053 
L 147 3053 
L 147 3500 
L 697 3500 
L 697 3744 
Q 697 4328 969 4595 
Q 1241 4863 1831 4863 
L 2375 4863 
z
" transform="scale(0.015625)"/>
      </defs>
      <use xlink:href="#DejaVuSans-58"/>
      <use xlink:href="#DejaVuSans-20" transform="translate(68.505859 0)"/>
      <use xlink:href="#DejaVuSans-72" transform="translate(100.292969 0)"/>
      <use xlink:href="#DejaVuSans-65" transform="translate(139.15625 0)"/>
      <use xlink:href="#DejaVuSans-66" transform="translate(200.679688 0)"/>
     </g>
    </g>
    <g id="line2d_30">
     <path d="M 652.208438 64.20375 
L 660.208438 64.20375 
L 668.208438 64.20375 
" style="fill: none; stroke-dasharray: 1,1.65; stroke-dashoffset: 0; stroke: #e67e22; stroke-opacity: 0.8"/>
    </g>
    <g id="text_8">
     <!-- →WP2 -->
     <g transform="translate(674.608438 67.00375) scale(0.08 -0.08)">
      <defs>
       <path id="DejaVuSans-2192" d="M 5050 2147 
L 5050 1866 
L 3822 638 
L 3447 1013 
L 4175 1741 
L 366 1741 
L 366 2272 
L 4175 2272 
L 3447 3000 
L 3822 3375 
L 5050 2147 
z
" transform="scale(0.015625)"/>
       <path id="DejaVuSans-57" d="M 213 4666 
L 850 4666 
L 1831 722 
L 2809 4666 
L 3519 4666 
L 4500 722 
L 5478 4666 
L 6119 4666 
L 4947 0 
L 4153 0 
L 3169 4050 
L 2175 0 
L 1381 0 
L 213 4666 
z
" transform="scale(0.015625)"/>
       <path id="DejaVuSans-50" d="M 1259 4147 
L 1259 2394 
L 2053 2394 
Q 2494 2394 2734 2622 
Q 2975 2850 2975 3272 
Q 2975 3691 2734 3919 
Q 2494 4147 2053 4147 
L 1259 4147 
z
M 628 4666 
L 2053 4666 
Q 2838 4666 3239 4311 
Q 3641 3956 3641 3272 
Q 3641 2581 3239 2228 
Q 2838 1875 2053 1875 
L 1259 1875 
L 1259 0 
L 628 0 
L 628 4666 
z
" transform="scale(0.015625)"/>
      </defs>
      <use xlink:href="#DejaVuSans-2192"/>
      <use xlink:href="#DejaVuSans-57" transform="translate(83.789062 0)"/>
      <use xlink:href="#DejaVuSans-50" transform="translate(182.666016 0)"/>
      <use xlink:href="#DejaVuSans-32" transform="translate(242.96875 0)"/>
     </g>
    </g>
    <g id="line2d_31">
     <path d="M 652.208438 75.94625 
L 660.208438 75.94625 
L 668.208438 75.94625 
" style="fill: none; stroke-dasharray: 1,1.65; stroke-dashoffset: 0; stroke: #2ecc71; stroke-opacity: 0.8"/>
    </g>
    <g id="text_9">
     <!-- →WP3 -->
     <g transform="translate(674.608438 78.74625) scale(0.08 -0.08)">
      <use xlink:href="#DejaVuSans-2192"/>
      <use xlink:href="#DejaVuSans-57" transform="translate(83.789062 0)"/>
      <use xlink:href="#DejaVuSans-50" transform="translate(182.666016 0)"/>
      <use xlink:href="#DejaVuSans-33" transform="translate(242.96875 0)"/>
     </g>
    </g>
    <g id="line2d_32">
     <path d="M 652.208438 87.68875 
L 660.208438 87.68875 
L 668.208438 87.68875 
" style="fill: none; stroke-dasharray: 1,1.65; stroke-dashoffset: 0; stroke: #9b59b6; stroke-opacity: 0.8"/>
    </g>
    <g id="text_10">
     <!-- →WP4 -->
     <g transform="translate(674.608438 90.48875) scale(0.08 -0.08)">
      <defs>
       <path id="DejaVuSans-34" d="M 2419 4116 
L 825 1625 
L 2419 1625 
L 2419 4116 
z
M 2253 4666 
L 3047 4666 
L 3047 1625 
L 3713 1625 
L 3713 1100 
L 3047 1100 
L 3047 0 
L 2419 0 
L 2419 1100 
L 313 1100 
L 313 1709 
L 2253 4666 
z
" transform="scale(0.015625)"/>
      </defs>
      <use xlink:href="#DejaVuSans-2192"/>
      <use xlink:href="#DejaVuSans-57" transform="translate(83.789062 0)"/>
      <use xlink:href="#DejaVuSans-50" transform="translate(182.666016 0)"/>
      <use xlink:href="#DejaVuSans-34" transform="translate(242.96875 0)"/>
     </g>
    </g>
   </g>
  </g>
  <g id="axes_2">
   <g id="patch_6">
    <path d="M 42.813437 358.94 
L 714.463438 358.94 
L 714.463438 201.74 
L 42.813437 201.74 
z
" style="fill: #ffffff"/>
   </g>
   <g id="matplotlib.axis_3">
    <g id="xtick_8">
     <g id="line2d_33">
      <path d="M 73.342963 358.94 
L 73.342963 201.74 
" clip-path="url(#pff0a0d6bd3)" style="fill: none; stroke: #b0b0b0; stroke-opacity: 0.3; stroke-width: 0.8; stroke-linecap: square"/>
     </g>
     <g id="line2d_34">
      <g>
       <use xlink:href="#mfa647dfc9a" x="73.342963" y="358.94" style="stroke: #000000; stroke-width: 0.8"/>
      </g>
     </g>
    </g>
    <g id="xtick_9">
     <g id="line2d_35">
      <path d="M 175.121484 358.94 
L 175.121484 201.74 
" clip-path="url(#pff0a0d6bd3)" style="fill: none; stroke: #b0b0b0; stroke-opacity: 0.3; stroke-width: 0.8; stroke-linecap: square"/>
     </g>
     <g id="line2d_36">
      <g>
       <use xlink:href="#mfa647dfc9a" x="175.121484" y="358.94" style="stroke: #000000; stroke-width: 0.8"/>
      </g>
     </g>
    </g>
    <g id="xtick_10">
     <g id="line2d_37">
      <path d="M 276.900006 358.94 
L 276.900006 201.74 
" clip-path="url(#pff0a0d6bd3)" style="fill: none; stroke: #b0b0b0; stroke-opacity: 0.3; stroke-width: 0.8; stroke-linecap: square"/>
     </g>
     <g id="line2d_38">
      <g>
       <use xlink:href="#mfa647dfc9a" x="276.900006" y="358.94" style="stroke: #000000; stroke-width: 0.8"/>
      </g>
     </g>
    </g>
    <g id="xtick_11">
     <g id="line2d_39">
      <path d="M 378.678528 358.94 
L 378.678528 201.74 
" clip-path="url(#pff0a0d6bd3)" style="fill: none; stroke: #b0b0b0; stroke-opacity: 0.3; stroke-width: 0.8; stroke-linecap: square"/>
     </g>
     <g id="line2d_40">
      <g>
       <use xlink:href="#mfa647dfc9a" x="378.678528" y="358.94" style="stroke: #000000; stroke-width: 0.8"/>
      </g>
     </g>
    </g>
    <g id="xtick_12">
     <g id="line2d_41">
      <path d="M 480.45705 358.94 
L 480.45705 201.74 
" clip-path="url(#pff0a0d6bd3)" style="fill: none; stroke: #b0b0b0; stroke-opacity: 0.3; stroke-width: 0.8; stroke-linecap: square"/>
     </g>
     <g id="line2d_42">
      <g>
       <use xlink:href="#mfa647dfc9a" x="480.45705" y="358.94" style="stroke: #000000; stroke-width: 0.8"/>
      </g>
     </g>
    </g>
    <g id="xtick_13">
     <g id="line2d_43">
      <path d="M 582.235572 358.94 
L 582.235572 201.74 
" clip-path="url(#pff0a0d6bd3)" style="fill: none; stroke: #b0b0b0; stroke-opacity: 0.3; stroke-width: 0.8; stroke-linecap: square"/>
     </g>
     <g id="line2d_44">
      <g>
       <use xlink:href="#mfa647dfc9a" x="582.235572" y="358.94" style="stroke: #000000; stroke-width: 0.8"/>
      </g>
     </g>
    </g>
    <g id="xtick_14">
     <g id="line2d_45">
      <path d="M 684.014094 358.94 
L 684.014094 201.74 
" clip-path="url(#pff0a0d6bd3)" style="fill: none; stroke: #b0b0b0; stroke-opacity: 0.3; stroke-width: 0.8; stroke-linecap: square"/>
     </g>
     <g id="line2d_46">
      <g>
       <use xlink:href="#mfa647dfc9a" x="684.014094" y="358.94" style="stroke: #000000; stroke-width: 0.8"/>
      </g>
     </g>
    </g>
   </g>
   <g id="matplotlib.axis_4">
    <g id="ytick_5">
     <g id="line2d_47">
      <path d="M 42.813437 345.43163 
L 714.463438 345.43163 
" clip-path="url(#pff0a0d6bd3)" style="fill: none; stroke: #b0b0b0; stroke-opacity: 0.3; stroke-width: 0.8; stroke-linecap: square"/>
     </g>
     <g id="line2d_48">
      <g>
       <use xlink:href="#m173d80d222" x="42.813437" y="345.43163" style="stroke: #000000; stroke-width: 0.8"/>
      </g>
     </g>
     <g id="text_11">
      <!-- 0.0 -->
      <g transform="translate(19.910312 349.230849) scale(0.1 -0.1)">
       <defs>
        <path id="DejaVuSans-2e" d="M 684 794 
L 1344 794 
L 1344 0 
L 684 0 
L 684 794 
z
" transform="scale(0.015625)"/>
       </defs>
       <use xlink:href="#DejaVuSans-30"/>
       <use xlink:href="#DejaVuSans-2e" transform="translate(63.623047 0)"/>
       <use xlink:href="#DejaVuSans-30" transform="translate(95.410156 0)"/>
      </g>
     </g>
    </g>
    <g id="ytick_6">
     <g id="line2d_49">
      <path d="M 42.813437 322.673934 
L 714.463438 322.673934 
" clip-path="url(#pff0a0d6bd3)" style="fill: none; stroke: #b0b0b0; stroke-opacity: 0.3; stroke-width: 0.8; stroke-linecap: square"/>
     </g>
     <g id="line2d_50">
      <g>
       <use xlink:href="#m173d80d222" x="42.813437" y="322.673934" style="stroke: #000000; stroke-width: 0.8"/>
      </g>
     </g>
     <g id="text_12">
      <!-- 0.5 -->
      <g transform="translate(19.910312 326.473153) scale(0.1 -0.1)">
       <defs>
        <path id="DejaVuSans-35" d="M 691 4666 
L 3169 4666 
L 3169 4134 
L 1269 4134 
L 1269 2991 
Q 1406 3038 1543 3061 
Q 1681 3084 1819 3084 
Q 2600 3084 3056 2656 
Q 3513 2228 3513 1497 
Q 3513 744 3044 326 
Q 2575 -91 1722 -91 
Q 1428 -91 1123 -41 
Q 819 9 494 109 
L 494 744 
Q 775 591 1075 516 
Q 1375 441 1709 441 
Q 2250 441 2565 725 
Q 2881 1009 2881 1497 
Q 2881 1984 2565 2268 
Q 2250 2553 1709 2553 
Q 1456 2553 1204 2497 
Q 953 2441 691 2322 
L 691 4666 
z
" transform="scale(0.015625)"/>
       </defs>
       <use xlink:href="#DejaVuSans-30"/>
       <use xlink:href="#DejaVuSans-2e" transform="translate(63.623047 0)"/>
       <use xlink:href="#DejaVuSans-35" transform="translate(95.410156 0)"/>
      </g>
     </g>
    </g>
    <g id="ytick_7">
     <g id="line2d_51">
      <path d="M 42.813437 299.916238 
L 714.463438 299.916238 
" clip-path="url(#pff0a0d6bd3)" style="fill: none; stroke: #b0b0b0; stroke-opacity: 0.3; stroke-width: 0.8; stroke-linecap: square"/>
     </g>
     <g id="line2d_52">
      <g>
       <use xlink:href="#m173d80d222" x="42.813437" y="299.916238" style="stroke: #000000; stroke-width: 0.8"/>
      </g>
     </g>
     <g id="text_13">
      <!-- 1.0 -->
      <g transform="translate(19.910312 303.715457) scale(0.1 -0.1)">
       <use xlink:href="#DejaVuSans-31"/>
       <use xlink:href="#DejaVuSans-2e" transform="translate(63.623047 0)"/>
       <use xlink:href="#DejaVuSans-30" transform="translate(95.410156 0)"/>
      </g>
     </g>
    </g>
    <g id="ytick_8">
     <g id="line2d_53">
      <path d="M 42.813437 277.158542 
L 714.463438 277.158542 
" clip-path="url(#pff0a0d6bd3)" style="fill: none; stroke: #b0b0b0; stroke-opacity: 0.3; stroke-width: 0.8; stroke-linecap: square"/>
     </g>
     <g id="line2d_54">
      <g>
       <use xlink:href="#m173d80d222" x="42.813437" y="277.158542" style="stroke: #000000; stroke-width: 0.8"/>
      </g>
     </g>
     <g id="text_14">
      <!-- 1.5 -->
      <g transform="translate(19.910312 280.957761) scale(0.1 -0.1)">
       <use xlink:href="#DejaVuSans-31"/>
       <use xlink:href="#DejaVuSans-2e" transform="translate(63.623047 0)"/>
       <use xlink:href="#DejaVuSans-35" transform="translate(95.410156 0)"/>
      </g>
     </g>
    </g>
    <g id="ytick_9">
     <g id="line2d_55">
      <path d="M 42.813437 254.400846 
L 714.463438 254.400846 
" clip-path="url(#pff0a0d6bd3)" style="fill: none; stroke: #b0b0b0; stroke-opacity: 0.3; stroke-width: 0.8; stroke-linecap: square"/>
     </g>
     <g id="line2d_56">
      <g>
       <use xlink:href="#m173d80d222" x="42.813437" y="254.400846" style="stroke: #000000; stroke-width: 0.8"/>
      </g>
     </g>
     <g id="text_15">
      <!-- 2.0 -->
      <g transform="translate(19.910312 258.200065) scale(0.1 -0.1)">
       <use xlink:href="#DejaVuSans-32"/>
       <use xlink:href="#DejaVuSans-2e" transform="translate(63.623047 0)"/>
       <use xlink:href="#DejaVuSans-30" transform="translate(95.410156 0)"/>
      </g>
     </g>
    </g>
    <g id="ytick_10">
     <g id="line2d_57">
      <path d="M 42.813437 231.64315 
L 714.463438 231.64315 
" clip-path="url(#pff0a0d6bd3)" style="fill: none; stroke: #b0b0b0; stroke-opacity: 0.3; stroke-width: 0.8; stroke-linecap: square"/>
     </g>
     <g id="line2d_58">
      <g>
       <use xlink:href="#m173d80d222" x="42.813437" y="231.64315" style="stroke: #000000; stroke-width: 0.8"/>
      </g>
     </g>
     <g id="text_16">
      <!-- 2.5 -->
      <g transform="translate(19.910312 235.442369) scale(0.1 -0.1)">
       <use xlink:href="#DejaVuSans-32"/>
       <use xlink:href="#DejaVuSans-2e" transform="translate(63.623047 0)"/>
       <use xlink:href="#DejaVuSans-35" transform="translate(95.410156 0)"/>
      </g>
     </g>
    </g>
    <g id="ytick_11">
     <g id="line2d_59">
      <path d="M 42.813437 208.885455 
L 714.463438 208.885455 
" clip-path="url(#pff0a0d6bd3)" style="fill: none; stroke: #b0b0b0; stroke-opacity: 0.3; stroke-width: 0.8; stroke-linecap: square"/>
     </g>
     <g id="line2d_60">
      <g>
       <use xlink:href="#m173d80d222" x="42.813437" y="208.885455" style="stroke: #000000; stroke-width: 0.8"/>
      </g>
     </g>
     <g id="text_17">
      <!-- 3.0 -->
      <g transform="translate(19.910312 212.684673) scale(0.1 -0.1)">
       <use xlink:href="#DejaVuSans-33"/>
       <use xlink:href="#DejaVuSans-2e" transform="translate(63.623047 0)"/>
       <use xlink:href="#DejaVuSans-30" transform="translate(95.410156 0)"/>
      </g>
     </g>
    </g>
    <g id="text_18">
     <!-- Y (m) -->
     <g transform="translate(14.038594 292.413359) rotate(-90) scale(0.09 -0.09)">
      <defs>
       <path id="DejaVuSans-59" d="M -13 4666 
L 666 4666 
L 1959 2747 
L 3244 4666 
L 3922 4666 
L 2272 2222 
L 2272 0 
L 1638 0 
L 1638 2222 
L -13 4666 
z
" transform="scale(0.015625)"/>
      </defs>
      <use xlink:href="#DejaVuSans-59"/>
      <use xlink:href="#DejaVuSans-20" transform="translate(61.083984 0)"/>
      <use xlink:href="#DejaVuSans-28" transform="translate(92.871094 0)"/>
      <use xlink:href="#DejaVuSans-6d" transform="translate(131.884766 0)"/>
      <use xlink:href="#DejaVuSans-29" transform="translate(229.296875 0)"/>
     </g>
    </g>
   </g>
   <g id="line2d_61">
    <path d="M 73.342983 345.43163 
L 182.044297 345.321392 
L 183.591004 345.079114 
L 184.812164 344.675073 
L 186.033852 344.029802 
L 187.203715 343.156043 
L 188.412619 341.970913 
L 189.69737 340.38502 
L 191.081558 338.29641 
L 192.547168 335.660796 
L 194.175645 332.240359 
L 195.966927 327.91972 
L 197.921074 322.60689 
L 200.200934 315.735295 
L 202.969309 306.633309 
L 206.796121 293.197211 
L 215.101289 263.832728 
L 218.358222 253.256863 
L 221.126598 244.985214 
L 223.650725 238.107201 
L 226.011967 232.289469 
L 228.291806 227.256514 
L 230.408758 223.099957 
L 232.444369 219.566187 
L 234.480265 216.471368 
L 236.271221 214.123229 
L 237.573986 212.755219 
L 238.713987 211.862252 
L 239.691 211.35248 
L 240.668074 211.096547 
L 241.568854 211.095819 
L 242.459376 211.32376 
L 243.355027 211.785832 
L 244.332101 212.558 
L 245.390577 213.709267 
L 246.530517 215.310134 
L 247.751859 217.429558 
L 249.136047 220.315462 
L 250.601637 223.896249 
L 252.311822 228.695119 
L 254.265684 234.888899 
L 256.545503 242.890413 
L 259.476724 254.034539 
L 270.794496 297.951612 
L 273.562872 307.36465 
L 276.086999 315.170221 
L 278.366859 321.528995 
L 280.565438 327.017514 
L 282.682227 331.70173 
L 284.717838 335.659521 
L 286.671986 338.970447 
L 288.544731 341.713751 
L 290.417395 344.058886 
L 292.208758 345.952781 
L 293.999999 347.529116 
L 295.791321 348.812923 
L 297.584333 349.830556 
L 299.456407 350.635542 
L 301.409536 351.226013 
L 303.446104 351.604746 
L 305.643462 351.781801 
L 308.086207 351.745798 
L 310.854563 351.47257 
L 314.193224 350.90745 
L 318.833958 349.872339 
L 331.373092 346.970688 
L 336.421307 346.093287 
L 341.306656 345.468134 
L 346.436293 345.038195 
L 352.135891 344.791502 
L 358.894005 344.731603 
L 368.501877 344.89068 
L 395.941387 345.439595 
L 414.424611 345.494259 
L 569.290585 345.431585 
L 683.933892 345.43163 
L 683.933892 345.43163 
" clip-path="url(#pff0a0d6bd3)" style="fill: none; stroke: #2ecc71; stroke-width: 1.8; stroke-linecap: square"/>
   </g>
   <g id="line2d_62">
    <path d="M 73.342983 345.43163 
L 180.41523 345.43163 
L 180.578055 208.885455 
L 233.992644 208.885455 
L 234.155103 345.43163 
L 683.933892 345.43163 
L 683.933892 345.43163 
" clip-path="url(#pff0a0d6bd3)" style="fill: none; stroke-dasharray: 4.44,1.92; stroke-dashoffset: 0; stroke: #95a5a6; stroke-width: 1.2"/>
   </g>
   <g id="line2d_63">
    <path d="M 130.177392 358.94 
L 130.177392 201.74 
" clip-path="url(#pff0a0d6bd3)" style="fill: none; stroke-dasharray: 1,1.65; stroke-dashoffset: 0; stroke: #e67e22; stroke-opacity: 0.8"/>
   </g>
   <g id="line2d_64">
    <path d="M 180.496652 358.94 
L 180.496652 201.74 
" clip-path="url(#pff0a0d6bd3)" style="fill: none; stroke-dasharray: 1,1.65; stroke-dashoffset: 0; stroke: #2ecc71; stroke-opacity: 0.8"/>
   </g>
   <g id="line2d_65">
    <path d="M 234.073864 358.94 
L 234.073864 201.74 
" clip-path="url(#pff0a0d6bd3)" style="fill: none; stroke-dasharray: 1,1.65; stroke-dashoffset: 0; stroke: #9b59b6; stroke-opacity: 0.8"/>
   </g>
   <g id="patch_7">
    <path d="M 42.813437 358.94 
L 42.813437 201.74 
" style="fill: none; stroke: #000000; stroke-width: 0.8; stroke-linejoin: miter; stroke-linecap: square"/>
   </g>
   <g id="patch_8">
    <path d="M 42.813437 358.94 
L 714.463438 358.94 
" style="fill: none; stroke: #000000; stroke-width: 0.8; stroke-linejoin: miter; stroke-linecap: square"/>
   </g>
   <g id="legend_2">
    <g id="patch_9">
     <path d="M 651.202188 231.625 
L 708.863438 231.625 
Q 710.463438 231.625 710.463438 230.025 
L 710.463438 207.34 
Q 710.463438 205.74 708.863438 205.74 
L 651.202188 205.74 
Q 649.602188 205.74 649.602188 207.34 
L 649.602188 230.025 
Q 649.602188 231.625 651.202188 231.625 
z
" style="fill: #ffffff; opacity: 0.8; stroke: #cccccc; stroke-linejoin: miter"/>
    </g>
    <g id="line2d_66">
     <path d="M 652.802188 212.21875 
L 660.802188 212.21875 
L 668.802188 212.21875 
" style="fill: none; stroke: #2ecc71; stroke-width: 1.8; stroke-linecap: square"/>
    </g>
    <g id="text_19">
     <!-- Y actual -->
     <g transform="translate(675.202188 215.01875) scale(0.08 -0.08)">
      <use xlink:href="#DejaVuSans-59"/>
      <use xlink:href="#DejaVuSans-20" transform="translate(61.083984 0)"/>
      <use xlink:href="#DejaVuSans-61" transform="translate(92.871094 0)"/>
      <use xlink:href="#DejaVuSans-63" transform="translate(154.150391 0)"/>
      <use xlink:href="#DejaVuSans-74" transform="translate(209.130859 0)"/>
      <use xlink:href="#DejaVuSans-75" transform="translate(248.339844 0)"/>
      <use xlink:href="#DejaVuSans-61" transform="translate(311.71875 0)"/>
      <use xlink:href="#DejaVuSans-6c" transform="translate(372.998047 0)"/>
     </g>
    </g>
    <g id="line2d_67">
     <path d="M 652.802188 223.96125 
L 660.802188 223.96125 
L 668.802188 223.96125 
" style="fill: none; stroke-dasharray: 4.44,1.92; stroke-dashoffset: 0; stroke: #95a5a6; stroke-width: 1.2"/>
    </g>
    <g id="text_20">
     <!-- Y ref -->
     <g transform="translate(675.202188 226.76125) scale(0.08 -0.08)">
      <use xlink:href="#DejaVuSans-59"/>
      <use xlink:href="#DejaVuSans-20" transform="translate(61.083984 0)"/>
      <use xlink:href="#DejaVuSans-72" transform="translate(92.871094 0)"/>
      <use xlink:href="#DejaVuSans-65" transform="translate(131.734375 0)"/>
      <use xlink:href="#DejaVuSans-66" transform="translate(193.257812 0)"/>
     </g>
    </g>
   </g>
  </g>
  <g id="axes_3">
   <g id="patch_10">
    <path d="M 42.813437 530.44 
L 714.463438 530.44 
L 714.463438 373.24 
L 42.813437 373.24 
z
" style="fill: #ffffff"/>
   </g>
   <g id="matplotlib.axis_5">
    <g id="xtick_15">
     <g id="line2d_68">
      <path d="M 73.342963 530.44 
L 73.342963 373.24 
" clip-path="url(#p47b1b09d93)" style="fill: none; stroke: #b0b0b0; stroke-opacity: 0.3; stroke-width: 0.8; stroke-linecap: square"/>
     </g>
     <g id="line2d_69">
      <g>
       <use xlink:href="#mfa647dfc9a" x="73.342963" y="530.44" style="stroke: #000000; stroke-width: 0.8"/>
      </g>
     </g>
     <g id="text_21">
      <!-- 0 -->
      <g transform="translate(70.161713 545.038437) scale(0.1 -0.1)">
       <use xlink:href="#DejaVuSans-30"/>
      </g>
     </g>
    </g>
    <g id="xtick_16">
     <g id="line2d_70">
      <path d="M 175.121484 530.44 
L 175.121484 373.24 
" clip-path="url(#p47b1b09d93)" style="fill: none; stroke: #b0b0b0; stroke-opacity: 0.3; stroke-width: 0.8; stroke-linecap: square"/>
     </g>
     <g id="line2d_71">
      <g>
       <use xlink:href="#mfa647dfc9a" x="175.121484" y="530.44" style="stroke: #000000; stroke-width: 0.8"/>
      </g>
     </g>
     <g id="text_22">
      <!-- 5 -->
      <g transform="translate(171.940234 545.038437) scale(0.1 -0.1)">
       <use xlink:href="#DejaVuSans-35"/>
      </g>
     </g>
    </g>
    <g id="xtick_17">
     <g id="line2d_72">
      <path d="M 276.900006 530.44 
L 276.900006 373.24 
" clip-path="url(#p47b1b09d93)" style="fill: none; stroke: #b0b0b0; stroke-opacity: 0.3; stroke-width: 0.8; stroke-linecap: square"/>
     </g>
     <g id="line2d_73">
      <g>
       <use xlink:href="#mfa647dfc9a" x="276.900006" y="530.44" style="stroke: #000000; stroke-width: 0.8"/>
      </g>
     </g>
     <g id="text_23">
      <!-- 10 -->
      <g transform="translate(270.537506 545.038437) scale(0.1 -0.1)">
       <use xlink:href="#DejaVuSans-31"/>
       <use xlink:href="#DejaVuSans-30" transform="translate(63.623047 0)"/>
      </g>
     </g>
    </g>
    <g id="xtick_18">
     <g id="line2d_74">
      <path d="M 378.678528 530.44 
L 378.678528 373.24 
" clip-path="url(#p47b1b09d93)" style="fill: none; stroke: #b0b0b0; stroke-opacity: 0.3; stroke-width: 0.8; stroke-linecap: square"/>
     </g>
     <g id="line2d_75">
      <g>
       <use xlink:href="#mfa647dfc9a" x="378.678528" y="530.44" style="stroke: #000000; stroke-width: 0.8"/>
      </g>
     </g>
     <g id="text_24">
      <!-- 15 -->
      <g transform="translate(372.316028 545.038437) scale(0.1 -0.1)">
       <use xlink:href="#DejaVuSans-31"/>
       <use xlink:href="#DejaVuSans-35" transform="translate(63.623047 0)"/>
      </g>
     </g>
    </g>
    <g id="xtick_19">
     <g id="line2d_76">
      <path d="M 480.45705 530.44 
L 480.45705 373.24 
" clip-path="url(#p47b1b09d93)" style="fill: none; stroke: #b0b0b0; stroke-opacity: 0.3; stroke-width: 0.8; stroke-linecap: square"/>
     </g>
     <g id="line2d_77">
      <g>
       <use xlink:href="#mfa647dfc9a" x="480.45705" y="530.44" style="stroke: #000000; stroke-width: 0.8"/>
      </g>
     </g>
     <g id="text_25">
      <!-- 20 -->
      <g transform="translate(474.09455 545.038437) scale(0.1 -0.1)">
       <use xlink:href="#DejaVuSans-32"/>
       <use xlink:href="#DejaVuSans-30" transform="translate(63.623047 0)"/>
      </g>
     </g>
    </g>
    <g id="xtick_20">
     <g id="line2d_78">
      <path d="M 582.235572 530.44 
L 582.235572 373.24 
" clip-path="url(#p47b1b09d93)" style="fill: none; stroke: #b0b0b0; stroke-opacity: 0.3; stroke-width: 0.8; stroke-linecap: square"/>
     </g>
     <g id="line2d_79">
      <g>
       <use xlink:href="#mfa647dfc9a" x="582.235572" y="530.44" style="stroke: #000000; stroke-width: 0.8"/>
      </g>
     </g>
     <g id="text_26">
      <!-- 25 -->
      <g transform="translate(575.873072 545.038437) scale(0.1 -0.1)">
       <use xlink:href="#DejaVuSans-32"/>
       <use xlink:href="#DejaVuSans-35" transform="translate(63.623047 0)"/>
      </g>
     </g>
    </g>
    <g id="xtick_21">
     <g id="line2d_80">
      <path d="M 684.014094 530.44 
L 684.014094 373.24 
" clip-path="url(#p47b1b09d93)" style="fill: none; stroke: #b0b0b0; stroke-opacity: 0.3; stroke-width: 0.8; stroke-linecap: square"/>
     </g>
     <g id="line2d_81">
      <g>
       <use xlink:href="#mfa647dfc9a" x="684.014094" y="530.44" style="stroke: #000000; stroke-width: 0.8"/>
      </g>
     </g>
     <g id="text_27">
      <!-- 30 -->
      <g transform="translate(677.651594 545.038437) scale(0.1 -0.1)">
       <use xlink:href="#DejaVuSans-33"/>
       <use xlink:href="#DejaVuSans-30" transform="translate(63.623047 0)"/>
      </g>
     </g>
    </g>
    <g id="text_28">
     <!-- Time (s) -->
     <g transform="translate(360.342422 557.956719) scale(0.09 -0.09)">
      <defs>
       <path id="DejaVuSans-54" d="M -19 4666 
L 3928 4666 
L 3928 4134 
L 2272 4134 
L 2272 0 
L 1638 0 
L 1638 4134 
L -19 4134 
L -19 4666 
z
" transform="scale(0.015625)"/>
       <path id="DejaVuSans-69" d="M 603 3500 
L 1178 3500 
L 1178 0 
L 603 0 
L 603 3500 
z
M 603 4863 
L 1178 4863 
L 1178 4134 
L 603 4134 
L 603 4863 
z
" transform="scale(0.015625)"/>
       <path id="DejaVuSans-73" d="M 2834 3397 
L 2834 2853 
Q 2591 2978 2328 3040 
Q 2066 3103 1784 3103 
Q 1356 3103 1142 2972 
Q 928 2841 928 2578 
Q 928 2378 1081 2264 
Q 1234 2150 1697 2047 
L 1894 2003 
Q 2506 1872 2764 1633 
Q 3022 1394 3022 966 
Q 3022 478 2636 193 
Q 2250 -91 1575 -91 
Q 1294 -91 989 -36 
Q 684 19 347 128 
L 347 722 
Q 666 556 975 473 
Q 1284 391 1588 391 
Q 1994 391 2212 530 
Q 2431 669 2431 922 
Q 2431 1156 2273 1281 
Q 2116 1406 1581 1522 
L 1381 1569 
Q 847 1681 609 1914 
Q 372 2147 372 2553 
Q 372 3047 722 3315 
Q 1072 3584 1716 3584 
Q 2034 3584 2315 3537 
Q 2597 3491 2834 3397 
z
" transform="scale(0.015625)"/>
      </defs>
      <use xlink:href="#DejaVuSans-54"/>
      <use xlink:href="#DejaVuSans-69" transform="translate(57.958984 0)"/>
      <use xlink:href="#DejaVuSans-6d" transform="translate(85.742188 0)"/>
      <use xlink:href="#DejaVuSans-65" transform="translate(183.154297 0)"/>
      <use xlink:href="#DejaVuSans-20" transform="translate(244.677734 0)"/>
      <use xlink:href="#DejaVuSans-28" transform="translate(276.464844 0)"/>
      <use xlink:href="#DejaVuSans-73" transform="translate(315.478516 0)"/>
      <use xlink:href="#DejaVuSans-29" transform="translate(367.578125 0)"/>
     </g>
    </g>
   </g>
   <g id="matplotlib.axis_6">
    <g id="ytick_12">
     <g id="line2d_82">
      <path d="M 42.813437 523.294545 
L 714.463438 523.294545 
" clip-path="url(#p47b1b09d93)" style="fill: none; stroke: #b0b0b0; stroke-opacity: 0.3; stroke-width: 0.8; stroke-linecap: square"/>
     </g>
     <g id="line2d_83">
      <g>
       <use xlink:href="#m173d80d222" x="42.813437" y="523.294545" style="stroke: #000000; stroke-width: 0.8"/>
      </g>
     </g>
     <g id="text_29">
      <!-- 0 -->
      <g transform="translate(29.450937 527.093764) scale(0.1 -0.1)">
       <use xlink:href="#DejaVuSans-30"/>
      </g>
     </g>
    </g>
    <g id="ytick_13">
     <g id="line2d_84">
      <path d="M 42.813437 494.712727 
L 714.463438 494.712727 
" clip-path="url(#p47b1b09d93)" style="fill: none; stroke: #b0b0b0; stroke-opacity: 0.3; stroke-width: 0.8; stroke-linecap: square"/>
     </g>
     <g id="line2d_85">
      <g>
       <use xlink:href="#m173d80d222" x="42.813437" y="494.712727" style="stroke: #000000; stroke-width: 0.8"/>
      </g>
     </g>
     <g id="text_30">
      <!-- 1 -->
      <g transform="translate(29.450937 498.511946) scale(0.1 -0.1)">
       <use xlink:href="#DejaVuSans-31"/>
      </g>
     </g>
    </g>
    <g id="ytick_14">
     <g id="line2d_86">
      <path d="M 42.813437 466.130909 
L 714.463438 466.130909 
" clip-path="url(#p47b1b09d93)" style="fill: none; stroke: #b0b0b0; stroke-opacity: 0.3; stroke-width: 0.8; stroke-linecap: square"/>
     </g>
     <g id="line2d_87">
      <g>
       <use xlink:href="#m173d80d222" x="42.813437" y="466.130909" style="stroke: #000000; stroke-width: 0.8"/>
      </g>
     </g>
     <g id="text_31">
      <!-- 2 -->
      <g transform="translate(29.450937 469.930128) scale(0.1 -0.1)">
       <use xlink:href="#DejaVuSans-32"/>
      </g>
     </g>
    </g>
    <g id="ytick_15">
     <g id="line2d_88">
      <path d="M 42.813437 437.549091 
L 714.463438 437.549091 
" clip-path="url(#p47b1b09d93)" style="fill: none; stroke: #b0b0b0; stroke-opacity: 0.3; stroke-width: 0.8; stroke-linecap: square"/>
     </g>
     <g id="line2d_89">
      <g>
       <use xlink:href="#m173d80d222" x="42.813437" y="437.549091" style="stroke: #000000; stroke-width: 0.8"/>
      </g>
     </g>
     <g id="text_32">
      <!-- 3 -->
      <g transform="translate(29.450937 441.34831) scale(0.1 -0.1)">
       <use xlink:href="#DejaVuSans-33"/>
      </g>
     </g>
    </g>
    <g id="ytick_16">
     <g id="line2d_90">
      <path d="M 42.813437 408.967273 
L 714.463438 408.967273 
" clip-path="url(#p47b1b09d93)" style="fill: none; stroke: #b0b0b0; stroke-opacity: 0.3; stroke-width: 0.8; stroke-linecap: square"/>
     </g>
     <g id="line2d_91">
      <g>
       <use xlink:href="#m173d80d222" x="42.813437" y="408.967273" style="stroke: #000000; stroke-width: 0.8"/>
      </g>
     </g>
     <g id="text_33">
      <!-- 4 -->
      <g transform="translate(29.450937 412.766491) scale(0.1 -0.1)">
       <use xlink:href="#DejaVuSans-34"/>
      </g>
     </g>
    </g>
    <g id="ytick_17">
     <g id="line2d_92">
      <path d="M 42.813437 380.385455 
L 714.463438 380.385455 
" clip-path="url(#p47b1b09d93)" style="fill: none; stroke: #b0b0b0; stroke-opacity: 0.3; stroke-width: 0.8; stroke-linecap: square"/>
     </g>
     <g id="line2d_93">
      <g>
       <use xlink:href="#m173d80d222" x="42.813437" y="380.385455" style="stroke: #000000; stroke-width: 0.8"/>
      </g>
     </g>
     <g id="text_34">
      <!-- 5 -->
      <g transform="translate(29.450937 384.184673) scale(0.1 -0.1)">
       <use xlink:href="#DejaVuSans-35"/>
      </g>
     </g>
    </g>
    <g id="text_35">
     <!-- Z (m) -->
     <g transform="translate(23.579219 464.247344) rotate(-90) scale(0.09 -0.09)">
      <defs>
       <path id="DejaVuSans-5a" d="M 359 4666 
L 4025 4666 
L 4025 4184 
L 1075 531 
L 4097 531 
L 4097 0 
L 288 0 
L 288 481 
L 3238 4134 
L 359 4134 
L 359 4666 
z
" transform="scale(0.015625)"/>
      </defs>
      <use xlink:href="#DejaVuSans-5a"/>
      <use xlink:href="#DejaVuSans-20" transform="translate(68.505859 0)"/>
      <use xlink:href="#DejaVuSans-28" transform="translate(100.292969 0)"/>
      <use xlink:href="#DejaVuSans-6d" transform="translate(139.306641 0)"/>
      <use xlink:href="#DejaVuSans-29" transform="translate(236.71875 0)"/>
     </g>
    </g>
   </g>
   <g id="line2d_94">
    <path d="M 73.342983 523.294545 
L 74.40382 523.189422 
L 75.54258 522.836122 
L 76.763922 522.204063 
L 78.066687 521.268323 
L 79.532318 519.927493 
L 81.160774 518.124352 
L 83.033621 515.703272 
L 85.231915 512.474241 
L 87.837588 508.232642 
L 91.257224 502.209195 
L 97.852432 490.015277 
L 103.308045 480.15615 
L 107.216076 473.536058 
L 110.717237 468.031343 
L 113.97417 463.320116 
L 117.068237 459.231973 
L 119.999458 455.71438 
L 122.93068 452.541169 
L 125.78058 449.778879 
L 128.631763 447.322472 
L 131.887434 444.831024 
L 136.365465 441.628059 
L 139.296666 439.797994 
L 141.98368 438.381879 
L 144.58919 437.262815 
L 147.276082 436.356486 
L 150.125942 435.63388 
L 153.301391 435.060901 
L 157.04684 434.617883 
L 161.60664 434.311886 
L 167.143249 434.17335 
L 173.331404 434.244833 
L 180.252364 434.552916 
L 181.719562 434.532709 
L 183.021309 434.258066 
L 184.405803 433.727816 
L 185.952042 432.886425 
L 187.663326 431.700422 
L 189.69737 430.014152 
L 192.140156 427.693251 
L 195.315605 424.354237 
L 200.038068 419.033389 
L 211.274416 406.283326 
L 215.671248 401.678738 
L 219.498141 397.981679 
L 222.999383 394.89833 
L 226.337678 392.248167 
L 229.594571 389.944558 
L 232.77004 387.96561 
L 234.969393 386.800672 
L 236.108539 386.460634 
L 237.249333 386.35108 
L 238.30728 386.461635 
L 239.446711 386.81502 
L 240.586671 387.415667 
L 241.807973 388.333772 
L 243.110942 389.621012 
L 244.494926 391.322144 
L 246.04202 393.602802 
L 247.751859 396.540327 
L 249.706007 400.352227 
L 252.067268 405.461627 
L 255.242758 412.900131 
L 267.049046 441.049306 
L 270.550268 448.576757 
L 273.807507 455.071718 
L 276.901207 460.765787 
L 279.913892 465.860239 
L 282.845093 470.391515 
L 285.694892 474.399715 
L 288.544731 478.023947 
L 291.313046 481.186439 
L 293.999999 483.92975 
L 296.686952 486.36455 
L 299.376531 488.507557 
L 302.061285 490.36972 
L 304.829905 492.019234 
L 307.597609 493.414084 
L 310.528831 494.638386 
L 313.542106 495.65284 
L 316.717148 496.4846 
L 320.136723 497.144325 
L 323.80077 497.621299 
L 327.871932 497.923037 
L 332.513012 498.038365 
L 338.050293 497.945445 
L 345.296394 497.586858 
L 358.975428 496.635598 
L 373.550092 495.711862 
L 385.682112 495.175667 
L 398.384051 494.839688 
L 414.261521 494.655249 
L 438.281231 494.624924 
L 580.1198 494.713042 
L 683.933892 494.712727 
L 683.933892 494.712727 
" clip-path="url(#p47b1b09d93)" style="fill: none; stroke: #3498db; stroke-width: 1.8; stroke-linecap: square"/>
   </g>
   <g id="line2d_95">
    <path d="M 73.342983 437.549091 
L 180.41523 437.549091 
L 180.578055 380.385455 
L 233.992644 380.385455 
L 234.155103 494.712727 
L 683.933892 494.712727 
L 683.933892 494.712727 
" clip-path="url(#p47b1b09d93)" style="fill: none; stroke-dasharray: 4.44,1.92; stroke-dashoffset: 0; stroke: #95a5a6; stroke-width: 1.2"/>
   </g>
   <g id="line2d_96">
    <path d="M 130.177392 530.44 
L 130.177392 373.24 
" clip-path="url(#p47b1b09d93)" style="fill: none; stroke-dasharray: 1,1.65; stroke-dashoffset: 0; stroke: #e67e22; stroke-opacity: 0.8"/>
   </g>
   <g id="line2d_97">
    <path d="M 180.496652 530.44 
L 180.496652 373.24 
" clip-path="url(#p47b1b09d93)" style="fill: none; stroke-dasharray: 1,1.65; stroke-dashoffset: 0; stroke: #2ecc71; stroke-opacity: 0.8"/>
   </g>
   <g id="line2d_98">
    <path d="M 234.073864 530.44 
L 234.073864 373.24 
" clip-path="url(#p47b1b09d93)" style="fill: none; stroke-dasharray: 1,1.65; stroke-dashoffset: 0; stroke: #9b59b6; stroke-opacity: 0.8"/>
   </g>
   <g id="patch_11">
    <path d="M 42.813437 530.44 
L 42.813437 373.24 
" style="fill: none; stroke: #000000; stroke-width: 0.8; stroke-linejoin: miter; stroke-linecap: square"/>
   </g>
   <g id="patch_12">
    <path d="M 42.813437 530.44 
L 714.463438 530.44 
" style="fill: none; stroke: #000000; stroke-width: 0.8; stroke-linejoin: miter; stroke-linecap: square"/>
   </g>
   <g id="legend_3">
    <g id="patch_13">
     <path d="M 650.608438 403.125 
L 708.863438 403.125 
Q 710.463438 403.125 710.463438 401.525 
L 710.463438 378.84 
Q 710.463438 377.24 708.863438 377.24 
L 650.608438 377.24 
Q 649.008438 377.24 649.008438 378.84 
L 649.008438 401.525 
Q 649.008438 403.125 650.608438 403.125 
z
" style="fill: #ffffff; opacity: 0.8; stroke: #cccccc; stroke-linejoin: miter"/>
    </g>
    <g id="line2d_99">
     <path d="M 652.208438 383.71875 
L 660.208438 383.71875 
L 668.208438 383.71875 
" style="fill: none; stroke: #3498db; stroke-width: 1.8; stroke-linecap: square"/>
    </g>
    <g id="text_36">
     <!-- Z actual -->
     <g transform="translate(674.608438 386.51875) scale(0.08 -0.08)">
      <use xlink:href="#DejaVuSans-5a"/>
      <use xlink:href="#DejaVuSans-20" transform="translate(68.505859 0)"/>
      <use xlink:href="#DejaVuSans-61" transform="translate(100.292969 0)"/>
      <use xlink:href="#DejaVuSans-63" transform="translate(161.572266 0)"/>
      <use xlink:href="#DejaVuSans-74" transform="translate(216.552734 0)"/>
      <use xlink:href="#DejaVuSans-75" transform="translate(255.761719 0)"/>
      <use xlink:href="#DejaVuSans-61" transform="translate(319.140625 0)"/>
      <use xlink:href="#DejaVuSans-6c" transform="translate(380.419922 0)"/>
     </g>
    </g>
    <g id="line2d_100">
     <path d="M 652.208438 395.46125 
L 660.208438 395.46125 
L 668.208438 395.46125 
" style="fill: none; stroke-dasharray: 4.44,1.92; stroke-dashoffset: 0; stroke: #95a5a6; stroke-width: 1.2"/>
    </g>
    <g id="text_37">
     <!-- Z ref -->
     <g transform="translate(674.608438 398.26125) scale(0.08 -0.08)">
      <use xlink:href="#DejaVuSans-5a"/>
      <use xlink:href="#DejaVuSans-20" transform="translate(68.505859 0)"/>
      <use xlink:href="#DejaVuSans-72" transform="translate(100.292969 0)"/>
      <use xlink:href="#DejaVuSans-65" transform="translate(139.15625 0)"/>
      <use xlink:href="#DejaVuSans-66" transform="translate(200.679688 0)"/>
     </g>
    </g>
   </g>
  </g>
  <g id="text_38">
   <!-- Kernel: preempt_rt | Policy: other_n0 | Load: idle — Position Response -->
   <g transform="translate(128.530625 16.370625) scale(0.12 -0.12)">
    <defs>
     <path id="DejaVuSans-Bold-4b" d="M 588 4666 
L 1791 4666 
L 1791 2963 
L 3525 4666 
L 4922 4666 
L 2675 2456 
L 5153 0 
L 3647 0 
L 1791 1838 
L 1791 0 
L 588 0 
L 588 4666 
z
" transform="scale(0.015625)"/>
     <path id="DejaVuSans-Bold-65" d="M 4031 1759 
L 4031 1441 
L 1416 1441 
Q 1456 1047 1700 850 
Q 1944 653 2381 653 
Q 2734 653 3104 758 
Q 3475 863 3866 1075 
L 3866 213 
Q 3469 63 3072 -14 
Q 2675 -91 2278 -91 
Q 1328 -91 801 392 
Q 275 875 275 1747 
Q 275 2603 792 3093 
Q 1309 3584 2216 3584 
Q 3041 3584 3536 3087 
Q 4031 2591 4031 1759 
z
M 2881 2131 
Q 2881 2450 2695 2645 
Q 2509 2841 2209 2841 
Q 1884 2841 1681 2658 
Q 1478 2475 1428 2131 
L 2881 2131 
z
" transform="scale(0.015625)"/>
     <path id="DejaVuSans-Bold-72" d="M 3138 2547 
Q 2991 2616 2845 2648 
Q 2700 2681 2553 2681 
Q 2122 2681 1889 2404 
Q 1656 2128 1656 1613 
L 1656 0 
L 538 0 
L 538 3500 
L 1656 3500 
L 1656 2925 
Q 1872 3269 2151 3426 
Q 2431 3584 2822 3584 
Q 2878 3584 2943 3579 
Q 3009 3575 3134 3559 
L 3138 2547 
z
" transform="scale(0.015625)"/>
     <path id="DejaVuSans-Bold-6e" d="M 4056 2131 
L 4056 0 
L 2931 0 
L 2931 347 
L 2931 1631 
Q 2931 2084 2911 2256 
Q 2891 2428 2841 2509 
Q 2775 2619 2662 2680 
Q 2550 2741 2406 2741 
Q 2056 2741 1856 2470 
Q 1656 2200 1656 1722 
L 1656 0 
L 538 0 
L 538 3500 
L 1656 3500 
L 1656 2988 
Q 1909 3294 2193 3439 
Q 2478 3584 2822 3584 
Q 3428 3584 3742 3212 
Q 4056 2841 4056 2131 
z
" transform="scale(0.015625)"/>
     <path id="DejaVuSans-Bold-6c" d="M 538 4863 
L 1656 4863 
L 1656 0 
L 538 0 
L 538 4863 
z
" transform="scale(0.015625)"/>
     <path id="DejaVuSans-Bold-3a" d="M 716 3500 
L 1844 3500 
L 1844 2291 
L 716 2291 
L 716 3500 
z
M 716 1209 
L 1844 1209 
L 1844 0 
L 716 0 
L 716 1209 
z
" transform="scale(0.015625)"/>
     <path id="DejaVuSans-Bold-20" transform="scale(0.015625)"/>
     <path id="DejaVuSans-Bold-70" d="M 1656 506 
L 1656 -1331 
L 538 -1331 
L 538 3500 
L 1656 3500 
L 1656 2988 
Q 1888 3294 2169 3439 
Q 2450 3584 2816 3584 
Q 3463 3584 3878 3070 
Q 4294 2556 4294 1747 
Q 4294 938 3878 423 
Q 3463 -91 2816 -91 
Q 2450 -91 2169 54 
Q 1888 200 1656 506 
z
M 2400 2772 
Q 2041 2772 1848 2508 
Q 1656 2244 1656 1747 
Q 1656 1250 1848 986 
Q 2041 722 2400 722 
Q 2759 722 2948 984 
Q 3138 1247 3138 1747 
Q 3138 2247 2948 2509 
Q 2759 2772 2400 2772 
z
" transform="scale(0.015625)"/>
     <path id="DejaVuSans-Bold-6d" d="M 3781 2919 
Q 3994 3244 4286 3414 
Q 4578 3584 4928 3584 
Q 5531 3584 5847 3212 
Q 6163 2841 6163 2131 
L 6163 0 
L 5038 0 
L 5038 1825 
Q 5041 1866 5042 1909 
Q 5044 1953 5044 2034 
Q 5044 2406 4934 2573 
Q 4825 2741 4581 2741 
Q 4263 2741 4089 2478 
Q 3916 2216 3909 1719 
L 3909 0 
L 2784 0 
L 2784 1825 
Q 2784 2406 2684 2573 
Q 2584 2741 2328 2741 
Q 2006 2741 1831 2477 
Q 1656 2213 1656 1722 
L 1656 0 
L 531 0 
L 531 3500 
L 1656 3500 
L 1656 2988 
Q 1863 3284 2130 3434 
Q 2397 3584 2719 3584 
Q 3081 3584 3359 3409 
Q 3638 3234 3781 2919 
z
" transform="scale(0.015625)"/>
     <path id="DejaVuSans-Bold-74" d="M 1759 4494 
L 1759 3500 
L 2913 3500 
L 2913 2700 
L 1759 2700 
L 1759 1216 
Q 1759 972 1856 886 
Q 1953 800 2241 800 
L 2816 800 
L 2816 0 
L 1856 0 
Q 1194 0 917 276 
Q 641 553 641 1216 
L 641 2700 
L 84 2700 
L 84 3500 
L 641 3500 
L 641 4494 
L 1759 4494 
z
" transform="scale(0.015625)"/>
     <path id="DejaVuSans-Bold-5f" d="M 3200 -916 
L 3200 -1509 
L 0 -1509 
L 0 -916 
L 3200 -916 
z
" transform="scale(0.015625)"/>
     <path id="DejaVuSans-Bold-7c" d="M 1522 4891 
L 1522 -1509 
L 813 -1509 
L 813 4891 
L 1522 4891 
z
" transform="scale(0.015625)"/>
     <path id="DejaVuSans-Bold-50" d="M 588 4666 
L 2584 4666 
Q 3475 4666 3951 4270 
Q 4428 3875 4428 3144 
Q 4428 2409 3951 2014 
Q 3475 1619 2584 1619 
L 1791 1619 
L 1791 0 
L 588 0 
L 588 4666 
z
M 1791 3794 
L 1791 2491 
L 2456 2491 
Q 2806 2491 2997 2661 
Q 3188 2831 3188 3144 
Q 3188 3456 2997 3625 
Q 2806 3794 2456 3794 
L 1791 3794 
z
" transform="scale(0.015625)"/>
     <path id="DejaVuSans-Bold-6f" d="M 2203 2784 
Q 1831 2784 1636 2517 
Q 1441 2250 1441 1747 
Q 1441 1244 1636 976 
Q 1831 709 2203 709 
Q 2569 709 2762 976 
Q 2956 1244 2956 1747 
Q 2956 2250 2762 2517 
Q 2569 2784 2203 2784 
z
M 2203 3584 
Q 3106 3584 3614 3096 
Q 4122 2609 4122 1747 
Q 4122 884 3614 396 
Q 3106 -91 2203 -91 
Q 1297 -91 786 396 
Q 275 884 275 1747 
Q 275 2609 786 3096 
Q 1297 3584 2203 3584 
z
" transform="scale(0.015625)"/>
     <path id="DejaVuSans-Bold-69" d="M 538 3500 
L 1656 3500 
L 1656 0 
L 538 0 
L 538 3500 
z
M 538 4863 
L 1656 4863 
L 1656 3950 
L 538 3950 
L 538 4863 
z
" transform="scale(0.015625)"/>
     <path id="DejaVuSans-Bold-63" d="M 3366 3391 
L 3366 2478 
Q 3138 2634 2908 2709 
Q 2678 2784 2431 2784 
Q 1963 2784 1702 2511 
Q 1441 2238 1441 1747 
Q 1441 1256 1702 982 
Q 1963 709 2431 709 
Q 2694 709 2930 787 
Q 3166 866 3366 1019 
L 3366 103 
Q 3103 6 2833 -42 
Q 2563 -91 2291 -91 
Q 1344 -91 809 395 
Q 275 881 275 1747 
Q 275 2613 809 3098 
Q 1344 3584 2291 3584 
Q 2566 3584 2833 3536 
Q 3100 3488 3366 3391 
z
" transform="scale(0.015625)"/>
     <path id="DejaVuSans-Bold-79" d="M 78 3500 
L 1197 3500 
L 2138 1125 
L 2938 3500 
L 4056 3500 
L 2584 -331 
Q 2363 -916 2067 -1148 
Q 1772 -1381 1288 -1381 
L 641 -1381 
L 641 -647 
L 991 -647 
Q 1275 -647 1404 -556 
Q 1534 -466 1606 -231 
L 1638 -134 
L 78 3500 
z
" transform="scale(0.015625)"/>
     <path id="DejaVuSans-Bold-68" d="M 4056 2131 
L 4056 0 
L 2931 0 
L 2931 347 
L 2931 1625 
Q 2931 2084 2911 2256 
Q 2891 2428 2841 2509 
Q 2775 2619 2662 2680 
Q 2550 2741 2406 2741 
Q 2056 2741 1856 2470 
Q 1656 2200 1656 1722 
L 1656 0 
L 538 0 
L 538 4863 
L 1656 4863 
L 1656 2988 
Q 1909 3294 2193 3439 
Q 2478 3584 2822 3584 
Q 3428 3584 3742 3212 
Q 4056 2841 4056 2131 
z
" transform="scale(0.015625)"/>
     <path id="DejaVuSans-Bold-30" d="M 2944 2338 
Q 2944 3213 2780 3570 
Q 2616 3928 2228 3928 
Q 1841 3928 1675 3570 
Q 1509 3213 1509 2338 
Q 1509 1453 1675 1090 
Q 1841 728 2228 728 
Q 2613 728 2778 1090 
Q 2944 1453 2944 2338 
z
M 4147 2328 
Q 4147 1169 3647 539 
Q 3147 -91 2228 -91 
Q 1306 -91 806 539 
Q 306 1169 306 2328 
Q 306 3491 806 4120 
Q 1306 4750 2228 4750 
Q 3147 4750 3647 4120 
Q 4147 3491 4147 2328 
z
" transform="scale(0.015625)"/>
     <path id="DejaVuSans-Bold-4c" d="M 588 4666 
L 1791 4666 
L 1791 909 
L 3903 909 
L 3903 0 
L 588 0 
L 588 4666 
z
" transform="scale(0.015625)"/>
     <path id="DejaVuSans-Bold-61" d="M 2106 1575 
Q 1756 1575 1579 1456 
Q 1403 1338 1403 1106 
Q 1403 894 1545 773 
Q 1688 653 1941 653 
Q 2256 653 2472 879 
Q 2688 1106 2688 1447 
L 2688 1575 
L 2106 1575 
z
M 3816 1997 
L 3816 0 
L 2688 0 
L 2688 519 
Q 2463 200 2181 54 
Q 1900 -91 1497 -91 
Q 953 -91 614 226 
Q 275 544 275 1050 
Q 275 1666 698 1953 
Q 1122 2241 2028 2241 
L 2688 2241 
L 2688 2328 
Q 2688 2594 2478 2717 
Q 2269 2841 1825 2841 
Q 1466 2841 1156 2769 
Q 847 2697 581 2553 
L 581 3406 
Q 941 3494 1303 3539 
Q 1666 3584 2028 3584 
Q 2975 3584 3395 3211 
Q 3816 2838 3816 1997 
z
" transform="scale(0.015625)"/>
     <path id="DejaVuSans-Bold-64" d="M 2919 2988 
L 2919 4863 
L 4044 4863 
L 4044 0 
L 2919 0 
L 2919 506 
Q 2688 197 2409 53 
Q 2131 -91 1766 -91 
Q 1119 -91 703 423 
Q 288 938 288 1747 
Q 288 2556 703 3070 
Q 1119 3584 1766 3584 
Q 2128 3584 2408 3439 
Q 2688 3294 2919 2988 
z
M 2181 722 
Q 2541 722 2730 984 
Q 2919 1247 2919 1747 
Q 2919 2247 2730 2509 
Q 2541 2772 2181 2772 
Q 1825 2772 1636 2509 
Q 1447 2247 1447 1747 
Q 1447 1247 1636 984 
Q 1825 722 2181 722 
z
" transform="scale(0.015625)"/>
     <path id="DejaVuSans-Bold-2014" d="M 344 2156 
L 6056 2156 
L 6056 1350 
L 344 1350 
L 344 2156 
z
" transform="scale(0.015625)"/>
     <path id="DejaVuSans-Bold-73" d="M 3272 3391 
L 3272 2541 
Q 2913 2691 2578 2766 
Q 2244 2841 1947 2841 
Q 1628 2841 1473 2761 
Q 1319 2681 1319 2516 
Q 1319 2381 1436 2309 
Q 1553 2238 1856 2203 
L 2053 2175 
Q 2913 2066 3209 1816 
Q 3506 1566 3506 1031 
Q 3506 472 3093 190 
Q 2681 -91 1863 -91 
Q 1516 -91 1145 -36 
Q 775 19 384 128 
L 384 978 
Q 719 816 1070 734 
Q 1422 653 1784 653 
Q 2113 653 2278 743 
Q 2444 834 2444 1013 
Q 2444 1163 2330 1236 
Q 2216 1309 1875 1350 
L 1678 1375 
Q 931 1469 631 1722 
Q 331 1975 331 2491 
Q 331 3047 712 3315 
Q 1094 3584 1881 3584 
Q 2191 3584 2531 3537 
Q 2872 3491 3272 3391 
z
" transform="scale(0.015625)"/>
     <path id="DejaVuSans-Bold-52" d="M 2297 2597 
Q 2675 2597 2839 2737 
Q 3003 2878 3003 3200 
Q 3003 3519 2839 3656 
Q 2675 3794 2297 3794 
L 1791 3794 
L 1791 2597 
L 2297 2597 
z
M 1791 1766 
L 1791 0 
L 588 0 
L 588 4666 
L 2425 4666 
Q 3347 4666 3776 4356 
Q 4206 4047 4206 3378 
Q 4206 2916 3982 2619 
Q 3759 2322 3309 2181 
Q 3556 2125 3751 1926 
Q 3947 1728 4147 1325 
L 4800 0 
L 3519 0 
L 2950 1159 
Q 2778 1509 2601 1637 
Q 2425 1766 2131 1766 
L 1791 1766 
z
" transform="scale(0.015625)"/>
    </defs>
    <use xlink:href="#DejaVuSans-Bold-4b"/>
    <use xlink:href="#DejaVuSans-Bold-65" transform="translate(75.740234 0)"/>
    <use xlink:href="#DejaVuSans-Bold-72" transform="translate(143.5625 0)"/>
    <use xlink:href="#DejaVuSans-Bold-6e" transform="translate(192.878906 0)"/>
    <use xlink:href="#DejaVuSans-Bold-65" transform="translate(264.070312 0)"/>
    <use xlink:href="#DejaVuSans-Bold-6c" transform="translate(331.892578 0)"/>
    <use xlink:href="#DejaVuSans-Bold-3a" transform="translate(366.169922 0)"/>
    <use xlink:href="#DejaVuSans-Bold-20" transform="translate(406.160156 0)"/>
    <use xlink:href="#DejaVuSans-Bold-70" transform="translate(440.974609 0)"/>
    <use xlink:href="#DejaVuSans-Bold-72" transform="translate(512.556641 0)"/>
    <use xlink:href="#DejaVuSans-Bold-65" transform="translate(561.873047 0)"/>
    <use xlink:href="#DejaVuSans-Bold-65" transform="translate(629.695312 0)"/>
    <use xlink:href="#DejaVuSans-Bold-6d" transform="translate(697.517578 0)"/>
    <use xlink:href="#DejaVuSans-Bold-70" transform="translate(801.716797 0)"/>
    <use xlink:href="#DejaVuSans-Bold-74" transform="translate(873.298828 0)"/>
    <use xlink:href="#DejaVuSans-Bold-5f" transform="translate(921.101562 0)"/>
    <use xlink:href="#DejaVuSans-Bold-72" transform="translate(971.101562 0)"/>
    <use xlink:href="#DejaVuSans-Bold-74" transform="translate(1020.417969 0)"/>
    <use xlink:href="#DejaVuSans-Bold-20" transform="translate(1068.220703 0)"/>
    <use xlink:href="#DejaVuSans-Bold-7c" transform="translate(1103.035156 0)"/>
    <use xlink:href="#DejaVuSans-Bold-20" transform="translate(1139.558594 0)"/>
    <use xlink:href="#DejaVuSans-Bold-50" transform="translate(1174.373047 0)"/>
    <use xlink:href="#DejaVuSans-Bold-6f" transform="translate(1247.664062 0)"/>
    <use xlink:href="#DejaVuSans-Bold-6c" transform="translate(1316.365234 0)"/>
    <use xlink:href="#DejaVuSans-Bold-69" transform="translate(1350.642578 0)"/>
    <use xlink:href="#DejaVuSans-Bold-63" transform="translate(1384.919922 0)"/>
    <use xlink:href="#DejaVuSans-Bold-79" transform="translate(1444.197266 0)"/>
    <use xlink:href="#DejaVuSans-Bold-3a" transform="translate(1509.382812 0)"/>
    <use xlink:href="#DejaVuSans-Bold-20" transform="translate(1549.373047 0)"/>
    <use xlink:href="#DejaVuSans-Bold-6f" transform="translate(1584.1875 0)"/>
    <use xlink:href="#DejaVuSans-Bold-74" transform="translate(1652.888672 0)"/>
    <use xlink:href="#DejaVuSans-Bold-68" transform="translate(1700.691406 0)"/>
    <use xlink:href="#DejaVuSans-Bold-65" transform="translate(1771.882812 0)"/>
    <use xlink:href="#DejaVuSans-Bold-72" transform="translate(1839.705078 0)"/>
    <use xlink:href="#DejaVuSans-Bold-5f" transform="translate(1889.021484 0)"/>
    <use xlink:href="#DejaVuSans-Bold-6e" transform="translate(1939.021484 0)"/>
    <use xlink:href="#DejaVuSans-Bold-30" transform="translate(2010.212891 0)"/>
    <use xlink:href="#DejaVuSans-Bold-20" transform="translate(2079.792969 0)"/>
    <use xlink:href="#DejaVuSans-Bold-7c" transform="translate(2114.607422 0)"/>
    <use xlink:href="#DejaVuSans-Bold-20" transform="translate(2151.130859 0)"/>
    <use xlink:href="#DejaVuSans-Bold-4c" transform="translate(2185.945312 0)"/>
    <use xlink:href="#DejaVuSans-Bold-6f" transform="translate(2249.666016 0)"/>
    <use xlink:href="#DejaVuSans-Bold-61" transform="translate(2318.367188 0)"/>
    <use xlink:href="#DejaVuSans-Bold-64" transform="translate(2385.847656 0)"/>
    <use xlink:href="#DejaVuSans-Bold-3a" transform="translate(2457.429688 0)"/>
    <use xlink:href="#DejaVuSans-Bold-20" transform="translate(2497.419922 0)"/>
    <use xlink:href="#DejaVuSans-Bold-69" transform="translate(2532.234375 0)"/>
    <use xlink:href="#DejaVuSans-Bold-64" transform="translate(2566.511719 0)"/>
    <use xlink:href="#DejaVuSans-Bold-6c" transform="translate(2638.09375 0)"/>
    <use xlink:href="#DejaVuSans-Bold-65" transform="translate(2672.371094 0)"/>
    <use xlink:href="#DejaVuSans-Bold-20" transform="translate(2740.193359 0)"/>
    <use xlink:href="#DejaVuSans-Bold-2014" transform="translate(2775.007812 0)"/>
    <use xlink:href="#DejaVuSans-Bold-20" transform="translate(2875.007812 0)"/>
    <use xlink:href="#DejaVuSans-Bold-50" transform="translate(2909.822266 0)"/>
    <use xlink:href="#DejaVuSans-Bold-6f" transform="translate(2983.113281 0)"/>
    <use xlink:href="#DejaVuSans-Bold-73" transform="translate(3051.814453 0)"/>
    <use xlink:href="#DejaVuSans-Bold-69" transform="translate(3111.335938 0)"/>
    <use xlink:href="#DejaVuSans-Bold-74" transform="translate(3145.613281 0)"/>
    <use xlink:href="#DejaVuSans-Bold-69" transform="translate(3193.416016 0)"/>
    <use xlink:href="#DejaVuSans-Bold-6f" transform="translate(3227.693359 0)"/>
    <use xlink:href="#DejaVuSans-Bold-6e" transform="translate(3296.394531 0)"/>
    <use xlink:href="#DejaVuSans-Bold-20" transform="translate(3367.585938 0)"/>
    <use xlink:href="#DejaVuSans-Bold-52" transform="translate(3402.400391 0)"/>
    <use xlink:href="#DejaVuSans-Bold-65" transform="translate(3479.402344 0)"/>
    <use xlink:href="#DejaVuSans-Bold-73" transform="translate(3547.224609 0)"/>
    <use xlink:href="#DejaVuSans-Bold-70" transform="translate(3606.746094 0)"/>
    <use xlink:href="#DejaVuSans-Bold-6f" transform="translate(3678.328125 0)"/>
    <use xlink:href="#DejaVuSans-Bold-6e" transform="translate(3747.029297 0)"/>
    <use xlink:href="#DejaVuSans-Bold-73" transform="translate(3818.220703 0)"/>
    <use xlink:href="#DejaVuSans-Bold-65" transform="translate(3877.742188 0)"/>
   </g>
  </g>
 </g>
 <defs>
  <clipPath id="p92ed8c5cf1">
   <rect x="42.813437" y="30.24" width="671.65" height="157.2"/>
  </clipPath>
  <clipPath id="pff0a0d6bd3">
   <rect x="42.813437" y="201.74" width="671.65" height="157.2"/>
  </clipPath>
  <clipPath id="p47b1b09d93">
   <rect x="42.813437" y="373.24" width="671.65" height="157.2"/>
  </clipPath>
 </defs>
</svg>
