<?xml version="1.0" encoding="utf-8" standalone="no"?>
<!DOCTYPE svg PUBLIC "-//W3C//DTD SVG 1.1//EN"
  "http://www.w3.org/Graphics/SVG/1.1/DTD/svg11.dtd">
<svg xmlns:xlink="http://www.w3.org/1999/xlink" width="712.195pt" height="567.028437pt" viewBox="0 0 712.195 567.028437" xmlns="http://www.w3.org/2000/svg" version="1.1">
 <metadata>
  <rdf:RDF xmlns:dc="http://purl.org/dc/elements/1.1/" xmlns:cc="http://creativecommons.org/ns#" xmlns:rdf="http://www.w3.org/1999/02/22-rdf-syntax-ns#">
   <cc:Work>
    <dc:type rdf:resource="http://purl.org/dc/dcmitype/StillImage"/>
    <dc:date>2026-04-27T20:53:51.402240</dc:date>
    <dc:format>image/svg+xml</dc:format>
    <dc:creator>
     <cc:Agent>
      <dc:title>Matplotlib v3.10.9, https://matplotlib.org/</dc:title>
     </cc:Agent>
    </dc:creator>
   </cc:Work>
  </rdf:RDF>
 </metadata>
 <defs>
  <style type="text/css">*{stroke-linejoin: round; stroke-linecap: butt}</style>
 </defs>
 <g id="figure_1">
  <g id="patch_1">
   <path d="M 0 567.028437 
L 712.195 567.028437 
L 712.195 0 
L 0 0 
z
" style="fill: #ffffff"/>
  </g>
  <g id="axes_1">
   <g id="patch_2">
    <path d="M 48.015 187.44 
L 704.995 187.44 
L 704.995 30.24 
L 48.015 30.24 
z
" style="fill: #ffffff"/>
   </g>
   <g id="matplotlib.axis_1">
    <g id="xtick_1">
     <g id="line2d_1">
      <path d="M 77.877727 187.44 
L 77.877727 30.24 
" clip-path="url(#pe92dd936f0)" style="fill: none; stroke: #b0b0b0; stroke-opacity: 0.3; stroke-width: 0.8; stroke-linecap: square"/>
     </g>
     <g id="line2d_2">
      <defs>
       <path id="m0047cd4adb" d="M 0 0 
L 0 3.5 
" style="stroke: #000000; stroke-width: 0.8"/>
      </defs>
      <g>
       <use xlink:href="#m0047cd4adb" x="77.877727" y="187.44" style="stroke: #000000; stroke-width: 0.8"/>
      </g>
     </g>
    </g>
    <g id="xtick_2">
     <g id="line2d_3">
      <path d="M 177.433376 187.44 
L 177.433376 30.24 
" clip-path="url(#pe92dd936f0)" style="fill: none; stroke: #b0b0b0; stroke-opacity: 0.3; stroke-width: 0.8; stroke-linecap: square"/>
     </g>
     <g id="line2d_4">
      <g>
       <use xlink:href="#m0047cd4adb" x="177.433376" y="187.44" style="stroke: #000000; stroke-width: 0.8"/>
      </g>
     </g>
    </g>
    <g id="xtick_3">
     <g id="line2d_5">
      <path d="M 276.989024 187.44 
L 276.989024 30.24 
" clip-path="url(#pe92dd936f0)" style="fill: none; stroke: #b0b0b0; stroke-opacity: 0.3; stroke-width: 0.8; stroke-linecap: square"/>
     </g>
     <g id="line2d_6">
      <g>
       <use xlink:href="#m0047cd4adb" x="276.989024" y="187.44" style="stroke: #000000; stroke-width: 0.8"/>
      </g>
     </g>
    </g>
    <g id="xtick_4">
     <g id="line2d_7">
      <path d="M 376.544673 187.44 
L 376.544673 30.24 
" clip-path="url(#pe92dd936f0)" style="fill: none; stroke: #b0b0b0; stroke-opacity: 0.3; stroke-width: 0.8; stroke-linecap: square"/>
     </g>
     <g id="line2d_8">
      <g>
       <use xlink:href="#m0047cd4adb" x="376.544673" y="187.44" style="stroke: #000000; stroke-width: 0.8"/>
      </g>
     </g>
    </g>
    <g id="xtick_5">
     <g id="line2d_9">
      <path d="M 476.100321 187.44 
L 476.100321 30.24 
" clip-path="url(#pe92dd936f0)" style="fill: none; stroke: #b0b0b0; stroke-opacity: 0.3; stroke-width: 0.8; stroke-linecap: square"/>
     </g>
     <g id="line2d_10">
      <g>
       <use xlink:href="#m0047cd4adb" x="476.100321" y="187.44" style="stroke: #000000; stroke-width: 0.8"/>
      </g>
     </g>
    </g>
    <g id="xtick_6">
     <g id="line2d_11">
      <path d="M 575.65597 187.44 
L 575.65597 30.24 
" clip-path="url(#pe92dd936f0)" style="fill: none; stroke: #b0b0b0; stroke-opacity: 0.3; stroke-width: 0.8; stroke-linecap: square"/>
     </g>
     <g id="line2d_12">
      <g>
       <use xlink:href="#m0047cd4adb" x="575.65597" y="187.44" style="stroke: #000000; stroke-width: 0.8"/>
      </g>
     </g>
    </g>
    <g id="xtick_7">
     <g id="line2d_13">
      <path d="M 675.211619 187.44 
L 675.211619 30.24 
" clip-path="url(#pe92dd936f0)" style="fill: none; stroke: #b0b0b0; stroke-opacity: 0.3; stroke-width: 0.8; stroke-linecap: square"/>
     </g>
     <g id="line2d_14">
      <g>
       <use xlink:href="#m0047cd4adb" x="675.211619" y="187.44" style="stroke: #000000; stroke-width: 0.8"/>
      </g>
     </g>
    </g>
   </g>
   <g id="matplotlib.axis_2">
    <g id="ytick_1">
     <g id="line2d_15">
      <path d="M 48.015 179.642091 
L 704.995 179.642091 
" clip-path="url(#pe92dd936f0)" style="fill: none; stroke: #b0b0b0; stroke-opacity: 0.3; stroke-width: 0.8; stroke-linecap: square"/>
     </g>
     <g id="line2d_16">
      <defs>
       <path id="m2ff3a4be81" d="M 0 0 
L -3.5 0 
" style="stroke: #000000; stroke-width: 0.8"/>
      </defs>
      <g>
       <use xlink:href="#m2ff3a4be81" x="48.015" y="179.642091" style="stroke: #000000; stroke-width: 0.8"/>
      </g>
     </g>
     <g id="text_1">
      <!-- −20 -->
      <g transform="translate(19.910312 183.441309) scale(0.1 -0.1)">
       <defs>
        <path id="DejaVuSans-2212" d="M 678 2272 
L 4684 2272 
L 4684 1741 
L 678 1741 
L 678 2272 
z
" transform="scale(0.015625)"/>
        <path id="DejaVuSans-32" d="M 1228 531 
L 3431 531 
L 3431 0 
L 469 0 
L 469 531 
Q 828 903 1448 1529 
Q 2069 2156 2228 2338 
Q 2531 2678 2651 2914 
Q 2772 3150 2772 3378 
Q 2772 3750 2511 3984 
Q 2250 4219 1831 4219 
Q 1534 4219 1204 4116 
Q 875 4013 500 3803 
L 500 4441 
Q 881 4594 1212 4672 
Q 1544 4750 1819 4750 
Q 2544 4750 2975 4387 
Q 3406 4025 3406 3419 
Q 3406 3131 3298 2873 
Q 3191 2616 2906 2266 
Q 2828 2175 2409 1742 
Q 1991 1309 1228 531 
z
" transform="scale(0.015625)"/>
        <path id="DejaVuSans-30" d="M 2034 4250 
Q 1547 4250 1301 3770 
Q 1056 3291 1056 2328 
Q 1056 1369 1301 889 
Q 1547 409 2034 409 
Q 2525 409 2770 889 
Q 3016 1369 3016 2328 
Q 3016 3291 2770 3770 
Q 2525 4250 2034 4250 
z
M 2034 4750 
Q 2819 4750 3233 4129 
Q 3647 3509 3647 2328 
Q 3647 1150 3233 529 
Q 2819 -91 2034 -91 
Q 1250 -91 836 529 
Q 422 1150 422 2328 
Q 422 3509 836 4129 
Q 1250 4750 2034 4750 
z
" transform="scale(0.015625)"/>
       </defs>
       <use xlink:href="#DejaVuSans-2212"/>
       <use xlink:href="#DejaVuSans-32" transform="translate(83.789062 0)"/>
       <use xlink:href="#DejaVuSans-30" transform="translate(147.412109 0)"/>
      </g>
     </g>
    </g>
    <g id="ytick_2">
     <g id="line2d_17">
      <path d="M 48.015 155.96896 
L 704.995 155.96896 
" clip-path="url(#pe92dd936f0)" style="fill: none; stroke: #b0b0b0; stroke-opacity: 0.3; stroke-width: 0.8; stroke-linecap: square"/>
     </g>
     <g id="line2d_18">
      <g>
       <use xlink:href="#m2ff3a4be81" x="48.015" y="155.96896" style="stroke: #000000; stroke-width: 0.8"/>
      </g>
     </g>
     <g id="text_2">
      <!-- −15 -->
      <g transform="translate(19.910312 159.768179) scale(0.1 -0.1)">
       <defs>
        <path id="DejaVuSans-31" d="M 794 531 
L 1825 531 
L 1825 4091 
L 703 3866 
L 703 4441 
L 1819 4666 
L 2450 4666 
L 2450 531 
L 3481 531 
L 3481 0 
L 794 0 
L 794 531 
z
" transform="scale(0.015625)"/>
        <path id="DejaVuSans-35" d="M 691 4666 
L 3169 4666 
L 3169 4134 
L 1269 4134 
L 1269 2991 
Q 1406 3038 1543 3061 
Q 1681 3084 1819 3084 
Q 2600 3084 3056 2656 
Q 3513 2228 3513 1497 
Q 3513 744 3044 326 
Q 2575 -91 1722 -91 
Q 1428 -91 1123 -41 
Q 819 9 494 109 
L 494 744 
Q 775 591 1075 516 
Q 1375 441 1709 441 
Q 2250 441 2565 725 
Q 2881 1009 2881 1497 
Q 2881 1984 2565 2268 
Q 2250 2553 1709 2553 
Q 1456 2553 1204 2497 
Q 953 2441 691 2322 
L 691 4666 
z
" transform="scale(0.015625)"/>
       </defs>
       <use xlink:href="#DejaVuSans-2212"/>
       <use xlink:href="#DejaVuSans-31" transform="translate(83.789062 0)"/>
       <use xlink:href="#DejaVuSans-35" transform="translate(147.412109 0)"/>
      </g>
     </g>
    </g>
    <g id="ytick_3">
     <g id="line2d_19">
      <path d="M 48.015 132.29583 
L 704.995 132.29583 
" clip-path="url(#pe92dd936f0)" style="fill: none; stroke: #b0b0b0; stroke-opacity: 0.3; stroke-width: 0.8; stroke-linecap: square"/>
     </g>
     <g id="line2d_20">
      <g>
       <use xlink:href="#m2ff3a4be81" x="48.015" y="132.29583" style="stroke: #000000; stroke-width: 0.8"/>
      </g>
     </g>
     <g id="text_3">
      <!-- −10 -->
      <g transform="translate(19.910312 136.095049) scale(0.1 -0.1)">
       <use xlink:href="#DejaVuSans-2212"/>
       <use xlink:href="#DejaVuSans-31" transform="translate(83.789062 0)"/>
       <use xlink:href="#DejaVuSans-30" transform="translate(147.412109 0)"/>
      </g>
     </g>
    </g>
    <g id="ytick_4">
     <g id="line2d_21">
      <path d="M 48.015 108.622699 
L 704.995 108.622699 
" clip-path="url(#pe92dd936f0)" style="fill: none; stroke: #b0b0b0; stroke-opacity: 0.3; stroke-width: 0.8; stroke-linecap: square"/>
     </g>
     <g id="line2d_22">
      <g>
       <use xlink:href="#m2ff3a4be81" x="48.015" y="108.622699" style="stroke: #000000; stroke-width: 0.8"/>
      </g>
     </g>
     <g id="text_4">
      <!-- −5 -->
      <g transform="translate(26.272813 112.421918) scale(0.1 -0.1)">
       <use xlink:href="#DejaVuSans-2212"/>
       <use xlink:href="#DejaVuSans-35" transform="translate(83.789062 0)"/>
      </g>
     </g>
    </g>
    <g id="ytick_5">
     <g id="line2d_23">
      <path d="M 48.015 84.949569 
L 704.995 84.949569 
" clip-path="url(#pe92dd936f0)" style="fill: none; stroke: #b0b0b0; stroke-opacity: 0.3; stroke-width: 0.8; stroke-linecap: square"/>
     </g>
     <g id="line2d_24">
      <g>
       <use xlink:href="#m2ff3a4be81" x="48.015" y="84.949569" style="stroke: #000000; stroke-width: 0.8"/>
      </g>
     </g>
     <g id="text_5">
      <!-- 0 -->
      <g transform="translate(34.6525 88.748788) scale(0.1 -0.1)">
       <use xlink:href="#DejaVuSans-30"/>
      </g>
     </g>
    </g>
    <g id="ytick_6">
     <g id="line2d_25">
      <path d="M 48.015 61.276438 
L 704.995 61.276438 
" clip-path="url(#pe92dd936f0)" style="fill: none; stroke: #b0b0b0; stroke-opacity: 0.3; stroke-width: 0.8; stroke-linecap: square"/>
     </g>
     <g id="line2d_26">
      <g>
       <use xlink:href="#m2ff3a4be81" x="48.015" y="61.276438" style="stroke: #000000; stroke-width: 0.8"/>
      </g>
     </g>
     <g id="text_6">
      <!-- 5 -->
      <g transform="translate(34.6525 65.075657) scale(0.1 -0.1)">
       <use xlink:href="#DejaVuSans-35"/>
      </g>
     </g>
    </g>
    <g id="ytick_7">
     <g id="line2d_27">
      <path d="M 48.015 37.603308 
L 704.995 37.603308 
" clip-path="url(#pe92dd936f0)" style="fill: none; stroke: #b0b0b0; stroke-opacity: 0.3; stroke-width: 0.8; stroke-linecap: square"/>
     </g>
     <g id="line2d_28">
      <g>
       <use xlink:href="#m2ff3a4be81" x="48.015" y="37.603308" style="stroke: #000000; stroke-width: 0.8"/>
      </g>
     </g>
     <g id="text_7">
      <!-- 10 -->
      <g transform="translate(28.29 41.402527) scale(0.1 -0.1)">
       <use xlink:href="#DejaVuSans-31"/>
       <use xlink:href="#DejaVuSans-30" transform="translate(63.623047 0)"/>
      </g>
     </g>
    </g>
    <g id="text_8">
     <!-- Roll (deg) -->
     <g transform="translate(14.038594 130.442109) rotate(-90) scale(0.09 -0.09)">
      <defs>
       <path id="DejaVuSans-52" d="M 2841 2188 
Q 3044 2119 3236 1894 
Q 3428 1669 3622 1275 
L 4263 0 
L 3584 0 
L 2988 1197 
Q 2756 1666 2539 1819 
Q 2322 1972 1947 1972 
L 1259 1972 
L 1259 0 
L 628 0 
L 628 4666 
L 2053 4666 
Q 2853 4666 3247 4331 
Q 3641 3997 3641 3322 
Q 3641 2881 3436 2590 
Q 3231 2300 2841 2188 
z
M 1259 4147 
L 1259 2491 
L 2053 2491 
Q 2509 2491 2742 2702 
Q 2975 2913 2975 3322 
Q 2975 3731 2742 3939 
Q 2509 4147 2053 4147 
L 1259 4147 
z
" transform="scale(0.015625)"/>
       <path id="DejaVuSans-6f" d="M 1959 3097 
Q 1497 3097 1228 2736 
Q 959 2375 959 1747 
Q 959 1119 1226 758 
Q 1494 397 1959 397 
Q 2419 397 2687 759 
Q 2956 1122 2956 1747 
Q 2956 2369 2687 2733 
Q 2419 3097 1959 3097 
z
M 1959 3584 
Q 2709 3584 3137 3096 
Q 3566 2609 3566 1747 
Q 3566 888 3137 398 
Q 2709 -91 1959 -91 
Q 1206 -91 779 398 
Q 353 888 353 1747 
Q 353 2609 779 3096 
Q 1206 3584 1959 3584 
z
" transform="scale(0.015625)"/>
       <path id="DejaVuSans-6c" d="M 603 4863 
L 1178 4863 
L 1178 0 
L 603 0 
L 603 4863 
z
" transform="scale(0.015625)"/>
       <path id="DejaVuSans-20" transform="scale(0.015625)"/>
       <path id="DejaVuSans-28" d="M 1984 4856 
Q 1566 4138 1362 3434 
Q 1159 2731 1159 2009 
Q 1159 1288 1364 580 
Q 1569 -128 1984 -844 
L 1484 -844 
Q 1016 -109 783 600 
Q 550 1309 550 2009 
Q 550 2706 781 3412 
Q 1013 4119 1484 4856 
L 1984 4856 
z
" transform="scale(0.015625)"/>
       <path id="DejaVuSans-64" d="M 2906 2969 
L 2906 4863 
L 3481 4863 
L 3481 0 
L 2906 0 
L 2906 525 
Q 2725 213 2448 61 
Q 2172 -91 1784 -91 
Q 1150 -91 751 415 
Q 353 922 353 1747 
Q 353 2572 751 3078 
Q 1150 3584 1784 3584 
Q 2172 3584 2448 3432 
Q 2725 3281 2906 2969 
z
M 947 1747 
Q 947 1113 1208 752 
Q 1469 391 1925 391 
Q 2381 391 2643 752 
Q 2906 1113 2906 1747 
Q 2906 2381 2643 2742 
Q 2381 3103 1925 3103 
Q 1469 3103 1208 2742 
Q 947 2381 947 1747 
z
" transform="scale(0.015625)"/>
       <path id="DejaVuSans-65" d="M 3597 1894 
L 3597 1613 
L 953 1613 
Q 991 1019 1311 708 
Q 1631 397 2203 397 
Q 2534 397 2845 478 
Q 3156 559 3463 722 
L 3463 178 
Q 3153 47 2828 -22 
Q 2503 -91 2169 -91 
Q 1331 -91 842 396 
Q 353 884 353 1716 
Q 353 2575 817 3079 
Q 1281 3584 2069 3584 
Q 2775 3584 3186 3129 
Q 3597 2675 3597 1894 
z
M 3022 2063 
Q 3016 2534 2758 2815 
Q 2500 3097 2075 3097 
Q 1594 3097 1305 2825 
Q 1016 2553 972 2059 
L 3022 2063 
z
" transform="scale(0.015625)"/>
       <path id="DejaVuSans-67" d="M 2906 1791 
Q 2906 2416 2648 2759 
Q 2391 3103 1925 3103 
Q 1463 3103 1205 2759 
Q 947 2416 947 1791 
Q 947 1169 1205 825 
Q 1463 481 1925 481 
Q 2391 481 2648 825 
Q 2906 1169 2906 1791 
z
M 3481 434 
Q 3481 -459 3084 -895 
Q 2688 -1331 1869 -1331 
Q 1566 -1331 1297 -1286 
Q 1028 -1241 775 -1147 
L 775 -588 
Q 1028 -725 1275 -790 
Q 1522 -856 1778 -856 
Q 2344 -856 2625 -561 
Q 2906 -266 2906 331 
L 2906 616 
Q 2728 306 2450 153 
Q 2172 0 1784 0 
Q 1141 0 747 490 
Q 353 981 353 1791 
Q 353 2603 747 3093 
Q 1141 3584 1784 3584 
Q 2172 3584 2450 3431 
Q 2728 3278 2906 2969 
L 2906 3500 
L 3481 3500 
L 3481 434 
z
" transform="scale(0.015625)"/>
       <path id="DejaVuSans-29" d="M 513 4856 
L 1013 4856 
Q 1481 4119 1714 3412 
Q 1947 2706 1947 2009 
Q 1947 1309 1714 600 
Q 1481 -109 1013 -844 
L 513 -844 
Q 928 -128 1133 580 
Q 1338 1288 1338 2009 
Q 1338 2731 1133 3434 
Q 928 4138 513 4856 
z
" transform="scale(0.015625)"/>
      </defs>
      <use xlink:href="#DejaVuSans-52"/>
      <use xlink:href="#DejaVuSans-6f" transform="translate(64.982422 0)"/>
      <use xlink:href="#DejaVuSans-6c" transform="translate(126.164062 0)"/>
      <use xlink:href="#DejaVuSans-6c" transform="translate(153.947266 0)"/>
      <use xlink:href="#DejaVuSans-20" transform="translate(181.730469 0)"/>
      <use xlink:href="#DejaVuSans-28" transform="translate(213.517578 0)"/>
      <use xlink:href="#DejaVuSans-64" transform="translate(252.53125 0)"/>
      <use xlink:href="#DejaVuSans-65" transform="translate(316.007812 0)"/>
      <use xlink:href="#DejaVuSans-67" transform="translate(377.53125 0)"/>
      <use xlink:href="#DejaVuSans-29" transform="translate(441.007812 0)"/>
     </g>
    </g>
   </g>
   <g id="line2d_29">
    <path d="M 77.877727 84.949569 
L 177.593143 84.872256 
L 179.345342 84.048396 
L 181.097402 83.458646 
L 182.769857 83.081304 
L 183.486598 75.622894 
L 184.681306 64.630868 
L 185.796329 56.249855 
L 186.911512 49.514119 
L 187.707857 45.790068 
L 188.663591 42.527455 
L 189.53996 40.297039 
L 190.335987 38.852234 
L 191.052768 37.989039 
L 191.689984 37.545506 
L 192.32716 37.386268 
L 192.884751 37.464938 
L 193.521967 37.787483 
L 194.238509 38.424706 
L 195.035153 39.44551 
L 195.990987 41.058777 
L 197.106548 43.40991 
L 198.459947 46.827421 
L 200.133199 51.718221 
L 202.362409 59.002202 
L 211.123226 88.42459 
L 213.273788 94.483768 
L 215.186331 99.224825 
L 216.937794 102.987668 
L 218.530465 105.912817 
L 220.044448 108.252827 
L 221.477153 110.076874 
L 222.830951 111.460915 
L 224.185127 112.527564 
L 225.460614 113.255121 
L 226.734667 113.728495 
L 228.008302 113.963961 
L 229.282416 113.979152 
L 230.636313 113.772984 
L 232.069874 113.329722 
L 233.662645 112.596197 
L 235.176289 111.696381 
L 235.892612 124.806786 
L 237.007635 142.45398 
L 238.043054 155.447466 
L 238.998888 164.75488 
L 239.874918 171.182991 
L 240.671323 175.418936 
L 241.388084 178.032391 
L 241.945655 179.346443 
L 242.423622 180.01242 
L 242.821805 180.265519 
L 243.220226 180.26362 
L 243.618548 180.023 
L 244.096157 179.444372 
L 244.654365 178.401866 
L 245.37035 176.551777 
L 246.246399 173.617134 
L 247.362478 169.010357 
L 248.7959 162.024235 
L 250.706552 151.494189 
L 254.529509 128.816217 
L 257.795153 110.057342 
L 260.104685 98.019283 
L 262.096495 88.743066 
L 263.928717 81.21955 
L 265.600933 75.231717 
L 267.193963 70.308906 
L 268.70693 66.32389 
L 270.140571 63.144557 
L 271.49413 60.649378 
L 272.769 58.723603 
L 274.043213 57.184665 
L 275.238537 56.068101 
L 276.433106 55.245598 
L 277.627375 54.694369 
L 278.821724 54.391899 
L 280.017288 54.316484 
L 281.290525 54.46243 
L 282.644402 54.846825 
L 284.077685 55.479979 
L 285.75026 56.470943 
L 287.661748 57.877771 
L 289.892193 59.804902 
L 292.838523 62.671184 
L 299.050875 69.16223 
L 303.272034 73.400346 
L 306.538296 76.38002 
L 309.404961 78.712977 
L 312.193634 80.70006 
L 314.901149 82.352662 
L 317.52908 83.697096 
L 320.157927 84.795214 
L 322.865502 85.684179 
L 325.57248 86.349072 
L 328.599111 86.85744 
L 331.705147 87.158825 
L 335.289051 87.281983 
L 339.351021 87.2025 
L 345.085367 86.838993 
L 370.093726 84.99026 
L 378.297012 84.766459 
L 390.084361 84.716002 
L 415.092978 84.912133 
L 440.260945 84.972356 
L 675.132273 84.949569 
L 675.132273 84.949569 
" clip-path="url(#pe92dd936f0)" style="fill: none; stroke: #e67e22; stroke-width: 1.8; stroke-linecap: square"/>
   </g>
   <g id="line2d_30">
    <path d="M 133.469781 187.44 
L 133.469781 30.24 
" clip-path="url(#pe92dd936f0)" style="fill: none; stroke-dasharray: 1,1.65; stroke-dashoffset: 0; stroke: #e67e22; stroke-opacity: 0.8"/>
   </g>
   <g id="line2d_31">
    <path d="M 182.690193 187.44 
L 182.690193 30.24 
" clip-path="url(#pe92dd936f0)" style="fill: none; stroke-dasharray: 1,1.65; stroke-dashoffset: 0; stroke: #2ecc71; stroke-opacity: 0.8"/>
   </g>
   <g id="line2d_32">
    <path d="M 235.096167 187.44 
L 235.096167 30.24 
" clip-path="url(#pe92dd936f0)" style="fill: none; stroke-dasharray: 1,1.65; stroke-dashoffset: 0; stroke: #9b59b6; stroke-opacity: 0.8"/>
   </g>
   <g id="patch_3">
    <path d="M 48.015 187.44 
L 48.015 30.24 
" style="fill: none; stroke: #000000; stroke-width: 0.8; stroke-linejoin: miter; stroke-linecap: square"/>
   </g>
   <g id="patch_4">
    <path d="M 48.015 187.44 
L 704.995 187.44 
" style="fill: none; stroke: #000000; stroke-width: 0.8; stroke-linejoin: miter; stroke-linecap: square"/>
   </g>
   <g id="legend_1">
    <g id="patch_5">
     <path d="M 659.25625 48.3825 
L 699.395 48.3825 
Q 700.995 48.3825 700.995 46.7825 
L 700.995 35.84 
Q 700.995 34.24 699.395 34.24 
L 659.25625 34.24 
Q 657.65625 34.24 657.65625 35.84 
L 657.65625 46.7825 
Q 657.65625 48.3825 659.25625 48.3825 
z
" style="fill: #ffffff; opacity: 0.8; stroke: #cccccc; stroke-linejoin: miter"/>
    </g>
    <g id="line2d_33">
     <path d="M 660.85625 40.71875 
L 668.85625 40.71875 
L 676.85625 40.71875 
" style="fill: none; stroke: #e67e22; stroke-width: 1.8; stroke-linecap: square"/>
    </g>
    <g id="text_9">
     <!-- Roll -->
     <g transform="translate(683.25625 43.51875) scale(0.08 -0.08)">
      <use xlink:href="#DejaVuSans-52"/>
      <use xlink:href="#DejaVuSans-6f" transform="translate(64.982422 0)"/>
      <use xlink:href="#DejaVuSans-6c" transform="translate(126.164062 0)"/>
      <use xlink:href="#DejaVuSans-6c" transform="translate(153.947266 0)"/>
     </g>
    </g>
   </g>
  </g>
  <g id="axes_2">
   <g id="patch_6">
    <path d="M 48.015 358.94 
L 704.995 358.94 
L 704.995 201.74 
L 48.015 201.74 
z
" style="fill: #ffffff"/>
   </g>
   <g id="matplotlib.axis_3">
    <g id="xtick_8">
     <g id="line2d_34">
      <path d="M 77.877727 358.94 
L 77.877727 201.74 
" clip-path="url(#p5b1791591c)" style="fill: none; stroke: #b0b0b0; stroke-opacity: 0.3; stroke-width: 0.8; stroke-linecap: square"/>
     </g>
     <g id="line2d_35">
      <g>
       <use xlink:href="#m0047cd4adb" x="77.877727" y="358.94" style="stroke: #000000; stroke-width: 0.8"/>
      </g>
     </g>
    </g>
    <g id="xtick_9">
     <g id="line2d_36">
      <path d="M 177.433376 358.94 
L 177.433376 201.74 
" clip-path="url(#p5b1791591c)" style="fill: none; stroke: #b0b0b0; stroke-opacity: 0.3; stroke-width: 0.8; stroke-linecap: square"/>
     </g>
     <g id="line2d_37">
      <g>
       <use xlink:href="#m0047cd4adb" x="177.433376" y="358.94" style="stroke: #000000; stroke-width: 0.8"/>
      </g>
     </g>
    </g>
    <g id="xtick_10">
     <g id="line2d_38">
      <path d="M 276.989024 358.94 
L 276.989024 201.74 
" clip-path="url(#p5b1791591c)" style="fill: none; stroke: #b0b0b0; stroke-opacity: 0.3; stroke-width: 0.8; stroke-linecap: square"/>
     </g>
     <g id="line2d_39">
      <g>
       <use xlink:href="#m0047cd4adb" x="276.989024" y="358.94" style="stroke: #000000; stroke-width: 0.8"/>
      </g>
     </g>
    </g>
    <g id="xtick_11">
     <g id="line2d_40">
      <path d="M 376.544673 358.94 
L 376.544673 201.74 
" clip-path="url(#p5b1791591c)" style="fill: none; stroke: #b0b0b0; stroke-opacity: 0.3; stroke-width: 0.8; stroke-linecap: square"/>
     </g>
     <g id="line2d_41">
      <g>
       <use xlink:href="#m0047cd4adb" x="376.544673" y="358.94" style="stroke: #000000; stroke-width: 0.8"/>
      </g>
     </g>
    </g>
    <g id="xtick_12">
     <g id="line2d_42">
      <path d="M 476.100321 358.94 
L 476.100321 201.74 
" clip-path="url(#p5b1791591c)" style="fill: none; stroke: #b0b0b0; stroke-opacity: 0.3; stroke-width: 0.8; stroke-linecap: square"/>
     </g>
     <g id="line2d_43">
      <g>
       <use xlink:href="#m0047cd4adb" x="476.100321" y="358.94" style="stroke: #000000; stroke-width: 0.8"/>
      </g>
     </g>
    </g>
    <g id="xtick_13">
     <g id="line2d_44">
      <path d="M 575.65597 358.94 
L 575.65597 201.74 
" clip-path="url(#p5b1791591c)" style="fill: none; stroke: #b0b0b0; stroke-opacity: 0.3; stroke-width: 0.8; stroke-linecap: square"/>
     </g>
     <g id="line2d_45">
      <g>
       <use xlink:href="#m0047cd4adb" x="575.65597" y="358.94" style="stroke: #000000; stroke-width: 0.8"/>
      </g>
     </g>
    </g>
    <g id="xtick_14">
     <g id="line2d_46">
      <path d="M 675.211619 358.94 
L 675.211619 201.74 
" clip-path="url(#p5b1791591c)" style="fill: none; stroke: #b0b0b0; stroke-opacity: 0.3; stroke-width: 0.8; stroke-linecap: square"/>
     </g>
     <g id="line2d_47">
      <g>
       <use xlink:href="#m0047cd4adb" x="675.211619" y="358.94" style="stroke: #000000; stroke-width: 0.8"/>
      </g>
     </g>
    </g>
   </g>
   <g id="matplotlib.axis_4">
    <g id="ytick_8">
     <g id="line2d_48">
      <path d="M 48.015 342.586298 
L 704.995 342.586298 
" clip-path="url(#p5b1791591c)" style="fill: none; stroke: #b0b0b0; stroke-opacity: 0.3; stroke-width: 0.8; stroke-linecap: square"/>
     </g>
     <g id="line2d_49">
      <g>
       <use xlink:href="#m2ff3a4be81" x="48.015" y="342.586298" style="stroke: #000000; stroke-width: 0.8"/>
      </g>
     </g>
     <g id="text_10">
      <!-- −10 -->
      <g transform="translate(19.910312 346.385517) scale(0.1 -0.1)">
       <use xlink:href="#DejaVuSans-2212"/>
       <use xlink:href="#DejaVuSans-31" transform="translate(83.789062 0)"/>
       <use xlink:href="#DejaVuSans-30" transform="translate(147.412109 0)"/>
      </g>
     </g>
    </g>
    <g id="ytick_9">
     <g id="line2d_50">
      <path d="M 48.015 316.670561 
L 704.995 316.670561 
" clip-path="url(#p5b1791591c)" style="fill: none; stroke: #b0b0b0; stroke-opacity: 0.3; stroke-width: 0.8; stroke-linecap: square"/>
     </g>
     <g id="line2d_51">
      <g>
       <use xlink:href="#m2ff3a4be81" x="48.015" y="316.670561" style="stroke: #000000; stroke-width: 0.8"/>
      </g>
     </g>
     <g id="text_11">
      <!-- −5 -->
      <g transform="translate(26.272813 320.46978) scale(0.1 -0.1)">
       <use xlink:href="#DejaVuSans-2212"/>
       <use xlink:href="#DejaVuSans-35" transform="translate(83.789062 0)"/>
      </g>
     </g>
    </g>
    <g id="ytick_10">
     <g id="line2d_52">
      <path d="M 48.015 290.754824 
L 704.995 290.754824 
" clip-path="url(#p5b1791591c)" style="fill: none; stroke: #b0b0b0; stroke-opacity: 0.3; stroke-width: 0.8; stroke-linecap: square"/>
     </g>
     <g id="line2d_53">
      <g>
       <use xlink:href="#m2ff3a4be81" x="48.015" y="290.754824" style="stroke: #000000; stroke-width: 0.8"/>
      </g>
     </g>
     <g id="text_12">
      <!-- 0 -->
      <g transform="translate(34.6525 294.554043) scale(0.1 -0.1)">
       <use xlink:href="#DejaVuSans-30"/>
      </g>
     </g>
    </g>
    <g id="ytick_11">
     <g id="line2d_54">
      <path d="M 48.015 264.839088 
L 704.995 264.839088 
" clip-path="url(#p5b1791591c)" style="fill: none; stroke: #b0b0b0; stroke-opacity: 0.3; stroke-width: 0.8; stroke-linecap: square"/>
     </g>
     <g id="line2d_55">
      <g>
       <use xlink:href="#m2ff3a4be81" x="48.015" y="264.839088" style="stroke: #000000; stroke-width: 0.8"/>
      </g>
     </g>
     <g id="text_13">
      <!-- 5 -->
      <g transform="translate(34.6525 268.638306) scale(0.1 -0.1)">
       <use xlink:href="#DejaVuSans-35"/>
      </g>
     </g>
    </g>
    <g id="ytick_12">
     <g id="line2d_56">
      <path d="M 48.015 238.923351 
L 704.995 238.923351 
" clip-path="url(#p5b1791591c)" style="fill: none; stroke: #b0b0b0; stroke-opacity: 0.3; stroke-width: 0.8; stroke-linecap: square"/>
     </g>
     <g id="line2d_57">
      <g>
       <use xlink:href="#m2ff3a4be81" x="48.015" y="238.923351" style="stroke: #000000; stroke-width: 0.8"/>
      </g>
     </g>
     <g id="text_14">
      <!-- 10 -->
      <g transform="translate(28.29 242.72257) scale(0.1 -0.1)">
       <use xlink:href="#DejaVuSans-31"/>
       <use xlink:href="#DejaVuSans-30" transform="translate(63.623047 0)"/>
      </g>
     </g>
    </g>
    <g id="ytick_13">
     <g id="line2d_58">
      <path d="M 48.015 213.007614 
L 704.995 213.007614 
" clip-path="url(#p5b1791591c)" style="fill: none; stroke: #b0b0b0; stroke-opacity: 0.3; stroke-width: 0.8; stroke-linecap: square"/>
     </g>
     <g id="line2d_59">
      <g>
       <use xlink:href="#m2ff3a4be81" x="48.015" y="213.007614" style="stroke: #000000; stroke-width: 0.8"/>
      </g>
     </g>
     <g id="text_15">
      <!-- 15 -->
      <g transform="translate(28.29 216.806833) scale(0.1 -0.1)">
       <use xlink:href="#DejaVuSans-31"/>
       <use xlink:href="#DejaVuSans-35" transform="translate(63.623047 0)"/>
      </g>
     </g>
    </g>
    <g id="text_16">
     <!-- Pitch (deg) -->
     <g transform="translate(14.038594 304.716641) rotate(-90) scale(0.09 -0.09)">
      <defs>
       <path id="DejaVuSans-50" d="M 1259 4147 
L 1259 2394 
L 2053 2394 
Q 2494 2394 2734 2622 
Q 2975 2850 2975 3272 
Q 2975 3691 2734 3919 
Q 2494 4147 2053 4147 
L 1259 4147 
z
M 628 4666 
L 2053 4666 
Q 2838 4666 3239 4311 
Q 3641 3956 3641 3272 
Q 3641 2581 3239 2228 
Q 2838 1875 2053 1875 
L 1259 1875 
L 1259 0 
L 628 0 
L 628 4666 
z
" transform="scale(0.015625)"/>
       <path id="DejaVuSans-69" d="M 603 3500 
L 1178 3500 
L 1178 0 
L 603 0 
L 603 3500 
z
M 603 4863 
L 1178 4863 
L 1178 4134 
L 603 4134 
L 603 4863 
z
" transform="scale(0.015625)"/>
       <path id="DejaVuSans-74" d="M 1172 4494 
L 1172 3500 
L 2356 3500 
L 2356 3053 
L 1172 3053 
L 1172 1153 
Q 1172 725 1289 603 
Q 1406 481 1766 481 
L 2356 481 
L 2356 0 
L 1766 0 
Q 1100 0 847 248 
Q 594 497 594 1153 
L 594 3053 
L 172 3053 
L 172 3500 
L 594 3500 
L 594 4494 
L 1172 4494 
z
" transform="scale(0.015625)"/>
       <path id="DejaVuSans-63" d="M 3122 3366 
L 3122 2828 
Q 2878 2963 2633 3030 
Q 2388 3097 2138 3097 
Q 1578 3097 1268 2742 
Q 959 2388 959 1747 
Q 959 1106 1268 751 
Q 1578 397 2138 397 
Q 2388 397 2633 464 
Q 2878 531 3122 666 
L 3122 134 
Q 2881 22 2623 -34 
Q 2366 -91 2075 -91 
Q 1284 -91 818 406 
Q 353 903 353 1747 
Q 353 2603 823 3093 
Q 1294 3584 2113 3584 
Q 2378 3584 2631 3529 
Q 2884 3475 3122 3366 
z
" transform="scale(0.015625)"/>
       <path id="DejaVuSans-68" d="M 3513 2113 
L 3513 0 
L 2938 0 
L 2938 2094 
Q 2938 2591 2744 2837 
Q 2550 3084 2163 3084 
Q 1697 3084 1428 2787 
Q 1159 2491 1159 1978 
L 1159 0 
L 581 0 
L 581 4863 
L 1159 4863 
L 1159 2956 
Q 1366 3272 1645 3428 
Q 1925 3584 2291 3584 
Q 2894 3584 3203 3211 
Q 3513 2838 3513 2113 
z
" transform="scale(0.015625)"/>
      </defs>
      <use xlink:href="#DejaVuSans-50"/>
      <use xlink:href="#DejaVuSans-69" transform="translate(58.052734 0)"/>
      <use xlink:href="#DejaVuSans-74" transform="translate(85.835938 0)"/>
      <use xlink:href="#DejaVuSans-63" transform="translate(125.044922 0)"/>
      <use xlink:href="#DejaVuSans-68" transform="translate(180.025391 0)"/>
      <use xlink:href="#DejaVuSans-20" transform="translate(243.404297 0)"/>
      <use xlink:href="#DejaVuSans-28" transform="translate(275.191406 0)"/>
      <use xlink:href="#DejaVuSans-64" transform="translate(314.205078 0)"/>
      <use xlink:href="#DejaVuSans-65" transform="translate(377.681641 0)"/>
      <use xlink:href="#DejaVuSans-67" transform="translate(439.205078 0)"/>
      <use xlink:href="#DejaVuSans-29" transform="translate(502.681641 0)"/>
     </g>
    </g>
   </g>
   <g id="line2d_60">
    <path d="M 77.877727 290.754824 
L 133.549584 290.754824 
L 134.266226 300.7821 
L 135.460874 315.428485 
L 136.575897 326.44557 
L 137.611276 334.60667 
L 138.56707 340.53721 
L 139.44306 344.743231 
L 140.239565 347.634555 
L 141.03597 349.712175 
L 141.673126 350.835027 
L 142.230718 351.453918 
L 142.788229 351.755939 
L 143.265997 351.779103 
L 143.743904 351.598544 
L 144.301455 351.146849 
L 144.938532 350.337005 
L 145.735056 348.9249 
L 146.690811 346.712753 
L 147.805913 343.524159 
L 149.159751 338.94425 
L 150.912249 332.170605 
L 153.540339 320.989294 
L 158.876541 298.133402 
L 161.266076 288.991105 
L 163.256851 282.206769 
L 165.088754 276.717827 
L 166.761309 272.370447 
L 168.354199 268.828456 
L 169.867326 265.999497 
L 171.300947 263.788536 
L 172.655183 262.104406 
L 173.929475 260.86217 
L 175.123924 259.984022 
L 176.318492 259.366616 
L 177.51314 258.994213 
L 178.707927 258.849587 
L 179.982478 258.9268 
L 181.256691 259.221397 
L 182.690193 259.785645 
L 182.929166 260.009265 
L 186.51317 264.321008 
L 190.813934 269.113847 
L 195.114857 273.564573 
L 198.778306 277.051327 
L 202.362409 280.146671 
L 205.707519 282.727065 
L 208.813655 284.843587 
L 211.919871 286.684223 
L 214.787213 288.137012 
L 217.654356 289.355787 
L 220.601701 290.37173 
L 223.627555 291.178307 
L 226.813635 291.790664 
L 230.078841 292.196329 
L 233.742329 292.42767 
L 235.176289 292.465089 
L 236.05218 273.334419 
L 237.08728 254.364115 
L 238.122658 239.392248 
L 239.078711 228.677482 
L 239.954542 221.174472 
L 240.751027 216.067734 
L 241.468027 212.735109 
L 242.104865 210.691938 
L 242.662635 209.554237 
L 243.140641 209.028298 
L 243.539023 208.885455 
L 243.936788 208.995037 
L 244.334931 209.341307 
L 244.812878 210.04929 
L 245.450034 211.446842 
L 246.246399 213.840737 
L 247.20295 217.521414 
L 248.396901 223.090539 
L 249.990906 231.699176 
L 252.777429 248.241731 
L 256.202064 268.234214 
L 258.43209 279.943542 
L 260.344276 288.864892 
L 262.176279 296.368198 
L 263.848794 302.31626 
L 265.441664 307.19522 
L 266.95491 311.144063 
L 268.388472 314.295535 
L 269.742389 316.770801 
L 271.01698 318.68063 
L 272.290814 320.205584 
L 273.486059 321.308837 
L 274.680667 322.116008 
L 275.875455 322.647886 
L 276.990418 322.915161 
L 278.184847 322.975149 
L 279.459816 322.80439 
L 280.812419 322.385362 
L 282.24608 321.705889 
L 283.83903 320.706874 
L 285.670576 319.295066 
L 287.980685 317.204677 
L 290.848126 314.286329 
L 295.944659 308.735022 
L 300.56414 303.835571 
L 303.909091 300.595304 
L 306.776512 298.101032 
L 309.484526 296.01688 
L 312.193634 294.208911 
L 314.821485 292.721079 
L 317.449595 291.488346 
L 320.078083 290.497052 
L 322.865502 289.689881 
L 325.731609 289.095045 
L 328.838462 288.684332 
L 332.183393 288.468433 
L 336.005931 288.446754 
L 340.943812 288.666217 
L 347.634051 289.198689 
L 361.651447 290.344408 
L 370.014081 290.762546 
L 379.491739 290.97102 
L 390.323294 290.981414 
L 480.879132 290.756606 
L 675.132273 290.754824 
L 675.132273 290.754824 
" clip-path="url(#p5b1791591c)" style="fill: none; stroke: #9b59b6; stroke-width: 1.8; stroke-linecap: square"/>
   </g>
   <g id="line2d_61">
    <path d="M 133.469781 358.94 
L 133.469781 201.74 
" clip-path="url(#p5b1791591c)" style="fill: none; stroke-dasharray: 1,1.65; stroke-dashoffset: 0; stroke: #e67e22; stroke-opacity: 0.8"/>
   </g>
   <g id="line2d_62">
    <path d="M 182.690193 358.94 
L 182.690193 201.74 
" clip-path="url(#p5b1791591c)" style="fill: none; stroke-dasharray: 1,1.65; stroke-dashoffset: 0; stroke: #2ecc71; stroke-opacity: 0.8"/>
   </g>
   <g id="line2d_63">
    <path d="M 235.096167 358.94 
L 235.096167 201.74 
" clip-path="url(#p5b1791591c)" style="fill: none; stroke-dasharray: 1,1.65; stroke-dashoffset: 0; stroke: #9b59b6; stroke-opacity: 0.8"/>
   </g>
   <g id="patch_7">
    <path d="M 48.015 358.94 
L 48.015 201.74 
" style="fill: none; stroke: #000000; stroke-width: 0.8; stroke-linejoin: miter; stroke-linecap: square"/>
   </g>
   <g id="patch_8">
    <path d="M 48.015 358.94 
L 704.995 358.94 
" style="fill: none; stroke: #000000; stroke-width: 0.8; stroke-linejoin: miter; stroke-linecap: square"/>
   </g>
   <g id="legend_2">
    <g id="patch_9">
     <path d="M 654.32375 219.8825 
L 699.395 219.8825 
Q 700.995 219.8825 700.995 218.2825 
L 700.995 207.34 
Q 700.995 205.74 699.395 205.74 
L 654.32375 205.74 
Q 652.72375 205.74 652.72375 207.34 
L 652.72375 218.2825 
Q 652.72375 219.8825 654.32375 219.8825 
z
" style="fill: #ffffff; opacity: 0.8; stroke: #cccccc; stroke-linejoin: miter"/>
    </g>
    <g id="line2d_64">
     <path d="M 655.92375 212.21875 
L 663.92375 212.21875 
L 671.92375 212.21875 
" style="fill: none; stroke: #9b59b6; stroke-width: 1.8; stroke-linecap: square"/>
    </g>
    <g id="text_17">
     <!-- Pitch -->
     <g transform="translate(678.32375 215.01875) scale(0.08 -0.08)">
      <use xlink:href="#DejaVuSans-50"/>
      <use xlink:href="#DejaVuSans-69" transform="translate(58.052734 0)"/>
      <use xlink:href="#DejaVuSans-74" transform="translate(85.835938 0)"/>
      <use xlink:href="#DejaVuSans-63" transform="translate(125.044922 0)"/>
      <use xlink:href="#DejaVuSans-68" transform="translate(180.025391 0)"/>
     </g>
    </g>
   </g>
  </g>
  <g id="axes_3">
   <g id="patch_10">
    <path d="M 48.015 530.44 
L 704.995 530.44 
L 704.995 373.24 
L 48.015 373.24 
z
" style="fill: #ffffff"/>
   </g>
   <g id="matplotlib.axis_5">
    <g id="xtick_15">
     <g id="line2d_65">
      <path d="M 77.877727 530.44 
L 77.877727 373.24 
" clip-path="url(#pe7a83bb000)" style="fill: none; stroke: #b0b0b0; stroke-opacity: 0.3; stroke-width: 0.8; stroke-linecap: square"/>
     </g>
     <g id="line2d_66">
      <g>
       <use xlink:href="#m0047cd4adb" x="77.877727" y="530.44" style="stroke: #000000; stroke-width: 0.8"/>
      </g>
     </g>
     <g id="text_18">
      <!-- 0 -->
      <g transform="translate(74.696477 545.038437) scale(0.1 -0.1)">
       <use xlink:href="#DejaVuSans-30"/>
      </g>
     </g>
    </g>
    <g id="xtick_16">
     <g id="line2d_67">
      <path d="M 177.433376 530.44 
L 177.433376 373.24 
" clip-path="url(#pe7a83bb000)" style="fill: none; stroke: #b0b0b0; stroke-opacity: 0.3; stroke-width: 0.8; stroke-linecap: square"/>
     </g>
     <g id="line2d_68">
      <g>
       <use xlink:href="#m0047cd4adb" x="177.433376" y="530.44" style="stroke: #000000; stroke-width: 0.8"/>
      </g>
     </g>
     <g id="text_19">
      <!-- 5 -->
      <g transform="translate(174.252126 545.038437) scale(0.1 -0.1)">
       <use xlink:href="#DejaVuSans-35"/>
      </g>
     </g>
    </g>
    <g id="xtick_17">
     <g id="line2d_69">
      <path d="M 276.989024 530.44 
L 276.989024 373.24 
" clip-path="url(#pe7a83bb000)" style="fill: none; stroke: #b0b0b0; stroke-opacity: 0.3; stroke-width: 0.8; stroke-linecap: square"/>
     </g>
     <g id="line2d_70">
      <g>
       <use xlink:href="#m0047cd4adb" x="276.989024" y="530.44" style="stroke: #000000; stroke-width: 0.8"/>
      </g>
     </g>
     <g id="text_20">
      <!-- 10 -->
      <g transform="translate(270.626524 545.038437) scale(0.1 -0.1)">
       <use xlink:href="#DejaVuSans-31"/>
       <use xlink:href="#DejaVuSans-30" transform="translate(63.623047 0)"/>
      </g>
     </g>
    </g>
    <g id="xtick_18">
     <g id="line2d_71">
      <path d="M 376.544673 530.44 
L 376.544673 373.24 
" clip-path="url(#pe7a83bb000)" style="fill: none; stroke: #b0b0b0; stroke-opacity: 0.3; stroke-width: 0.8; stroke-linecap: square"/>
     </g>
     <g id="line2d_72">
      <g>
       <use xlink:href="#m0047cd4adb" x="376.544673" y="530.44" style="stroke: #000000; stroke-width: 0.8"/>
      </g>
     </g>
     <g id="text_21">
      <!-- 15 -->
      <g transform="translate(370.182173 545.038437) scale(0.1 -0.1)">
       <use xlink:href="#DejaVuSans-31"/>
       <use xlink:href="#DejaVuSans-35" transform="translate(63.623047 0)"/>
      </g>
     </g>
    </g>
    <g id="xtick_19">
     <g id="line2d_73">
      <path d="M 476.100321 530.44 
L 476.100321 373.24 
" clip-path="url(#pe7a83bb000)" style="fill: none; stroke: #b0b0b0; stroke-opacity: 0.3; stroke-width: 0.8; stroke-linecap: square"/>
     </g>
     <g id="line2d_74">
      <g>
       <use xlink:href="#m0047cd4adb" x="476.100321" y="530.44" style="stroke: #000000; stroke-width: 0.8"/>
      </g>
     </g>
     <g id="text_22">
      <!-- 20 -->
      <g transform="translate(469.737821 545.038437) scale(0.1 -0.1)">
       <use xlink:href="#DejaVuSans-32"/>
       <use xlink:href="#DejaVuSans-30" transform="translate(63.623047 0)"/>
      </g>
     </g>
    </g>
    <g id="xtick_20">
     <g id="line2d_75">
      <path d="M 575.65597 530.44 
L 575.65597 373.24 
" clip-path="url(#pe7a83bb000)" style="fill: none; stroke: #b0b0b0; stroke-opacity: 0.3; stroke-width: 0.8; stroke-linecap: square"/>
     </g>
     <g id="line2d_76">
      <g>
       <use xlink:href="#m0047cd4adb" x="575.65597" y="530.44" style="stroke: #000000; stroke-width: 0.8"/>
      </g>
     </g>
     <g id="text_23">
      <!-- 25 -->
      <g transform="translate(569.29347 545.038437) scale(0.1 -0.1)">
       <use xlink:href="#DejaVuSans-32"/>
       <use xlink:href="#DejaVuSans-35" transform="translate(63.623047 0)"/>
      </g>
     </g>
    </g>
    <g id="xtick_21">
     <g id="line2d_77">
      <path d="M 675.211619 530.44 
L 675.211619 373.24 
" clip-path="url(#pe7a83bb000)" style="fill: none; stroke: #b0b0b0; stroke-opacity: 0.3; stroke-width: 0.8; stroke-linecap: square"/>
     </g>
     <g id="line2d_78">
      <g>
       <use xlink:href="#m0047cd4adb" x="675.211619" y="530.44" style="stroke: #000000; stroke-width: 0.8"/>
      </g>
     </g>
     <g id="text_24">
      <!-- 30 -->
      <g transform="translate(668.849119 545.038437) scale(0.1 -0.1)">
       <defs>
        <path id="DejaVuSans-33" d="M 2597 2516 
Q 3050 2419 3304 2112 
Q 3559 1806 3559 1356 
Q 3559 666 3084 287 
Q 2609 -91 1734 -91 
Q 1441 -91 1130 -33 
Q 819 25 488 141 
L 488 750 
Q 750 597 1062 519 
Q 1375 441 1716 441 
Q 2309 441 2620 675 
Q 2931 909 2931 1356 
Q 2931 1769 2642 2001 
Q 2353 2234 1838 2234 
L 1294 2234 
L 1294 2753 
L 1863 2753 
Q 2328 2753 2575 2939 
Q 2822 3125 2822 3475 
Q 2822 3834 2567 4026 
Q 2313 4219 1838 4219 
Q 1578 4219 1281 4162 
Q 984 4106 628 3988 
L 628 4550 
Q 988 4650 1302 4700 
Q 1616 4750 1894 4750 
Q 2613 4750 3031 4423 
Q 3450 4097 3450 3541 
Q 3450 3153 3228 2886 
Q 3006 2619 2597 2516 
z
" transform="scale(0.015625)"/>
       </defs>
       <use xlink:href="#DejaVuSans-33"/>
       <use xlink:href="#DejaVuSans-30" transform="translate(63.623047 0)"/>
      </g>
     </g>
    </g>
    <g id="text_25">
     <!-- Time (s) -->
     <g transform="translate(358.208984 557.956719) scale(0.09 -0.09)">
      <defs>
       <path id="DejaVuSans-54" d="M -19 4666 
L 3928 4666 
L 3928 4134 
L 2272 4134 
L 2272 0 
L 1638 0 
L 1638 4134 
L -19 4134 
L -19 4666 
z
" transform="scale(0.015625)"/>
       <path id="DejaVuSans-6d" d="M 3328 2828 
Q 3544 3216 3844 3400 
Q 4144 3584 4550 3584 
Q 5097 3584 5394 3201 
Q 5691 2819 5691 2113 
L 5691 0 
L 5113 0 
L 5113 2094 
Q 5113 2597 4934 2840 
Q 4756 3084 4391 3084 
Q 3944 3084 3684 2787 
Q 3425 2491 3425 1978 
L 3425 0 
L 2847 0 
L 2847 2094 
Q 2847 2600 2669 2842 
Q 2491 3084 2119 3084 
Q 1678 3084 1418 2786 
Q 1159 2488 1159 1978 
L 1159 0 
L 581 0 
L 581 3500 
L 1159 3500 
L 1159 2956 
Q 1356 3278 1631 3431 
Q 1906 3584 2284 3584 
Q 2666 3584 2933 3390 
Q 3200 3197 3328 2828 
z
" transform="scale(0.015625)"/>
       <path id="DejaVuSans-73" d="M 2834 3397 
L 2834 2853 
Q 2591 2978 2328 3040 
Q 2066 3103 1784 3103 
Q 1356 3103 1142 2972 
Q 928 2841 928 2578 
Q 928 2378 1081 2264 
Q 1234 2150 1697 2047 
L 1894 2003 
Q 2506 1872 2764 1633 
Q 3022 1394 3022 966 
Q 3022 478 2636 193 
Q 2250 -91 1575 -91 
Q 1294 -91 989 -36 
Q 684 19 347 128 
L 347 722 
Q 666 556 975 473 
Q 1284 391 1588 391 
Q 1994 391 2212 530 
Q 2431 669 2431 922 
Q 2431 1156 2273 1281 
Q 2116 1406 1581 1522 
L 1381 1569 
Q 847 1681 609 1914 
Q 372 2147 372 2553 
Q 372 3047 722 3315 
Q 1072 3584 1716 3584 
Q 2034 3584 2315 3537 
Q 2597 3491 2834 3397 
z
" transform="scale(0.015625)"/>
      </defs>
      <use xlink:href="#DejaVuSans-54"/>
      <use xlink:href="#DejaVuSans-69" transform="translate(57.958984 0)"/>
      <use xlink:href="#DejaVuSans-6d" transform="translate(85.742188 0)"/>
      <use xlink:href="#DejaVuSans-65" transform="translate(183.154297 0)"/>
      <use xlink:href="#DejaVuSans-20" transform="translate(244.677734 0)"/>
      <use xlink:href="#DejaVuSans-28" transform="translate(276.464844 0)"/>
      <use xlink:href="#DejaVuSans-73" transform="translate(315.478516 0)"/>
      <use xlink:href="#DejaVuSans-29" transform="translate(367.578125 0)"/>
     </g>
    </g>
   </g>
   <g id="matplotlib.axis_6">
    <g id="ytick_14">
     <g id="line2d_79">
      <path d="M 48.015 513.86333 
L 704.995 513.86333 
" clip-path="url(#pe7a83bb000)" style="fill: none; stroke: #b0b0b0; stroke-opacity: 0.3; stroke-width: 0.8; stroke-linecap: square"/>
     </g>
     <g id="line2d_80">
      <g>
       <use xlink:href="#m2ff3a4be81" x="48.015" y="513.86333" style="stroke: #000000; stroke-width: 0.8"/>
      </g>
     </g>
     <g id="text_26">
      <!-- −2 -->
      <g transform="translate(26.272813 517.662548) scale(0.1 -0.1)">
       <use xlink:href="#DejaVuSans-2212"/>
       <use xlink:href="#DejaVuSans-32" transform="translate(83.789062 0)"/>
      </g>
     </g>
    </g>
    <g id="ytick_15">
     <g id="line2d_81">
      <path d="M 48.015 470.413558 
L 704.995 470.413558 
" clip-path="url(#pe7a83bb000)" style="fill: none; stroke: #b0b0b0; stroke-opacity: 0.3; stroke-width: 0.8; stroke-linecap: square"/>
     </g>
     <g id="line2d_82">
      <g>
       <use xlink:href="#m2ff3a4be81" x="48.015" y="470.413558" style="stroke: #000000; stroke-width: 0.8"/>
      </g>
     </g>
     <g id="text_27">
      <!-- −1 -->
      <g transform="translate(26.272813 474.212776) scale(0.1 -0.1)">
       <use xlink:href="#DejaVuSans-2212"/>
       <use xlink:href="#DejaVuSans-31" transform="translate(83.789062 0)"/>
      </g>
     </g>
    </g>
    <g id="ytick_16">
     <g id="line2d_83">
      <path d="M 48.015 426.963786 
L 704.995 426.963786 
" clip-path="url(#pe7a83bb000)" style="fill: none; stroke: #b0b0b0; stroke-opacity: 0.3; stroke-width: 0.8; stroke-linecap: square"/>
     </g>
     <g id="line2d_84">
      <g>
       <use xlink:href="#m2ff3a4be81" x="48.015" y="426.963786" style="stroke: #000000; stroke-width: 0.8"/>
      </g>
     </g>
     <g id="text_28">
      <!-- 0 -->
      <g transform="translate(34.6525 430.763004) scale(0.1 -0.1)">
       <use xlink:href="#DejaVuSans-30"/>
      </g>
     </g>
    </g>
    <g id="ytick_17">
     <g id="line2d_85">
      <path d="M 48.015 383.514013 
L 704.995 383.514013 
" clip-path="url(#pe7a83bb000)" style="fill: none; stroke: #b0b0b0; stroke-opacity: 0.3; stroke-width: 0.8; stroke-linecap: square"/>
     </g>
     <g id="line2d_86">
      <g>
       <use xlink:href="#m2ff3a4be81" x="48.015" y="383.514013" style="stroke: #000000; stroke-width: 0.8"/>
      </g>
     </g>
     <g id="text_29">
      <!-- 1 -->
      <g transform="translate(34.6525 387.313232) scale(0.1 -0.1)">
       <use xlink:href="#DejaVuSans-31"/>
      </g>
     </g>
    </g>
    <g id="text_30">
     <!-- Yaw (deg) -->
     <g transform="translate(20.401094 473.831641) rotate(-90) scale(0.09 -0.09)">
      <defs>
       <path id="DejaVuSans-59" d="M -13 4666 
L 666 4666 
L 1959 2747 
L 3244 4666 
L 3922 4666 
L 2272 2222 
L 2272 0 
L 1638 0 
L 1638 2222 
L -13 4666 
z
" transform="scale(0.015625)"/>
       <path id="DejaVuSans-61" d="M 2194 1759 
Q 1497 1759 1228 1600 
Q 959 1441 959 1056 
Q 959 750 1161 570 
Q 1363 391 1709 391 
Q 2188 391 2477 730 
Q 2766 1069 2766 1631 
L 2766 1759 
L 2194 1759 
z
M 3341 1997 
L 3341 0 
L 2766 0 
L 2766 531 
Q 2569 213 2275 61 
Q 1981 -91 1556 -91 
Q 1019 -91 701 211 
Q 384 513 384 1019 
Q 384 1609 779 1909 
Q 1175 2209 1959 2209 
L 2766 2209 
L 2766 2266 
Q 2766 2663 2505 2880 
Q 2244 3097 1772 3097 
Q 1472 3097 1187 3025 
Q 903 2953 641 2809 
L 641 3341 
Q 956 3463 1253 3523 
Q 1550 3584 1831 3584 
Q 2591 3584 2966 3190 
Q 3341 2797 3341 1997 
z
" transform="scale(0.015625)"/>
       <path id="DejaVuSans-77" d="M 269 3500 
L 844 3500 
L 1563 769 
L 2278 3500 
L 2956 3500 
L 3675 769 
L 4391 3500 
L 4966 3500 
L 4050 0 
L 3372 0 
L 2619 2869 
L 1863 0 
L 1184 0 
L 269 3500 
z
" transform="scale(0.015625)"/>
      </defs>
      <use xlink:href="#DejaVuSans-59"/>
      <use xlink:href="#DejaVuSans-61" transform="translate(47.333984 0)"/>
      <use xlink:href="#DejaVuSans-77" transform="translate(108.613281 0)"/>
      <use xlink:href="#DejaVuSans-20" transform="translate(190.400391 0)"/>
      <use xlink:href="#DejaVuSans-28" transform="translate(222.1875 0)"/>
      <use xlink:href="#DejaVuSans-64" transform="translate(261.201172 0)"/>
      <use xlink:href="#DejaVuSans-65" transform="translate(324.677734 0)"/>
      <use xlink:href="#DejaVuSans-67" transform="translate(386.201172 0)"/>
      <use xlink:href="#DejaVuSans-29" transform="translate(449.677734 0)"/>
     </g>
    </g>
   </g>
   <g id="line2d_87">
    <path d="M 77.877727 426.963786 
L 183.247744 427.073323 
L 184.04407 427.377041 
L 185.079548 428.039245 
L 186.592715 429.313863 
L 189.937784 432.29627 
L 191.689984 433.533546 
L 193.282993 434.360056 
L 194.557087 434.805675 
L 195.831519 435.059602 
L 197.26516 435.126819 
L 198.778306 434.969981 
L 200.212306 434.638879 
L 202.043791 434.006549 
L 204.592595 432.851426 
L 214.149877 428.186124 
L 216.30012 427.431809 
L 218.7692 426.772095 
L 221.398046 426.30905 
L 224.264771 426.052633 
L 228.406784 426.030227 
L 233.105233 426.286645 
L 235.176289 426.433524 
L 235.574313 434.596557 
L 237.007635 470.728994 
L 238.122658 495.945024 
L 238.919183 509.510247 
L 239.556877 517.110656 
L 240.113931 521.273081 
L 240.511994 522.846438 
L 240.830751 523.292056 
L 240.989901 523.252224 
L 241.228994 522.876311 
L 241.547532 521.803342 
L 241.945655 519.607613 
L 242.503107 515.086702 
L 243.220226 507.16266 
L 244.175682 493.826469 
L 245.768672 467.813803 
L 248.078283 430.581012 
L 249.352655 413.510589 
L 250.468037 401.466444 
L 251.423452 393.430375 
L 252.299462 387.881305 
L 253.016403 384.565306 
L 253.654096 382.479114 
L 254.210871 381.271712 
L 254.688738 380.654319 
L 255.166625 380.395412 
L 255.565087 380.432755 
L 255.96321 380.676725 
L 256.520662 381.341418 
L 257.158196 382.50152 
L 257.95502 384.458258 
L 258.989682 387.649782 
L 260.424219 392.865261 
L 265.680757 412.669142 
L 267.273647 417.421576 
L 268.627545 420.757491 
L 269.822073 423.152379 
L 270.937475 424.934852 
L 271.972575 426.219428 
L 273.008013 427.175392 
L 273.963588 427.792785 
L 274.919501 428.183635 
L 276.034545 428.390262 
L 277.229272 428.362878 
L 278.583488 428.084055 
L 280.096754 427.551305 
L 282.24608 426.560488 
L 287.343071 424.153153 
L 290.051502 423.246979 
L 292.44018 422.759039 
L 294.9093 422.55988 
L 296.979978 422.599712 
L 299.687951 422.876045 
L 304.148144 423.68015 
L 312.113074 425.310765 
L 319.441166 426.331455 
L 324.616686 426.707368 
L 335.448659 426.936401 
L 675.132273 426.963786 
L 675.132273 426.963786 
" clip-path="url(#pe7a83bb000)" style="fill: none; stroke: #1abc9c; stroke-width: 1.8; stroke-linecap: square"/>
   </g>
   <g id="line2d_88">
    <path d="M 133.469781 530.44 
L 133.469781 373.24 
" clip-path="url(#pe7a83bb000)" style="fill: none; stroke-dasharray: 1,1.65; stroke-dashoffset: 0; stroke: #e67e22; stroke-opacity: 0.8"/>
   </g>
   <g id="line2d_89">
    <path d="M 182.690193 530.44 
L 182.690193 373.24 
" clip-path="url(#pe7a83bb000)" style="fill: none; stroke-dasharray: 1,1.65; stroke-dashoffset: 0; stroke: #2ecc71; stroke-opacity: 0.8"/>
   </g>
   <g id="line2d_90">
    <path d="M 235.096167 530.44 
L 235.096167 373.24 
" clip-path="url(#pe7a83bb000)" style="fill: none; stroke-dasharray: 1,1.65; stroke-dashoffset: 0; stroke: #9b59b6; stroke-opacity: 0.8"/>
   </g>
   <g id="patch_11">
    <path d="M 48.015 530.44 
L 48.015 373.24 
" style="fill: none; stroke: #000000; stroke-width: 0.8; stroke-linejoin: miter; stroke-linecap: square"/>
   </g>
   <g id="patch_12">
    <path d="M 48.015 530.44 
L 704.995 530.44 
" style="fill: none; stroke: #000000; stroke-width: 0.8; stroke-linejoin: miter; stroke-linecap: square"/>
   </g>
   <g id="legend_3">
    <g id="patch_13">
     <path d="M 658.56375 391.3825 
L 699.395 391.3825 
Q 700.995 391.3825 700.995 389.7825 
L 700.995 378.84 
Q 700.995 377.24 699.395 377.24 
L 658.56375 377.24 
Q 656.96375 377.24 656.96375 378.84 
L 656.96375 389.7825 
Q 656.96375 391.3825 658.56375 391.3825 
z
" style="fill: #ffffff; opacity: 0.8; stroke: #cccccc; stroke-linejoin: miter"/>
    </g>
    <g id="line2d_91">
     <path d="M 660.16375 383.71875 
L 668.16375 383.71875 
L 676.16375 383.71875 
" style="fill: none; stroke: #1abc9c; stroke-width: 1.8; stroke-linecap: square"/>
    </g>
    <g id="text_31">
     <!-- Yaw -->
     <g transform="translate(682.56375 386.51875) scale(0.08 -0.08)">
      <use xlink:href="#DejaVuSans-59"/>
      <use xlink:href="#DejaVuSans-61" transform="translate(47.333984 0)"/>
      <use xlink:href="#DejaVuSans-77" transform="translate(108.613281 0)"/>
     </g>
    </g>
   </g>
  </g>
  <g id="text_32">
   <!-- Kernel: preempt_rt | Policy: rr_p99 | Load: stress — Attitude Response -->
   <g transform="translate(118.631875 16.370625) scale(0.12 -0.12)">
    <defs>
     <path id="DejaVuSans-Bold-4b" d="M 588 4666 
L 1791 4666 
L 1791 2963 
L 3525 4666 
L 4922 4666 
L 2675 2456 
L 5153 0 
L 3647 0 
L 1791 1838 
L 1791 0 
L 588 0 
L 588 4666 
z
" transform="scale(0.015625)"/>
     <path id="DejaVuSans-Bold-65" d="M 4031 1759 
L 4031 1441 
L 1416 1441 
Q 1456 1047 1700 850 
Q 1944 653 2381 653 
Q 2734 653 3104 758 
Q 3475 863 3866 1075 
L 3866 213 
Q 3469 63 3072 -14 
Q 2675 -91 2278 -91 
Q 1328 -91 801 392 
Q 275 875 275 1747 
Q 275 2603 792 3093 
Q 1309 3584 2216 3584 
Q 3041 3584 3536 3087 
Q 4031 2591 4031 1759 
z
M 2881 2131 
Q 2881 2450 2695 2645 
Q 2509 2841 2209 2841 
Q 1884 2841 1681 2658 
Q 1478 2475 1428 2131 
L 2881 2131 
z
" transform="scale(0.015625)"/>
     <path id="DejaVuSans-Bold-72" d="M 3138 2547 
Q 2991 2616 2845 2648 
Q 2700 2681 2553 2681 
Q 2122 2681 1889 2404 
Q 1656 2128 1656 1613 
L 1656 0 
L 538 0 
L 538 3500 
L 1656 3500 
L 1656 2925 
Q 1872 3269 2151 3426 
Q 2431 3584 2822 3584 
Q 2878 3584 2943 3579 
Q 3009 3575 3134 3559 
L 3138 2547 
z
" transform="scale(0.015625)"/>
     <path id="DejaVuSans-Bold-6e" d="M 4056 2131 
L 4056 0 
L 2931 0 
L 2931 347 
L 2931 1631 
Q 2931 2084 2911 2256 
Q 2891 2428 2841 2509 
Q 2775 2619 2662 2680 
Q 2550 2741 2406 2741 
Q 2056 2741 1856 2470 
Q 1656 2200 1656 1722 
L 1656 0 
L 538 0 
L 538 3500 
L 1656 3500 
L 1656 2988 
Q 1909 3294 2193 3439 
Q 2478 3584 2822 3584 
Q 3428 3584 3742 3212 
Q 4056 2841 4056 2131 
z
" transform="scale(0.015625)"/>
     <path id="DejaVuSans-Bold-6c" d="M 538 4863 
L 1656 4863 
L 1656 0 
L 538 0 
L 538 4863 
z
" transform="scale(0.015625)"/>
     <path id="DejaVuSans-Bold-3a" d="M 716 3500 
L 1844 3500 
L 1844 2291 
L 716 2291 
L 716 3500 
z
M 716 1209 
L 1844 1209 
L 1844 0 
L 716 0 
L 716 1209 
z
" transform="scale(0.015625)"/>
     <path id="DejaVuSans-Bold-20" transform="scale(0.015625)"/>
     <path id="DejaVuSans-Bold-70" d="M 1656 506 
L 1656 -1331 
L 538 -1331 
L 538 3500 
L 1656 3500 
L 1656 2988 
Q 1888 3294 2169 3439 
Q 2450 3584 2816 3584 
Q 3463 3584 3878 3070 
Q 4294 2556 4294 1747 
Q 4294 938 3878 423 
Q 3463 -91 2816 -91 
Q 2450 -91 2169 54 
Q 1888 200 1656 506 
z
M 2400 2772 
Q 2041 2772 1848 2508 
Q 1656 2244 1656 1747 
Q 1656 1250 1848 986 
Q 2041 722 2400 722 
Q 2759 722 2948 984 
Q 3138 1247 3138 1747 
Q 3138 2247 2948 2509 
Q 2759 2772 2400 2772 
z
" transform="scale(0.015625)"/>
     <path id="DejaVuSans-Bold-6d" d="M 3781 2919 
Q 3994 3244 4286 3414 
Q 4578 3584 4928 3584 
Q 5531 3584 5847 3212 
Q 6163 2841 6163 2131 
L 6163 0 
L 5038 0 
L 5038 1825 
Q 5041 1866 5042 1909 
Q 5044 1953 5044 2034 
Q 5044 2406 4934 2573 
Q 4825 2741 4581 2741 
Q 4263 2741 4089 2478 
Q 3916 2216 3909 1719 
L 3909 0 
L 2784 0 
L 2784 1825 
Q 2784 2406 2684 2573 
Q 2584 2741 2328 2741 
Q 2006 2741 1831 2477 
Q 1656 2213 1656 1722 
L 1656 0 
L 531 0 
L 531 3500 
L 1656 3500 
L 1656 2988 
Q 1863 3284 2130 3434 
Q 2397 3584 2719 3584 
Q 3081 3584 3359 3409 
Q 3638 3234 3781 2919 
z
" transform="scale(0.015625)"/>
     <path id="DejaVuSans-Bold-74" d="M 1759 4494 
L 1759 3500 
L 2913 3500 
L 2913 2700 
L 1759 2700 
L 1759 1216 
Q 1759 972 1856 886 
Q 1953 800 2241 800 
L 2816 800 
L 2816 0 
L 1856 0 
Q 1194 0 917 276 
Q 641 553 641 1216 
L 641 2700 
L 84 2700 
L 84 3500 
L 641 3500 
L 641 4494 
L 1759 4494 
z
" transform="scale(0.015625)"/>
     <path id="DejaVuSans-Bold-5f" d="M 3200 -916 
L 3200 -1509 
L 0 -1509 
L 0 -916 
L 3200 -916 
z
" transform="scale(0.015625)"/>
     <path id="DejaVuSans-Bold-7c" d="M 1522 4891 
L 1522 -1509 
L 813 -1509 
L 813 4891 
L 1522 4891 
z
" transform="scale(0.015625)"/>
     <path id="DejaVuSans-Bold-50" d="M 588 4666 
L 2584 4666 
Q 3475 4666 3951 4270 
Q 4428 3875 4428 3144 
Q 4428 2409 3951 2014 
Q 3475 1619 2584 1619 
L 1791 1619 
L 1791 0 
L 588 0 
L 588 4666 
z
M 1791 3794 
L 1791 2491 
L 2456 2491 
Q 2806 2491 2997 2661 
Q 3188 2831 3188 3144 
Q 3188 3456 2997 3625 
Q 2806 3794 2456 3794 
L 1791 3794 
z
" transform="scale(0.015625)"/>
     <path id="DejaVuSans-Bold-6f" d="M 2203 2784 
Q 1831 2784 1636 2517 
Q 1441 2250 1441 1747 
Q 1441 1244 1636 976 
Q 1831 709 2203 709 
Q 2569 709 2762 976 
Q 2956 1244 2956 1747 
Q 2956 2250 2762 2517 
Q 2569 2784 2203 2784 
z
M 2203 3584 
Q 3106 3584 3614 3096 
Q 4122 2609 4122 1747 
Q 4122 884 3614 396 
Q 3106 -91 2203 -91 
Q 1297 -91 786 396 
Q 275 884 275 1747 
Q 275 2609 786 3096 
Q 1297 3584 2203 3584 
z
" transform="scale(0.015625)"/>
     <path id="DejaVuSans-Bold-69" d="M 538 3500 
L 1656 3500 
L 1656 0 
L 538 0 
L 538 3500 
z
M 538 4863 
L 1656 4863 
L 1656 3950 
L 538 3950 
L 538 4863 
z
" transform="scale(0.015625)"/>
     <path id="DejaVuSans-Bold-63" d="M 3366 3391 
L 3366 2478 
Q 3138 2634 2908 2709 
Q 2678 2784 2431 2784 
Q 1963 2784 1702 2511 
Q 1441 2238 1441 1747 
Q 1441 1256 1702 982 
Q 1963 709 2431 709 
Q 2694 709 2930 787 
Q 3166 866 3366 1019 
L 3366 103 
Q 3103 6 2833 -42 
Q 2563 -91 2291 -91 
Q 1344 -91 809 395 
Q 275 881 275 1747 
Q 275 2613 809 3098 
Q 1344 3584 2291 3584 
Q 2566 3584 2833 3536 
Q 3100 3488 3366 3391 
z
" transform="scale(0.015625)"/>
     <path id="DejaVuSans-Bold-79" d="M 78 3500 
L 1197 3500 
L 2138 1125 
L 2938 3500 
L 4056 3500 
L 2584 -331 
Q 2363 -916 2067 -1148 
Q 1772 -1381 1288 -1381 
L 641 -1381 
L 641 -647 
L 991 -647 
Q 1275 -647 1404 -556 
Q 1534 -466 1606 -231 
L 1638 -134 
L 78 3500 
z
" transform="scale(0.015625)"/>
     <path id="DejaVuSans-Bold-39" d="M 641 103 
L 641 966 
Q 928 831 1190 764 
Q 1453 697 1709 697 
Q 2247 697 2547 995 
Q 2847 1294 2900 1881 
Q 2688 1725 2447 1647 
Q 2206 1569 1925 1569 
Q 1209 1569 770 1986 
Q 331 2403 331 3084 
Q 331 3838 820 4291 
Q 1309 4744 2131 4744 
Q 3044 4744 3544 4128 
Q 4044 3513 4044 2388 
Q 4044 1231 3459 570 
Q 2875 -91 1856 -91 
Q 1528 -91 1228 -42 
Q 928 6 641 103 
z
M 2125 2350 
Q 2441 2350 2600 2554 
Q 2759 2759 2759 3169 
Q 2759 3575 2600 3781 
Q 2441 3988 2125 3988 
Q 1809 3988 1650 3781 
Q 1491 3575 1491 3169 
Q 1491 2759 1650 2554 
Q 1809 2350 2125 2350 
z
" transform="scale(0.015625)"/>
     <path id="DejaVuSans-Bold-4c" d="M 588 4666 
L 1791 4666 
L 1791 909 
L 3903 909 
L 3903 0 
L 588 0 
L 588 4666 
z
" transform="scale(0.015625)"/>
     <path id="DejaVuSans-Bold-61" d="M 2106 1575 
Q 1756 1575 1579 1456 
Q 1403 1338 1403 1106 
Q 1403 894 1545 773 
Q 1688 653 1941 653 
Q 2256 653 2472 879 
Q 2688 1106 2688 1447 
L 2688 1575 
L 2106 1575 
z
M 3816 1997 
L 3816 0 
L 2688 0 
L 2688 519 
Q 2463 200 2181 54 
Q 1900 -91 1497 -91 
Q 953 -91 614 226 
Q 275 544 275 1050 
Q 275 1666 698 1953 
Q 1122 2241 2028 2241 
L 2688 2241 
L 2688 2328 
Q 2688 2594 2478 2717 
Q 2269 2841 1825 2841 
Q 1466 2841 1156 2769 
Q 847 2697 581 2553 
L 581 3406 
Q 941 3494 1303 3539 
Q 1666 3584 2028 3584 
Q 2975 3584 3395 3211 
Q 3816 2838 3816 1997 
z
" transform="scale(0.015625)"/>
     <path id="DejaVuSans-Bold-64" d="M 2919 2988 
L 2919 4863 
L 4044 4863 
L 4044 0 
L 2919 0 
L 2919 506 
Q 2688 197 2409 53 
Q 2131 -91 1766 -91 
Q 1119 -91 703 423 
Q 288 938 288 1747 
Q 288 2556 703 3070 
Q 1119 3584 1766 3584 
Q 2128 3584 2408 3439 
Q 2688 3294 2919 2988 
z
M 2181 722 
Q 2541 722 2730 984 
Q 2919 1247 2919 1747 
Q 2919 2247 2730 2509 
Q 2541 2772 2181 2772 
Q 1825 2772 1636 2509 
Q 1447 2247 1447 1747 
Q 1447 1247 1636 984 
Q 1825 722 2181 722 
z
" transform="scale(0.015625)"/>
     <path id="DejaVuSans-Bold-73" d="M 3272 3391 
L 3272 2541 
Q 2913 2691 2578 2766 
Q 2244 2841 1947 2841 
Q 1628 2841 1473 2761 
Q 1319 2681 1319 2516 
Q 1319 2381 1436 2309 
Q 1553 2238 1856 2203 
L 2053 2175 
Q 2913 2066 3209 1816 
Q 3506 1566 3506 1031 
Q 3506 472 3093 190 
Q 2681 -91 1863 -91 
Q 1516 -91 1145 -36 
Q 775 19 384 128 
L 384 978 
Q 719 816 1070 734 
Q 1422 653 1784 653 
Q 2113 653 2278 743 
Q 2444 834 2444 1013 
Q 2444 1163 2330 1236 
Q 2216 1309 1875 1350 
L 1678 1375 
Q 931 1469 631 1722 
Q 331 1975 331 2491 
Q 331 3047 712 3315 
Q 1094 3584 1881 3584 
Q 2191 3584 2531 3537 
Q 2872 3491 3272 3391 
z
" transform="scale(0.015625)"/>
     <path id="DejaVuSans-Bold-2014" d="M 344 2156 
L 6056 2156 
L 6056 1350 
L 344 1350 
L 344 2156 
z
" transform="scale(0.015625)"/>
     <path id="DejaVuSans-Bold-41" d="M 3419 850 
L 1538 850 
L 1241 0 
L 31 0 
L 1759 4666 
L 3194 4666 
L 4922 0 
L 3713 0 
L 3419 850 
z
M 1838 1716 
L 3116 1716 
L 2478 3572 
L 1838 1716 
z
" transform="scale(0.015625)"/>
     <path id="DejaVuSans-Bold-75" d="M 500 1363 
L 500 3500 
L 1625 3500 
L 1625 3150 
Q 1625 2866 1622 2436 
Q 1619 2006 1619 1863 
Q 1619 1441 1641 1255 
Q 1663 1069 1716 984 
Q 1784 875 1895 815 
Q 2006 756 2150 756 
Q 2500 756 2700 1025 
Q 2900 1294 2900 1772 
L 2900 3500 
L 4019 3500 
L 4019 0 
L 2900 0 
L 2900 506 
Q 2647 200 2364 54 
Q 2081 -91 1741 -91 
Q 1134 -91 817 281 
Q 500 653 500 1363 
z
" transform="scale(0.015625)"/>
     <path id="DejaVuSans-Bold-52" d="M 2297 2597 
Q 2675 2597 2839 2737 
Q 3003 2878 3003 3200 
Q 3003 3519 2839 3656 
Q 2675 3794 2297 3794 
L 1791 3794 
L 1791 2597 
L 2297 2597 
z
M 1791 1766 
L 1791 0 
L 588 0 
L 588 4666 
L 2425 4666 
Q 3347 4666 3776 4356 
Q 4206 4047 4206 3378 
Q 4206 2916 3982 2619 
Q 3759 2322 3309 2181 
Q 3556 2125 3751 1926 
Q 3947 1728 4147 1325 
L 4800 0 
L 3519 0 
L 2950 1159 
Q 2778 1509 2601 1637 
Q 2425 1766 2131 1766 
L 1791 1766 
z
" transform="scale(0.015625)"/>
    </defs>
    <use xlink:href="#DejaVuSans-Bold-4b"/>
    <use xlink:href="#DejaVuSans-Bold-65" transform="translate(75.740234 0)"/>
    <use xlink:href="#DejaVuSans-Bold-72" transform="translate(143.5625 0)"/>
    <use xlink:href="#DejaVuSans-Bold-6e" transform="translate(192.878906 0)"/>
    <use xlink:href="#DejaVuSans-Bold-65" transform="translate(264.070312 0)"/>
    <use xlink:href="#DejaVuSans-Bold-6c" transform="translate(331.892578 0)"/>
    <use xlink:href="#DejaVuSans-Bold-3a" transform="translate(366.169922 0)"/>
    <use xlink:href="#DejaVuSans-Bold-20" transform="translate(406.160156 0)"/>
    <use xlink:href="#DejaVuSans-Bold-70" transform="translate(440.974609 0)"/>
    <use xlink:href="#DejaVuSans-Bold-72" transform="translate(512.556641 0)"/>
    <use xlink:href="#DejaVuSans-Bold-65" transform="translate(561.873047 0)"/>
    <use xlink:href="#DejaVuSans-Bold-65" transform="translate(629.695312 0)"/>
    <use xlink:href="#DejaVuSans-Bold-6d" transform="translate(697.517578 0)"/>
    <use xlink:href="#DejaVuSans-Bold-70" transform="translate(801.716797 0)"/>
    <use xlink:href="#DejaVuSans-Bold-74" transform="translate(873.298828 0)"/>
    <use xlink:href="#DejaVuSans-Bold-5f" transform="translate(921.101562 0)"/>
    <use xlink:href="#DejaVuSans-Bold-72" transform="translate(971.101562 0)"/>
    <use xlink:href="#DejaVuSans-Bold-74" transform="translate(1020.417969 0)"/>
    <use xlink:href="#DejaVuSans-Bold-20" transform="translate(1068.220703 0)"/>
    <use xlink:href="#DejaVuSans-Bold-7c" transform="translate(1103.035156 0)"/>
    <use xlink:href="#DejaVuSans-Bold-20" transform="translate(1139.558594 0)"/>
    <use xlink:href="#DejaVuSans-Bold-50" transform="translate(1174.373047 0)"/>
    <use xlink:href="#DejaVuSans-Bold-6f" transform="translate(1247.664062 0)"/>
    <use xlink:href="#DejaVuSans-Bold-6c" transform="translate(1316.365234 0)"/>
    <use xlink:href="#DejaVuSans-Bold-69" transform="translate(1350.642578 0)"/>
    <use xlink:href="#DejaVuSans-Bold-63" transform="translate(1384.919922 0)"/>
    <use xlink:href="#DejaVuSans-Bold-79" transform="translate(1444.197266 0)"/>
    <use xlink:href="#DejaVuSans-Bold-3a" transform="translate(1509.382812 0)"/>
    <use xlink:href="#DejaVuSans-Bold-20" transform="translate(1549.373047 0)"/>
    <use xlink:href="#DejaVuSans-Bold-72" transform="translate(1584.1875 0)"/>
    <use xlink:href="#DejaVuSans-Bold-72" transform="translate(1633.503906 0)"/>
    <use xlink:href="#DejaVuSans-Bold-5f" transform="translate(1682.820312 0)"/>
    <use xlink:href="#DejaVuSans-Bold-70" transform="translate(1732.820312 0)"/>
    <use xlink:href="#DejaVuSans-Bold-39" transform="translate(1804.402344 0)"/>
    <use xlink:href="#DejaVuSans-Bold-39" transform="translate(1873.982422 0)"/>
    <use xlink:href="#DejaVuSans-Bold-20" transform="translate(1943.5625 0)"/>
    <use xlink:href="#DejaVuSans-Bold-7c" transform="translate(1978.376953 0)"/>
    <use xlink:href="#DejaVuSans-Bold-20" transform="translate(2014.900391 0)"/>
    <use xlink:href="#DejaVuSans-Bold-4c" transform="translate(2049.714844 0)"/>
    <use xlink:href="#DejaVuSans-Bold-6f" transform="translate(2113.435547 0)"/>
    <use xlink:href="#DejaVuSans-Bold-61" transform="translate(2182.136719 0)"/>
    <use xlink:href="#DejaVuSans-Bold-64" transform="translate(2249.617188 0)"/>
    <use xlink:href="#DejaVuSans-Bold-3a" transform="translate(2321.199219 0)"/>
    <use xlink:href="#DejaVuSans-Bold-20" transform="translate(2361.189453 0)"/>
    <use xlink:href="#DejaVuSans-Bold-73" transform="translate(2396.003906 0)"/>
    <use xlink:href="#DejaVuSans-Bold-74" transform="translate(2455.525391 0)"/>
    <use xlink:href="#DejaVuSans-Bold-72" transform="translate(2503.328125 0)"/>
    <use xlink:href="#DejaVuSans-Bold-65" transform="translate(2552.644531 0)"/>
    <use xlink:href="#DejaVuSans-Bold-73" transform="translate(2620.466797 0)"/>
    <use xlink:href="#DejaVuSans-Bold-73" transform="translate(2679.988281 0)"/>
    <use xlink:href="#DejaVuSans-Bold-20" transform="translate(2739.509766 0)"/>
    <use xlink:href="#DejaVuSans-Bold-2014" transform="translate(2774.324219 0)"/>
    <use xlink:href="#DejaVuSans-Bold-20" transform="translate(2874.324219 0)"/>
    <use xlink:href="#DejaVuSans-Bold-41" transform="translate(2909.138672 0)"/>
    <use xlink:href="#DejaVuSans-Bold-74" transform="translate(2986.53125 0)"/>
    <use xlink:href="#DejaVuSans-Bold-74" transform="translate(3034.333984 0)"/>
    <use xlink:href="#DejaVuSans-Bold-69" transform="translate(3082.136719 0)"/>
    <use xlink:href="#DejaVuSans-Bold-74" transform="translate(3116.414062 0)"/>
    <use xlink:href="#DejaVuSans-Bold-75" transform="translate(3164.216797 0)"/>
    <use xlink:href="#DejaVuSans-Bold-64" transform="translate(3235.408203 0)"/>
    <use xlink:href="#DejaVuSans-Bold-65" transform="translate(3306.990234 0)"/>
    <use xlink:href="#DejaVuSans-Bold-20" transform="translate(3374.8125 0)"/>
    <use xlink:href="#DejaVuSans-Bold-52" transform="translate(3409.626953 0)"/>
    <use xlink:href="#DejaVuSans-Bold-65" transform="translate(3486.628906 0)"/>
    <use xlink:href="#DejaVuSans-Bold-73" transform="translate(3554.451172 0)"/>
    <use xlink:href="#DejaVuSans-Bold-70" transform="translate(3613.972656 0)"/>
    <use xlink:href="#DejaVuSans-Bold-6f" transform="translate(3685.554688 0)"/>
    <use xlink:href="#DejaVuSans-Bold-6e" transform="translate(3754.255859 0)"/>
    <use xlink:href="#DejaVuSans-Bold-73" transform="translate(3825.447266 0)"/>
    <use xlink:href="#DejaVuSans-Bold-65" transform="translate(3884.96875 0)"/>
   </g>
  </g>
 </g>
 <defs>
  <clipPath id="pe92dd936f0">
   <rect x="48.015" y="30.24" width="656.98" height="157.2"/>
  </clipPath>
  <clipPath id="p5b1791591c">
   <rect x="48.015" y="201.74" width="656.98" height="157.2"/>
  </clipPath>
  <clipPath id="pe7a83bb000">
   <rect x="48.015" y="373.24" width="656.98" height="157.2"/>
  </clipPath>
 </defs>
</svg>
